<?xml version="1.0" encoding="iso-8859-1"?>
<!-- Generator: Adobe Illustrator 19.0.0, SVG Export Plug-In . SVG Version: 6.00 Build 0)  -->
<svg version="1.1" id="Layer_1" xmlns="http://www.w3.org/2000/svg" xmlns:xlink="http://www.w3.org/1999/xlink" x="0px" y="0px"
	 viewBox="0 0 512 512" style="enable-background:new 0 0 512 512;" xml:space="preserve">
<circle style="fill:#FFD55C;" cx="256" cy="256" r="256"/>
<rect x="95.691" y="190.457" style="fill:#FFFFFF;" width="320.611" height="38.469"/>
<g>
	<polygon style="fill:#242D3C;" points="198.659,228.93 160.18,190.457 123.904,190.457 162.38,228.93 	"/>
	<polygon style="fill:#242D3C;" points="271.211,228.93 232.729,190.457 196.459,190.457 234.935,228.93 	"/>
	<polygon style="fill:#242D3C;" points="343.76,228.93 305.284,190.457 269.008,190.457 307.484,228.93 	"/>
	<polygon style="fill:#242D3C;" points="416.309,228.93 377.833,190.457 341.56,190.457 380.033,228.93 	"/>
</g>
<rect x="89.91" y="124.46" transform="matrix(-0.9848 0.1735 -0.1735 -0.9848 521.5578 241.7991)" style="fill:#FFFFFF;" width="320.6" height="38.471"/>
<g>
	<polygon style="fill:#242D3C;" points="190.418,134.696 159.199,179.266 123.478,185.562 154.697,140.995 	"/>
	<polygon style="fill:#242D3C;" points="261.87,122.117 230.651,166.684 194.93,172.98 226.142,128.413 	"/>
	<polygon style="fill:#242D3C;" points="333.322,109.535 302.11,154.102 266.382,160.388 297.594,115.831 	"/>
	<polygon style="fill:#242D3C;" points="404.774,96.943 373.549,141.51 337.824,147.813 369.053,103.239 	"/>
	<rect x="95.691" y="228.947" style="fill:#242D3C;" width="320.611" height="186.137"/>
</g>
<g>
	<rect x="124.218" y="386.378" style="fill:#FFFFFF;" width="87.839" height="4.007"/>
	<rect x="124.218" y="307.464" style="fill:#FFFFFF;" width="87.839" height="4.007"/>
	<path style="fill:#FFFFFF;" d="M301.905,390.372h-91.846v-82.891h91.849v82.891H301.905z M214.062,386.365h83.842v-74.878h-83.842
		V386.365z"/>
	<rect x="299.9" y="386.378" style="fill:#FFFFFF;" width="87.866" height="4.007"/>
	<rect x="299.9" y="307.464" style="fill:#FFFFFF;" width="87.866" height="4.007"/>
	<rect x="124.218" y="280.774" style="fill:#FFFFFF;" width="263.531" height="4.007"/>
	<rect x="255.339" y="282.789" style="fill:#FFFFFF;" width="4.004" height="26.69"/>
	<rect x="124.218" y="256.793" style="fill:#FFFFFF;" width="87.839" height="10.263"/>
</g>
<rect x="95.691" y="160.956" style="fill:#242D3C;" width="28.213" height="58.999"/>
<g>
	<circle style="fill:#FFFFFF;" cx="109.799" cy="175.699" r="3.211"/>
	<circle style="fill:#FFFFFF;" cx="109.799" cy="205.196" r="3.211"/>
</g>
<g>
</g>
<g>
</g>
<g>
</g>
<g>
</g>
<g>
</g>
<g>
</g>
<g>
</g>
<g>
</g>
<g>
</g>
<g>
</g>
<g>
</g>
<g>
</g>
<g>
</g>
<g>
</g>
<g>
</g>
</svg>
