<svg id="Layer_1" enable-background="new 0 0 510 510" height="512" viewBox="0 0 510 510" width="512" xmlns="http://www.w3.org/2000/svg" xmlns:xlink="http://www.w3.org/1999/xlink"><linearGradient id="lg1"><stop offset="0" stop-color="#ffc738"/><stop offset=".2344" stop-color="#fec33a"/><stop offset=".4454" stop-color="#fbb840"/><stop offset=".6474" stop-color="#f6a649"/><stop offset=".8426" stop-color="#f08d56"/><stop offset="1" stop-color="#e97264"/></linearGradient><linearGradient id="SVGID_1_" gradientUnits="userSpaceOnUse" x1="0" x2="510" xlink:href="#lg1" y1="255" y2="255"/><linearGradient id="lg2"><stop offset="0" stop-color="#fca17a" stop-opacity="0"/><stop offset=".152" stop-color="#f69373" stop-opacity=".152"/><stop offset=".416" stop-color="#ef816b" stop-opacity=".416"/><stop offset=".6926" stop-color="#ea7666" stop-opacity=".693"/><stop offset="1" stop-color="#e97264"/></linearGradient><linearGradient id="SVGID_2_" gradientUnits="userSpaceOnUse" x1="230.726" x2="440.321" xlink:href="#lg2" y1="208.32" y2="611.387"/><linearGradient id="lg3"><stop offset="0" stop-color="#e97264" stop-opacity="0"/><stop offset="1" stop-color="#b53759"/></linearGradient><linearGradient id="SVGID_3_" gradientUnits="userSpaceOnUse" x1="247.155" x2="222.399" xlink:href="#lg3" y1="334.576" y2="585.669"/><linearGradient id="SVGID_4_" gradientUnits="userSpaceOnUse" x1="204.494" x2="127.967" xlink:href="#lg3" y1="347.374" y2="487.337"/><radialGradient id="SVGID_5_" cx="183.8" cy="636.264" gradientTransform="matrix(1 0 0 .894 0 -506.044)" gradientUnits="userSpaceOnUse" r="480.789" xlink:href="#lg1"/><radialGradient id="SVGID_6_" cx="-4017.596" cy="-9948.266" gradientTransform="matrix(-1 0 0 -.894 -3746 -8613.867)" gradientUnits="userSpaceOnUse" r="335.409" xlink:href="#lg1"/><radialGradient id="SVGID_7_" cx="221.997" cy="702.132" gradientTransform="matrix(1 0 0 .894 0 -506.044)" gradientUnits="userSpaceOnUse" r="377.61" xlink:href="#lg1"/><linearGradient id="SVGID_8_" gradientUnits="userSpaceOnUse" x1="405.683" x2="46.723" xlink:href="#lg2" y1="338.49" y2="88.875"/><linearGradient id="lg4"><stop offset="0" stop-color="#91f27f"/><stop offset="1" stop-color="#4ab172"/></linearGradient><linearGradient id="SVGID_9_" gradientUnits="userSpaceOnUse" x1="241.291" x2="279.279" xlink:href="#lg4" y1="292.327" y2="301.064"/><linearGradient id="SVGID_10_" gradientUnits="userSpaceOnUse" x1="269.395" x2="226.87" y1="298.749" y2="288.031"><stop offset="0" stop-color="#91f27f" stop-opacity="0"/><stop offset="1" stop-color="#ffed82"/></linearGradient><linearGradient id="SVGID_11_" gradientUnits="userSpaceOnUse" x1="268.763" x2="241.679" y1="300.251" y2="293.425"><stop offset="0" stop-color="#4ab172" stop-opacity="0"/><stop offset="1" stop-color="#009145"/></linearGradient><linearGradient id="SVGID_12_" gradientUnits="userSpaceOnUse" x1="148.097" x2="361.081" xlink:href="#lg4" y1="108.555" y2="268.031"/><linearGradient id="lg5"><stop offset="0" stop-color="#92f37f" stop-opacity="0"/><stop offset="1" stop-color="#ffee83"/></linearGradient><linearGradient id="SVGID_13_" gradientUnits="userSpaceOnUse" x1="274.865" x2="205.188" xlink:href="#lg5" y1="132.219" y2="50.05"/><linearGradient id="lg6"><stop offset="0" stop-color="#005a01" stop-opacity="0"/><stop offset="1" stop-color="#005a01"/></linearGradient><linearGradient id="SVGID_14_" gradientUnits="userSpaceOnUse" x1="277.361" x2="217.475" xlink:href="#lg6" y1="127.874" y2="49.47"/><linearGradient id="SVGID_15_" gradientUnits="userSpaceOnUse" x1="278.622" x2="153.334" xlink:href="#lg5" y1="260.509" y2="223.868"/><linearGradient id="SVGID_16_" gradientTransform="matrix(1 0 0 -1 -80.338 680.553)" gradientUnits="userSpaceOnUse" x1="355.361" x2="319.281" xlink:href="#lg6" y1="420.146" y2="338.022"/><linearGradient id="SVGID_17_" gradientTransform="matrix(0 1 -1 0 -20.624 580.757)" gradientUnits="userSpaceOnUse" x1="-372.505" x2="-442.182" xlink:href="#lg5" y1="-331.793" y2="-413.961"/><linearGradient id="SVGID_18_" gradientTransform="matrix(0 1 -1 0 -20.624 580.757)" gradientUnits="userSpaceOnUse" x1="-377.344" x2="-413.424" xlink:href="#lg6" y1="-359.017" y2="-441.14"/><linearGradient id="SVGID_19_" gradientTransform="matrix(0 1 1 0 -734.133 580.757)" gradientUnits="userSpaceOnUse" x1="-372.505" x2="-442.182" xlink:href="#lg5" y1="932.964" y2="850.796"/><linearGradient id="SVGID_20_" gradientTransform="matrix(0 1 1 0 -734.133 580.757)" gradientUnits="userSpaceOnUse" x1="-377.344" x2="-413.424" xlink:href="#lg6" y1="905.741" y2="823.617"/><linearGradient id="SVGID_21_" gradientUnits="userSpaceOnUse" x1="367.941" x2="6.269" y1="346.468" y2="-32.762"><stop offset="0" stop-color="#ffd945" stop-opacity="0"/><stop offset="1" stop-color="#fbed21"/></linearGradient><path d="m510 228.045c0-125.946-114.167-228.045-255-228.045s-255 102.099-255 228.045v53.911c0 125.945 114.167 228.044 255 228.044s255-102.099 255-228.044c0-.177 0-53.735 0-53.911z" fill="url(#SVGID_1_)"/><path d="m465.016 98.693c-45.998-59.615-122.898-98.693-210.016-98.693s-164.017 39.078-210.016 98.693v312.615c45.999 59.614 122.898 98.692 210.016 98.692s164.018-39.078 210.016-98.692z" fill="url(#SVGID_2_)"/><path d="m105.434 466.655c42.017 27.259 93.687 43.345 149.566 43.345s107.549-16.086 149.567-43.345v-423.31c-42.018-27.259-93.688-43.345-149.567-43.345s-107.549 16.086-149.567 43.345v423.31z" fill="url(#SVGID_3_)"/><path d="m197.066 504.085c18.612 3.867 38.006 5.915 57.934 5.915s39.322-2.048 57.935-5.915v-498.17c-18.613-3.867-38.006-5.915-57.935-5.915s-39.322 2.048-57.935 5.915v498.17z" fill="url(#SVGID_4_)"/><ellipse cx="255" cy="228.044" fill="url(#SVGID_5_)" rx="255" ry="228.044"/><ellipse cx="255" cy="228.044" fill="url(#SVGID_6_)" rx="214.306" ry="191.652"/><ellipse cx="255" cy="228.044" fill="url(#SVGID_7_)" rx="194.009" ry="173.501"/><path d="m489.782 268.147-182.588-182.455c-12.889-13.071-33.944-13.229-47.028-.354l-4.992 4.913c-.409-.413-4.986-4.988-4.986-4.988-12.889-13.071-33.944-13.229-47.028-.354-13.084 12.876-13.242 33.911-.354 46.982l39.97 40.537c1.139 1.155.977 3.053-.34 3.999-1.045.75-2.479.639-3.395-.265l-40.537-39.97c-13.071-12.889-34.106-12.73-46.982.354s-12.718 34.139.353 47.028c0 0 4.575 4.577 4.988 4.986l-4.913 4.992c-12.876 13.084-12.718 34.139.353 47.028s89.393 89.719 89.837 90.207c-3.366 10.212-9.514 18.516-19.931 31.889-3.596 4.615-3.09 11.203 1.236 15.143l62.215 62.215c102.703-11.761 185.001-81.82 204.122-171.887z" fill="url(#SVGID_8_)"/><path d="m256.779 205.108c-6.151 0-11.137 4.986-11.137 11.137v85.121c0 29.989-5.143 37.836-23.431 61.312-3.596 4.615-3.09 11.203 1.236 15.143 4.772 4.346 12.262 3.764 16.234-1.324 21.396-27.402 28.235-40.099 28.235-75.131v-85.121c0-6.151-4.986-11.137-11.137-11.137z" fill="url(#SVGID_9_)"/><path d="m267.916 216.245c0-5.322-3.735-9.765-8.725-10.867-4.99 1.103-8.725 5.546-8.725 10.867v85.121c0 29.989-5.143 37.836-23.431 61.312-3.595 4.615-3.09 11.203 1.236 15.143 1.491 1.358 3.246 2.234 5.077 2.643 2.42-.527 4.682-1.851 6.334-3.967 21.396-27.402 28.235-40.099 28.235-75.131v-85.121z" fill="url(#SVGID_10_)"/><path d="m256.779 280.979c-6.151 0-11.137 4.986-11.137 11.137v3.238l21.549 21.104.725-24.342c0-6.151-4.986-11.137-11.137-11.137z" fill="url(#SVGID_11_)"/><path d="m353.102 188.527 5.022-4.952c13.071-12.889 13.229-33.944.353-47.028-12.876-13.084-33.911-13.242-46.982-.354l-40.34 39.777c-.999.986-2.595 1.017-3.633.072l-.405-.369c-1.12-1.02-1.154-2.772-.074-3.835l39.797-39.164c13.084-12.876 13.242-33.911.354-46.982-12.889-13.071-33.944-13.23-47.028-.353l-5.027 4.947-4.952-5.022c-12.889-13.071-33.944-13.229-47.028-.353-13.084 12.876-13.242 33.911-.354 46.982l39.971 40.537c1.139 1.155.977 3.053-.34 3.999-1.045.75-2.479.639-3.395-.265l-40.537-39.971c-13.071-12.889-34.106-12.73-46.982.354-12.876 13.084-12.718 34.139.353 47.028l5.022 4.952-4.947 5.027c-12.876 13.084-12.718 34.139.353 47.028 13.071 12.889 34.106 12.73 46.982-.354l39.763-40.405c1.061-1.078 2.809-1.046 3.831.07l.37.404c.949 1.037.919 2.636-.068 3.637l-40.377 40.949c-12.812 12.993-12.738 33.89.164 46.793l.002.002c13.057 13.057 34.25 12.983 47.215-.166l4.952-5.022 5.027 4.947c13.084 12.876 34.139 12.718 47.028-.353 12.889-13.071 12.73-34.106-.354-46.982l-40.121-39.484c-.95-.935-1.054-2.432-.243-3.489l.674-.879c.976-1.273 2.853-1.389 3.978-.245l39.585 40.224c12.876 13.084 33.911 13.242 46.982.354 13.071-12.889 13.229-33.944.353-47.028z" fill="url(#SVGID_12_)"/><path d="m254.53 174.844c-.928 0-1.798-.364-2.449-1.024l-45.249-45.889c-10.681-10.833-10.549-28.327.294-38.998 5.197-5.114 12.076-7.931 19.37-7.931 7.453 0 14.437 2.921 19.666 8.224l8.917 9.044 9.053-8.908c5.197-5.115 12.076-7.931 19.37-7.931 7.453 0 14.437 2.921 19.667 8.224 10.682 10.833 10.55 28.327-.294 38.998l-45.935 45.205c-.646.636-1.503.986-2.41.986z" fill="url(#SVGID_13_)"/><path d="m260.906 177.879 45.934-45.205c13.084-12.876 13.242-33.911.354-46.982-12.889-13.071-33.944-13.229-47.028-.353l-5.027 4.947v90.176c2.096-.14 4.154-.995 5.767-2.583z" fill="url(#SVGID_14_)"/><path d="m254.53 201.931c-.928 0-1.798.364-2.449 1.024l-45.249 45.889c-10.681 10.833-10.549 28.327.294 38.998 5.197 5.114 12.076 7.931 19.37 7.931 7.453 0 14.437-2.921 19.666-8.224l8.917-9.044 9.053 8.908c5.197 5.115 12.076 7.931 19.37 7.931 7.453 0 14.437-2.921 19.667-8.224 10.682-10.833 10.55-28.327-.294-38.998l-45.935-45.205c-.646-.636-1.503-.986-2.41-.986z" fill="url(#SVGID_15_)"/><path d="m260.906 198.896 45.934 45.205c13.084 12.876 13.242 33.911.354 46.982-12.889 13.071-33.944 13.229-47.028.353l-5.027-4.947v-90.176c2.096.14 4.154.995 5.767 2.583z" fill="url(#SVGID_16_)"/><path d="m268.543 187.917c0-.928.364-1.798 1.024-2.449l45.889-45.249c10.833-10.681 28.327-10.549 38.998.294 5.114 5.197 7.931 12.076 7.931 19.37 0 7.453-2.921 14.437-8.224 19.666l-9.044 8.917 8.908 9.053c5.115 5.197 7.931 12.076 7.931 19.37 0 7.453-2.921 14.437-8.224 19.667-10.833 10.682-28.327 10.55-38.998-.294l-45.205-45.935c-.635-.646-.986-1.502-.986-2.41z" fill="url(#SVGID_17_)"/><path d="m265.509 194.293 45.205 45.934c12.876 13.084 33.911 13.242 46.982.354 13.071-12.889 13.229-33.944.353-47.028l-4.947-5.027h-90.176c.14 2.096.995 4.154 2.583 5.767z" fill="url(#SVGID_18_)"/><path d="m241.457 187.917c0-.928-.364-1.798-1.024-2.449l-45.889-45.249c-10.833-10.681-28.327-10.549-38.998.294-5.114 5.197-7.931 12.076-7.931 19.37 0 7.453 2.921 14.437 8.224 19.666l9.044 8.917-8.908 9.053c-5.115 5.197-7.931 12.076-7.931 19.37 0 7.453 2.921 14.437 8.224 19.667 10.833 10.682 28.327 10.55 38.998-.294l45.205-45.935c.635-.646.986-1.502.986-2.41z" fill="url(#SVGID_19_)"/><path d="m244.492 194.293-45.205 45.934c-12.876 13.084-33.911 13.242-46.982.354-13.071-12.889-13.229-33.944-.353-47.028l4.947-5.027h90.176c-.14 2.096-.995 4.154-2.583 5.767z" fill="url(#SVGID_20_)"/><ellipse cx="255" cy="228.044" fill="url(#SVGID_21_)" rx="239.001" ry="213.736"/></svg>