<svg height="512" viewBox="0 0 64 64" width="512" xmlns="http://www.w3.org/2000/svg"><g id="_18-coins" data-name="18-coins"><path d="m32 22.5v3a1.5 1.5 0 0 1 -3 0v-7.5h3z" fill="#332a27"/><path d="m35 18v4.5a1.5 1.5 0 0 1 -3 0v-7.5h3z" fill="#756362"/><path d="m32 15v3h-7.5a1.5 1.5 0 0 1 0-3z" fill="#3d322f"/><path d="m36 15h4.5a1.5 1.5 0 0 1 0 3h-5.5v-3z" fill="#3d322f"/><path d="m40.5 15h-16a1.5 1.5 0 0 1 0-3h16a1.5 1.5 0 0 1 0 3z" fill="#635453"/><path d="m42 3-.08.25c-.63.99-4.83 1.75-9.92 1.75s-9.29-.76-9.92-1.75l-.08-.25c0-1.1 4.48-2 10-2s10 .9 10 2z" fill="#d69250"/><path d="m41.92 3.25-2.92 8.75h-14l-2.92-8.75c.63.99 4.83 1.75 9.92 1.75s9.29-.76 9.92-1.75z" fill="#ffc052"/><path d="m47 47h7a9 9 0 0 1 -3.97-17.07c-3.44-5.25-7.92-9.95-12.97-11.93h-2.06v4.5a1.5 1.5 0 0 1 -3 0v3a1.5 1.5 0 0 1 -3 0v-7.5h-2.06c-11.38 4.48-19.94 22.76-19.94 30 0 8.28 11.19 15 25 15a38.043 38.043 0 0 0 13-2.19h.01a1.9 1.9 0 0 1 .58-1.22 1.955 1.955 0 0 1 1.41-.59h-2a2.006 2.006 0 0 1 -2-2 2.015 2.015 0 0 1 2-2h2a2.006 2.006 0 0 1 -2-2 2.015 2.015 0 0 1 2-2 2.006 2.006 0 0 1 -2-2 2.015 2.015 0 0 1 2-2z" fill="#ffc052"/><circle cx="54" cy="38" fill="#f0a53b" r="6"/><path d="m61 59a2.006 2.006 0 0 1 2 2 2.015 2.015 0 0 1 -2 2h-14a2.006 2.006 0 0 1 -2-2 1.148 1.148 0 0 1 .01-.19 1.9 1.9 0 0 1 .58-1.22 1.955 1.955 0 0 1 1.41-.59z" fill="#f0a53b"/><path d="m59 55a2.006 2.006 0 0 1 2 2 2.015 2.015 0 0 1 -2 2h-14a2.006 2.006 0 0 1 -2-2 2.015 2.015 0 0 1 2-2z" fill="#ffc052"/><path d="m59 55h-12a2.006 2.006 0 0 1 -2-2 2.015 2.015 0 0 1 2-2h14a2.006 2.006 0 0 1 2 2 2.015 2.015 0 0 1 -2 2z" fill="#f0a53b"/><path d="m61 47a2.006 2.006 0 0 1 2 2 2.015 2.015 0 0 1 -2 2h-14a2.006 2.006 0 0 1 -2-2 2.015 2.015 0 0 1 2-2z" fill="#ffc052"/><path d="m63 38a9 9 0 1 1 -12.97-8.07 8.822 8.822 0 0 1 3.97-.93 9 9 0 0 1 9 9zm-9 6a6 6 0 1 0 -6-6 6 6 0 0 0 6 6z" fill="#ffc052"/><path d="m34 15v7a2 2 0 0 1 -1.189 1.825 1.483 1.483 0 0 0 .689.175 1.5 1.5 0 0 0 1.5-1.5v-7.5z" fill="#4d4140"/><path d="m40.5 14h-16a1.494 1.494 0 0 1 -1.409-1 1.488 1.488 0 0 0 1.409 2h16a1.488 1.488 0 0 0 1.409-2 1.494 1.494 0 0 1 -1.409 1z" fill="#4d4140"/><path d="m40.645 4a30.237 30.237 0 0 0 -8.645-1 30.237 30.237 0 0 0 -8.645 1 30.154 30.154 0 0 0 8.645 1 30.154 30.154 0 0 0 8.645-1z" fill="#83553d"/><path d="m47 47a2.015 2.015 0 0 0 -2 2 2.006 2.006 0 0 0 2 2h14a2.015 2.015 0 0 0 2-2h-14a2 2 0 0 1 -2-2z" fill="#ffaf3f"/><path d="m45 55a2.015 2.015 0 0 0 -2 2 2.006 2.006 0 0 0 2 2h14a2.015 2.015 0 0 0 2-2h-14a2 2 0 0 1 -2-2z" fill="#ffaf3f"/><path d="m47 51a2.015 2.015 0 0 0 -2 2 2.006 2.006 0 0 0 2 2h14a2.015 2.015 0 0 0 2-2h-14a2 2 0 0 1 -2-2z" fill="#d19034"/><path d="m47 59a2.015 2.015 0 0 0 -2 2 2.006 2.006 0 0 0 2 2h14a2.015 2.015 0 0 0 2-2h-14a2 2 0 0 1 -2-2z" fill="#d19034"/><path d="m40.01 60.81a1.9 1.9 0 0 1 .58-1.22 1.955 1.955 0 0 1 1.41-.59h-2a2.006 2.006 0 0 1 -2-2 2.015 2.015 0 0 1 2-2h2a2.006 2.006 0 0 1 -2-2 2.015 2.015 0 0 1 2-2 2.006 2.006 0 0 1 -2-2 2.015 2.015 0 0 1 2-2h7a9 9 0 0 1 0-18c.141 0 .279.015.419.021a39.472 39.472 0 0 0 -5.569-6.557c-.825 6.448-5.934 32.007-34.722 31.59 3.879 5.266 12.656 8.946 22.872 8.946a40.14 40.14 0 0 0 8.359-.864 1.981 1.981 0 0 1 -.359-1.136 1.148 1.148 0 0 1 .01-.19z" fill="#f0a53b"/><path d="m45.01 60.81a1.9 1.9 0 0 1 .58-1.22 1.955 1.955 0 0 1 1.41-.59h-2a2.006 2.006 0 0 1 -2-2 2.015 2.015 0 0 1 2-2h2a2.006 2.006 0 0 1 -2-2 2.015 2.015 0 0 1 2-2 2.006 2.006 0 0 1 -2-2 2.015 2.015 0 0 1 2-2h-5a2.015 2.015 0 0 0 -2 2 2.006 2.006 0 0 0 2 2 2.015 2.015 0 0 0 -2 2 2.006 2.006 0 0 0 2 2h-2a2.015 2.015 0 0 0 -2 2 2.006 2.006 0 0 0 2 2h2a1.955 1.955 0 0 0 -1.41.59 1.9 1.9 0 0 0 -.58 1.22 1.148 1.148 0 0 0 -.01.19 1.981 1.981 0 0 0 .359 1.136 34.109 34.109 0 0 0 4.641-1.326z" fill="#cf7f0f"/><path d="m40 38a8.985 8.985 0 0 0 11.5 8.641 8.991 8.991 0 0 1 -1.47-16.711q-.3-.457-.611-.909c-.14-.006-.278-.021-.419-.021a9 9 0 0 0 -9 9z" fill="#cf7f0f"/><path d="m37.281 4.7a8 8 0 0 1 -7.527 5.3h-5.421l.667 2h14l2.92-8.75c-.39.613-2.149 1.137-4.639 1.45z" fill="#f0a53b"/><path d="m31 15h-6.5a1.494 1.494 0 0 0 -1.409 1h5.909a2 2 0 0 1 2 2h1v-3z" fill="#29221f"/><path d="m36 15h4.5a1.494 1.494 0 0 1 1.409 1h-3.909a2 2 0 0 0 -2 2h-1v-3z" fill="#29221f"/><path d="m29 18v1a2 2 0 0 1 2 2v4a2 2 0 0 1 -1.189 1.825 1.483 1.483 0 0 0 .689.175 1.5 1.5 0 0 0 1.5-1.5v-7.5z" fill="#1a1514"/><circle cx="54" cy="38" fill="#ffc052" r="6"/><path d="m54 42a6 6 0 0 1 -5.91-5 6 6 0 1 0 11.82 0 6 6 0 0 1 -5.91 5z" fill="#f0a53b"/><path d="m63 38a9 9 0 1 1 -12.97-8.07 8.822 8.822 0 0 1 3.97-.93 9 9 0 0 1 9 9zm-9 6a6 6 0 1 0 -6-6 6 6 0 0 0 6 6z" fill="#ffc052"/><path d="m54 44a9 9 0 0 1 -8.864-7.494 9 9 0 1 0 17.729-.006 9 9 0 0 1 -8.865 7.5z" fill="#d19034"/><path d="m55.414 38 2.293-2.293a1 1 0 0 0 -1.414-1.414l-2.293 2.293-2.293-2.293a1 1 0 0 0 -1.414 1.414l2.293 2.293-2.293 2.293a1 1 0 1 0 1.414 1.414l2.293-2.293 2.293 2.293a1 1 0 0 0 1.414-1.414z" fill="#d19034"/><path d="m54 31a7 7 0 1 0 7 7 7 7 0 0 0 -7-7zm0 13a6 6 0 1 1 6-6 6 6 0 0 1 -6 6z" fill="#83553d"/><path d="m52.88 33.3a.418.418 0 0 0 -.092.273c.019.142.161.228.288.294l1.311.681a1 1 0 0 0 .557.161.757.757 0 0 0 .556-.509.771.771 0 0 0 .019-.61.933.933 0 0 0 -.232-.277 2.329 2.329 0 0 0 -1.291-.7 1.374 1.374 0 0 0 -1.116.687z" fill="#ffdf75"/><path d="m57.791 36.026a.877.877 0 0 0 -.3.433 1 1 0 0 0 .059.445c.146.544.044 1.274.506 1.694.676.615 1.061-.958 1.119-1.4a1.692 1.692 0 0 0 -.136-1.076.75.75 0 0 0 -1.248-.096z" fill="#ffdf75"/><path d="m39 48.67a5.325 5.325 0 0 0 -2.944-4.77l-2.056-1.02v-8.88h1v1a1 1 0 0 0 2 0v-4a1 1 0 0 0 -2 0v1h-1v-2a1 1 0 0 0 -2 0v2h-1v-2a1 1 0 0 0 -2 0v2.183a5.335 5.335 0 0 0 -4 5.147 5.249 5.249 0 0 0 .8 2.791 5.338 5.338 0 0 0 2.145 1.979l1.055.521v9.379h-2v-1a1 1 0 0 0 -2 0v4a1 1 0 0 0 2 0v-1h2v2a1 1 0 0 0 2 0v-2h1v2a1 1 0 0 0 2 0v-2.032a5.294 5.294 0 0 0 5-5.3zm-7-14.67v7.883l-1-.5v-7.383zm-3.158 6.309a3.335 3.335 0 0 1 -1.342-1.241 3.262 3.262 0 0 1 -.5-1.738 3.328 3.328 0 0 1 2-3.039v6.1zm2.158 11.691v-8.382l1 .5v7.882zm5.02-.973a3.256 3.256 0 0 1 -2.02.941v-6.854l1.158.577a3.375 3.375 0 0 1 1.842 2.979 3.288 3.288 0 0 1 -.98 2.357z" fill="#83553d"/><g fill="#ffdf75"><path d="m19.813 25.236a9.5 9.5 0 0 0 -2.633 3.39 1.985 1.985 0 0 0 .006 1.659 1.8 1.8 0 0 0 1.781.7 7.211 7.211 0 0 0 1.909-.671 25.738 25.738 0 0 0 4.547-1.984 3.022 3.022 0 0 0 1.542-2.83 3.074 3.074 0 0 0 -3.4-2.47 6.226 6.226 0 0 0 -3.2 1.712c-.176.158-.365.32-.552.494z"/><path d="m12.5 35.826a3.592 3.592 0 0 0 -.458 2.321 1.083 1.083 0 0 0 .156.434.969.969 0 0 0 .543.342 3.417 3.417 0 0 0 2.917-.96 9.848 9.848 0 0 0 1.72-1.742 2.581 2.581 0 0 0 .622-1.465 1.867 1.867 0 0 0 -1.646-1.737 2.749 2.749 0 0 0 -2.329.881 12.778 12.778 0 0 0 -1.525 1.926z"/></g></g></svg>