<svg id="Capa_1" enable-background="new 0 0 512.013 512.013" height="512" viewBox="0 0 512.013 512.013" width="512" xmlns="http://www.w3.org/2000/svg"><path d="m457.19 187.095c1.745-8.577-1.673-18.016-8.505-23.487-4.247-3.4-9.7-5.178-15.138-5.178-3.311 0-6.617.66-9.64 2.013-1.07.479-2.104 1.038-3.104 1.578-1.562.843-3.037 1.64-4.629 2.155-7.285 2.359-14.289-1.521-21.701-5.63-3.317-1.839-6.746-3.74-10.223-5.047-6.306-2.371-13.094-2.782-19.659-3.18-4.838-.293-9.841-.596-14.562-1.689-7.013-1.624-13.751-6.49-16.766-12.11-1.908-3.554-2.242-7.231-.969-10.633.86-2.297 2.37-4.262 3.968-6.342 1.407-1.83 2.862-3.724 3.865-5.894 2.208-4.774 1.909-10.041 1.621-15.135-.189-3.336-.384-6.785.143-10.011.846-5.177 3.585-10.013 6.233-14.689 3.235-5.713 6.58-11.621 6.648-18.333.036-3.493-.84-6.875-1.688-10.145-.405-1.564-.824-3.182-1.13-4.77-1.262-6.559-.632-13.468 1.82-20.05l.592-.918c-24.481-10.177-50.22-16.378-76.237-18.626-2.561 7.287-9.824 14.959-12.797 22.015-1.418 3.365-1.773 7.086-3.023 10.516-1.249 3.43-3.81 6.794-7.424 7.31-1.107.158-2.277.043-3.306.484-2.817 1.207-2.562 5.225-3.856 8.003-1.36 2.92-4.689 4.514-7.904 4.716s-6.378-.744-9.46-1.68c-3.978-1.208-8.252-2.623-10.646-6.022-1.312-1.863-1.908-4.139-3.078-6.096-2.072-3.467-5.716-5.615-8.975-8-7.333-5.365-13.233-14.829-17.134-23.711-15.138 3.986-29.98 9.386-44.323 16.187l.595.89c.317 3.388 1.981 6.488 4.672 8.641l18.77 15.016c2.488 1.991 3.915 4.959 3.915 8.145v21.331c0 6.946 5.651 12.596 12.597 12.596h8.772c5.751 0 10.43 4.679 10.43 10.43v10.1c0 3.29-1.578 6.423-4.222 8.381l-51.498 38.147c-1.783 1.321-3.988 2.049-6.208 2.049h-31.837c-6.946 0-12.596 5.65-12.596 12.596v20.999c0 3.365 1.31 6.528 3.689 8.907l22.314 22.313c2.379 2.379 5.543 3.689 8.907 3.689h31.416c5.751 0 10.43 4.679 10.43 10.43v9.32c0 6.946 5.65 12.597 12.596 12.597h21.93c5.751 0 10.43 4.679 10.43 10.43 0 6.946 5.651 12.596 12.597 12.596h28.509c5.751 0 10.43 4.679 10.43 10.43v30.14c0 3.164-1.412 6.121-3.873 8.111l-42.987 34.755c-2.972 2.403-4.677 5.974-4.677 9.796v14.728c0 2.876-1.204 5.652-3.304 7.617l-16.143 15.105c-2.536 2.372-3.991 5.725-3.991 9.198v32.835c0 5.751-4.679 10.43-10.43 10.43h-17.133c-5.751 0-10.43-4.679-10.43-10.43v-20.948c0-1.881-.432-3.77-1.248-5.464l-11.975-24.872c-.675-1.402-1.032-2.966-1.032-4.525v-47.397c0-4.04-1.957-7.862-5.236-10.223l-45.254-32.583c-2.715-1.955-4.336-5.119-4.336-8.465v-32.782c0-1.771.455-3.525 1.316-5.072l2.389-4.29c2.734-4.914 1.856-11.111-2.137-15.071l-39.739-39.407c-1.961-1.945-3.085-4.644-3.085-7.406v-25.092c0-3.52-1.487-6.903-4.081-9.282l-19.569-17.954-.867-.691c-45.54 95.184-28.9 212.679 49.957 291.536 99.977 99.977 262.071 99.977 362.048 0 6.704-6.704 12.942-13.695 18.746-20.92h-1.37c-8.004-5.758-14.076-10.933-19.055-16.237-12.474-13.289-20.783-30.541-23.395-48.579-.456-3.154-.753-6.401-1.039-9.542-.499-5.47-1.014-11.127-2.396-16.575-1.894-7.471-5.4-14.517-8.791-21.331-4.531-9.104-8.81-17.703-9.705-27.371-1.28-13.826 5.275-27.86 16.7-35.752 6.703-4.63 14.773-7.081 22.577-9.45 7.361-2.236 14.972-4.547 21.612-8.691 1.684-1.051 3.522-2.403 4.373-4.451 1.197-2.881.073-5.718-1.014-8.461-.46-1.162-.895-2.259-1.159-3.351-.982-4.06.466-8.111 1.999-12.4.792-2.211 1.611-4.5 2.083-6.82z" fill="#23a8fe"/><path d="m170.303 467.446c-5.751 0-10.43-4.679-10.43-10.43v-1.563c-7.076-5.709-13.92-11.849-20.494-18.423-59.145-59.145-83.292-140.029-72.458-216.931l-14.299-14.18c-1.961-1.945-3.085-4.644-3.085-7.406v-25.092c0-3.52-1.487-6.903-4.081-9.282l-19.569-17.954-.867-.691c-45.54 95.184-28.9 212.679 49.957 291.536 58.196 58.196 137.438 82.502 213.225 72.947-39.493-4.979-78.044-19.159-112.194-42.531z" fill="#0193fa"/><path d="m190.534 8.528c-15.138 3.989-29.988 9.364-44.331 16.168l.595.89c.317 3.388 1.981 6.488 4.672 8.641l18.376 14.701c10.703-7.798 21.882-14.644 33.409-20.576-5.303-5.434-9.636-12.805-12.721-19.824z" fill="#0193fa"/><path d="m262.411 283.219h-28.509c-6.359 0-11.514-5.155-11.514-11.513 0-6.359-5.155-11.513-11.513-11.513h-21.93c-6.359 0-11.513-5.155-11.513-11.513v-9.32c0-6.359-5.155-11.513-11.513-11.513h-31.416c-3.054 0-5.982-1.213-8.141-3.372l-22.313-22.313c-2.159-2.159-3.372-5.088-3.372-8.141v-20.999c0-6.359 5.155-11.513 11.513-11.513h31.837c2.468 0 4.87-.793 6.853-2.262l51.498-38.147c2.932-2.172 4.66-5.604 4.66-9.252v-10.1c0-6.359-5.155-11.513-11.513-11.513h-8.772c-6.359 0-11.513-5.155-11.513-11.513v-21.334c0-3.498-1.59-6.806-4.321-8.99l-18.771-15.017c-2.731-2.185-4.321-5.493-4.321-8.99v-.484c-26.372 12.289-51.083 29.311-72.849 51.077-21.382 21.382-38.175 45.611-50.411 71.46l20.159 18.494c2.377 2.18 3.73 5.258 3.73 8.484v25.092c0 3.07 1.226 6.013 3.406 8.175l39.738 39.407c3.665 3.635 4.463 9.265 1.953 13.775l-2.388 4.29c-.953 1.712-1.453 3.64-1.453 5.599v32.782c0 3.703 1.781 7.18 4.786 9.343l45.253 32.583c3.005 2.164 4.786 5.641 4.786 9.344v47.397c0 1.729.389 3.437 1.14 4.995l11.975 24.871c.75 1.558 1.14 3.265 1.14 4.995v20.948c0 6.359 5.155 11.513 11.513 11.513h17.133c6.359 0 11.513-5.155 11.513-11.513v-32.835c0-3.186 1.321-6.23 3.647-8.407l16.144-15.105c2.327-2.177 3.647-5.221 3.647-8.407v-14.728c0-3.477 1.571-6.767 4.275-8.953l42.987-34.755c2.703-2.186 4.275-5.476 4.275-8.953v-30.14c-.002-6.362-5.157-11.516-11.515-11.516z" fill="#43cb8e"/><path d="m147.825 24.39v-.471c-55.481 25.841-99.461 71.265-123.26 122.524l20.159 18.494c2.377 2.181 3.73 5.258 3.73 8.484v25.092c0 3.07 1.226 6.014 3.406 8.175l14.884 14.76c7.258-53.572 31.459-105.288 72.636-146.465 9.889-9.889 20.392-18.785 31.376-26.714l-18.609-14.887c-2.732-2.186-4.322-5.494-4.322-8.992z" fill="#00ba66"/><path d="m512.007 256.007c0-65.518-24.994-131.036-74.983-181.024-24.769-24.769-53.353-43.392-83.858-55.888-2.759 6.841-3.669 14.427-2.274 21.678.945 4.911 2.85 9.699 2.799 14.7-.121 11.871-10.953 21.143-12.868 32.859-1.351 8.267 1.837 17.263-1.679 24.867-2.05 4.434-6.151 7.735-7.864 12.31-4.036 10.779 7.292 21.582 18.506 24.178 11.213 2.596 23.31.776 34.084 4.828 11.012 4.141 21.445 14.317 32.638 10.693 2.763-.894 5.191-2.587 7.842-3.774 7.632-3.418 17.13-2.205 23.658 3.022s9.788 14.23 8.121 22.425c-1.354 6.654-5.668 13.094-4.072 19.694.912 3.771 3.714 7.559 2.225 11.142-.726 1.747-2.342 2.946-3.947 3.948-13.572 8.472-31.067 9.076-44.231 18.169-11.659 8.054-18.469 22.633-17.163 36.743 1.613 17.428 14.224 31.902 18.525 48.868 2.15 8.483 2.158 17.346 3.412 26.007 2.648 18.284 11.033 35.695 23.677 49.166 6.007 6.4 12.881 11.867 20.043 16.97 38.265-46.924 57.375-104.251 57.375-161.578h.034z" fill="#43cb8e"/><path d="m416.508 165.206c2.763-.895 5.191-2.587 7.842-3.774 7.632-3.418 17.13-2.205 23.658 3.022s9.788 14.23 8.121 22.425c-1.354 6.654-5.668 13.094-4.072 19.694.912 3.771 3.714 7.559 2.225 11.142-.043.104-.1.2-.149.301 11.863-5.4 25.644-7.06 36.785-14.014 1.605-1.002 3.221-2.201 3.947-3.948 1.488-3.583-1.313-7.371-2.225-11.142-1.596-6.6 2.718-13.04 4.072-19.694.023-.113.035-.228.056-.342-2.834-7.848-6.064-15.583-9.69-23.178-6.426-4.28-15.082-5.091-22.146-1.927-2.651 1.187-5.079 2.88-7.842 3.774-11.194 3.623-21.626-6.552-32.638-10.693-10.773-4.051-22.87-2.232-34.084-4.828-11.213-2.596-22.541-13.399-18.506-24.178 1.713-4.575 5.814-7.876 7.864-12.31 3.515-7.604.328-16.599 1.679-24.867 1.774-10.853 11.194-19.611 12.668-30.278-13.103-8.406-26.796-15.516-40.909-21.297-2.759 6.841-3.669 14.427-2.274 21.677.945 4.911 2.85 9.699 2.799 14.7-.121 11.871-10.952 21.142-12.867 32.859-1.351 8.267 1.836 17.262-1.679 24.867-2.05 4.434-6.151 7.735-7.864 12.31-4.036 10.779 7.292 21.582 18.506 24.178 11.213 2.596 23.31.776 34.083 4.828 11.014 4.141 21.446 14.316 32.64 10.693z" fill="#00ba66"/><path d="m475.139 382.953c-12.644-13.47-21.029-30.881-23.677-49.166-1.254-8.661-1.262-17.524-3.412-26.007-4.301-16.966-16.912-31.44-18.525-48.868-1.133-12.234 3.844-24.814 12.785-33.195-11.979 4.943-25.519 6.731-36.205 14.113-11.659 8.054-18.469 22.633-17.163 36.743 1.613 17.428 14.225 31.902 18.525 48.868 2.15 8.483 2.158 17.346 3.412 26.007 2.648 18.284 11.033 35.695 23.677 49.166 6.007 6.4 12.881 11.867 20.043 16.97 8.461-10.376 15.982-21.262 22.57-32.543-.685-.686-1.365-1.379-2.03-2.088z" fill="#00ba66"/><path d="m262.309 34.588c1.249-3.43 1.605-7.152 3.023-10.516 3.025-7.18 10.503-14.998 12.938-22.399.074-.224.129-.45.192-.675-7.472-.654-14.967-.998-22.462-.998v.033c-22.168 0-44.334 2.868-65.9 8.586 3.891 9.157 9.959 19.124 17.56 24.685 3.259 2.385 6.903 4.533 8.975 8 1.169 1.956 1.765 4.232 3.077 6.095 2.394 3.399 6.668 4.814 10.646 6.022 3.082.936 6.245 1.882 9.46 1.681s6.544-1.796 7.904-4.716c1.294-2.778 1.039-6.796 3.856-8.003 1.028-.441 2.198-.326 3.306-.484 3.615-.516 6.176-3.88 7.425-7.311z" fill="#43cb8e"/><path d="m278.461 1.001c-7.595-.665-15.121-1.001-22.461-1.001v.033c-21.531 0-44.098 2.787-65.9 8.586 2.973 6.997 7.221 14.46 12.449 20.076 23.784-12.329 49.095-20.68 74.951-25.048.631-1.447.768-1.952.961-2.646z" fill="#00ba66"/></svg>