<?xml version="1.0" encoding="iso-8859-1"?>
<!-- Generator: Adobe Illustrator 19.0.0, SVG Export Plug-In . SVG Version: 6.00 Build 0)  -->
<svg version="1.1" id="Layer_1" xmlns="http://www.w3.org/2000/svg" xmlns:xlink="http://www.w3.org/1999/xlink" x="0px" y="0px"
	 viewBox="0 0 512.001 512.001" style="enable-background:new 0 0 512.001 512.001;" xml:space="preserve">
<circle style="fill:#D27D55;" cx="256" cy="256.001" r="256"/>
<path style="fill:#B9694B;" d="M356.571,438.858C230.335,438.858,128,336.523,128,210.286c0-94.174,56.967-175.019,138.309-210.025
	c-3.424-0.136-6.851-0.261-10.309-0.261c-141.385,0-256,114.615-256,256c0,141.384,114.615,256,256,256
	c80.635,0,152.521-37.317,199.446-95.582C425.523,430.797,391.989,438.858,356.571,438.858z"/>
<path style="fill:#FFD296;" d="M1.481,228.572h509.038c-1.33-12.478-3.528-24.695-6.585-36.571H8.066
	C5.009,203.877,2.81,216.094,1.481,228.572z"/>
<path style="fill:#FFBE7D;" d="M8.066,192.001c-3.057,11.877-5.255,24.094-6.585,36.571h127.312
	c-0.478-6.039-0.793-12.123-0.793-18.286c0-6.158,0.271-12.25,0.75-18.286H8.066z"/>
<path style="fill:#FFD296;" d="M20.536,155.429h470.929c-15.081-35.263-37.874-66.418-66.226-91.429H86.762
	C58.409,89.011,35.617,120.166,20.536,155.429z"/>
<path style="fill:#FFBE7D;" d="M134.737,155.429c8.426-34.168,24.55-65.253,46.41-91.429H86.762
	c-28.352,25.01-51.144,56.166-66.226,91.429H134.737z"/>
<circle style="fill:#E9A876;" cx="228.571" cy="64.001" r="18.286"/>
<g>
	<path style="fill:#FF9B41;" d="M0,256.001c0,22.099,2.801,43.544,8.066,64h495.869c5.265-20.456,8.066-41.901,8.066-64
		c0-9.269-0.521-18.415-1.481-27.429H1.481C0.521,237.586,0,246.732,0,256.001z"/>
	<path style="fill:#FF9B41;" d="M482.725,374.858h-133.51c-9.486-10.928-27.199-18.286-47.501-18.286H20.536
		c4.046,9.459,8.687,18.595,13.798,27.429h214.251c-1.128,2.922-1.728,5.986-1.728,9.143c0,20.198,24.56,36.571,54.857,36.571
		c25.561,0,47.039-11.655,53.129-27.429h111.193C472.149,393.525,477.727,384.372,482.725,374.858z"/>
</g>
<path style="fill:#FF8732;" d="M128.793,228.572H1.481C0.521,237.586,0,246.732,0,256.001c0,22.099,2.801,43.544,8.066,64h147.96
	C140.937,292.478,131.403,261.502,128.793,228.572z"/>
<path style="fill:#FFD296;" d="M68.016,429.715c12.629,13.659,26.731,25.921,42.048,36.571h291.871
	c15.317-10.65,29.421-22.912,42.048-36.571H68.016z"/>
<path style="fill:#FFBE7D;" d="M420.731,429.715c-20.357,5.944-41.882,9.143-64.16,9.143c-22.217,0-43.67-3.231-63.979-9.143H68.016
	c12.629,13.659,26.731,25.921,42.048,36.571h291.783c15.311-10.647,29.394-22.918,42.023-36.571H420.731z"/>
<g>
	<path style="fill:#FF8732;" d="M290.286,384.001c-19.453,0-35.725,8.133-41.251,19.266c6.592,15.267,27.658,26.448,52.68,26.448
		c9.301,0,18.049-1.555,25.723-4.278c3.897-4.113,6.277-8.866,6.277-14.008C333.714,396.281,314.271,384.001,290.286,384.001z"/>
	<path style="fill:#FF8732;" d="M34.334,384.001h173.771c-9.79-8.375-18.883-17.533-27.137-27.429H20.536
		C24.582,366.031,29.222,375.167,34.334,384.001z"/>
</g>
<g>
</g>
<g>
</g>
<g>
</g>
<g>
</g>
<g>
</g>
<g>
</g>
<g>
</g>
<g>
</g>
<g>
</g>
<g>
</g>
<g>
</g>
<g>
</g>
<g>
</g>
<g>
</g>
<g>
</g>
</svg>
