<?xml version="1.0" encoding="iso-8859-1"?>
<!-- Generator: Adobe Illustrator 19.0.0, SVG Export Plug-In . SVG Version: 6.00 Build 0)  -->
<svg version="1.1" id="Layer_1" xmlns="http://www.w3.org/2000/svg" xmlns:xlink="http://www.w3.org/1999/xlink" x="0px" y="0px"
	 viewBox="0 0 512 512" style="enable-background:new 0 0 512 512;" xml:space="preserve">
<circle style="fill:#FF965F;" cx="256" cy="256" r="256"/>
<g>
	<path style="fill:#FF7846;" d="M356.571,438.857C230.335,438.857,128,336.522,128,210.286c0-94.174,56.967-175.019,138.309-210.025
		C262.885,0.125,259.457,0,256,0C114.615,0,0,114.615,0,256c0,141.384,114.615,256,256,256c80.635,0,152.521-37.317,199.446-95.582
		C425.523,430.797,391.989,438.857,356.571,438.857z"/>
	<path style="fill:#FF7846;" d="M303.285,4.431C287.952,1.567,272.163,0,256,0C161.15,0,78.41,51.624,34.179,128.269
		c58.01,2.661,98.807,39.11,120.467,84.041c1.625,3.371,4.669,5.821,8.345,6.523l22.35,4.273c5.255,1.005,10.232-2.931,10.312-8.282
		c0.345-23.117,7.846-77.253,70.25-79.967c22.801-0.991,41.159-5.853,54.639-11.04c4.338-1.67,3.093-7.969-1.557-7.967
		C259.187,115.877,232.326,29.568,303.285,4.431z"/>
</g>
<path style="fill:#DC5F3C;" d="M34.179,128.269L34.179,128.269c40.976,1.879,73.317,20.656,96.439,47.333
	C142.65,96.585,195.152,30.883,266.309,0.261C262.885,0.125,259.457,0,256,0C161.15,0,78.41,51.624,34.179,128.269z"/>
<path style="fill:#FF7846;" d="M497.457,170.907c-27.771-19.147-62.92-24.992-51.743,13.093
	c24.245,82.613-0.192,139.12-11.778,159.544c-2.763,4.872-8.854,6.697-13.888,4.239c-28.81-14.069-121.722-57.851-138.905-46.069
	c-35.851,24.584-46.456,46.184-47.241,62.538c-0.357,7.429-10.843,8.862-13.109,1.779c-9.28-29.01,1.038-67.561,7.663-87.155
	c1.909-5.645-2.881-11.265-8.75-10.239l-29.36,5.138c-1.88,0.329-3.552,1.389-4.726,2.894
	c-47.627,61.011-140.613,46.245-183.883,8.775C16.766,416.595,130.84,517.637,267.32,511.755
	c126.973-5.471,232.296-105.839,243.633-232.423C514.381,241.066,509.264,204.409,497.457,170.907z"/>
<g>
	<path style="fill:#DC5F3C;" d="M356.571,438.857c-92.021,0-171.287-54.406-207.526-132.781
		c-49.191,23.935-113.442,8.695-147.309-20.632C16.349,412.952,124.579,512,256,512c78.97,0,149.565-35.778,196.523-91.985
		c0.96-1.186,1.971-2.418,2.912-3.585c0.002-0.003,0.006-0.008,0.006-0.008C425.522,430.797,391.989,438.857,356.571,438.857z"/>
	<circle style="fill:#DC5F3C;" cx="59.429" cy="269.714" r="13.714"/>
</g>
<g>
	<circle style="fill:#FF7846;" cx="251.429" cy="187.429" r="13.714"/>
	<circle style="fill:#FF7846;" cx="402.286" cy="118.857" r="18.286"/>
	<path style="fill:#FF7846;" d="M336.976,13.15c-21.523,10.354-36.594,35.727-16.323,51.25c17.589,13.47,68.617-3.083,108.696,3.265
		C403.05,43.448,371.661,24.711,336.976,13.15z"/>
</g>
<g>
</g>
<g>
</g>
<g>
</g>
<g>
</g>
<g>
</g>
<g>
</g>
<g>
</g>
<g>
</g>
<g>
</g>
<g>
</g>
<g>
</g>
<g>
</g>
<g>
</g>
<g>
</g>
<g>
</g>
</svg>
