<?xml version="1.0" encoding="iso-8859-1"?>
<!-- Generator: Adobe Illustrator 19.0.0, SVG Export Plug-In . SVG Version: 6.00 Build 0)  -->
<svg version="1.1" id="Capa_1" xmlns="http://www.w3.org/2000/svg" xmlns:xlink="http://www.w3.org/1999/xlink" x="0px" y="0px"
	 viewBox="0 0 349.56 349.56" style="enable-background:new 0 0 349.56 349.56;" xml:space="preserve">
<circle style="fill:#FFB49B;" cx="174.78" cy="174.78" r="174.78"/>
<g>
	<path style="fill:#DB7253;" d="M50.967,128.065c1.886-1.739,5.041-4.157,8.751-5.037c2.267-0.537,4.505,0.997,4.91,3.29
		c0.395,2.236,0.449,5.175-1.011,7.765c-1.262,2.238-3.944,3.293-6.439,2.68c-2.188-0.538-4.926-1.676-6.719-4.083
		C49.407,131.266,49.673,129.259,50.967,128.065z"/>
	<path style="fill:#DB7253;" d="M87.111,51.162c2.444-2.131,6.168-4.891,10.888-6.904c3.419-1.459,7.274,0.81,7.516,4.519
		c0.205,3.151-0.239,7.016-2.566,10.573c-1.482,2.266-4.092,3.547-6.8,3.587c-2.612,0.039-5.995-0.305-8.561-1.945
		C84.182,58.815,84.066,53.819,87.111,51.162z"/>
	<path style="fill:#DB7253;" d="M240.288,39.893c3.236,1.864,7.379,4.501,10.512,7.357c2.945,2.686,2.81,7.346-0.247,9.903
		c-2.529,2.115-6.197,4.176-11.046,4.44c-2.776,0.151-5.353-1.443-6.617-3.921c-1.764-3.451-3.635-8.868-1.86-14.234
		C232.3,39.589,236.774,37.87,240.288,39.893z"/>
	<path style="fill:#DB7253;" d="M306.885,117.115c0.247-3.303-2.785-5.915-6.013-5.161c-4.286,1.002-9.762,2.955-11.847,6.604
		c-1.776,3.107-1.671,7.59-1.099,11.359c0.604,3.993,5.087,6.063,8.481,3.875C300.962,130.86,306.242,125.659,306.885,117.115z"/>
	<path style="fill:#DB7253;" d="M310.596,189.27c1.858-1.006,4.368-1.969,7.041-1.861c1.877,0.076,3.27,1.781,3.098,3.652
		c-0.118,1.287-0.365,2.83-0.867,4.283c-0.446,1.293-1.822,2.025-3.152,1.709c-1.625-0.39-3.979-1.25-6.506-3.166
		C308.622,192.684,308.843,190.219,310.596,189.27z"/>
	<path style="fill:#DB7253;" d="M73.924,246.378c-0.342-2.973-3.441-4.82-6.21-3.688c-4.527,1.852-10.611,4.906-12.087,8.41
		c-2.421,5.75,13.48,25.07,14.83,19.673C70.721,269.716,75.371,258.964,73.924,246.378z"/>
	<path style="fill:#DB7253;" d="M128.365,320.259c2.031,0.856,4.344,1.638,6.965,2.271c2.489,0.601,4.855-1.342,4.699-3.896
		c-0.259-4.227-1.082-10.314-3.578-14.414c-0.781-1.282-2.318-1.889-3.797-1.621c-0.794,0.145-1.759,0.348-2.84,0.627
		C121.521,305.378,120.469,316.932,128.365,320.259z"/>
	<path style="fill:#DB7253;" d="M139.261,103.989c-2.255,4.808-5.27,12.232-6.041,18.936c-0.333,2.893,2.254,5.333,5.088,4.661
		c3.031-0.718,7.056-2.463,11.133-6.55c2.546-2.554,3.359-6.376,2.249-9.807c-0.869-2.687-2.316-5.879-4.699-8.532
		C144.76,100.212,140.679,100.965,139.261,103.989z"/>
	<path style="fill:#DB7253;" d="M187.534,143.03c-2.131,1.812-4.232,4.298-5.477,7.609c-0.646,1.722-0.438,3.646,0.404,5.28
		c0.756,1.466,1.838,3.396,3.149,5.275c2.178,3.119,6.955,2.91,8.685-0.479c1.532-3.008,2.67-7.576,1.842-14.302
		C195.624,142.233,190.744,140.301,187.534,143.03z"/>
	<path style="fill:#DB7253;" d="M128.163,205.044c-6.057,0.127-9.902-6.513-6.961-11.809c2.598-4.678,6.314-9.352,11.052-10.213
		c5.766-1.049,9.414,2.039,11.467,4.837c1.864,2.54,2.012,5.897,0.505,8.665C142.201,200.247,137.761,204.843,128.163,205.044z"/>
	<path style="fill:#DB7253;" d="M232.805,190.936c-0.002-3.395,0.384-8.191,2.053-13.135c1.21-3.582,5.688-4.621,8.811-1.953
		c2.65,2.268,5.42,5.549,6.639,9.951c0.774,2.805-0.016,5.666-1.86,7.647c-1.779,1.911-4.398,4.085-7.484,4.677
		C236.867,198.911,232.809,195.167,232.805,190.936z"/>
	<path style="fill:#DB7253;" d="M278.793,241.607c4.667-4.155,12.128-1.521,13.366,4.603c1.094,5.408,1.309,11.563-1.83,15.411
		c-3.822,4.685-8.751,4.704-12.233,3.884c-3.164-0.744-5.527-3.279-6.199-6.459C270.992,254.769,271.397,248.191,278.793,241.607z"
		/>
	<path style="fill:#DB7253;" d="M191.235,244.426c0.121,1.459,1.627,2.39,2.982,1.836c1.804-0.734,4.06-1.969,4.717-3.707
		c0.561-1.48,0.203-3.43-0.309-5.037c-0.543-1.702-2.644-2.295-3.976-1.104C192.868,238.01,190.923,240.649,191.235,244.426z"/>
	<path style="fill:#DB7253;" d="M177.398,52.214c0.128,1.801,0.19,4.176-0.106,6.204c-0.281,1.907-2.187,3.112-4.039,2.578
		c-1.532-0.441-3.35-1.355-4.767-3.228c-0.812-1.072-0.869-2.536-0.217-3.714c0.907-1.64,2.573-3.855,5.204-4.596
		C175.36,48.927,177.259,50.257,177.398,52.214z"/>
	<path style="fill:#DB7253;" d="M211.614,286.288c3.576-1.936,8.404-3.789,13.547-3.582c3.609,0.146,6.29,3.428,5.959,7.025
		c-0.227,2.479-0.702,5.445-1.668,8.242c-0.858,2.486-3.508,3.897-6.065,3.287c-3.128-0.746-7.658-2.405-12.517-6.09
		C207.814,292.854,208.241,288.113,211.614,286.288z"/>
	<path style="fill:#DB7253;" d="M229.24,109.411c-1.501,0.666-3.514,1.454-5.341,1.826c-1.719,0.35-3.34-0.907-3.455-2.657
		c-0.096-1.448,0.123-3.285,1.287-5.077c0.667-1.026,1.901-1.527,3.11-1.334c1.685,0.269,4.095,1.009,5.541,3.032
		C231.421,106.651,230.871,108.687,229.24,109.411z"/>
	<path style="fill:#DB7253;" d="M51.594,188.105c1.859-1.007,4.368-1.97,7.041-1.862c1.876,0.076,3.27,1.781,3.098,3.652
		c-0.118,1.287-0.365,2.83-0.868,4.283c-0.446,1.293-1.823,2.025-3.152,1.709c-1.625-0.39-3.98-1.25-6.505-3.166
		C49.619,191.518,49.842,189.053,51.594,188.105z"/>
	<path style="fill:#DB7253;" d="M124.337,235.732c1.859-1.007,4.369-1.97,7.042-1.861c1.876,0.075,3.269,1.781,3.098,3.651
		c-0.119,1.287-0.365,2.83-0.868,4.285c-0.446,1.291-1.823,2.024-3.152,1.707c-1.625-0.389-3.981-1.25-6.506-3.164
		C122.363,239.145,122.584,236.68,124.337,235.732z"/>
</g>
<g>
</g>
<g>
</g>
<g>
</g>
<g>
</g>
<g>
</g>
<g>
</g>
<g>
</g>
<g>
</g>
<g>
</g>
<g>
</g>
<g>
</g>
<g>
</g>
<g>
</g>
<g>
</g>
<g>
</g>
</svg>
