<?xml version="1.0"?>
<svg xmlns="http://www.w3.org/2000/svg" viewBox="0 0 64 64" width="512" height="512"><title>06 Two Wheel Robot</title><g id="_06_Two_Wheel_Robot" data-name="06 Two Wheel Robot"><rect x="27" y="16" width="10" height="6" rx="1" ry="1" style="fill:#607d8b"/><path d="M58,11a1,1,0,0,1-1-1V6.414L55.586,5H53a1,1,0,0,1,0-2h3a1,1,0,0,1,.707.293l2,2A1,1,0,0,1,59,6v4A1,1,0,0,1,58,11Z" style="fill:#37474f"/><path d="M56,13H52a1,1,0,0,1-.707-.293l-2-2A1,1,0,0,1,49,10V7a1,1,0,0,1,2,0V9.586L52.414,11H56a1,1,0,0,1,0,2Z" style="fill:#37474f"/><path d="M6,11a1,1,0,0,1-1-1V6a1,1,0,0,1,.293-.707l2-2A1,1,0,0,1,8,3h3a1,1,0,0,1,0,2H8.414L7,6.414V10A1,1,0,0,1,6,11Z" style="fill:#37474f"/><path d="M12.707,12.707A1,1,0,0,1,12,13H8a1,1,0,0,1,0-2h3.586L13,9.586V7a1,1,0,0,1,2,0v3a1,1,0,0,1-.293.707Z" style="fill:#37474f"/><path d="M27,51H20a1,1,0,0,1,0-2h7a1,1,0,0,1,0,2Z" style="fill:#95c8ec"/><path d="M44,51H37a1,1,0,0,1,0-2h7a1,1,0,0,1,0,2Z" style="fill:#95c8ec"/><path d="M56,25H49a1,1,0,0,1,0-2h7a1,1,0,0,1,0,2Z" style="fill:#95c8ec"/><path d="M58,23a1,1,0,0,1-1-1V14a1,1,0,0,1,2,0v8A1,1,0,0,1,58,23Z" style="fill:#95c8ec"/><path d="M15,25H8a1,1,0,0,1,0-2h7a1,1,0,0,1,0,2Z" style="fill:#95c8ec"/><path d="M21,21a1,1,0,0,0-1-1H15a1,1,0,0,0-.986,1.165l1,6A1,1,0,0,0,16,28h4a1,1,0,0,0,1-1Z" style="fill:#37474f"/><path d="M49.763,20.354A1,1,0,0,0,49,20H44a1,1,0,0,0-1,1v6a1,1,0,0,0,1,1h4a1,1,0,0,0,.986-.835l1-6A1,1,0,0,0,49.763,20.354Z" style="fill:#37474f"/><path d="M6,23a1,1,0,0,1-1-1V14a1,1,0,0,1,2,0v8A1,1,0,0,1,6,23Z" style="fill:#95c8ec"/><rect x="15" y="45" width="6" height="10" rx="1" ry="1" style="fill:#607d8b"/><rect x="43" y="45" width="6" height="10" rx="1" ry="1" style="fill:#607d8b"/><rect x="9" y="39" width="8" height="22" rx="3" ry="3" style="fill:#37474f"/><rect x="47" y="39" width="8" height="22" rx="3" ry="3" style="fill:#37474f"/><path d="M45,20H19V40a3,3,0,0,0,3,3h3a1,1,0,0,1,1,1v8a3,3,0,0,0,3,3h6a3,3,0,0,0,3-3V44a1,1,0,0,1,1-1h3a3,3,0,0,0,3-3Z" style="fill:#57a0d7"/><circle cx="58" cy="24" r="3" style="fill:#57a0d7"/><circle cx="58" cy="12" r="3" style="fill:#57a0d7"/><circle cx="6" cy="24" r="3" style="fill:#57a0d7"/><circle cx="6" cy="12" r="3" style="fill:#57a0d7"/><rect x="25" y="26" width="14" height="11" rx="1" ry="1" style="fill:#37474f"/><rect x="25" y="32" width="14" height="2" style="fill:#bdddf4"/><path d="M34.938,3H29.063A7.07,7.07,0,0,0,22,10.063V15a3,3,0,0,0,3,3H39a3,3,0,0,0,3-3V10.063A7.07,7.07,0,0,0,34.938,3Z" style="fill:#37474f"/><path d="M30,11H27a1,1,0,0,1,0-2h3a1,1,0,0,1,0,2Z" style="fill:#bdddf4"/><path d="M37,11H34a1,1,0,0,1,0-2h3a1,1,0,0,1,0,2Z" style="fill:#bdddf4"/></g></svg>
