<?xml version="1.0" encoding="iso-8859-1"?>
<!-- Generator: Adobe Illustrator 19.0.0, SVG Export Plug-In . SVG Version: 6.00 Build 0)  -->
<svg version="1.1" id="Capa_1" xmlns="http://www.w3.org/2000/svg" xmlns:xlink="http://www.w3.org/1999/xlink" x="0px" y="0px"
	 viewBox="0 0 512 512" style="enable-background:new 0 0 512 512;" xml:space="preserve">
<path style="fill:#FF9166;" d="M492.523,271.638c29.162,167.736-10.797,233.405-236.522,234.797
	C30.276,505.043-9.682,439.318,19.479,271.638C48.307,109.523,74.464,5.565,256.001,5.565S463.695,109.523,492.523,271.638z"/>
<path style="fill:#FFB685;" d="M308.092,8.96l-0.779,0.501c-9.611,4.179-20.118,5.866-30.553,4.897
	c-22.461-0.985-44.945,1.23-66.783,6.567c-21.888,5.487-41.088,18.61-54.15,37.009c-7.958,12.188-12.41,26.936-23.263,36.563
	c-12.132,10.685-29.551,12.633-43.52,20.647c-16.49,9.756-26.952,27.164-27.826,46.303c-1.057,28.55,19.645,56.153,12.577,83.812
	C70.68,257.391,62.666,267.52,57.1,278.65c-5.009,10.407-8.014,22.261-15.527,30.776c-4.903,5.176-10.524,9.622-16.696,13.19
	c-4.063,2.56-8.237,4.842-12.188,7.235c1.475-19.595,3.968-39.096,7.457-58.435C48.307,109.523,74.464,5.565,256.001,5.565
	c7.513,0,14.803,0,21.816,0.557C288.502,6.678,298.575,7.624,308.092,8.96z"/>
<path style="fill:#F26751;" d="M256.001,506.435c-32.846,0.117-65.664-1.987-98.226-6.289c5.749-6.773,13.039-12.06,21.259-15.416
	c17.085-6.678,36.118-5.565,54.317-3.506s36.508,5.565,54.762,4.007c36.619-3.617,68.508-27.826,104.96-32.89
	c9.155-0.584,18.248-1.853,27.214-3.784c15.755-4.797,28.065-17.163,32.779-32.946c2.504-8.849,2.727-18.922,8.793-25.823
	c3.951-4.452,9.85-6.901,13.802-11.13c7.791-8.793,5.899-22.261,3.896-33.837c-6.022-34.927-9.077-70.3-9.127-105.739
	c0-13.523,0.946-28.271,8.125-38.957c4.953,22.261,9.461,46.47,13.969,71.903C521.685,439.318,481.726,505.043,256.001,506.435z"/>
<g>
	<path style="fill:#302A27;" d="M256.035,512c-118.634-0.729-186.897-19.462-221.39-60.728
		c-30.202-36.135-36.38-90.14-20.653-180.586C43.844,102.851,71.498,0,256.001,0s212.163,102.851,242.004,270.664
		c0,0.006,0.006,0.011,0.006,0.022c15.722,90.463,9.55,144.473-20.653,180.602C442.87,492.544,374.613,511.271,256.035,512z
		 M256.001,11.13c-175.627,0-202.212,99.361-231.046,261.476c-15.098,86.867-9.65,138.168,18.232,171.526
		c32.206,38.534,97.853,56.031,212.847,56.737c114.938-0.707,180.58-18.204,212.781-56.721
		c27.876-33.347,33.33-84.647,18.226-171.537l0,0C458.213,110.492,431.628,11.13,256.001,11.13z"/>
	<path style="fill:#302A27;" d="M166.958,205.913c-27.615,0-50.087-22.472-50.087-50.087s22.472-50.087,50.087-50.087
		s50.087,22.472,50.087,50.087S194.572,205.913,166.958,205.913z M166.958,116.87c-21.482,0-38.957,17.475-38.957,38.957
		s17.475,38.957,38.957,38.957s38.957-17.475,38.957-38.957S188.439,116.87,166.958,116.87z"/>
</g>
<circle style="fill:#FFFFFF;" cx="166.958" cy="155.826" r="44.522"/>
<g>
	<circle style="fill:#F26751;" cx="166.958" cy="178.087" r="50.087"/>
	<path style="fill:#F26751;" d="M166.958,233.739c-30.687,0-55.652-24.966-55.652-55.652s24.966-55.652,55.652-55.652
		s55.652,24.966,55.652,55.652S197.644,233.739,166.958,233.739z M166.958,133.565c-24.548,0-44.522,19.974-44.522,44.522
		s19.974,44.522,44.522,44.522s44.522-19.974,44.522-44.522S191.506,133.565,166.958,133.565z"/>
	<circle style="fill:#F26751;" cx="345.045" cy="178.087" r="50.087"/>
	<path style="fill:#F26751;" d="M345.05,233.739c-30.687,0-55.652-24.966-55.652-55.652s24.966-55.652,55.652-55.652
		s55.652,24.966,55.652,55.652S375.731,233.739,345.05,233.739z M345.05,133.565c-24.548,0-44.522,19.974-44.522,44.522
		s19.974,44.522,44.522,44.522c24.548,0,44.522-19.974,44.522-44.522S369.598,133.565,345.05,133.565z"/>
	<circle style="fill:#F26751;" cx="256.001" cy="272.696" r="50.087"/>
	<path style="fill:#F26751;" d="M256.001,328.348c-30.687,0-55.652-24.966-55.652-55.652s24.966-55.652,55.652-55.652
		s55.652,24.966,55.652,55.652C311.659,303.382,286.688,328.348,256.001,328.348z M256.001,228.174
		c-24.548,0-44.522,19.974-44.522,44.522c0,24.548,19.974,44.522,44.522,44.522c24.554,0,44.522-19.974,44.522-44.522
		C300.523,248.147,280.555,228.174,256.001,228.174z"/>
</g>
<g>
	<circle style="fill:#FFFFFF;" cx="166.958" cy="155.826" r="50.087"/>
	<circle style="fill:#FFFFFF;" cx="345.045" cy="155.826" r="50.087"/>
</g>
<g>
	<path style="fill:#302A27;" d="M166.958,211.478c-30.687,0-55.652-24.966-55.652-55.652s24.966-55.652,55.652-55.652
		s55.652,24.966,55.652,55.652S197.644,211.478,166.958,211.478z M166.958,111.304c-24.548,0-44.522,19.974-44.522,44.522
		s19.974,44.522,44.522,44.522s44.522-19.974,44.522-44.522S191.506,111.304,166.958,111.304z"/>
	<path style="fill:#302A27;" d="M345.05,211.478c-30.687,0-55.652-24.966-55.652-55.652s24.966-55.652,55.652-55.652
		s55.652,24.966,55.652,55.652S375.731,211.478,345.05,211.478z M345.05,111.304c-24.548,0-44.522,19.974-44.522,44.522
		s19.974,44.522,44.522,44.522c24.548,0,44.522-19.974,44.522-44.522S369.598,111.304,345.05,111.304z"/>
</g>
<circle style="fill:#EAA0E0;" cx="345.045" cy="155.826" r="27.826"/>
<circle style="fill:#302A27;" cx="345.045" cy="155.826" r="11.13"/>
<circle style="fill:#FFFFFF;" cx="333.914" cy="144.696" r="8.348"/>
<circle style="fill:#EAA0E0;" cx="166.958" cy="155.826" r="27.826"/>
<circle style="fill:#302A27;" cx="166.958" cy="155.826" r="11.13"/>
<circle style="fill:#FFFFFF;" cx="155.827" cy="144.696" r="8.348"/>
<path style="fill:#302A27;" d="M256.001,300.522c-27.615,0-50.087-22.467-50.087-50.087c0-27.615,22.472-50.087,50.087-50.087
	c27.615,0,50.087,22.472,50.087,50.087C306.094,278.055,283.616,300.522,256.001,300.522z M256.001,211.478
	c-21.482,0-38.957,17.475-38.957,38.957c0,21.476,17.475,38.957,38.957,38.957s38.957-17.48,38.957-38.957
	C294.963,228.953,277.483,211.478,256.001,211.478z"/>
<g>
	<circle style="fill:#FFFFFF;" cx="256.001" cy="250.435" r="44.522"/>
	<circle style="fill:#FFFFFF;" cx="256.001" cy="250.435" r="50.087"/>
</g>
<path style="fill:#302A27;" d="M256.001,306.087c-30.687,0-55.652-24.966-55.652-55.652s24.966-55.652,55.652-55.652
	s55.652,24.966,55.652,55.652C311.659,281.121,286.688,306.087,256.001,306.087z M256.001,205.913
	c-24.548,0-44.522,19.974-44.522,44.522s19.974,44.522,44.522,44.522c24.554,0,44.522-19.974,44.522-44.522
	S280.555,205.913,256.001,205.913z"/>
<circle style="fill:#EAA0E0;" cx="256.001" cy="250.435" r="27.826"/>
<circle style="fill:#302A27;" cx="256.001" cy="250.435" r="11.13"/>
<circle style="fill:#FFFFFF;" cx="244.871" cy="239.304" r="8.348"/>
<path style="fill:#A694D7;" d="M371.201,349.106c21.816,73.517-20.146,86.483-58.323,32.724
	C334.165,374.6,353.938,363.509,371.201,349.106z"/>
<g>
	<path style="fill:#302A27;" d="M217.317,402.571c-19.946,0-33.219-1.759-34.426-1.931c-3.044-0.417-5.17-3.222-4.753-6.272
		c0.417-3.039,3.25-5.215,6.266-4.753c0.646,0.083,65.208,8.604,126.62-13.039c20.781-7.057,39.802-17.731,56.604-31.744
		c13.713-11.642,25.077-25.594,33.747-41.422c1.475-2.688,4.858-3.695,7.552-2.204c2.694,1.48,3.684,4.858,2.204,7.552
		c-9.327,17.035-21.554,32.033-36.341,44.594c-17.892,14.926-38.111,26.273-60.138,33.747
		C278.852,399.716,242.689,402.571,217.317,402.571z"/>
	<path style="fill:#302A27;" d="M357.004,420.358c-14.809,0-32.551-12.616-48.662-35.306c-1.775-2.504-1.191-5.977,1.313-7.763
		c2.51-1.781,5.977-1.191,7.763,1.313c18.616,26.212,36.413,33.642,45.056,29.407c8.225-4.001,14.047-21.421,3.389-57.327
		c-0.874-2.944,0.813-6.044,3.757-6.918c2.944-0.885,6.044,0.813,6.918,3.757c10.719,36.124,7.285,62.481-9.188,70.5
		C364.117,419.595,360.65,420.358,357.004,420.358z"/>
</g>
<g>
	<path style="fill:#F26751;" d="M287.5,417.391c-5.142,2.816-10.624,4.964-16.306,6.4c-5.638,1.475-11.392,2.443-17.197,2.894
		c-11.67,1.135-23.452-0.134-34.616-3.729c-1.508-0.434-2.376-2.009-1.942-3.512c0.351-1.213,1.458-2.048,2.721-2.054l0,0
		c5.565,0,11.13,0,16.696-0.612s10.852-0.668,16.25-1.28c10.797-1.113,21.649-2.727,32.723-3.562l0,0
		c1.536-0.445,3.144,0.44,3.59,1.976s-0.44,3.144-1.976,3.59l0,0L287.5,417.391z"/>
	<path style="fill:#F26751;" d="M163.73,77.913c4.636-1.542,9.478-2.365,14.358-2.449c4.992-0.111,9.973,0.473,14.803,1.725
		c5.053,1.169,9.834,3.306,14.08,6.289c4.207,3.161,7.491,7.385,9.517,12.243c0.646,1.425,0.017,3.111-1.408,3.757
		c-0.879,0.401-1.898,0.323-2.71-0.195h-0.334c-3.428-2.421-6.995-4.63-10.685-6.623c-3.578-1.853-7.302-3.417-11.13-4.675
		c-4.074-1.197-8.22-2.126-12.41-2.783c-4.23-0.723-8.737-1.169-13.023-1.558l0,0c-1.564-0.061-2.788-1.38-2.727-2.95
		c0.05-1.224,0.879-2.282,2.059-2.616L163.73,77.913z"/>
	<path style="fill:#F26751;" d="M347.382,83.478c-4.285,0.39-8.793,0.835-13.023,1.558c-4.196,0.657-8.337,1.586-12.41,2.783
		c-3.829,1.258-7.552,2.822-11.13,4.675c-3.745,1.97-7.368,4.163-10.852,6.567h-0.278c-1.302,0.874-3.066,0.523-3.935-0.779
		c-0.54-0.807-0.629-1.837-0.239-2.727c2.048-4.797,5.331-8.966,9.517-12.077c4.157-3.039,8.865-5.248,13.857-6.511
		c4.914-1.202,9.973-1.709,15.026-1.503c4.936,0.067,9.839,0.89,14.525,2.449c1.508,0.429,2.382,2.003,1.948,3.506
		c-0.34,1.18-1.391,2.009-2.616,2.059C347.772,83.478,347.382,83.478,347.382,83.478z"/>
</g>
<g>
</g>
<g>
</g>
<g>
</g>
<g>
</g>
<g>
</g>
<g>
</g>
<g>
</g>
<g>
</g>
<g>
</g>
<g>
</g>
<g>
</g>
<g>
</g>
<g>
</g>
<g>
</g>
<g>
</g>
</svg>
