<?xml version="1.0" encoding="iso-8859-1"?>
<!-- Generator: Adobe Illustrator 19.0.0, SVG Export Plug-In . SVG Version: 6.00 Build 0)  -->
<svg version="1.1" id="Layer_1" xmlns="http://www.w3.org/2000/svg" xmlns:xlink="http://www.w3.org/1999/xlink" x="0px" y="0px"
	 viewBox="0 0 512 512" style="enable-background:new 0 0 512 512;" xml:space="preserve">
<path style="fill:#424242;" d="M380.703,391.521c-9.102,0-16.481-7.379-16.481-16.481v-75.892c0-9.102,7.379-16.481,16.481-16.481
	s16.481,7.379,16.481,16.481v75.892C397.184,384.142,389.805,391.521,380.703,391.521z"/>
<circle style="fill:#D17A00;" cx="380.706" cy="380.538" r="29.116"/>
<path style="fill:#C45F00;" d="M380.704,351.417v58.232c16.08,0,29.116-13.036,29.116-29.116
	C409.819,364.453,396.784,351.417,380.704,351.417z"/>
<path style="fill:#424242;" d="M131.296,391.521c-9.102,0-16.481-7.379-16.481-16.481v-75.892c0-9.102,7.378-16.481,16.481-16.481
	s16.481,7.379,16.481,16.481v75.892C147.777,384.142,140.398,391.521,131.296,391.521z"/>
<circle style="fill:#D17A00;" cx="131.292" cy="380.538" r="29.116"/>
<path style="fill:#C45F00;" d="M131.296,351.417v58.232c16.081,0,29.115-13.036,29.115-29.116
	C160.412,364.453,147.377,351.417,131.296,351.417z"/>
<path style="fill:#285B91;" d="M485.714,217.79L258.83,178.237c-1.873-0.326-3.788-0.326-5.66,0L26.286,217.79
	c-7.89,1.376-13.65,8.227-13.65,16.236v43.948c0,8.01,5.76,14.861,13.65,16.236l226.884,39.554c0.936,0.163,1.883,0.245,2.831,0.245
	s1.893-0.081,2.831-0.245l226.884-39.554c7.89-1.376,13.65-8.227,13.65-16.236v-43.948
	C499.364,226.016,493.605,219.165,485.714,217.79z"/>
<path style="fill:#184270;" d="M485.714,217.79L258.83,178.237c-1.245-0.217-2.507-0.276-3.764-0.204v155.937
	c0.311,0.018,0.622,0.041,0.934,0.041c0.948,0,1.893-0.081,2.831-0.245l226.884-39.554c7.89-1.376,13.65-8.227,13.65-16.236v-43.948
	C499.364,226.016,493.605,219.165,485.714,217.79z"/>
<line style="fill:none;stroke:#9CC8EF;stroke-width:20;stroke-miterlimit:10;" x1="38.745" y1="258.395" x2="468.34" y2="258.395"/>
<circle style="fill:#9CC8EF;" cx="256.316" cy="259.129" r="77.964"/>
<path style="fill:#66A8E5;" d="M256.311,213.036c37.596,0,68.972,26.614,76.325,62.029c1.069-5.144,1.635-10.471,1.635-15.932
	c0-43.057-34.904-77.961-77.96-77.961c-43.057,0-77.96,34.904-77.96,77.961c0,5.46,0.566,10.788,1.635,15.932
	C187.341,239.65,218.716,213.036,256.311,213.036z"/>
<path style="fill:#424242;" d="M16.481,468.052C7.378,468.052,0,460.673,0,451.571V60.429c0-9.102,7.378-16.481,16.481-16.481
	s16.481,7.378,16.481,16.481v391.142C32.961,460.673,25.583,468.052,16.481,468.052z"/>
<path style="fill:#525252;" d="M48.343,393.888c-9.102,0-16.481-7.379-16.481-16.481V134.593c0-9.102,7.378-16.481,16.481-16.481
	s16.481,7.378,16.481,16.481v242.815C64.824,386.51,57.445,393.888,48.343,393.888z"/>
<path style="fill:#424242;" d="M495.519,468.052c-9.102,0-16.481-7.379-16.481-16.481V60.429c0-9.102,7.379-16.481,16.481-16.481
	c9.102,0,16.481,7.378,16.481,16.481v391.142C512,460.673,504.62,468.052,495.519,468.052z"/>
<path style="fill:#525252;" d="M463.657,393.888c-9.102,0-16.481-7.379-16.481-16.481V134.593c0-9.102,7.379-16.481,16.481-16.481
	s16.481,7.378,16.481,16.481v242.815C480.137,386.51,472.758,393.888,463.657,393.888z"/>
<path style="fill:#424242;" d="M255.999,193.649c-9.102,0-16.481-7.378-16.481-16.481v-75.891c0-9.102,7.378-16.481,16.481-16.481
	c9.102,0,16.481,7.378,16.481,16.481v75.891C272.48,186.27,265.102,193.649,255.999,193.649z"/>
<circle style="fill:#D17A00;" cx="255.999" cy="95.79" r="29.116"/>
<path style="fill:#424242;" d="M255.997,351.314c-9.021,0-16.38-7.262-16.476-16.303l-0.81-75.342
	c-0.098-9.101,7.2-16.559,16.302-16.657c0.06-0.001,0.121-0.001,0.181-0.001c9.021,0,16.379,7.262,16.476,16.303l0.81,75.342
	c0.097,9.101-7.201,16.559-16.302,16.657C256.117,351.314,256.056,351.314,255.997,351.314z"/>
<path style="fill:#525252;" d="M279.58,274.873H232.42c-9.102,0-16.481-7.379-16.481-16.481c0-9.102,7.378-16.481,16.481-16.481
	h47.159c9.102,0,16.481,7.378,16.481,16.481C296.06,267.495,288.682,274.873,279.58,274.873z"/>
<path style="fill:#FFAE00;" d="M255.999,351.314c-52.555,0-95.313-42.757-95.313-95.313s42.757-95.313,95.313-95.313
	s95.313,42.757,95.313,95.313S308.556,351.314,255.999,351.314z M255.999,193.649c-34.38,0-62.352,27.971-62.352,62.352
	s27.971,62.352,62.352,62.352s62.352-27.971,62.352-62.352S290.381,193.649,255.999,193.649z"/>
<path style="fill:#D17A00;" d="M255.999,160.687c-0.102,0-0.203,0.003-0.305,0.003v32.965c0.103,0,0.203-0.008,0.305-0.008
	c34.381,0,62.352,27.971,62.352,62.352s-27.971,62.352-62.352,62.352c-0.103,0-0.203-0.008-0.305-0.008v32.965
	c0.102,0,0.203,0.003,0.305,0.003c52.555,0,95.313-42.757,95.313-95.313S308.556,160.687,255.999,160.687z"/>
<path style="fill:#C45F00;" d="M256.311,66.676v58.216c15.936-0.168,28.805-13.132,28.805-29.107
	C285.116,79.807,272.247,66.844,256.311,66.676z"/>
<g>
</g>
<g>
</g>
<g>
</g>
<g>
</g>
<g>
</g>
<g>
</g>
<g>
</g>
<g>
</g>
<g>
</g>
<g>
</g>
<g>
</g>
<g>
</g>
<g>
</g>
<g>
</g>
<g>
</g>
</svg>
