<?xml version="1.0"?>
<svg xmlns="http://www.w3.org/2000/svg" viewBox="0 0 64 64" width="512" height="512"><title>07 Two Wheel Robot</title><g id="_07_Two_Wheel_Robot" data-name="07 Two Wheel Robot"><path d="M57,35a1,1,0,0,1-1-1V28a6.006,6.006,0,0,0-6-6,1,1,0,0,1,0-2,8.009,8.009,0,0,1,8,8v6A1,1,0,0,1,57,35Z" style="fill:#95c8ec"/><path d="M7,35a1,1,0,0,1-1-1V28a8.009,8.009,0,0,1,8-8,1,1,0,0,1,0,2,6.006,6.006,0,0,0-6,6v6A1,1,0,0,1,7,35Z" style="fill:#95c8ec"/><rect x="13" y="16" width="6" height="10" rx="1" ry="1" style="fill:#37474f"/><rect x="45" y="16" width="6" height="10" rx="1" ry="1" style="fill:#37474f"/><path d="M32,49a1,1,0,0,1-1-1V38a1,1,0,0,1,2,0V48A1,1,0,0,1,32,49Z" style="fill:#95c8ec"/><rect x="20" y="33" width="24" height="6" rx="1" ry="1" style="fill:#607d8b"/><path d="M38,3H26a9.011,9.011,0,0,0-9,9V32a3,3,0,0,0,3,3H44a3,3,0,0,0,3-3V12A9.011,9.011,0,0,0,38,3Z" style="fill:#57a0d7"/><path d="M37,19.1a4.712,4.712,0,0,0-1-.1H28a4.712,4.712,0,0,0-1,.1,5,5,0,0,0,0,9.8,4.712,4.712,0,0,0,1,.1h8a4.712,4.712,0,0,0,1-.1,5,5,0,0,0,0-9.8Z" style="fill:#bdddf4"/><path d="M29,19V29H28a4.712,4.712,0,0,1-1-.1V19.1a4.712,4.712,0,0,1,1-.1Z" style="fill:#607d8b"/><rect x="31" y="19" width="2" height="10" style="fill:#607d8b"/><path d="M37,19.1v9.8a4.712,4.712,0,0,1-1,.1H35V19h1A4.712,4.712,0,0,1,37,19.1Z" style="fill:#607d8b"/><circle cx="25" cy="13" r="4" style="fill:#bdddf4"/><circle cx="39" cy="13" r="4" style="fill:#bdddf4"/><circle cx="57" cy="37" r="4" style="fill:#57a0d7"/><circle cx="7" cy="37" r="4" style="fill:#57a0d7"/><path d="M28,52H21a1,1,0,0,1,0-2h7a1,1,0,0,1,0,2Z" style="fill:#95c8ec"/><rect x="16" y="46" width="6" height="10" rx="1" ry="1" style="fill:#607d8b"/><rect x="10" y="41" width="8" height="20" rx="3" ry="3" style="fill:#37474f"/><path d="M36,52h7a1,1,0,0,0,0-2H36a1,1,0,0,0,0,2Z" style="fill:#95c8ec"/><rect x="42" y="46" width="6" height="10" rx="1" ry="1" style="fill:#607d8b"/><rect x="46" y="41" width="8" height="20" rx="3" ry="3" style="fill:#37474f"/><circle cx="32" cy="51" r="4" style="fill:#57a0d7"/></g></svg>
