<?xml version="1.0" encoding="iso-8859-1"?>
<!-- Generator: Adobe Illustrator 19.0.0, SVG Export Plug-In . SVG Version: 6.00 Build 0)  -->
<svg version="1.1" id="Capa_1" xmlns="http://www.w3.org/2000/svg" xmlns:xlink="http://www.w3.org/1999/xlink" x="0px" y="0px"
	 viewBox="0 0 512 512" style="enable-background:new 0 0 512 512;" xml:space="preserve">
<path style="fill:#FF88B6;" d="M492.523,271.638c29.162,167.736-10.797,233.405-236.522,234.797
	C30.276,505.043-9.682,439.318,19.479,271.638C48.307,109.523,74.464,5.565,256.001,5.565S463.695,109.523,492.523,271.638z"/>
<path style="fill:#FFAEDC;" d="M308.092,8.96l-0.779,0.501c-9.611,4.179-20.118,5.866-30.553,4.897
	c-22.461-0.985-44.945,1.23-66.783,6.567c-21.888,5.487-41.088,18.61-54.15,37.009c-7.958,12.188-12.41,26.936-23.263,36.563
	c-12.132,10.685-29.551,12.633-43.52,20.647c-16.49,9.756-26.952,27.164-27.826,46.303c-1.057,28.55,19.645,56.153,12.577,83.812
	C70.68,257.391,62.666,267.52,57.1,278.65c-5.009,10.407-8.014,22.261-15.527,30.776c-4.903,5.176-10.524,9.622-16.696,13.19
	c-4.063,2.56-8.237,4.842-12.188,7.235c1.475-19.595,3.968-39.096,7.457-58.435C48.307,109.523,74.464,5.565,256.001,5.565
	c7.513,0,14.803,0,21.816,0.557C288.502,6.678,298.575,7.624,308.092,8.96z"/>
<path style="fill:#DB71B0;" d="M256.001,506.435c-32.846,0.117-65.664-1.987-98.226-6.289c5.749-6.773,13.039-12.06,21.259-15.416
	c17.085-6.678,36.118-5.565,54.317-3.506s36.508,5.565,54.762,4.007c36.619-3.617,68.508-27.826,104.96-32.89
	c9.155-0.584,18.248-1.853,27.214-3.784c15.755-4.797,28.065-17.163,32.779-32.946c2.504-8.849,2.727-18.922,8.793-25.823
	c3.951-4.452,9.85-6.901,13.802-11.13c7.791-8.793,5.899-22.261,3.896-33.837c-6.022-34.927-9.077-70.3-9.127-105.739
	c0-13.523,0.946-28.271,8.125-38.957c4.953,22.261,9.461,46.47,13.969,71.903C521.685,439.318,481.726,505.043,256.001,506.435z"/>
<g>
	<path style="fill:#302A27;" d="M256.035,512c-118.634-0.729-186.897-19.462-221.39-60.728
		c-30.202-36.135-36.38-90.14-20.653-180.586C43.844,102.851,71.498,0,256.001,0s212.163,102.851,242.004,270.664
		c0,0.006,0.006,0.011,0.006,0.022c15.722,90.463,9.55,144.473-20.653,180.602C442.87,492.544,374.613,511.271,256.035,512z
		 M256.001,11.13c-175.627,0-202.212,99.361-231.046,261.476c-15.098,86.867-9.65,138.168,18.232,171.526
		c32.206,38.534,97.853,56.031,212.847,56.737c114.938-0.707,180.58-18.204,212.781-56.721
		c27.876-33.347,33.33-84.647,18.226-171.537l0,0C458.213,110.492,431.628,11.13,256.001,11.13z"/>
	<path style="fill:#302A27;" d="M337.699,398.692c-8.526-1.72-16.902-4.118-25.043-7.179c-4.73-1.725-9.294-3.283-13.746-4.619
		c-40.014-12.522-68.675-12.41-90.88-7.402c-12.338,2.9-24.27,7.329-35.506,13.19l-7.29,3.673
		c-28.494,14.637-24.654-10.518-4.73-34.115c1.781-2.115,3.617-4.174,5.565-6.122c5.994-6.534,12.527-12.544,19.534-17.976
		c41.433-32.957,99.4-35.406,143.471-6.066c2.593,1.708,5.081,3.567,7.457,5.565c3.601,3.144,7.001,6.511,10.184,10.073
		C369.921,373.593,381.497,406.873,337.699,398.692z"/>
	<path style="fill:#302A27;" d="M151.442,406.283c-4.118,0-7.335-1.441-9.622-4.319c-7.418-9.327,1.903-28.472,14.431-43.314
		l0.006-0.006c33.809-39.869,71.051-50.404,96.339-52.213c38.701-2.816,70.556,12.266,87.513,27.264
		c21.415,18.944,39.279,47.332,30.191,62.625c-7.229,12.171-26.707,12.288-59.592,0.367c-78.52-28.472-115.745-9.35-142.931,4.614
		C161.315,404.619,155.861,406.283,151.442,406.283z M150.529,395.03c0.089,0,3.033,1.057,12.16-3.629
		c29.006-14.898,68.719-35.295,151.808-5.181c29.624,10.746,43.314,9.333,46.23,4.413c4.38-7.374-6.656-29.729-27.993-48.601
		c-14.564-12.878-44.071-27.03-79.338-24.504c-33.213,2.382-63.861,19.089-88.643,48.306
		C151.67,381.334,149.244,393.155,150.529,395.03L150.529,395.03z"/>
</g>
<path style="fill:#FFFFFF;" d="M166.012,395.13c13.946-7.708,28.945-13.334,44.522-16.696
	c-7.752-11.821-14.453-24.298-20.035-37.287c-6.5-14.837-10.685-30.586-12.41-46.692c-0.25-3.061-2.938-5.343-5.999-5.092
	c-2.187,0.178-4.068,1.631-4.797,3.701c-6.895,22.328-9.244,45.813-6.901,69.064C161.315,373.27,163.19,384.312,166.012,395.13z"/>
<path style="fill:#302A27;" d="M166.012,400.696c-0.746,0-1.491-0.15-2.198-0.451c-1.581-0.679-2.755-2.048-3.189-3.712
	c-2.894-11.097-4.836-22.517-5.782-33.948c-2.421-24.025-0.022-48.006,7.129-71.162c1.525-4.341,5.287-7.251,9.656-7.608
	c6.144-0.451,11.503,4.074,12.004,10.19c1.653,15.421,5.682,30.575,11.96,44.906c5.454,12.694,12.043,24.954,19.595,36.474
	c1.007,1.53,1.191,3.462,0.495,5.159c-0.696,1.703-2.182,2.944-3.974,3.334c-15.054,3.25-29.523,8.682-43.002,16.122
	C167.87,400.462,166.941,400.696,166.012,400.696z M172.556,295.051c-6.662,21.387-8.91,43.882-6.628,66.521
	c0.707,8.537,1.987,17.007,3.823,25.316c10.207-5.087,20.897-9.116,31.922-12.043c-6.161-10.09-11.626-20.653-16.289-31.499
	C178.667,328.003,174.343,311.747,172.556,295.051z"/>
<path style="fill:#FFFFFF;" d="M314.547,391.791c9.728,3.795,19.873,6.428,30.219,7.847c4.235-14.965,6.717-30.375,7.402-45.913l0,0
	c1.146-20.502-1.38-41.043-7.457-60.661c-1.018-2.899-4.196-4.424-7.096-3.406c-2.07,0.729-3.523,2.604-3.701,4.797
	c-1.447,14.136-4.875,27.999-10.184,41.183c-7.085,17.681-16.178,34.488-27.103,50.087
	C302.415,387.673,308.314,389.565,314.547,391.791z"/>
<path style="fill:#302A27;" d="M344.772,405.203c-0.25,0-0.506-0.017-0.762-0.05c-10.724-1.469-21.293-4.207-31.41-8.147
	c-4.302-1.53-8.448-2.905-12.505-4.257l-5.242-1.753c-1.664-0.562-2.961-1.87-3.512-3.534c-0.551-1.67-0.278-3.495,0.729-4.931
	c10.657-15.215,19.573-31.694,26.502-48.968c5.114-12.705,8.415-26.056,9.811-39.68c0.351-4.257,3.25-8.014,7.385-9.472
	c5.788-2.042,12.16,1.018,14.197,6.806c6.361,20.525,8.949,41.589,7.763,62.815c-0.69,15.883-3.25,31.766-7.602,47.121
	C349.436,403.578,347.226,405.203,344.772,405.203z M305.359,382.765c3.595,1.197,7.274,2.432,11.064,3.79
	c0.05,0.017,0.1,0.033,0.145,0.056c7.802,3.044,15.894,5.309,24.125,6.762c3.339-13.045,5.326-26.435,5.916-39.891
	c1.113-19.968-1.308-39.719-7.213-58.769c-1.447,14.97-4.998,29.334-10.502,43.002C322.578,353.475,314.675,368.595,305.359,382.765
	z"/>
<g>
	<circle style="fill:#DB71B0;" cx="256.001" cy="211.478" r="66.783"/>
	<path style="fill:#DB71B0;" d="M256.001,283.826c-39.891,0-72.348-32.456-72.348-72.348s32.456-72.348,72.348-72.348
		s72.348,32.456,72.348,72.348S295.893,283.826,256.001,283.826z M256.001,150.261c-33.753,0-61.217,27.464-61.217,61.217
		s27.464,61.217,61.217,61.217c33.759,0,61.217-27.464,61.217-61.217S289.76,150.261,256.001,150.261z"/>
	<circle style="fill:#DB71B0;" cx="133.566" cy="189.217" r="55.652"/>
	<path style="fill:#DB71B0;" d="M133.566,250.435c-33.753,0-61.217-27.464-61.217-61.217S99.813,128,133.566,128
		s61.217,27.464,61.217,61.217S167.319,250.435,133.566,250.435z M133.566,139.13c-27.615,0-50.087,22.472-50.087,50.087
		s22.472,50.087,50.087,50.087s50.087-22.472,50.087-50.087S161.181,139.13,133.566,139.13z"/>
	<circle style="fill:#DB71B0;" cx="378.436" cy="189.217" r="55.652"/>
	<path style="fill:#DB71B0;" d="M378.442,250.435c-33.753,0-61.217-27.464-61.217-61.217S344.689,128,378.442,128
		s61.217,27.464,61.217,61.217S412.195,250.435,378.442,250.435z M378.442,139.13c-27.62,0-50.087,22.472-50.087,50.087
		s22.467,50.087,50.087,50.087c27.62,0,50.087-22.472,50.087-50.087S406.056,139.13,378.442,139.13z"/>
	<path style="fill:#DB71B0;" d="M178.979,422.957c5.109-5.148,11.03-9.416,17.53-12.633c6.489-3.295,13.401-5.688,20.536-7.123
		c3.567-0.723,7.174-1.247,10.797-1.558c3.706-0.267,7.424-0.267,11.13,0c7.213,0.54,14.28,2.265,20.925,5.12
		c1.536,0.339,2.51,1.859,2.17,3.395s-1.859,2.51-3.395,2.17l0,0c-6.567-0.562-13.167-0.746-19.757-0.557
		c-6.456,0.189-12.883,0.968-19.2,2.337c-6.372,1.358-12.622,3.222-18.699,5.565c-6.155,2.293-12.171,4.931-18.031,7.903l0,0
		c-1.33,0.774-3.033,0.323-3.801-1.007c-0.657-1.13-0.44-2.56,0.518-3.445L178.979,422.957z"/>
</g>
<circle style="fill:#FFFFFF;" cx="256.001" cy="189.217" r="66.783"/>
<path style="fill:#302A27;" d="M256.001,261.565c-39.891,0-72.348-32.456-72.348-72.348s32.456-72.348,72.348-72.348
	s72.348,32.456,72.348,72.348S295.893,261.565,256.001,261.565z M256.001,128c-33.753,0-61.217,27.464-61.217,61.217
	s27.464,61.217,61.217,61.217c33.759,0,61.217-27.464,61.217-61.217S289.76,128,256.001,128z"/>
<circle style="fill:#9ADB61;" cx="256.001" cy="189.217" r="38.957"/>
<circle style="fill:#302A27;" cx="256.001" cy="189.217" r="16.696"/>
<g>
	<circle style="fill:#FFFFFF;" cx="244.871" cy="178.087" r="11.13"/>
	<circle style="fill:#FFFFFF;" cx="133.566" cy="166.957" r="55.652"/>
</g>
<path style="fill:#302A27;" d="M133.566,228.174c-33.753,0-61.217-27.464-61.217-61.217s27.464-61.217,61.217-61.217
	s61.217,27.464,61.217,61.217S167.319,228.174,133.566,228.174z M133.566,116.87c-27.615,0-50.087,22.472-50.087,50.087
	s22.472,50.087,50.087,50.087s50.087-22.472,50.087-50.087S161.181,116.87,133.566,116.87z"/>
<circle style="fill:#9ADB61;" cx="133.566" cy="166.957" r="33.391"/>
<circle style="fill:#302A27;" cx="133.566" cy="166.957" r="11.13"/>
<g>
	<circle style="fill:#FFFFFF;" cx="122.436" cy="155.826" r="8.348"/>
	<circle style="fill:#FFFFFF;" cx="378.436" cy="166.957" r="55.652"/>
</g>
<path style="fill:#302A27;" d="M378.442,228.174c-33.753,0-61.217-27.464-61.217-61.217s27.464-61.217,61.217-61.217
	s61.217,27.464,61.217,61.217S412.195,228.174,378.442,228.174z M378.442,116.87c-27.62,0-50.087,22.472-50.087,50.087
	s22.467,50.087,50.087,50.087c27.62,0,50.087-22.472,50.087-50.087S406.056,116.87,378.442,116.87z"/>
<circle style="fill:#9ADB61;" cx="378.436" cy="166.957" r="33.391"/>
<circle style="fill:#302A27;" cx="378.436" cy="166.957" r="11.13"/>
<circle style="fill:#FFFFFF;" cx="367.306" cy="155.826" r="8.348"/>
<g>
	<path style="fill:#DB71B0;" d="M171.076,75.297c3.718,1.308,7.251,3.083,10.518,5.287c3.183,2.104,6.099,4.591,8.682,7.402
		c2.605,2.777,4.781,5.933,6.456,9.35c1.658,3.35,2.855,6.906,3.562,10.574c0.445,1.536-0.44,3.144-1.976,3.59
		c-1.536,0.445-3.144-0.44-3.59-1.976l0,0c-1.007-2.977-2.41-5.805-4.174-8.403c-1.725-2.566-3.829-4.853-6.233-6.79
		c-2.298-2.065-4.842-3.84-7.569-5.287c-2.655-1.297-5.459-2.271-8.348-2.894l0,0c-3.072-0.568-5.103-3.523-4.536-6.595
		c0.568-3.072,3.523-5.103,6.595-4.536l0,0L171.076,75.297z"/>
	<path style="fill:#DB71B0;" d="M343.598,86.094c-2.888,0.623-5.693,1.597-8.348,2.894c-2.771,1.33-5.37,2.994-7.736,4.953
		c-2.404,1.937-4.508,4.224-6.233,6.79c-1.725,2.627-3.094,5.471-4.063,8.459l0,0c-0.445,1.536-2.054,2.421-3.59,1.976
		c-1.536-0.445-2.421-2.054-1.976-3.59c0.707-3.667,1.903-7.224,3.562-10.574c1.675-3.417,3.851-6.573,6.456-9.35
		c2.582-2.81,5.498-5.298,8.682-7.402c3.267-2.204,6.801-3.979,10.518-5.287c2.922-0.996,6.099,0.557,7.096,3.478
		c0.996,2.922-0.557,6.099-3.478,7.096h-0.779L343.598,86.094z"/>
</g>
<g>
</g>
<g>
</g>
<g>
</g>
<g>
</g>
<g>
</g>
<g>
</g>
<g>
</g>
<g>
</g>
<g>
</g>
<g>
</g>
<g>
</g>
<g>
</g>
<g>
</g>
<g>
</g>
<g>
</g>
</svg>
