<?xml version="1.0" encoding="iso-8859-1"?>
<!-- Generator: Adobe Illustrator 19.0.0, SVG Export Plug-In . SVG Version: 6.00 Build 0)  -->
<svg version="1.1" id="Capa_1" xmlns="http://www.w3.org/2000/svg" xmlns:xlink="http://www.w3.org/1999/xlink" x="0px" y="0px"
	 viewBox="0 0 512 512" style="enable-background:new 0 0 512 512;" xml:space="preserve">
<path style="fill:#FFD266;" d="M492.523,271.638c29.162,167.736-10.797,233.405-236.522,234.797
	C30.276,505.043-9.682,439.318,19.479,271.638C48.307,109.523,74.464,5.565,256.001,5.565S463.695,109.523,492.523,271.638z"/>
<path style="fill:#FFEE88;" d="M308.092,8.96l-0.779,0.501c-9.611,4.179-20.118,5.866-30.553,4.897
	c-22.461-0.985-44.945,1.23-66.783,6.567c-21.888,5.487-41.088,18.61-54.15,37.009c-7.958,12.188-12.41,26.936-23.263,36.563
	c-12.132,10.685-29.551,12.633-43.52,20.647c-16.49,9.756-26.952,27.164-27.826,46.303c-1.057,28.55,19.645,56.153,12.577,83.812
	C70.68,257.391,62.666,267.52,57.1,278.65c-5.009,10.407-8.014,22.261-15.527,30.776c-4.903,5.176-10.524,9.622-16.696,13.19
	c-4.063,2.56-8.237,4.842-12.188,7.235c1.475-19.595,3.968-39.096,7.457-58.435C48.307,109.523,74.464,5.565,256.001,5.565
	c7.513,0,14.803,0,21.816,0.557C288.502,6.678,298.575,7.624,308.092,8.96z"/>
<path style="fill:#F2B149;" d="M256.001,506.435c-32.846,0.117-65.664-1.987-98.226-6.289c5.749-6.773,13.039-12.06,21.259-15.416
	c17.085-6.678,36.118-5.565,54.317-3.506s36.508,5.565,54.762,4.007c36.619-3.617,68.508-27.826,104.96-32.89
	c9.155-0.584,18.248-1.853,27.214-3.784c15.755-4.797,28.065-17.163,32.779-32.946c2.504-8.849,2.727-18.922,8.793-25.823
	c3.951-4.452,9.85-6.901,13.802-11.13c7.791-8.793,5.899-22.261,3.896-33.837c-6.022-34.927-9.077-70.3-9.127-105.739
	c0-13.523,0.946-28.271,8.125-38.957c4.953,22.261,9.461,46.47,13.969,71.903C521.685,439.318,481.726,505.043,256.001,506.435z"/>
<path style="fill:#302A27;" d="M256.035,512c-118.634-0.729-186.897-19.462-221.39-60.728
	c-30.202-36.135-36.38-90.14-20.653-180.586C43.844,102.851,71.498,0,256.001,0s212.163,102.851,242.004,270.664
	c0,0.006,0.006,0.011,0.006,0.022c15.722,90.463,9.55,144.473-20.653,180.602C442.87,492.544,374.613,511.271,256.035,512z
	 M256.001,11.13c-175.627,0-202.212,99.361-231.046,261.476c-15.098,86.867-9.65,138.168,18.232,171.526
	c32.206,38.534,97.853,56.031,212.847,56.737c114.938-0.707,180.58-18.204,212.781-56.721
	c27.876-33.347,33.33-84.647,18.226-171.537l0,0C458.213,110.492,431.628,11.13,256.001,11.13z"/>
<g>
	<path style="fill:#F2B149;" d="M178.088,200.348c13.162-0.061,26.268,1.681,38.957,5.176c12.121-21.393,4.608-48.562-16.785-60.683
		c-21.393-12.121-48.562-4.608-60.683,16.785c-7.719,13.618-7.719,30.286,0,43.904C152.121,202.067,165.077,200.326,178.088,200.348
		z"/>
	<path style="fill:#F2B149;" d="M139.577,211.089c-1.97,0-3.834-1.046-4.842-2.822c-8.632-15.232-8.632-34.159,0-49.391
		c13.618-24.025,44.238-32.49,68.274-18.883c24.025,13.618,32.495,44.243,18.883,68.274c-1.258,2.215-3.857,3.295-6.322,2.621
		c-12.199-3.361-24.893-4.903-37.448-4.975c-0.106,0.011-0.178,0-0.267,0c-12.427,0-24.804,1.675-36.792,4.975
		C140.562,211.022,140.067,211.089,139.577,211.089z M178.773,194.783c11.904,0,23.752,1.419,35.306,4.23
		c7.786-18.009,0.89-39.435-16.562-49.33c-18.688-10.596-42.513-4.007-53.098,14.687c-6.022,10.618-6.645,23.546-1.875,34.643
		c11.631-2.822,23.686-4.291,35.534-4.224C178.311,194.783,178.545,194.783,178.773,194.783z"/>
	<path style="fill:#F2B149;" d="M333.914,200.348c-13.162-0.061-26.268,1.681-38.957,5.176
		c-12.121-21.393-4.608-48.562,16.785-60.683c21.393-12.121,48.562-4.608,60.683,16.785c7.719,13.618,7.719,30.286,0,43.904
		C359.882,202.067,346.926,200.326,333.914,200.348z"/>
	<path style="fill:#F2B149;" d="M372.426,211.089c-0.49,0-0.991-0.067-1.48-0.2c-11.982-3.3-24.365-4.975-36.792-4.975
		c-0.089,0-0.178,0-0.267,0c-12.75-0.067-25.261,1.614-37.448,4.975c-2.46,0.69-5.064-0.406-6.322-2.621
		c-13.618-24.025-5.153-54.656,18.877-68.274c24.014-13.607,54.65-5.148,68.28,18.883c8.632,15.232,8.632,34.159,0,49.391
		C376.266,210.042,374.396,211.089,372.426,211.089z M333.625,144.623c-6.506,0-13.095,1.625-19.139,5.059
		c-17.453,9.889-24.348,31.315-16.562,49.33c11.553-2.805,23.407-4.23,35.311-4.23c0.317,0,0.634,0.006,0.924,0
		c11.893,0,23.747,1.419,35.306,4.224c4.764-11.097,4.146-24.025-1.875-34.643C360.421,151.73,347.21,144.623,333.625,144.623z"/>
</g>
<g>
	<path style="fill:#FFFFFF;" d="M178.088,178.087c13.162-0.061,26.268,1.681,38.957,5.176c12.121-21.393,4.608-48.562-16.785-60.683
		s-48.562-4.608-60.683,16.785c-7.719,13.618-7.719,30.286,0,43.904C152.121,179.807,165.077,178.065,178.088,178.087z"/>
	<path style="fill:#FFFFFF;" d="M333.914,178.087c-13.162-0.061-26.268,1.681-38.957,5.176
		c-12.121-21.393-4.608-48.562,16.785-60.683c21.393-12.121,48.562-4.608,60.683,16.785c7.719,13.618,7.719,30.286,0,43.904
		C359.882,179.807,346.926,178.065,333.914,178.087z"/>
</g>
<g>
	<circle style="fill:#FF9166;" cx="333.914" cy="161.391" r="22.261"/>
	<circle style="fill:#FF9166;" cx="178.088" cy="161.391" r="22.261"/>
</g>
<g>
	<circle style="fill:#302A27;" cx="333.914" cy="161.391" r="11.13"/>
	<circle style="fill:#302A27;" cx="178.088" cy="161.391" r="11.13"/>
</g>
<g>
	<circle style="fill:#FFFFFF;" cx="172.523" cy="155.826" r="8.348"/>
	<circle style="fill:#FFFFFF;" cx="328.349" cy="155.826" r="8.348"/>
</g>
<g>
	<path style="fill:#302A27;" d="M139.577,188.828c-1.97,0-3.834-1.046-4.842-2.822c-8.632-15.232-8.632-34.159,0-49.391
		c13.618-24.025,44.238-32.495,68.274-18.883c24.025,13.618,32.495,44.243,18.883,68.274c-1.258,2.215-3.857,3.3-6.322,2.621
		c-12.199-3.361-24.893-4.981-37.448-4.975c-0.106,0.011-0.178,0-0.267,0c-12.427,0-24.804,1.675-36.792,4.975
		C140.562,188.761,140.067,188.828,139.577,188.828z M178.773,172.522c11.904,0,23.752,1.419,35.306,4.23
		c7.786-18.009,0.89-39.435-16.562-49.33c-18.688-10.596-42.513-4.007-53.098,14.687c-6.022,10.618-6.645,23.546-1.875,34.643
		c11.631-2.822,23.686-4.324,35.534-4.224C178.311,172.522,178.545,172.522,178.773,172.522z"/>
	<path style="fill:#302A27;" d="M372.426,188.828c-0.49,0-0.991-0.067-1.48-0.2c-11.982-3.3-24.365-4.975-36.792-4.975
		c-0.089,0-0.178,0-0.267,0c-12.75-0.106-25.261,1.614-37.448,4.975c-2.46,0.69-5.064-0.406-6.322-2.621
		c-13.618-24.025-5.153-54.656,18.877-68.274c24.014-13.607,54.65-5.148,68.28,18.883c8.632,15.232,8.632,34.159,0,49.391
		C376.266,187.782,374.396,188.828,372.426,188.828z M333.625,122.362c-6.506,0-13.095,1.625-19.139,5.059
		c-17.453,9.889-24.348,31.315-16.562,49.33c11.553-2.805,23.407-4.23,35.311-4.23c0.317,0,0.634,0.006,0.924,0
		c11.893,0,23.747,1.419,35.306,4.224c4.764-11.097,4.146-24.025-1.875-34.643C360.421,129.469,347.21,122.362,333.625,122.362z"/>
	<path style="fill:#302A27;" d="M395.132,322.783c0,23.263-18.198,44.132-47.026,58.379c-28.845,13.351-60.327,20.029-92.104,19.534
		c-31.777,0.495-63.26-6.183-92.104-19.534c-28.828-14.247-47.026-35.117-47.026-58.379c0-43.019,62.275-77.913,139.13-77.913
		S395.132,279.763,395.132,322.783z"/>
</g>
<path style="fill:#9ADB61;" d="M348.106,381.162c-28.845,13.351-60.327,20.029-92.104,19.534
	c-31.777,0.495-63.26-6.183-92.104-19.534c20.647-32.501,68.452-52.814,92.104-17.586
	C279.653,328.348,327.459,348.661,348.106,381.162z"/>
<path style="fill:#302A27;" d="M259.218,406.289c-1.102,0-2.204-0.011-3.306-0.028c-32.2,0.523-64.929-6.428-94.353-20.051
	c-31.983-15.8-50.254-38.901-50.254-63.427c0-46.03,64.913-83.478,144.696-83.478s144.696,37.448,144.696,83.478
	c0,24.52-18.271,47.622-50.126,63.371C322.021,399.371,290.545,406.289,259.218,406.289z M255.912,395.13
	c30.887,0.479,61.935-6.105,89.856-19.016c27.787-13.741,43.798-33.202,43.798-53.331c0-39.891-59.921-72.348-133.565-72.348
	s-133.565,32.456-133.565,72.348c0,20.129,16.011,39.591,43.932,53.393C194.155,389.031,225.103,395.609,255.912,395.13z"/>
<g>
	<path style="fill:#F2B149;" d="M163.285,83.478c5.009-2.488,10.451-3.979,16.028-4.397c5.61-0.49,11.264,0.017,16.696,1.503
		c5.66,1.453,10.936,4.113,15.471,7.791c4.447,3.45,8.081,7.836,10.63,12.856c0.74,1.38,0.217,3.1-1.163,3.84
		c-0.941,0.501-2.081,0.44-2.955-0.167l0,0c-3.846-2.983-7.88-5.715-12.077-8.181c-3.94-2.376-8.17-4.246-12.577-5.565
		c-4.552-1.185-9.216-1.892-13.913-2.115c-4.797-0.312-9.617-0.312-14.414,0h-0.278c-1.536,0.401-3.105-0.523-3.506-2.059
		C160.825,85.448,161.749,83.879,163.285,83.478z"/>
	<path style="fill:#F2B149;" d="M346.937,89.043c-4.797-0.312-9.617-0.312-14.414,0c-4.636,0.345-9.222,1.163-13.69,2.449
		c-4.408,1.319-8.637,3.189-12.577,5.565c-4.152,2.399-8.147,5.059-11.965,7.958l0,0c-1.308,0.868-3.066,0.512-3.935-0.79
		c-0.562-0.84-0.629-1.92-0.184-2.827c2.449-5.048,5.983-9.494,10.351-13.023c4.486-3.59,9.683-6.189,15.249-7.624
		c5.432-1.486,11.086-1.992,16.696-1.503c5.576,0.417,11.019,1.909,16.028,4.397c1.536,0.401,2.46,1.97,2.059,3.506
		c-0.401,1.536-1.97,2.46-3.506,2.059L346.937,89.043z"/>
	<path style="fill:#F2B149;" d="M165.344,411.826c7.007,2.538,14.163,4.658,21.426,6.344c7.229,1.798,14.547,3.206,21.927,4.23
		c29.54,4.129,59.503,4.129,89.043,0c7.379-1.024,14.698-2.432,21.927-4.23c7.263-1.686,14.419-3.807,21.426-6.344l0,0
		c1.436-0.545,3.044,0.178,3.59,1.62c0.495,1.313-0.061,2.794-1.308,3.445c-13.83,7.19-28.644,12.31-43.965,15.193
		c-30.536,6.055-61.958,6.055-92.494,0c-15.277-2.733-30.069-7.68-43.91-14.692c-1.536-0.629-2.271-2.387-1.642-3.923
		s2.387-2.271,3.923-1.642L165.344,411.826L165.344,411.826z"/>
</g>
<g>
</g>
<g>
</g>
<g>
</g>
<g>
</g>
<g>
</g>
<g>
</g>
<g>
</g>
<g>
</g>
<g>
</g>
<g>
</g>
<g>
</g>
<g>
</g>
<g>
</g>
<g>
</g>
<g>
</g>
</svg>
