<?xml version="1.0"?>
<svg xmlns="http://www.w3.org/2000/svg" viewBox="0 0 64 64" width="512" height="512"><title>11 Spider Robot</title><g id="_11_Spider_Robot" data-name="11 Spider Robot"><rect x="26" y="15" width="12" height="6" rx="1" ry="1" style="fill:#455b64"/><path d="M54,14.87a1,1,0,0,1-.682-.269l-2-1.871A1,1,0,0,1,51,12V9a1,1,0,0,1,2,0v2.565l1.684,1.575A1,1,0,0,1,54,14.87Z" style="fill:#37474f"/><path d="M58,14.882a1,1,0,0,1-.686-1.729L59,11.567V6.535l-2.555-1.7a1,1,0,1,1,1.11-1.664l3,2A1,1,0,0,1,61,6v6a1,1,0,0,1-.315.729l-2,1.881A1,1,0,0,1,58,14.882Z" style="fill:#37474f"/><path d="M20.227,25.922a1,1,0,0,0-1-.922H12.96a1,1,0,0,0-.707,1.707,1.532,1.532,0,0,1,.216.971,2.122,2.122,0,0,1-.766,1.551A1,1,0,0,0,12.34,31h7.21a1,1,0,0,0,1-1.086c-.095-1.094-.184-2.244-.261-3.246Z" style="fill:#455b64"/><path d="M52.3,29.229a2.122,2.122,0,0,1-.766-1.551,1.532,1.532,0,0,1,.216-.971A1,1,0,0,0,51.04,25H44.77a1,1,0,0,0-1,.922l-.058.746c-.077,1-.166,2.152-.261,3.246a1,1,0,0,0,1,1.086h7.21a1,1,0,0,0,.637-1.771Z" style="fill:#455b64"/><path d="M13.757,24.369h0l-.036-.144,0-.016c-.092-.367-.31-1.234-.326-1.3h0L10.979,13.3a1,1,0,0,0-1.953.424.9.9,0,0,1-.762,1.131.981.981,0,0,1-1.214-.817,1,1,0,0,0-1.975.3L6.429,27.414c.009.089.019.185.033.283h0l.023.224,0,.03v0a1,1,0,0,0,.228.539.811.811,0,0,0,.722.361,1.28,1.28,0,0,0,.148-.008q.04,0,.081-.012a1,1,0,0,0,.815-1.025,1.973,1.973,0,0,1,1.546-2.078,1.743,1.743,0,0,1,2.04.717,1.107,1.107,0,0,0,.091.148l.027.045a1.83,1.83,0,0,1,.211.474,1,1,0,0,0,1.926-.538C14.094,25.678,13.911,24.952,13.757,24.369Z" style="fill:#607d8b"/><path d="M58.925,14.333a1,1,0,0,0-1.975-.3.98.98,0,0,1-1.214.817.9.9,0,0,1-.762-1.131,1,1,0,0,0-1.953-.424l-2.415,9.61h0c-.016.069-.234.936-.326,1.3l0,.016-.036.144h0c-.154.583-.337,1.309-.563,2.207a1,1,0,0,0,1.926.538,1.83,1.83,0,0,1,.211-.474l.024-.041a1.071,1.071,0,0,0,.094-.152,1.745,1.745,0,0,1,2.04-.717,1.973,1.973,0,0,1,1.546,2.078,1,1,0,0,0,.815,1.025q.041.008.081.012a1.28,1.28,0,0,0,.148.008.81.81,0,0,0,.722-.361,1,1,0,0,0,.228-.539l.008-.079,0-.024.016-.153h0c.014-.1.024-.194.033-.283Z" style="fill:#607d8b"/><path d="M9,43v4a1,1,0,0,0,1,1h5a.907.907,0,0,0,.43-.1l.2-.12a1.209,1.209,0,0,0,.16-.16,1.022,1.022,0,0,0,.18-.86l-1-4A1,1,0,0,0,14,42H10A1,1,0,0,0,9,43Z" style="fill:#607d8b"/><path d="M15,48a.907.907,0,0,0,.43-.1l.2-.12,4.57-2.65a.978.978,0,0,0,.5-.82,1.017,1.017,0,0,0-.43-.86A3.005,3.005,0,0,1,19,41a1.884,1.884,0,0,1,.02-.34,1,1,0,0,0-1.51-1.03L13.71,42Z" style="fill:#455b64"/><path d="M55,43v4a1,1,0,0,1-1,1H49a.907.907,0,0,1-.43-.1l-.2-.12a1.209,1.209,0,0,1-.16-.16,1.022,1.022,0,0,1-.18-.86l1-4A1,1,0,0,1,50,42h4A1,1,0,0,1,55,43Z" style="fill:#607d8b"/><path d="M49,48a.907.907,0,0,1-.43-.1l-.2-.12L43.8,45.13a.978.978,0,0,1-.5-.82,1.017,1.017,0,0,1,.43-.86A3.005,3.005,0,0,0,45,41a1.884,1.884,0,0,0-.02-.34,1,1,0,0,1,1.51-1.03L50.29,42Z" style="fill:#455b64"/><path d="M42.707,8.293l-3-3A1,1,0,0,0,39,5H25a1,1,0,0,0-.707.293l-3,3a1,1,0,0,0-.212,1.1l3,7A1,1,0,0,0,25,17H39a1,1,0,0,0,.919-.606l3-7A1,1,0,0,0,42.707,8.293Z" style="fill:#57a0d7"/><path d="M36,47H28a1,1,0,0,0-1,1,5,5,0,0,0,10,0A1,1,0,0,0,36,47Z" style="fill:#37474f"/><path d="M8.675,41.2l-1.5.25A4.98,4.98,0,0,0,3,46.39V50a1,1,0,0,0,.143.515l6,10A1,1,0,0,0,10,61a1.027,1.027,0,0,0,.267-.036A1,1,0,0,0,11,60V43.18A2,2,0,0,0,8.675,41.2Z" style="fill:#57a0d7"/><path d="M56.825,41.454l-1.5-.25a1.979,1.979,0,0,0-1.617.446A2,2,0,0,0,53,43.18V60a1,1,0,0,0,.733.964A1.027,1.027,0,0,0,54,61a1,1,0,0,0,.857-.485l6-10A1,1,0,0,0,61,50V46.39A4.98,4.98,0,0,0,56.825,41.454Z" style="fill:#57a0d7"/><path d="M24.619,36.751a4.979,4.979,0,0,0-7.563,3.554A3.874,3.874,0,0,0,17,41a5,5,0,0,0,8.421,3.643,1,1,0,0,0,.3-.534,11,11,0,0,0-.73-6.945A1,1,0,0,0,24.619,36.751Z" style="fill:#cfd8dc"/><path d="M46.952,40.354a4.981,4.981,0,0,0-7.571-3.6,1,1,0,0,0-.371.413,11,11,0,0,0-.73,6.945,1,1,0,0,0,.3.534A5.015,5.015,0,0,0,42,46a5.007,5.007,0,0,0,5-5A3.719,3.719,0,0,0,46.952,40.354Z" style="fill:#cfd8dc"/><path d="M10,14.87a1,1,0,0,1-.683-1.73L11,11.565V9a1,1,0,0,1,2,0v3a1,1,0,0,1-.317.73l-2,1.871A1,1,0,0,1,10,14.87Z" style="fill:#37474f"/><path d="M6,14.882a1,1,0,0,1-.685-.272l-2-1.881A1,1,0,0,1,3,12V6a1,1,0,0,1,.445-.832l3-2a1,1,0,1,1,1.11,1.664L5,6.535v5.032l1.687,1.586A1,1,0,0,1,6,14.882Z" style="fill:#37474f"/><path d="M54.116,23.7a3.848,3.848,0,0,0-4.422,2.822.37.37,0,0,0-.031.125,3.862,3.862,0,0,0,.11,2.4,4.232,4.232,0,0,0,1.249,1.72,3.858,3.858,0,0,0,2.478.913,4.035,4.035,0,0,0,1.386-.251A3.91,3.91,0,0,0,57.5,28.057a.92.92,0,0,0,.021-.165A4.052,4.052,0,0,0,54.116,23.7Z" style="fill:#57a0d7"/><path d="M9.063,11.063A2.945,2.945,0,0,0,5.227,12.9a2.879,2.879,0,0,0,1.8,3.805,3.1,3.1,0,0,0,1.066.194,2.819,2.819,0,0,0,1.828-.673,3.191,3.191,0,0,0,1.091-2.948A2.881,2.881,0,0,0,9.063,11.063Z" style="fill:#57a0d7"/><path d="M58.773,12.9a2.945,2.945,0,0,0-3.836-1.834,2.881,2.881,0,0,0-1.944,2.212,3.191,3.191,0,0,0,1.091,2.948,2.813,2.813,0,0,0,1.828.673,3.1,3.1,0,0,0,1.066-.194A2.879,2.879,0,0,0,58.773,12.9Z" style="fill:#57a0d7"/><path d="M30,11H27a1,1,0,0,1,0-2h3a1,1,0,0,1,0,2Z" style="fill:#bdddf4"/><path d="M37,11H34a1,1,0,0,1,0-2h3a1,1,0,0,1,0,2Z" style="fill:#bdddf4"/><path d="M45.97,24.23c-.07.29-.17,1.48-.28,2.77-.03.39-.06.79-.09,1.17-.02.28-.04.55-.07.83a50.223,50.223,0,0,1-.56,5.23,1,1,0,0,1-.66.72,5.748,5.748,0,0,0-3.5,3.08,9.827,9.827,0,0,0,.99,9.37,1,1,0,0,1,.09,1.05A.977.977,0,0,1,41,49H23a.977.977,0,0,1-.89-.55,1,1,0,0,1,.09-1.05,9.242,9.242,0,0,0,1.56-3.68,9.139,9.139,0,0,0-.57-5.68,5.734,5.734,0,0,0-3.5-3.09.981.981,0,0,1-.66-.72,35.936,35.936,0,0,1-.48-4.15c-.03-.35-.06-.72-.09-1.08-.05-.68-.11-1.37-.16-2,0-.06-.01-.12-.01-.18l-.06-.74c-.12-1.29-.18-1.73-.21-1.87a1.019,1.019,0,0,1,.18-.81l3-4A1.014,1.014,0,0,1,22,19H42a1.014,1.014,0,0,1,.8.4l3,4A.986.986,0,0,1,45.97,24.23Z" style="fill:#57a0d7"/><path d="M45.69,27c-.03.39-.06.79-.09,1.17-.02.28-.04.55-.07.83H39.5l-2.7,3.6a1.014,1.014,0,0,1-.8.4H33V49H31V33H28a1.014,1.014,0,0,1-.8-.4L24.5,29H18.46c-.05-.68-.11-1.37-.16-2H25a1.014,1.014,0,0,1,.8.4L28.5,31h7l2.7-3.6A1.014,1.014,0,0,1,39,27Z" style="fill:#37474f"/><path d="M14.306,26.526A3.845,3.845,0,0,0,9.884,23.7a4.052,4.052,0,0,0-3.4,4.188,1,1,0,0,0,.048.265.583.583,0,0,1-.023-.074,3.891,3.891,0,0,0,2.6,3.347,4.061,4.061,0,0,0,1.394.252,3.851,3.851,0,0,0,2.475-.911,4.235,4.235,0,0,0,1.25-1.721,3.885,3.885,0,0,0,.106-2.414A1.1,1.1,0,0,0,14.306,26.526Z" style="fill:#57a0d7"/></g></svg>
