<?xml version="1.0" encoding="iso-8859-1"?>
<!-- Generator: Adobe Illustrator 19.0.0, SVG Export Plug-In . SVG Version: 6.00 Build 0)  -->
<svg version="1.1" id="Layer_1" xmlns="http://www.w3.org/2000/svg" xmlns:xlink="http://www.w3.org/1999/xlink" x="0px" y="0px"
	 viewBox="0 0 512 512" style="enable-background:new 0 0 512 512;" xml:space="preserve">
<rect x="238.877" y="72.257" transform="matrix(-1 -0.0033 0.0033 -1 511.8852 211.4408)" style="fill:#224E7D;" width="34.48" height="66.083"/>
<path style="fill:#9CC8EF;" d="M350.149,307.291H161.85c-9.521,0-17.24-7.719-17.24-17.24v-57.554
	c0-61.421,49.969-111.389,111.389-111.389s111.389,49.969,111.389,111.389v57.554C367.389,299.573,359.67,307.291,350.149,307.291z"
	/>
<path style="fill:#66A8E5;" d="M256.218,121.111v186.18h93.931c9.521,0,17.24-7.719,17.24-17.24v-57.554
	C367.389,171.15,317.538,121.23,256.218,121.111z"/>
<g>
	<path style="fill:#FFAE00;" d="M385.292,272.812H126.708c-9.521,0-17.24,7.719-17.24,17.24v78.292c0,9.521,7.719,17.24,17.24,17.24
		h258.584c9.521,0,17.24-7.719,17.24-17.24v-78.292C402.532,280.53,394.813,272.812,385.292,272.812z"/>
	<circle style="fill:#FFAE00;" cx="256.22" cy="46.11" r="34.478"/>
</g>
<path style="fill:#9CC8EF;" d="M311.011,135.67l-49.961,49.961c-6.733,6.732-6.733,17.648,0,24.38
	c3.366,3.366,7.778,5.049,12.191,5.049c4.412,0,8.824-1.684,12.191-5.049l52.015-52.015c0.228-0.228,0.429-0.473,0.642-0.71
	C330.264,148.754,321.132,141.441,311.011,135.67z"/>
<path style="fill:#DB9600;" d="M385.292,272.812H256.218v112.773h129.075c9.521,0,17.24-7.719,17.24-17.24v-78.292
	C402.532,280.53,394.813,272.812,385.292,272.812z"/>
<path style="fill:#306EB0;" d="M504.661,394.027c-1.149-0.807-28.665-19.974-72.969-39.197
	c-40.919-17.755-104.615-38.92-175.691-38.92s-134.773,21.163-175.692,38.919c-44.303,19.223-71.82,38.39-72.969,39.198
	C2.738,397.254,0,402.519,0,408.139s2.738,10.887,7.339,14.113c1.149,0.807,28.666,19.974,72.969,39.197
	c40.919,17.754,104.615,38.919,175.691,38.919s134.772-21.165,175.691-38.919c44.304-19.223,71.821-38.39,72.969-39.197
	c4.601-3.227,7.339-8.493,7.339-14.113C512,402.519,509.262,397.254,504.661,394.027z"/>
<path style="fill:#224E7D;" d="M504.661,394.027c-1.149-0.807-28.665-19.974-72.969-39.197
	c-40.877-17.736-104.485-38.874-175.473-38.918v184.454c70.988-0.043,134.596-21.181,175.473-38.916
	c44.304-19.223,71.821-38.39,72.969-39.197c4.601-3.227,7.339-8.493,7.339-14.113C512,402.519,509.262,397.254,504.661,394.027z"/>
<path style="fill:#9CC8EF;" d="M410.289,425.379H101.711c-9.521,0-17.24-7.719-17.24-17.24c0-9.521,7.719-17.24,17.24-17.24H410.29
	c9.521,0,17.24,7.719,17.24,17.24C427.529,417.66,419.81,425.379,410.289,425.379z"/>
<g>
	<path style="fill:#66A8E5;" d="M410.289,390.899H256.218v34.48h154.071c9.521,0,17.24-7.719,17.24-17.24
		C427.529,398.618,419.81,390.899,410.289,390.899z"/>
	<rect x="144.617" y="240.764" style="fill:#66A8E5;" width="222.783" height="32.043"/>
</g>
<path style="fill:#D5E5F2;" d="M146.63,261.422l70.061-70.061c6.733-6.732,6.733-17.648,0-24.38c-6.732-6.732-17.648-6.732-24.38,0
	l-45.982,45.982c-1.127,6.345-1.717,12.872-1.717,19.536v30.629C145.313,262.611,145.994,262.057,146.63,261.422z"/>
<path style="fill:#DB9600;" d="M256.41,11.637v68.946c18.954-0.103,34.287-15.495,34.287-34.473S275.363,11.74,256.41,11.637z"/>
<g>
</g>
<g>
</g>
<g>
</g>
<g>
</g>
<g>
</g>
<g>
</g>
<g>
</g>
<g>
</g>
<g>
</g>
<g>
</g>
<g>
</g>
<g>
</g>
<g>
</g>
<g>
</g>
<g>
</g>
</svg>
