<?xml version="1.0"?>
<svg xmlns="http://www.w3.org/2000/svg" viewBox="0 0 64 64" width="512" height="512"><title>16 Flying Robot</title><g id="_16_Flying_Robot" data-name="16 Flying Robot"><path d="M51.242,20.9a1,1,0,0,0-.617-.742l-6.32-2.479a1,1,0,0,0-1.365.9c-.038,1.316-.124,2.708-.255,4.137a1,1,0,0,0,.63,1.022l5.44,2.131a.989.989,0,0,0,.365.069,1,1,0,0,0,.966-1.256A2.682,2.682,0,0,1,50,24a2.962,2.962,0,0,1,.943-2.181A1,1,0,0,0,51.242,20.9Z" style="fill:#607d8b"/><path d="M21.06,18.581a1,1,0,0,0-1.365-.9l-6.32,2.479a1,1,0,0,0-.318,1.66A2.962,2.962,0,0,1,14,24a2.682,2.682,0,0,1-.086.684,1,1,0,0,0,1.331,1.187l5.44-2.131a1,1,0,0,0,.63-1.022C21.184,21.289,21.1,19.9,21.06,18.581Z" style="fill:#607d8b"/><path d="M53,19a5.017,5.017,0,0,0-3.424,1.36A4.939,4.939,0,0,0,48,24a4.641,4.641,0,0,0,.147,1.173A4.972,4.972,0,0,0,53,29a1,1,0,0,0,1-1V20A1,1,0,0,0,53,19Z" style="fill:#cfd8dc"/><path d="M11,19a1,1,0,0,0-1,1v8a1,1,0,0,0,1,1,4.962,4.962,0,0,0,4.846-3.8A4.655,4.655,0,0,0,16,24a4.943,4.943,0,0,0-1.579-3.643A5.015,5.015,0,0,0,11,19Z" style="fill:#cfd8dc"/><path d="M37.955,40.686A1,1,0,0,0,37.006,40H26.994a1,1,0,0,0-.949.686A22.732,22.732,0,0,0,25,47a1,1,0,0,0,1,1H38a1,1,0,0,0,1-1A22.732,22.732,0,0,0,37.955,40.686Z" style="fill:#37474f"/><path d="M39,46H25v5a1,1,0,0,0,1,1H38a1,1,0,0,0,1-1Z" style="fill:#607d8b"/><path d="M44.254,27.109A1,1,0,0,0,43.26,26H37a1,1,0,0,0-.9.553l-2,4a1,1,0,0,0,0,.894l2,4A1,1,0,0,0,37,36h5.12a1,1,0,0,0,.986-.837c.308-1.853.561-3.525.775-5.107C44.012,29.1,44.143,28.118,44.254,27.109Z" style="fill:#37474f"/><path d="M27.9,26.553A1,1,0,0,0,27,26H20.73a1,1,0,0,0-.993,1.118c.3,2.54.68,5.172,1.157,8.046A1,1,0,0,0,21.88,36H27a1,1,0,0,0,.895-.553l2-4a1,1,0,0,0,0-.894Z" style="fill:#37474f"/><path d="M28,61a1,1,0,0,1-1-1V56a1,1,0,0,1,2,0v4A1,1,0,0,1,28,61Z" style="fill:#37474f"/><path d="M32,60a1,1,0,0,1-1-1V55a1,1,0,0,1,2,0v4A1,1,0,0,1,32,60Z" style="fill:#37474f"/><path d="M36,61a1,1,0,0,1-1-1V56a1,1,0,0,1,2,0v4A1,1,0,0,1,36,61Z" style="fill:#37474f"/><path d="M53,10a1,1,0,0,0-1,1V36a1,1,0,0,0,1,1,8.009,8.009,0,0,0,8-8C61,26.743,59.311,10,53,10Z" style="fill:#57a0d7"/><path d="M11,10C4.689,10,3,26.743,3,29a8.009,8.009,0,0,0,8,8,1,1,0,0,0,1-1V11A1,1,0,0,0,11,10Z" style="fill:#57a0d7"/><path d="M37.618,34l-1.5-3H27.882l-1.5,3h-5.67c.165,1.123.342,2.113.5,3l.035.2A5.843,5.843,0,0,0,26.99,42H37.01a5.844,5.844,0,0,0,5.745-4.806c.168-.948.36-2.042.54-3.194Z" style="fill:#bdddf4"/><path d="M32,3A13.015,13.015,0,0,0,19,16v.163A102.366,102.366,0,0,0,19.842,28h6.54l1.5,3h8.236l1.5-3h6.528c.252-2.02.422-3.827.53-5.1.136-1.469.224-2.9.263-4.243.04-.845.061-1.682.061-2.5V16A13.015,13.015,0,0,0,32,3Z" style="fill:#57a0d7"/><circle cx="27" cy="17" r="3" style="fill:#bdddf4"/><circle cx="37" cy="17" r="3" style="fill:#bdddf4"/></g></svg>
