<svg height="400pt" viewBox="0 0 400 400" width="400pt" xmlns="http://www.w3.org/2000/svg"><path d="m91 321.960938 16.496094-12.800782c21.878906-21.878906 34.167968-51.554687 34.167968-82.496094v-68.328124c-.007812-15.789063 6.382813-30.902344 17.714844-41.894532 11.332032-10.996094 26.632813-16.925781 42.414063-16.441406 32.089843 1.847656 57.023437 28.660156 56.542969 60.800781v65.894531c0 30.941407 12.289062 60.617188 34.167968 82.496094l16.496094 12.800782c37.34375-36.394532 58.179688-86.480469 57.664062-138.625.167969-36.097657-9.65625-71.539063-28.382812-102.398438-4.265625 1.527344-8.753906 2.335938-13.28125 2.398438-13.792969.0625-26.71875-6.738282-34.476562-18.140626-7.761719-11.40625-9.347657-25.921874-4.226563-38.730468-52.121094-35.285156-120.472656-35.285156-172.59375 0 6.160156 15.058594 2.894531 32.332031-8.335937 44.101562-11.230469 11.773438-28.332032 15.84375-43.664063 10.402344-18.730469 30.859375-28.550781 66.300781-28.382813 102.398438-.492187 52.125 20.347657 102.183593 57.679688 138.5625zm0 0" fill="#fbae04"/><path d="m141.664062 150c-48.335937 0-57.863281-62.816406-58.25-65.488281-.578124-4.511719 2.566407-8.65625 7.070313-9.3125 4.5-.652344 8.699219 2.421875 9.425781 6.914062.074219.511719 7.867188 51.199219 41.753906 51.199219 3.039063-.09375 5.886719 1.472656 7.433594 4.089844 1.546875 2.617187 1.546875 5.867187 0 8.484375-1.546875 2.617187-4.394531 4.183593-7.433594 4.089843zm0 0" fill="#fff"/><path d="m141.664062 150c3.039063.09375 5.886719-1.472656 7.433594-4.089844 1.546875-2.617187 1.546875-5.867187 0-8.484375-1.546875-2.617187-4.394531-4.183593-7.433594-4.089843-2.394531-.019532-4.777343-.3125-7.105468-.878907-1.082032 4.796875-1.632813 9.703125-1.636719 14.621094v2.179687c2.886719.496094 5.8125.746094 8.742187.742188zm0 0" fill="#ededed"/><path d="m99.910156 82.144531c-.726562-4.492187-4.925781-7.566406-9.425781-6.910156-4.503906.652344-7.648437 4.796875-7.070313 9.308594.089844.617187.707032 4.496093 2.121094 9.976562 5.582032-1.464843 10.792969-4.085937 15.296875-7.695312-.625-2.824219-.902343-4.59375-.921875-4.679688zm0 0" fill="#ededed"/><path d="m258.335938 150c-3.039063.09375-5.886719-1.472656-7.433594-4.089844-1.546875-2.617187-1.546875-5.867187 0-8.484375 1.546875-2.617187 4.394531-4.183593 7.433594-4.089843 34.039062 0 41.679687-50.671876 41.753906-51.199219.660156-4.554688 4.890625-7.710938 9.445312-7.046875 4.554688.660156 7.710938 4.890625 7.050782 9.445312-.386719 2.664063-9.914063 65.464844-58.25 65.464844zm0 0" fill="#fff"/><path d="m258.335938 150c2.921874 0 5.839843-.246094 8.71875-.734375-.070313-5.613281-.796876-11.199219-2.167969-16.640625-2.152344.464844-4.347657.703125-6.550781.710938-3.039063-.09375-5.886719 1.472656-7.433594 4.089843-1.546875 2.617188-1.546875 5.867188 0 8.484375 1.546875 2.617188 4.394531 4.183594 7.433594 4.089844zm0 0" fill="#ededed"/><path d="m309.511719 75.089844c-2.1875-.328125-4.417969.234375-6.1875 1.5625s-2.933594 3.308594-3.234375 5.5c0 .09375-.289063 1.863281-.914063 4.648437 4.503907 3.601563 9.710938 6.21875 15.289063 7.6875 1.414062-5.480469 2.03125-9.359375 2.121094-9.976562.644531-4.554688-2.519532-8.773438-7.074219-9.421875zm0 0" fill="#ededed"/><path d="m116.664062 41.664062c0 23.011719-18.652343 41.664063-41.664062 41.664063s-41.664062-18.652344-41.664062-41.664063c0-23.011718 18.652343-41.664062 41.664062-41.664062s41.664062 18.652344 41.664062 41.664062zm0 0" fill="#ffc273"/><path d="m366.664062 41.664062c0 23.011719-18.652343 41.664063-41.664062 41.664063s-41.664062-18.652344-41.664062-41.664063c0-23.011718 18.652343-41.664062 41.664062-41.664062s41.664062 18.652344 41.664062 41.664062zm0 0" fill="#ffc273"/><path d="m16 366.664062h368c8.835938 0 16 7.164063 16 16v1.335938c0 8.835938-7.164062 16-16 16h-368c-8.835938 0-16-7.164062-16-16v-1.335938c0-8.835937 7.164062-16 16-16zm0 0" fill="#fb822c"/><path d="m75 66.664062c-4.601562 0-8.332031-3.726562-8.335938-8.328124v-25c0-4.605469 3.730469-8.335938 8.335938-8.335938s8.335938 3.730469 8.335938 8.335938v25c-.003907 4.601562-3.734376 8.328124-8.335938 8.328124zm0 0" fill="#884b84"/><path d="m325 66.664062c-4.601562 0-8.332031-3.726562-8.335938-8.328124v-25c0-4.605469 3.730469-8.335938 8.335938-8.335938s8.335938 3.730469 8.335938 8.335938v25c-.003907 4.601562-3.734376 8.328124-8.335938 8.328124zm0 0" fill="#884b84"/><path d="m258.335938 226.671875v-65.871094c.480468-32.140625-24.453126-58.953125-56.542969-60.800781-15.777344-.484375-31.074219 5.441406-42.40625 16.429688-11.328125 10.988281-17.722657 26.097656-17.722657 41.882812v68.335938c0 30.941406-12.289062 60.617187-34.167968 82.496093l-74.160156 57.496094h333.328124l-74.160156-57.496094c-21.875-21.875-34.164062-51.539062-34.167968-82.472656zm0 0" fill="#ffc273"/><g fill="#884b84"><path d="m200 241.664062c-2.785156 0-5.390625-1.394531-6.9375-3.710937l-12.582031-18.882813-10.089844 5.050782c-1.976563.996094-4.269531 1.160156-6.375.460937-2.101563-.699219-3.835937-2.207031-4.824219-4.191406l-8.3125-16.664063c-1.433594-2.671874-1.304687-5.917968.34375-8.46875 1.648438-2.546874 4.550782-4 7.578125-3.789062 3.03125.210938 5.703125 2.050781 6.984375 4.804688l4.605469 9.214843 9.21875-4.609375c3.757813-1.882812 8.328125-.667968 10.65625 2.832032l9.734375 14.601562 9.734375-14.601562c2.328125-3.5 6.898437-4.714844 10.65625-2.832032l9.21875 4.609375 4.605469-9.214843c1.28125-2.753907 3.953125-4.59375 6.984375-4.804688 3.027343-.210938 5.929687 1.242188 7.578125 3.789062 1.648437 2.550782 1.777344 5.796876.34375 8.46875l-8.320313 16.664063c-.988281 1.984375-2.722656 3.492187-4.828125 4.191406-2.101562.699219-4.394531.535157-6.371094-.460937l-10.089843-5.050782-12.582031 18.882813c-1.546876 2.316406-4.144532 3.707031-6.929688 3.710937zm0 0"/><path d="m250 58.335938c-2.210938.003906-4.332031-.878907-5.886719-2.449219-12.460937-9.996094-28.160156-15.058594-44.113281-14.222657-15.972656-.84375-31.695312 4.238282-44.152344 14.273438-3.265625 3.238281-8.539062 3.21875-11.78125-.046875-3.238281-3.265625-3.21875-8.539063.046875-11.777344 15.5625-13.175781 35.515625-20 55.886719-19.113281 20.371094-.886719 40.324219 5.9375 55.886719 19.113281 2.378906 2.382813 3.089843 5.964844 1.800781 9.074219-1.285156 3.113281-4.320312 5.144531-7.6875 5.148438zm0 0"/><path d="m233.335938 83.335938c-2.214844.003906-4.335938-.878907-5.894532-2.449219 0 0-7.304687-5.894531-27.441406-5.894531-20.375 0-27.585938 6.03125-27.65625 6.097656-3.40625 2.964844-8.539062 2.734375-11.664062-.53125-3.089844-3.207032-3.046876-8.296875.097656-11.453125 1.796875-1.800781 12.144531-10.777344 39.199218-10.777344 27.054688 0 37.421876 8.976563 39.199219 10.777344 2.378907 2.382812 3.089844 5.964843 1.800781 9.074219-1.289062 3.113281-4.320312 5.144531-7.6875 5.148437zm0 0"/><path d="m97.800781 175.464844c-9.175781-16.417969-21.921875-25.464844-35.871093-25.464844-10.734376.351562-20.78125 5.351562-27.53125 13.703125-.621094 6.464844-1.054688 12.984375-1.054688 19.632813 0 1.472656.082031 2.929687.113281 4.390624 2.96875.027344 5.71875-1.550781 7.199219-4.125 6.007812-10.769531 13.785156-16.9375 21.320312-16.9375 7.535157 0 15.3125 6.167969 21.320313 16.9375 11.167969 23.320313 11.167969 50.445313 0 73.765626-3.304687 5.914062-7.320313 9.296874-11.023437 9.296874-3.707032 0-7.730469-3.382812-11.027344-9.296874-6.703125-14-6.703125-30.285157 0-44.289063 1.945312-3.484375 3.753906-4.414063 4.441406-4.414063s2.480469.929688 4.433594 4.414063c1.414062 2.671875 4.164062 4.363281 7.183594 4.429687 3.019531.066407 5.839843-1.511718 7.371093-4.117187 1.527344-2.605469 1.527344-5.832031-.003906-8.4375-3.46875-7.496094-10.785156-12.476563-19.03125-12.953125-8.234375.492188-15.527344 5.46875-18.992187 12.953125-4.558594 8.789063-6.960938 18.539063-7.007813 28.4375 4.011719 15.621094 9.972656 30.671875 17.742187 44.800781 4.253907 3.292969 9.464844 5.105469 14.839844 5.160156 11.191406-.71875 21.054688-7.59375 25.601563-17.839843 14.09375-28.363281 14.085937-61.691407-.023438-90.046875zm0 0"/><path d="m338.070312 150c-13.949218 0-26.695312 9.046875-35.871093 25.464844-14.09375 28.355468-14.09375 61.675781 0 90.03125 4.546875 10.246094 14.414062 17.121094 25.601562 17.839844 5.375-.058594 10.585938-1.867188 14.839844-5.160157 7.769531-14.128906 13.730469-29.179687 17.742187-44.800781-.046874-9.902344-2.449218-19.648438-7.007812-28.4375-3.058594-7.816406-10.59375-12.957031-18.988281-12.957031-8.390625 0-15.925781 5.140625-18.988281 12.957031-1.527344 2.605469-1.527344 5.832031 0 8.4375 1.527343 2.605469 4.347656 4.179688 7.367187 4.117188 3.023437-.066407 5.769531-1.757813 7.1875-4.429688 1.949219-3.488281 3.75-4.414062 4.429687-4.414062.679688 0 2.496094.925781 4.441407 4.414062 6.703125 14.003906 6.703125 30.289062 0 44.289062-3.296875 5.914063-7.320313 9.296876-11.023438 9.296876s-7.722656-3.382813-11.023437-9.296876c-11.167969-23.320312-11.167969-50.445312 0-73.765624 6.007812-10.769532 13.78125-16.9375 21.320312-16.9375 7.535156 0 15.308594 6.167968 21.316406 16.9375 1.480469 2.574218 4.230469 4.152343 7.203126 4.132812 0-1.472656.109374-2.925781.109374-4.398438 0-6.648437-.429687-13.167968-1.054687-19.632812-6.765625-8.363281-16.84375-13.363281-27.601563-13.6875zm0 0"/></g></svg>