<?xml version="1.0"?>
<svg xmlns="http://www.w3.org/2000/svg" viewBox="0 0 64 64" width="512" height="512"><title>14 Robot With Legs</title><g id="_14_Robot_with_Legs" data-name="14 Robot with Legs"><rect x="24.015" y="43" width="6" height="6" rx="1" ry="1" style="fill:#607d8b"/><rect x="34.015" y="43" width="6" height="6" rx="1" ry="1" style="fill:#607d8b"/><rect x="18.015" y="51" width="6" height="6" rx="1" ry="1" style="fill:#607d8b"/><rect x="40.015" y="51" width="6" height="6" rx="1" ry="1" style="fill:#607d8b"/><path d="M56.015,37a1,1,0,0,1-1-1c0-4.991-5.2-5.307-5.425-5.317a1,1,0,0,1-.949-1.049.978.978,0,0,1,1.048-.949c2.534.126,7.326,1.816,7.326,7.315A1,1,0,0,1,56.015,37Z" style="fill:#607d8b"/><path d="M7.985,37a1,1,0,0,1-1-1c0-5.5,4.792-7.189,7.326-7.315a.984.984,0,0,1,1.048.949,1,1,0,0,1-.948,1.049c-.245.013-5.426.371-5.426,5.317A1,1,0,0,1,7.985,37Z" style="fill:#607d8b"/><path d="M53.015,50a1,1,0,0,1-1-1V46a1,1,0,0,1,.273-.687l1.894-2a1,1,0,1,1,1.453,1.375l-1.62,1.71V49A1,1,0,0,1,53.015,50Z" style="fill:#37474f"/><path d="M59.015,50a1,1,0,0,1-1-1V46.4L56.4,44.688a1,1,0,1,1,1.453-1.375l1.892,2a1,1,0,0,1,.274.687v3A1,1,0,0,1,59.015,50Z" style="fill:#37474f"/><path d="M10.985,50a1,1,0,0,1-1-1V46.4l-1.62-1.71a1,1,0,1,1,1.453-1.375l1.894,2a1,1,0,0,1,.273.687v3A1,1,0,0,1,10.985,50Z" style="fill:#37474f"/><path d="M4.985,50a1,1,0,0,1-1-1V46a1,1,0,0,1,.274-.687l1.892-2A1,1,0,1,1,7.6,44.688L5.985,46.4V49A1,1,0,0,1,4.985,50Z" style="fill:#37474f"/><path d="M21.015,40a5.006,5.006,0,0,0-5,5v6a2,2,0,0,0,2,2h6a2,2,0,0,0,2-2V45A5.006,5.006,0,0,0,21.015,40Z" style="fill:#70b2e2"/><path d="M43.015,40a5.006,5.006,0,0,0-5,5v6a2,2,0,0,0,2,2h6a2,2,0,0,0,2-2V45A5.006,5.006,0,0,0,43.015,40Z" style="fill:#70b2e2"/><path d="M23.015,55h-4a3,3,0,0,0-3,3v2a1,1,0,0,0,1,1h8a1,1,0,0,0,1-1V58A3,3,0,0,0,23.015,55Z" style="fill:#37474f"/><path d="M45.015,55h-4a3,3,0,0,0-3,3v2a1,1,0,0,0,1,1h8a1,1,0,0,0,1-1V58A3,3,0,0,0,45.015,55Z" style="fill:#37474f"/><path d="M39.015,10a7.009,7.009,0,0,0-7-7,7.009,7.009,0,0,0-7,7v3a1,1,0,0,0,1,1h12a1,1,0,0,0,1-1Z" style="fill:#bdddf4"/><path d="M39.341,17.621a.953.953,0,0,0,.1-1.37,1.992,1.992,0,0,1-.428-1.221V12h-14v2.86a2.551,2.551,0,0,1-.411,1.392,1,1,0,0,0,.147,1.419l2.64,2.11a1,1,0,0,0,.624.219h8a1,1,0,0,0,.626-.22Z" style="fill:#70b2e2"/><path d="M46.015,23a4.6,4.6,0,0,0-.605.039,1,1,0,0,0-.837,1.228A4.45,4.45,0,0,1,44.7,25.33a26.4,26.4,0,0,1-.618,5.651,2.127,2.127,0,0,1-.143.337,1,1,0,0,0,.569,1.445A5,5,0,1,0,46.015,23Z" style="fill:#37474f"/><path d="M19.929,31a26.282,26.282,0,0,1-.624-5.668,4.45,4.45,0,0,1,.122-1.063,1,1,0,0,0-.837-1.228A4.6,4.6,0,0,0,17.985,23,5,5,0,1,0,19.5,32.763a1,1,0,0,0,.569-1.445A2.034,2.034,0,0,1,19.929,31Z" style="fill:#37474f"/><path d="M59.377,35.68A2.015,2.015,0,0,0,57.868,35H54.161a2.011,2.011,0,0,0-2,2.262l.747,5.975a2.016,2.016,0,0,0,2,1.763h2.214a2.016,2.016,0,0,0,2-1.763l.747-5.976A2.009,2.009,0,0,0,59.377,35.68Z" style="fill:#57a0d7"/><path d="M9.839,35H6.132a2.011,2.011,0,0,0-2,2.262l.747,5.975a2.016,2.016,0,0,0,2,1.763H9.092a2.016,2.016,0,0,0,2-1.763l.747-5.976a2.011,2.011,0,0,0-2-2.261Z" style="fill:#57a0d7"/><path d="M46.7,25.33c0,.38-.02.98-.07,1.67-.03.62-.09,1.32-.17,2a13.753,13.753,0,0,1-.5,2.66,6.18,6.18,0,0,1-.28.64c-1.29,2.77-4.72,4.76-7.89,6.34a3.074,3.074,0,0,0-1.78,2.75V49a2,2,0,0,1-2,2h-4a2.006,2.006,0,0,1-2-2V41.27a2.912,2.912,0,0,0-1.7-2.6c-3.2-1.57-6.64-3.56-8-6.42-.09-.18-.16-.37-.24-.58A13.268,13.268,0,0,1,17.55,29c-.07-.67-.13-1.36-.17-2-.04-.81-.06-1.53-.05-2.03a6.345,6.345,0,0,1,.15-1.17c.58-2.82,2.92-4.45,5.18-6.02.51-.37,1.03-.73,1.53-1.11a1.679,1.679,0,0,0,.38-.37,1,1,0,0,1,.67-.4.99.99,0,0,1,.76.21L28.37,18h7.29l2.38-1.9a.989.989,0,0,1,1.4.15,2.519,2.519,0,0,0,.4.4c.43.32.88.64,1.34.96,2.31,1.63,4.7,3.31,5.34,6.2A6.208,6.208,0,0,1,46.7,25.33Z" style="fill:#57a0d7"/><circle cx="32.02" cy="28" r="3.917" style="fill:#bdddf4"/><path d="M36.91,27a5,5,0,0,0-9.79,0H17.38c.04.64.1,1.33.17,2h9.57a5,5,0,0,0,9.79,0h9.55c.08-.68.14-1.38.17-2Zm-4.9,4a3,3,0,1,1,3-3A3.009,3.009,0,0,1,32.01,31Z" style="fill:#37474f"/></g></svg>
