<?xml version="1.0" encoding="iso-8859-1"?>
<!-- Generator: Adobe Illustrator 19.0.0, SVG Export Plug-In . SVG Version: 6.00 Build 0)  -->
<svg version="1.1" id="Capa_1" xmlns="http://www.w3.org/2000/svg" xmlns:xlink="http://www.w3.org/1999/xlink" x="0px" y="0px"
	 viewBox="0 0 512 512" style="enable-background:new 0 0 512 512;" xml:space="preserve">
<path style="fill:#A694D7;" d="M492.523,271.638c29.162,167.736-10.797,233.405-236.522,234.797
	C30.276,505.043-9.682,439.318,19.479,271.638C48.307,109.523,74.464,5.565,256.001,5.565S463.695,109.523,492.523,271.638z"/>
<path style="fill:#CAB5EA;" d="M308.092,8.96l-0.779,0.501c-9.611,4.179-20.118,5.866-30.553,4.897
	c-22.461-0.985-44.945,1.23-66.783,6.567c-21.888,5.487-41.088,18.61-54.15,37.009c-7.958,12.188-12.41,26.936-23.263,36.563
	c-12.132,10.685-29.551,12.633-43.52,20.647c-16.49,9.756-26.952,27.164-27.826,46.303c-1.057,28.55,19.645,56.153,12.577,83.812
	C70.68,257.391,62.666,267.52,57.1,278.65c-5.009,10.407-8.014,22.261-15.527,30.776c-4.903,5.176-10.524,9.622-16.696,13.19
	c-4.063,2.56-8.237,4.842-12.188,7.235c1.475-19.595,3.968-39.096,7.457-58.435C48.307,109.523,74.464,5.565,256.001,5.565
	c7.513,0,14.803,0,21.816,0.557C288.502,6.678,298.575,7.624,308.092,8.96z"/>
<path style="fill:#8080C1;" d="M256.001,506.435c-32.846,0.117-65.664-1.987-98.226-6.289c5.749-6.773,13.039-12.06,21.259-15.416
	c17.085-6.678,36.118-5.565,54.317-3.506s36.508,5.565,54.762,4.007c36.619-3.617,68.508-27.826,104.96-32.89
	c9.155-0.584,18.248-1.853,27.214-3.784c15.755-4.797,28.065-17.163,32.779-32.946c2.504-8.849,2.727-18.922,8.793-25.823
	c3.951-4.452,9.85-6.901,13.802-11.13c7.791-8.793,5.899-22.261,3.896-33.837c-6.022-34.927-9.077-70.3-9.127-105.739
	c0-13.523,0.946-28.271,8.125-38.957c4.953,22.261,9.461,46.47,13.969,71.903C521.685,439.318,481.726,505.043,256.001,506.435z"/>
<path style="fill:#302A27;" d="M256.035,512c-118.634-0.729-186.897-19.462-221.39-60.728
	c-30.202-36.135-36.38-90.14-20.653-180.586C43.844,102.851,71.498,0,256.001,0s212.163,102.851,242.004,270.664
	c0,0.006,0.006,0.011,0.006,0.022c15.722,90.463,9.55,144.473-20.653,180.602C442.87,492.544,374.613,511.271,256.035,512z
	 M256.001,11.13c-175.627,0-202.212,99.361-231.046,261.476c-15.098,86.867-9.65,138.168,18.232,171.526
	c32.206,38.534,97.853,56.031,212.847,56.737c114.938-0.707,180.58-18.204,212.781-56.721
	c27.876-33.347,33.33-84.647,18.226-171.537l0,0C458.213,110.492,431.628,11.13,256.001,11.13z"/>
<g>
	<circle style="fill:#8080C1;" cx="333.914" cy="222.609" r="66.783"/>
	<path style="fill:#8080C1;" d="M333.92,294.957c-39.891,0-72.348-32.456-72.348-72.348s32.456-72.348,72.348-72.348
		s72.348,32.456,72.348,72.348S373.806,294.957,333.92,294.957z M333.92,161.391c-33.753,0-61.217,27.464-61.217,61.217
		s27.464,61.217,61.217,61.217s61.217-27.464,61.217-61.217S367.673,161.391,333.92,161.391z"/>
	<path style="fill:#8080C1;" d="M244.871,222.609c-0.006,22.389-11.225,43.281-29.885,55.652
		c-27.414-6.862-55.697-9.617-83.923-8.181c-26.207-25.956-26.407-68.241-0.451-94.442c0.295-0.301,0.595-0.595,0.896-0.89
		c33.158,9.683,67.801,13.251,102.233,10.518C241.12,196.313,244.999,209.325,244.871,222.609z"/>
	<path style="fill:#8080C1;" d="M214.986,283.826c-0.451,0-0.907-0.056-1.352-0.167c-26.897-6.739-54.578-9.433-82.293-8.014
		c-1.564,0.056-3.089-0.506-4.196-1.603c-28.344-28.076-28.561-73.973-0.49-102.317l0.968-0.963
		c1.441-1.391,3.523-1.903,5.443-1.352c32.634,9.533,66.354,13.011,100.235,10.312c2.015-0.139,3.946,0.785,5.07,2.46
		c8.025,12.015,12.199,26.001,12.065,40.454c-0.011,24.309-12.11,46.837-32.373,60.271
		C217.139,283.509,216.071,283.826,214.986,283.826z M145.649,264.147c22.979,0,45.857,2.716,68.235,8.114
		c15.961-11.498,25.422-29.88,25.422-49.653c0-0.017,0-0.033,0-0.05c0.106-11.147-2.822-21.971-8.487-31.494
		c-33.002,2.232-65.809-1.146-97.653-10.051c-21.799,23.485-21.71,60.01,0.139,83.395
		C137.418,264.231,141.536,264.147,145.649,264.147z"/>
</g>
<circle style="fill:#FFFFFF;" cx="333.914" cy="200.348" r="66.783"/>
<path style="fill:#302A27;" d="M333.92,272.696c-39.891,0-72.348-32.456-72.348-72.348S294.028,128,333.92,128
	s72.348,32.456,72.348,72.348S373.806,272.696,333.92,272.696z M333.92,139.13c-33.753,0-61.217,27.464-61.217,61.217
	s27.464,61.217,61.217,61.217s61.217-27.464,61.217-61.217S367.673,139.13,333.92,139.13z"/>
<path style="fill:#FFFFFF;" d="M244.871,200.348c-0.006,22.389-11.225,43.281-29.885,55.652
	c-27.414-6.862-55.697-9.617-83.923-8.181c-26.207-25.956-26.407-68.241-0.451-94.442c0.295-0.301,0.595-0.595,0.896-0.89
	c33.158,9.683,67.801,13.251,102.233,10.518C241.12,174.052,244.999,187.064,244.871,200.348z"/>
<circle style="fill:#FF9166;" cx="178.088" cy="217.043" r="33.391"/>
<circle style="fill:#302A27;" cx="178.088" cy="217.043" r="16.696"/>
<circle style="fill:#FFFFFF;" cx="166.958" cy="205.913" r="5.565"/>
<path style="fill:#8080C1;" d="M209.532,422.957c5.565,0.946,11.52,1.892,17.363,2.393c5.843,0.501,11.687,1.057,17.53,1.224
	c11.648,0.373,23.313-0.095,34.894-1.391c11.559-1.213,22.995-3.428,34.17-6.623c2.783-0.835,5.565-1.503,8.403-2.393l8.181-3.005
	c5.565-1.725,10.741-4.619,16.306-6.623h0.278c1.458-0.484,3.033,0.306,3.517,1.764c0.384,1.152-0.028,2.421-1.013,3.133
	c-10.106,7.012-21.114,12.627-32.724,16.696c-5.81,2.093-11.737,3.84-17.753,5.231c-6.066,1.057-12.132,2.449-18.254,2.894
	c-12.227,1.341-24.559,1.341-36.786,0c-12.205-1.085-24.225-3.684-35.784-7.736c-1.536-0.401-2.46-1.97-2.059-3.506
	c0.401-1.536,1.97-2.46,3.506-2.059H209.532z"/>
<g>
	<path style="fill:#302A27;" d="M358.958,362.24c-13.423,13.05-29.585,22.951-47.304,28.995c-9.027,3.272-18.343,5.699-27.826,7.235
		c-18.432,2.994-37.22,2.994-55.652,0c-9.483-1.536-18.799-3.962-27.826-7.235c-2.616-0.946-5.176-1.892-7.624-3.005
		c-10.568-4.352-20.508-10.095-29.551-17.085c-3.545-2.749-6.912-5.721-10.073-8.904c-5.343-5.142-10.034-10.913-13.969-17.197
		c111.304,0,127.555,61.217,233.739,0C378.881,341.482,364.3,356.953,358.958,362.24z"/>
	<path style="fill:#302A27;" d="M214.986,261.565c-0.451,0-0.907-0.056-1.352-0.167c-26.908-6.734-54.584-9.422-82.293-8.025
		c-1.564,0.078-3.089-0.501-4.196-1.603c-28.344-28.071-28.561-73.973-0.49-102.311l0.968-0.963
		c1.441-1.397,3.523-1.909,5.443-1.352c32.634,9.533,66.354,13.011,100.235,10.312c2.015-0.145,3.946,0.785,5.07,2.46
		c8.025,12.015,12.199,26.001,12.065,40.454c-0.011,24.309-12.11,46.837-32.373,60.271
		C217.139,261.248,216.071,261.565,214.986,261.565z M145.621,241.881c22.984,0,45.874,2.716,68.263,8.114
		c15.961-11.492,25.422-29.874,25.422-49.647c0-0.017,0-0.033,0-0.05c0.106-11.147-2.822-21.971-8.487-31.494
		c-33.002,2.232-65.809-1.146-97.653-10.051c-21.799,23.485-21.71,60.01,0.139,83.389
		C137.412,241.97,141.519,241.881,145.621,241.881z"/>
</g>
<circle style="fill:#FF9166;" cx="333.914" cy="217.043" r="33.391"/>
<circle style="fill:#302A27;" cx="333.914" cy="217.043" r="16.696"/>
<circle style="fill:#FFFFFF;" cx="322.784" cy="205.913" r="5.565"/>
<g>
	<path style="fill:#8080C1;" d="M142.582,122.435c14.748,1.224,29.384,2.727,44.021,3.617c7.29,0.501,14.637,0.835,21.927,1.169
		l22.261,0.723l0,0c1.536-0.167,2.922,0.941,3.089,2.477c0.167,1.536-0.941,2.922-2.477,3.089
		c-7.385,1.998-14.959,3.25-22.595,3.729c-7.613,0.557-15.26,0.557-22.873,0c-15.21-0.946-30.202-4.079-44.522-9.294
		c-1.536-0.339-2.51-1.859-2.17-3.395s1.859-2.51,3.395-2.17L142.582,122.435z"/>
	<path style="fill:#8080C1;" d="M285.052,111.75c5.398-4.703,11.553-8.465,18.198-11.13c6.539-2.727,13.407-4.597,20.424-5.565
		c14.019-2.087,28.338-0.44,41.517,4.786c1.536,0.339,2.51,1.859,2.17,3.395c-0.339,1.536-1.859,2.51-3.395,2.17l0,0l0,0
		c-6.678-0.334-13.078-0.946-19.534-0.723c-6.389,0.045-12.772,0.545-19.089,1.503c-6.328,0.913-12.594,2.232-18.755,3.951
		c-6.177,1.67-12.41,3.784-18.365,6.01l0,0c-1.408,0.612-3.05-0.039-3.656-1.447c-0.501-1.152-0.161-2.499,0.818-3.283
		L285.052,111.75z"/>
</g>
<g>
	<path style="fill:#FFFFFF;" d="M200.349,372.87l-7.68,15.36c-10.568-4.352-20.508-10.095-29.551-17.085l9.405-9.405L200.349,372.87
		z"/>
	<path style="fill:#FFFFFF;" d="M192.669,393.795c-0.707,0-1.425-0.134-2.115-0.417c-11.025-4.53-21.404-10.535-30.837-17.825
		c-1.269-0.979-2.048-2.449-2.154-4.051c-0.1-1.592,0.49-3.155,1.619-4.291l9.405-9.405c1.575-1.575,3.935-2.054,6.005-1.236
		l27.826,11.13c1.441,0.579,2.582,1.736,3.133,3.189c0.557,1.458,0.473,3.078-0.223,4.469l-7.68,15.36
		C196.676,392.659,194.717,393.795,192.669,393.795z M171.644,370.493c5.821,4.035,11.982,7.552,18.41,10.524l2.616-5.226
		l-18.805-7.519L171.644,370.493z"/>
</g>
<path style="fill:#302A27;" d="M256.001,406.283c-9.6,0-19.189-0.774-28.717-2.321c-9.817-1.592-19.517-4.113-28.833-7.496
	c-18.265-6.244-35.322-16.712-49.23-30.241c-5.654-5.443-10.641-11.581-14.809-18.226c-1.074-1.72-1.135-3.879-0.15-5.654
	c0.985-1.775,2.844-2.866,4.87-2.866c42.641,0,71.318,8.721,96.623,16.423c40.71,12.377,70.127,21.337,134.339-15.677
	c0.006-0.006,0.011-0.006,0.017-0.011c5.109-2.905,7.93,0.033,8.676,1.018c2.465,3.25,4.096,5.398-15.694,24.966
	c-14.035,13.607-31.193,24.075-49.653,30.308c-9.205,3.345-18.905,5.866-28.717,7.457
	C275.196,405.51,265.596,406.283,256.001,406.283z M150.117,350.815c2.131,2.605,4.413,5.075,6.84,7.413
	c12.755,12.405,28.371,21.994,45.19,27.737c8.765,3.178,17.786,5.526,26.919,7.007c17.864,2.9,35.985,2.9,53.871,0
	c9.127-1.48,18.154-3.829,26.819-6.973c14.675-4.959,28.377-12.761,40.086-22.784c-51.617,23.313-81.185,14.325-117.331,3.334
	C210.216,359.769,185.212,352.156,150.117,350.815z M372.876,345.043l2.771,4.803c0.061-0.022,0.117-0.05,0.178-0.078
	L372.876,345.043z"/>
<g>
</g>
<g>
</g>
<g>
</g>
<g>
</g>
<g>
</g>
<g>
</g>
<g>
</g>
<g>
</g>
<g>
</g>
<g>
</g>
<g>
</g>
<g>
</g>
<g>
</g>
<g>
</g>
<g>
</g>
</svg>
