<?xml version="1.0" encoding="iso-8859-1"?>
<!-- Generator: Adobe Illustrator 19.0.0, SVG Export Plug-In . SVG Version: 6.00 Build 0)  -->
<svg version="1.1" id="Capa_1" xmlns="http://www.w3.org/2000/svg" xmlns:xlink="http://www.w3.org/1999/xlink" x="0px" y="0px"
	 viewBox="0 0 512 512" style="enable-background:new 0 0 512 512;" xml:space="preserve">
<path style="fill:#9BE6EA;" d="M492.523,271.638c29.162,167.736-10.797,233.405-236.522,234.797
	C30.276,505.043-9.682,439.318,19.479,271.638C48.307,109.523,74.464,5.565,256.001,5.565S463.695,109.523,492.523,271.638z"/>
<path style="fill:#BEF4ED;" d="M308.092,8.96l-0.779,0.501c-9.611,4.179-20.118,5.866-30.553,4.897
	c-22.461-0.985-44.945,1.23-66.783,6.567c-21.888,5.487-41.088,18.61-54.15,37.009c-7.958,12.188-12.41,26.936-23.263,36.563
	c-12.132,10.685-29.551,12.633-43.52,20.647c-16.49,9.756-26.952,27.164-27.826,46.303c-1.057,28.55,19.645,56.153,12.577,83.812
	C70.68,257.391,62.666,267.52,57.1,278.65c-5.009,10.407-8.014,22.261-15.527,30.776c-4.903,5.176-10.524,9.622-16.696,13.19
	c-4.063,2.56-8.237,4.842-12.188,7.235c1.475-19.595,3.968-39.096,7.457-58.435C48.307,109.523,74.464,5.565,256.001,5.565
	c7.513,0,14.803,0,21.816,0.557C288.502,6.678,298.575,7.624,308.092,8.96z"/>
<path style="fill:#84C7D3;" d="M256.001,506.435c-32.846,0.117-65.664-1.987-98.226-6.289c5.749-6.773,13.039-12.06,21.259-15.416
	c17.085-6.678,36.118-5.565,54.317-3.506s36.508,5.565,54.762,4.007c36.619-3.617,68.508-27.826,104.96-32.89
	c9.155-0.584,18.248-1.853,27.214-3.784c15.755-4.797,28.065-17.163,32.779-32.946c2.504-8.849,2.727-18.922,8.793-25.823
	c3.951-4.452,9.85-6.901,13.802-11.13c7.791-8.793,5.899-22.261,3.896-33.837c-6.022-34.927-9.077-70.3-9.127-105.739
	c0-13.523,0.946-28.271,8.125-38.957c4.953,22.261,9.461,46.47,13.969,71.903C521.685,439.318,481.726,505.043,256.001,506.435z"/>
<path style="fill:#302A27;" d="M256.035,512c-118.634-0.729-186.897-19.462-221.39-60.728
	c-30.202-36.135-36.38-90.14-20.653-180.586C43.844,102.851,71.498,0,256.001,0s212.163,102.851,242.004,270.664
	c0,0.006,0.006,0.011,0.006,0.022c15.722,90.463,9.55,144.473-20.653,180.602C442.87,492.544,374.613,511.271,256.035,512z
	 M256.001,11.13c-175.627,0-202.212,99.361-231.046,261.476c-15.098,86.867-9.65,138.168,18.232,171.526
	c32.206,38.534,97.853,56.031,212.847,56.737c114.938-0.707,180.58-18.204,212.781-56.721
	c27.876-33.347,33.33-84.647,18.226-171.537l0,0C458.213,110.492,431.628,11.13,256.001,11.13z"/>
<g>
	<path style="fill:#84C7D3;" d="M350.61,222.609c0.017,52.252-42.329,94.62-94.575,94.642s-94.625-42.329-94.642-94.581
		c0-8.91,1.252-17.77,3.729-26.329c2.237-7.914,8.659-13.946,16.696-15.694c48.963-10.802,99.684-10.802,148.647,0
		c8.025,1.736,14.442,7.747,16.696,15.638C349.547,204.85,350.71,213.715,350.61,222.609z"/>
	<path style="fill:#84C7D3;" d="M256.001,322.816c-26.746,0-51.89-10.407-70.812-29.318c-18.922-18.916-29.357-44.065-29.362-70.823
		c0-9.433,1.325-18.81,3.946-27.882c2.794-9.884,10.791-17.397,20.858-19.584c49.391-10.897,101.615-10.891,151.034,0
		c10.017,2.17,18.009,9.656,20.842,19.539c2.538,9.11,3.768,18.477,3.667,27.887c0,26.746-10.413,51.896-29.323,70.812
		c-18.911,18.927-44.065,29.351-70.823,29.362C256.023,322.816,256.007,322.816,256.001,322.816z M256.135,178.17
		c-24.604,0-49.197,2.638-73.121,7.914c-6.055,1.313-10.858,5.827-12.538,11.776c-2.337,8.086-3.517,16.423-3.517,24.81
		c0.006,23.786,9.277,46.141,26.101,62.959c16.813,16.807,39.168,26.062,62.943,26.062c0.011,0,0.017,0,0.028,0
		c23.786-0.006,46.147-9.277,62.959-26.101c16.813-16.818,26.067-39.19,26.062-62.97c0-0.022,0-0.045,0-0.067
		c0.095-8.365-1.002-16.696-3.245-24.771c-1.692-5.894-6.489-10.385-12.516-11.693C305.359,180.808,280.744,178.17,256.135,178.17z"
		/>
</g>
<path style="fill:#FFFFFF;" d="M350.61,200.348c0.017,52.252-42.329,94.62-94.575,94.642c-52.246,0.022-94.625-42.329-94.642-94.581
	c0-8.91,1.252-17.77,3.729-26.329c2.237-7.914,8.659-13.946,16.696-15.694c48.963-10.802,99.684-10.802,148.647,0
	c8.025,1.736,14.442,7.747,16.696,15.638C349.547,182.589,350.71,191.455,350.61,200.348z"/>
<path style="fill:#302A27;" d="M256.001,300.555c-26.746,0-51.89-10.413-70.812-29.323c-18.927-18.911-29.357-44.065-29.362-70.823
	c0-9.433,1.325-18.81,3.946-27.882c2.794-9.884,10.791-17.397,20.858-19.584c49.391-10.897,101.615-10.891,151.034,0
	c10.017,2.17,18.009,9.656,20.842,19.539c2.538,9.11,3.768,18.477,3.667,27.887c0,26.746-10.413,51.89-29.323,70.812
	c-18.911,18.927-44.065,29.351-70.823,29.362C256.023,300.555,256.007,300.555,256.001,300.555z M256.135,155.91
	c-24.604,0-49.197,2.638-73.121,7.914c-6.055,1.313-10.858,5.827-12.538,11.776c-2.337,8.086-3.517,16.423-3.517,24.81
	c0.017,49.085,39.964,89.01,89.043,89.016c0.011,0,0.017,0,0.028,0c23.786-0.006,46.147-9.277,62.959-26.101
	s26.067-39.19,26.062-62.97c0-0.022,0-0.045,0-0.067c0.095-8.365-1.002-16.696-3.245-24.771
	c-1.692-5.894-6.489-10.385-12.516-11.693C305.359,158.547,280.744,155.91,256.135,155.91z"/>
<circle style="fill:#FFD266;" cx="256.001" cy="200.348" r="44.522"/>
<circle style="fill:#302A27;" cx="256.001" cy="200.348" r="22.261"/>
<circle style="fill:#FFFFFF;" cx="239.306" cy="183.652" r="11.13"/>
<path style="fill:#302A27;" d="M244.876,411.826c-1.597,0-3.178-0.685-4.28-2.003c-1.97-2.36-1.647-5.871,0.712-7.836
	c4.241-3.534,104.554-85.971,163.117-33.252c2.282,2.054,2.465,5.576,0.412,7.858c-2.048,2.293-5.571,2.471-7.858,0.412
	c-51.417-46.253-147.578,32.729-148.541,33.53C247.392,411.403,246.129,411.826,244.876,411.826z"/>
<g>
	<path style="fill:#84C7D3;" d="M127.445,125.273c21.048-4.87,42.39-8.387,63.889-10.518c21.482-2.282,43.075-3.172,64.668-3.45
		c21.593-0.278,43.186,1.169,64.668,3.45c21.498,2.131,42.841,5.649,63.889,10.518c1.536,0.278,2.56,1.747,2.282,3.283
		c-0.278,1.536-1.747,2.56-3.283,2.282l0,0c-10.518-1.336-21.148-2.616-31.777-3.562s-21.203-2.003-31.889-2.616
		c-21.315-1.447-42.63-2.226-63.889-2.226c-21.259,0-42.574,0.779-63.833,2.115c-10.63,0.612-21.259,1.558-31.889,2.616
		c-10.63,1.057-21.259,2.17-31.777,3.562l0,0c-1.536,0.278-3.005-0.746-3.283-2.282c-0.278-1.536,0.746-3.005,2.282-3.283l0,0
		L127.445,125.273z"/>
	<path style="fill:#84C7D3;" d="M177.81,84.758c6.456-1.28,12.911-2.115,19.423-3.117c6.511-1.002,13.023-1.447,19.534-2.059
		c13.023-1.224,26.157-1.614,39.29-1.725c13.134-0.111,26.212,0.501,39.29,1.725c6.511,0.612,13.023,1.28,19.534,2.059
		c6.511,0.779,12.967,1.837,19.423,3.117l0,0c1.536,0.167,2.643,1.553,2.477,3.089c-0.167,1.536-1.553,2.643-3.089,2.477
		l-38.957-0.89c-12.911,0-25.823-0.445-38.957-0.39c-13.134,0.056-25.823,0-38.957,0.39l-38.957,0.89
		c-1.536,0.167-2.922-0.941-3.089-2.477s0.941-2.922,2.477-3.089H177.81z"/>
	<path style="fill:#84C7D3;" d="M290.784,412.216c4.33-3.573,8.966-6.756,13.857-9.517c4.825-2.872,9.845-5.398,15.026-7.569
		c5.22-2.232,10.641-3.946,16.195-5.12c5.754-1.308,11.715-1.458,17.53-0.445c1.536,0.312,2.532,1.803,2.221,3.345
		c-0.223,1.119-1.102,1.998-2.221,2.221l0,0c-10.045,2.938-19.929,6.411-29.607,10.407c-9.906,3.84-19.868,8.07-30.275,11.52l0,0
		c-1.491,0.473-3.089-0.351-3.562-1.848C289.604,414.136,289.932,412.961,290.784,412.216z"/>
</g>
<g>
</g>
<g>
</g>
<g>
</g>
<g>
</g>
<g>
</g>
<g>
</g>
<g>
</g>
<g>
</g>
<g>
</g>
<g>
</g>
<g>
</g>
<g>
</g>
<g>
</g>
<g>
</g>
<g>
</g>
</svg>
