<?xml version="1.0"?>
<svg xmlns="http://www.w3.org/2000/svg" viewBox="0 0 64 64" width="512" height="512"><title>03 One Wheel Robot</title><g id="_03_One_Wheel_Robot" data-name="03 One Wheel Robot"><path d="M29,54a.976.976,0,0,1-.244-.03l-3.242-.81A2,2,0,0,1,24,51.219V43.677a1.989,1.989,0,0,1,1.257-1.857l4.371-1.749A1.012,1.012,0,0,1,30,40h4a1,1,0,0,1,.371.071l4.371,1.749A1.99,1.99,0,0,1,40,43.677v7.542a2,2,0,0,1-1.516,1.941l-3.242.81a1,1,0,1,1-.484-1.94L38,51.219V43.677L33.808,42H30.192L26,43.677v7.542l3.243.811A1,1,0,0,1,29,54Z" style="fill:#607d8b"/><rect x="29" y="32" width="6" height="10" rx="1" ry="1" style="fill:#57a0d7"/><path d="M37,28H27a1,1,0,0,0-1,1v3a2,2,0,0,0,2,2h8a2,2,0,0,0,2-2V29A1,1,0,0,0,37,28Z" style="fill:#607d8b"/><path d="M13,37a1,1,0,0,1-1-1V31a1,1,0,0,1,.2-.6l3-4a1,1,0,1,1,1.6,1.2L14,31.333V36A1,1,0,0,1,13,37Z" style="fill:#607d8b"/><path d="M52,37a1,1,0,0,1-1-1V31.333L48.2,27.6a1,1,0,0,1,1.6-1.2l3,4a1,1,0,0,1,.2.6v5A1,1,0,0,1,52,37Z" style="fill:#607d8b"/><path d="M53,21a6.006,6.006,0,0,1-6-6,1,1,0,0,0-.629-.929l-5-2A1,1,0,0,0,40,13a8,8,0,0,1-16,0,1,1,0,0,0-1.372-.929l-5,2A1,1,0,0,0,17,15a6.006,6.006,0,0,1-6,6,1,1,0,0,0-1,1,5.829,5.829,0,0,0,4.746,5.723l12.07,2.26A1.024,1.024,0,0,0,27,30H37a1.033,1.033,0,0,0,.184-.017l12.072-2.26A5.829,5.829,0,0,0,54,22,1,1,0,0,0,53,21Z" style="fill:#37474f"/><circle cx="53" cy="15" r="8" style="fill:#bdddf4"/><circle cx="11" cy="15" r="8" style="fill:#bdddf4"/><rect x="28" y="45" width="8" height="16" rx="3" ry="3" style="fill:#37474f"/><rect x="29" y="36" width="6" height="2" style="fill:#95c8ec"/><circle cx="32" cy="13" r="10" style="fill:#bdddf4"/><circle cx="32" cy="13" r="6" style="fill:#57a0d7"/><path d="M32,15a2,2,0,1,1,2-2A2,2,0,0,1,32,15Zm0-2h0Zm0,0h0Zm0,0h0Zm0,0h0Zm0,0h0Zm0,0h0Zm0,0h0Zm0,0h0Z" style="fill:#bdddf4"/><circle cx="53" cy="15" r="4" style="fill:#57a0d7"/><circle cx="11" cy="15" r="4" style="fill:#57a0d7"/><path d="M13.87,35.769A11.631,11.631,0,0,1,9.8,32.4a1,1,0,0,0-1.787.753L9.4,42.2A5.634,5.634,0,0,0,15,47a1,1,0,0,0,1-1V38.749A3.206,3.206,0,0,0,13.87,35.769Z" style="fill:#57a0d7"/><path d="M56.389,32.079a1,1,0,0,0-1.189.32,11.6,11.6,0,0,1-4.069,3.37A3.2,3.2,0,0,0,49,38.749V46a1,1,0,0,0,1,1,5.633,5.633,0,0,0,5.6-4.8l1.391-9.046A1,1,0,0,0,56.389,32.079Z" style="fill:#57a0d7"/></g></svg>
