<svg id="Capa_1" enable-background="new 0 0 497 497" height="512" viewBox="0 0 497 497" width="512" xmlns="http://www.w3.org/2000/svg"><g><g><g><ellipse cx="61.053" cy="247.069" fill="#00d7bd" rx="48.699" ry="48.699" transform="matrix(.099 -.995 .995 .099 -190.83 283.479)"/><ellipse cx="435.947" cy="247.069" fill="#50e2ce" rx="48.699" ry="48.699" transform="matrix(.099 -.995 .995 .099 147.124 656.549)"/></g></g><path d="m418.283 470.795c-14.56-80.479-87.085-140.768-168.753-140.768-81.671 0-154.189 60.267-168.753 140.768-2.473 13.673 8.211 26.205 22.106 26.205h293.296c13.895 0 24.578-12.532 22.104-26.205z" fill="#525e77"/><path d="m249.531 330.027c-56.341 0-108.329 28.686-139.937 72.904 27.014 12.603 58.343 19.808 91.669 19.808h94.222c33.977 0 65.877-7.609 93.245-20.824-31.676-43.634-83.298-71.888-139.199-71.888z" fill="#3b4456"/><circle cx="248.367" cy="396.332" fill="#50e2ce" r="53.291"/><path d="m202.087 422.74h92.56c4.453-7.786 7.011-16.796 7.011-26.408 0-29.432-23.859-53.291-53.291-53.291s-53.291 23.859-53.291 53.291c0 9.612 2.558 18.622 7.011 26.408z" fill="#00d7bd"/><path d="m60.965 248.209c0 82.021 67.108 148.123 149.13 148.123h76.557c82.021 0 149.13-67.108 149.13-149.13v-95.746c0-43.83-19.168-84.061-49.529-112.027-26.455-24.37-61.409-39.429-99.601-39.429h-76.557c-79.854 0-146.38 67.725-149.047 146.546z" fill="#76e7d6"/><path d="m154.544 337.404c-17.219-79.748-13.848-162.083 4.917-241.242 4.835-20.396 10.792-40.535 18.056-60.201 4.367-11.824 9.381-23.345 14.537-34.808-71.602 9.251-128.543 72.593-131.006 145.393l-.083 101.663c0 68.015 46.146 125.079 108.675 142.587-6.166-17.478-11.2-35.351-15.096-53.392z" fill="#50e2ce"/><g fill="#525e77"><path d="m131.403 254.234c-37.357-21.428-29.633-81.584 20.198-75.792 23.548 2.737 40.969 21.084 52.15 40.664 7.46 13.064 19.975 39.795-.644 47.703-18.867 7.236-55.181-3.097-71.704-12.575z"/><path d="m365.597 254.234c37.357-21.428 29.633-81.584-20.198-75.792-23.548 2.737-40.969 21.084-52.15 40.664-7.46 13.064-19.975 39.795.644 47.703 18.867 7.236 55.181-3.097 71.704-12.575z"/></g><g><g><path d="m215.741 345.642c-4.142 0-7.5-3.358-7.5-7.5v-25.296c0-4.142 3.358-7.5 7.5-7.5s7.5 3.358 7.5 7.5v25.296c0 4.142-3.358 7.5-7.5 7.5z" fill="#00d7bd"/></g><g><path d="m248.5 345.642c-4.142 0-7.5-3.358-7.5-7.5v-25.296c0-4.142 3.358-7.5 7.5-7.5s7.5 3.358 7.5 7.5v25.296c0 4.142-3.358 7.5-7.5 7.5z" fill="#00d7bd"/></g><g><path d="m281.259 345.642c-4.142 0-7.5-3.358-7.5-7.5v-25.296c0-4.142 3.358-7.5 7.5-7.5s7.5 3.358 7.5 7.5v25.296c0 4.142-3.358 7.5-7.5 7.5z" fill="#00d7bd"/></g></g><path d="m145.84 178.068c-44.607-.664-50.302 55.593-14.437 76.166 3.49 2.002 7.868 4.04 12.773 5.944-1.545-27.36-.928-54.804 1.664-82.11z" fill="#3b4456"/></g></svg>