<?xml version="1.0"?>
<svg xmlns="http://www.w3.org/2000/svg" viewBox="0 0 64 64" width="512" height="512"><title>10 Two Wheel Robot</title><g id="_10_Two_Wheel_Robot" data-name="10 Two Wheel Robot"><path d="M32,11a1,1,0,0,1-1-1V4a1,1,0,0,1,2,0v6A1,1,0,0,1,32,11Z" style="fill:#37474f"/><path d="M28,51H21a1,1,0,0,1,0-2h7a1,1,0,0,1,0,2Z" style="fill:#95c8ec"/><path d="M43,51H36a1,1,0,0,1,0-2h7a1,1,0,0,1,0,2Z" style="fill:#95c8ec"/><rect x="16" y="45" width="6" height="10" rx="1" ry="1" style="fill:#607d8b"/><rect x="42" y="45" width="6" height="10" rx="1" ry="1" style="fill:#607d8b"/><rect x="10" y="39" width="8" height="22" rx="3" ry="3" style="fill:#37474f"/><rect x="46" y="39" width="8" height="22" rx="3" ry="3" style="fill:#37474f"/><path d="M58,11a1,1,0,0,1-1-1V6.414L55.586,5H53a1,1,0,0,1,0-2h3a1,1,0,0,1,.707.293l2,2A1,1,0,0,1,59,6v4A1,1,0,0,1,58,11Z" style="fill:#37474f"/><path d="M56,13H52a1,1,0,0,1-.707-.293l-2-2A1,1,0,0,1,49,10V7a1,1,0,0,1,2,0V9.586L52.414,11H56a1,1,0,0,1,0,2Z" style="fill:#37474f"/><path d="M6,11a1,1,0,0,1-1-1V6a1,1,0,0,1,.293-.707l2-2A1,1,0,0,1,8,3h3a1,1,0,0,1,0,2H8.414L7,6.414V10A1,1,0,0,1,6,11Z" style="fill:#37474f"/><path d="M12.707,12.707A1,1,0,0,1,12,13H8a1,1,0,0,1,0-2h3.586L13,9.586V7a1,1,0,0,1,2,0v3a1,1,0,0,1-.293.707Z" style="fill:#37474f"/><path d="M57,24a1,1,0,0,1-1,1H49a1,1,0,0,1,0-2h7A1,1,0,0,1,57,24Z" style="fill:#95c8ec"/><path d="M58,23a1,1,0,0,1-1-1V14a1,1,0,0,1,2,0v8A1,1,0,0,1,58,23Z" style="fill:#95c8ec"/><path d="M16,24a1,1,0,0,1-1,1H8a1,1,0,0,1,0-2h7A1,1,0,0,1,16,24Z" style="fill:#95c8ec"/><path d="M6,23a1,1,0,0,1-1-1V14a1,1,0,0,1,2,0v8A1,1,0,0,1,6,23Z" style="fill:#95c8ec"/><circle cx="58" cy="24" r="3" style="fill:#57a0d7"/><circle cx="58" cy="12" r="3" style="fill:#57a0d7"/><circle cx="6" cy="24" r="3" style="fill:#57a0d7"/><circle cx="6" cy="12" r="3" style="fill:#57a0d7"/><path d="M51,21a1,1,0,0,0-.553-.895l-4-2A1,1,0,0,0,45,19v9a1,1,0,0,0,1.447.895l4-2A1,1,0,0,0,51,26Z" style="fill:#607d8b"/><path d="M19,19a1,1,0,0,0-1.447-.895l-4,2A1,1,0,0,0,13,21v5a1,1,0,0,0,.553.895l4,2A1,1,0,0,0,19,28Z" style="fill:#607d8b"/><path d="M46.71,13.29A1.033,1.033,0,0,1,47,14V37a1.026,1.026,0,0,1-.28.7l-.16.13A.975.975,0,0,1,46,38H18a.975.975,0,0,1-.56-.17l-.16-.13A1.026,1.026,0,0,1,17,37V14a1.033,1.033,0,0,1,.29-.71l4-4A1.033,1.033,0,0,1,22,9H42a1.033,1.033,0,0,1,.71.29Z" style="fill:#70b2e2"/><path d="M42.92,23A7,7,0,0,0,36,17H28a7,7,0,0,0-6.92,6H17v2h4.08A7,7,0,0,0,28,31h8a7,7,0,0,0,6.92-6H47V23Z" style="fill:#37474f"/><circle cx="28" cy="24" r="3" style="fill:#bdddf4"/><circle cx="36" cy="24" r="3" style="fill:#bdddf4"/><path d="M47,37a1.026,1.026,0,0,1-.28.7l-.16.13-6.91,5.93A1.021,1.021,0,0,1,39,44H25a1.021,1.021,0,0,1-.65-.24l-6.91-5.93-.16-.13A1.026,1.026,0,0,1,17,37Z" style="fill:#57a0d7"/><path d="M40,43.417H24V52a3,3,0,0,0,3,3H37a3,3,0,0,0,3-3Z" style="fill:#607d8b"/></g></svg>
