<?xml version="1.0"?>
<svg xmlns="http://www.w3.org/2000/svg" viewBox="0 0 64 64" width="512" height="512"><title>13 Robot With Legs</title><g id="_13_Robot_With_Legs" data-name="13 Robot With Legs"><path d="M47,15a1,1,0,0,1-1,1H42a1,1,0,0,1,0-2h4A1,1,0,0,1,47,15Z" style="fill:#607d8b"/><path d="M23,15a1,1,0,0,1-1,1H18a1,1,0,0,1,0-2h4A1,1,0,0,1,23,15Z" style="fill:#607d8b"/><rect x="20" y="50" width="6" height="6" rx="1" ry="1" style="fill:#607d8b"/><rect x="38" y="50" width="6" height="6" rx="1" ry="1" style="fill:#607d8b"/><path d="M38,40a1,1,0,0,1-.707-.293l-2-2a1,1,0,0,1,1.414-1.414l2,2A1,1,0,0,1,38,40Z" style="fill:#607d8b"/><path d="M26,40a1,1,0,0,1-.707-1.707l2-2a1,1,0,0,1,1.414,1.414l-2,2A1,1,0,0,1,26,40Z" style="fill:#607d8b"/><path d="M28.949,56.684a1,1,0,0,0-.394-.516l-3-2A1.006,1.006,0,0,0,25,54H21a1.006,1.006,0,0,0-.555.168l-3,2a1,1,0,0,0-.394.516l-1,3A1,1,0,0,0,17,61H29a1,1,0,0,0,.949-1.316Z" style="fill:#37474f"/><path d="M47.948,59.684l-1-3a1,1,0,0,0-.393-.516l-3-2A1.006,1.006,0,0,0,43,54H39a1.006,1.006,0,0,0-.555.168l-3,2a1,1,0,0,0-.393.516l-1,3A1,1,0,0,0,35,61H47a1,1,0,0,0,.948-1.316Z" style="fill:#37474f"/><path d="M27,46H19a1,1,0,0,0-1,1v3a2,2,0,0,0,2,2h6a2,2,0,0,0,2-2V47A1,1,0,0,0,27,46Z" style="fill:#57a0d7"/><path d="M45,46H37a1,1,0,0,0-1,1v3a2,2,0,0,0,2,2h6a2,2,0,0,0,2-2V47A1,1,0,0,0,45,46Z" style="fill:#57a0d7"/><path d="M22.93,37A5.158,5.158,0,0,0,18,42.237V48H28V42a5,5,0,0,0-5.07-5Z" style="fill:#95c8ec"/><path d="M44.532,38.458A5,5,0,0,0,40.923,37,5.158,5.158,0,0,0,36,42.239V48H46V42A5.018,5.018,0,0,0,44.532,38.458Z" style="fill:#95c8ec"/><path d="M52,33a1,1,0,0,1-1-1V29a1,1,0,0,1,.317-.73l2-1.871a1,1,0,0,1,1.366,1.461L53,29.435V32A1,1,0,0,1,52,33Z" style="fill:#37474f"/><path d="M57,38a1,1,0,0,1-.556-1.832L59,34.465V29.433l-1.687-1.586a1,1,0,0,1,1.37-1.457l2,1.881A1,1,0,0,1,61,29v6a1,1,0,0,1-.445.832l-3,2A1,1,0,0,1,57,38Z" style="fill:#37474f"/><path d="M12,33a1,1,0,0,1-1-1V29.435L9.316,27.86A1,1,0,0,1,10.681,26.4l2,1.871A1,1,0,0,1,13,29v3A1,1,0,0,1,12,33Z" style="fill:#37474f"/><path d="M7,38a1,1,0,0,1-.554-.168l-3-2A1,1,0,0,1,3,35V29a1,1,0,0,1,.315-.729l2-1.881a1,1,0,0,1,1.371,1.457L5,29.433v5.032l2.555,1.7A1,1,0,0,1,7,38Z" style="fill:#37474f"/><path d="M58.632,25.688,52.65,13.368a1,1,0,0,0-1.816.836,2,2,0,0,1-3.441,1.985,1,1,0,0,0-1.632,1.156l7.678,11.34a1,1,0,0,0,1.7-1.061,1,1,0,0,1,1.733-1,1,1,0,0,0,1.765-.937Z" style="fill:#95c8ec"/><path d="M16.606,16.189a2,2,0,0,1-3.44-1.985,1,1,0,0,0-1.816-.836L5.369,25.688a1,1,0,0,0,1.765.936,1,1,0,0,1,1.732,1,1,1,0,0,0,1.694,1.061l7.679-11.34a1,1,0,0,0-1.633-1.156Z" style="fill:#95c8ec"/><path d="M43.9,11.447a1,1,0,0,0,.024-.841,13.142,13.142,0,0,0-23.838,0,1,1,0,0,0,.087.949A5.416,5.416,0,0,1,21,15a5.723,5.723,0,0,1-.392,2.078,1,1,0,0,0,.308,1.144l4.46,3.559A1,1,0,0,0,26,22H38a1,1,0,0,0,.624-.219l4.44-3.55a1,1,0,0,0,.313-1.132A5.942,5.942,0,0,1,43,15,8.372,8.372,0,0,1,43.9,11.447Z" style="fill:#bdddf4"/><path d="M26.254,12a1,1,0,0,1-.819-1.572,8.035,8.035,0,0,1,4.28-3.1,1,1,0,0,1,.57,1.916,6.036,6.036,0,0,0-3.21,2.324A1,1,0,0,1,26.254,12Z" style="fill:#edeff0"/><path d="M43.625,32.219l-5-4A1,1,0,0,0,38,28H26a1,1,0,0,0-.625.219l-5,4A1,1,0,0,0,21,34c5.985,0,8.5,5.828,8.76,6.488a2.414,2.414,0,0,0,4.477,0C34.5,39.828,37.016,34,43,34a1,1,0,0,0,.625-1.781Z" style="fill:#37474f"/><path d="M45.586,20.19a6.858,6.858,0,0,1-2.53-4.512l-5.68,4.541A1,1,0,0,0,37,21v8a1,1,0,0,0,.375.781l5,4A1,1,0,0,0,43,34a.985.985,0,0,0,.357-.066,1,1,0,0,0,.629-.77l2-12A1,1,0,0,0,45.586,20.19Z" style="fill:#70b2e2"/><path d="M27,21a1,1,0,0,0-.376-.781L20.949,15.69a7.509,7.509,0,0,1-2.563,4.521,1,1,0,0,0-.372.953l2,12a1,1,0,0,0,.629.77A.977.977,0,0,0,21,34a1,1,0,0,0,.625-.219l5-4A1,1,0,0,0,27,29Z" style="fill:#70b2e2"/><rect x="26.351" y="20" width="11.299" height="10" style="fill:#57a0d7"/><path d="M52.464,13a4,4,0,1,0-6.9,4.048l.219.33a4,4,0,0,0,6.86-4.024Z" style="fill:#57a0d7"/><path d="M55.994,24.126a3,3,0,1,0,3,2.992A3.016,3.016,0,0,0,55.994,24.126Z" style="fill:#57a0d7"/><path d="M15,11a4.033,4.033,0,0,0-3.493,2.055l-.174.351A3.97,3.97,0,0,0,11,15a4,4,0,0,0,7.246,2.331L18.464,17A4,4,0,0,0,15,11Z" style="fill:#57a0d7"/><path d="M8.006,24.126a3,3,0,1,0,2.993,3A3.016,3.016,0,0,0,8.006,24.126Z" style="fill:#57a0d7"/></g></svg>
