<?xml version="1.0" encoding="iso-8859-1"?>
<!-- Generator: Adobe Illustrator 19.0.0, SVG Export Plug-In . SVG Version: 6.00 Build 0)  -->
<svg version="1.1" id="Capa_1" xmlns="http://www.w3.org/2000/svg" xmlns:xlink="http://www.w3.org/1999/xlink" x="0px" y="0px"
	 viewBox="0 0 512 512" style="enable-background:new 0 0 512 512;" xml:space="preserve">
<path style="fill:#FF9166;" d="M256.001,506.435c-32.846,0.117-65.664-1.987-98.226-6.289c-11.631-1.67-22.261-3.673-32.501-6.01
	C33.393,472.431,5.566,421.009,12.022,330.073c1.475-19.595,3.968-39.096,7.457-58.435C48.307,109.523,74.464,5.565,256.001,5.565
	c7.513,0,14.803,0,21.816,0.557c10.685,0.557,20.758,1.503,30.275,2.838C419.396,24.654,455.013,94.609,478.61,199.736
	c4.953,22.261,9.461,46.47,13.969,71.903C521.685,439.318,481.726,505.043,256.001,506.435z"/>
<path style="fill:#FFB685;" d="M308.092,8.96l-0.779,0.501c-9.611,4.179-20.118,5.866-30.553,4.897
	c-22.461-0.985-44.945,1.23-66.783,6.567c-21.888,5.487-41.088,18.61-54.15,37.009c-7.958,12.188-12.41,26.936-23.263,36.563
	c-12.132,10.685-29.551,12.633-43.52,20.647c-16.49,9.756-26.952,27.164-27.826,46.303c-1.057,28.55,19.645,56.153,12.577,83.812
	C70.68,257.391,62.666,267.52,57.1,278.65c-5.009,10.407-8.014,22.261-15.527,30.776c-4.903,5.176-10.524,9.622-16.696,13.19
	c-4.063,2.56-8.237,4.842-12.188,7.235c1.475-19.595,3.968-39.096,7.457-58.435C48.307,109.523,74.464,5.565,256.001,5.565
	c7.513,0,14.803,0,21.816,0.557C288.502,6.678,298.575,7.624,308.092,8.96z"/>
<path style="fill:#F26751;" d="M256.001,506.435c-32.846,0.117-65.664-1.987-98.226-6.289c5.749-6.773,13.039-12.06,21.259-15.416
	c17.085-6.678,36.118-5.565,54.317-3.506s36.508,5.565,54.762,4.007c36.619-3.617,68.508-27.826,104.96-32.89
	c9.155-0.584,18.248-1.853,27.214-3.784c15.755-4.797,28.065-17.163,32.779-32.946c2.504-8.849,2.727-18.922,8.793-25.823
	c3.951-4.452,9.85-6.901,13.802-11.13c7.791-8.793,5.899-22.261,3.896-33.837c-6.022-34.927-9.077-70.3-9.127-105.739
	c0-13.523,0.946-28.271,8.125-38.957c4.953,22.261,9.461,46.47,13.969,71.903C521.685,439.318,481.726,505.043,256.001,506.435z"/>
<path style="fill:#302A27;" d="M256.035,512c-118.634-0.729-186.897-19.462-221.39-60.728
	c-30.202-36.135-36.38-90.14-20.653-180.586C43.844,102.851,71.498,0,256.001,0s212.163,102.851,242.004,270.664
	c0,0.006,0.006,0.011,0.006,0.022c15.722,90.463,9.55,144.473-20.653,180.602C442.87,492.544,374.613,511.271,256.035,512z
	 M256.001,11.13c-175.627,0-202.212,99.361-231.046,261.476c-15.098,86.867-9.65,138.168,18.232,171.526
	c32.206,38.534,97.853,56.031,212.847,56.737c114.938-0.707,180.58-18.204,212.781-56.721
	c27.876-33.347,33.33-84.647,18.226-171.537l0,0C458.213,110.492,431.628,11.13,256.001,11.13z"/>
<g>
	<circle style="fill:#F26751;" cx="256.001" cy="233.739" r="94.609"/>
	<path style="fill:#F26751;" d="M256.001,333.913c-55.235,0-100.174-44.939-100.174-100.174s44.939-100.174,100.174-100.174
		s100.174,44.939,100.174,100.174C356.181,288.974,311.236,333.913,256.001,333.913z M256.001,144.696
		c-49.096,0-89.043,39.947-89.043,89.043s39.947,89.043,89.043,89.043c49.102,0,89.043-39.947,89.043-89.043
		S305.103,144.696,256.001,144.696z"/>
</g>
<circle style="fill:#FFFFFF;" cx="256.001" cy="211.478" r="94.609"/>
<path style="fill:#302A27;" d="M256.001,311.652c-55.235,0-100.174-44.939-100.174-100.174s44.939-100.174,100.174-100.174
	s100.174,44.939,100.174,100.174C356.181,266.713,311.236,311.652,256.001,311.652z M256.001,122.435
	c-49.096,0-89.043,39.947-89.043,89.043s39.947,89.043,89.043,89.043c49.102,0,89.043-39.947,89.043-89.043
	S305.103,122.435,256.001,122.435z"/>
<circle style="fill:#9BE6EA;" cx="256.001" cy="211.478" r="44.522"/>
<circle style="fill:#302A27;" cx="256.001" cy="211.478" r="22.261"/>
<circle style="fill:#FFFFFF;" cx="239.306" cy="194.783" r="11.13"/>
<path style="fill:#302A27;" d="M278.323,400.874c-3.478,0-5.626-0.156-6.088-0.2c-3.061-0.25-5.331-2.933-5.081-5.999
	c0.25-3.061,2.994-5.326,5.999-5.092c0.623,0.078,64.456,4.541,106.502-48.017c1.931-2.387,5.426-2.788,7.825-0.868
	c2.399,1.926,2.788,5.426,0.868,7.825C349.92,396.555,296.338,400.874,278.323,400.874z"/>
<g>
	<path style="fill:#F26751;" d="M234.965,375.93c4.697,1.464,8.96,4.063,12.41,7.569c3.534,3.345,6.45,7.279,8.626,11.631
		c2.009,4.346,3.306,8.988,3.84,13.746c0.49,4.719,0.134,9.489-1.057,14.08c-0.312,1.536-1.803,2.532-3.339,2.221
		c-1.124-0.223-1.998-1.102-2.226-2.221l0,0c-1.28-4.174-2.115-8.125-3.339-11.965c-1.141-3.801-2.538-7.519-4.174-11.13
		c-1.575-3.489-3.439-6.84-5.565-10.017c-2.265-3.2-4.758-6.233-7.457-9.071l-0.334-0.39c-1.096-1.08-1.107-2.844-0.028-3.935
		c0.746-0.757,1.859-1.024,2.866-0.685L234.965,375.93z"/>
	<path style="fill:#F26751;" d="M380.829,310.205c3.116,2.727,6.289,5.565,9.461,8.014c3.105,2.443,6.4,4.641,9.85,6.567
		c3.317,1.87,6.851,3.328,10.518,4.341c3.868,1.013,7.814,1.681,11.798,2.003h0.501c1.564,0.061,2.788,1.38,2.727,2.95
		c-0.05,1.224-0.879,2.282-2.059,2.616c-4.563,2.009-9.561,2.816-14.525,2.337c-5.031-0.44-9.912-1.959-14.303-4.452
		c-4.196-2.438-7.958-5.56-11.13-9.238c-3.233-3.59-5.743-7.763-7.402-12.299c-0.484-1.491,0.339-3.089,1.831-3.573
		c0.924-0.295,1.931-0.106,2.677,0.512L380.829,310.205z"/>
	<path style="fill:#F26751;" d="M184.766,100.73c7.769-6.478,16.623-11.531,26.157-14.915c9.433-3.523,19.3-5.754,29.329-6.623
		c15.004-1.213,30.108,0.39,44.522,4.73c4.73,1.558,9.35,3.395,13.857,5.565c1.536,0.429,2.432,2.026,2.003,3.562
		s-2.026,2.432-3.562,2.003l0,0c-9.194-1.864-18.482-3.239-27.826-4.118l-6.957-0.557h-7.235c-4.625-0.056-9.249,0.128-13.857,0.557
		c-9.21,0.785-18.321,2.443-27.214,4.953c-8.915,2.215-17.586,5.331-25.878,9.294l0,0c-1.363,0.712-3.044,0.184-3.757-1.18
		c-0.595-1.141-0.328-2.538,0.64-3.384L184.766,100.73z"/>
</g>
<g>
</g>
<g>
</g>
<g>
</g>
<g>
</g>
<g>
</g>
<g>
</g>
<g>
</g>
<g>
</g>
<g>
</g>
<g>
</g>
<g>
</g>
<g>
</g>
<g>
</g>
<g>
</g>
<g>
</g>
</svg>
