<?xml version="1.0" encoding="iso-8859-1"?>
<!-- Generator: Adobe Illustrator 19.0.0, SVG Export Plug-In . SVG Version: 6.00 Build 0)  -->
<svg version="1.1" id="Capa_1" xmlns="http://www.w3.org/2000/svg" xmlns:xlink="http://www.w3.org/1999/xlink" x="0px" y="0px"
	 viewBox="0 0 512 512" style="enable-background:new 0 0 512 512;" xml:space="preserve">
<path style="fill:#84B2BC;" d="M492.523,271.638c29.162,167.736-10.797,233.405-236.522,234.797
	C30.276,505.043-9.682,439.318,19.479,271.638C48.307,109.523,74.464,5.565,256.001,5.565S463.695,109.523,492.523,271.638z"/>
<g>
	<circle style="fill:#6D98A5;" cx="333.914" cy="222.609" r="66.783"/>
	<path style="fill:#6D98A5;" d="M333.92,294.957c-39.891,0-72.348-32.456-72.348-72.348s32.456-72.348,72.348-72.348
		s72.348,32.456,72.348,72.348S373.806,294.957,333.92,294.957z M333.92,161.391c-33.753,0-61.217,27.464-61.217,61.217
		s27.464,61.217,61.217,61.217s61.217-27.464,61.217-61.217S367.673,161.391,333.92,161.391z"/>
	<circle style="fill:#6D98A5;" cx="178.088" cy="222.609" r="66.783"/>
	<path style="fill:#6D98A5;" d="M178.088,294.957c-39.891,0-72.348-32.456-72.348-72.348s32.456-72.348,72.348-72.348
		s72.348,32.456,72.348,72.348S217.98,294.957,178.088,294.957z M178.088,161.391c-33.753,0-61.217,27.464-61.217,61.217
		s27.464,61.217,61.217,61.217s61.217-27.464,61.217-61.217S211.841,161.391,178.088,161.391z"/>
</g>
<path style="fill:#9ACBCC;" d="M308.092,8.96l-0.779,0.501c-9.611,4.179-20.118,5.866-30.553,4.897
	c-22.461-0.985-44.945,1.23-66.783,6.567c-21.888,5.487-41.088,18.61-54.15,37.009c-7.958,12.188-12.41,26.936-23.263,36.563
	c-12.132,10.685-29.551,12.633-43.52,20.647c-16.49,9.756-26.952,27.164-27.826,46.303c-1.057,28.55,19.645,56.153,12.577,83.812
	C70.68,257.391,62.666,267.52,57.1,278.65c-5.009,10.407-8.014,22.261-15.527,30.776c-4.903,5.176-10.524,9.622-16.696,13.19
	c-4.063,2.56-8.237,4.842-12.188,7.235c1.475-19.595,3.968-39.096,7.457-58.435C48.307,109.523,74.464,5.565,256.001,5.565
	c7.513,0,14.803,0,21.816,0.557C288.502,6.678,298.575,7.624,308.092,8.96z"/>
<path style="fill:#6D98A5;" d="M256.001,506.435c-32.846,0.117-65.664-1.987-98.226-6.289c5.749-6.773,13.039-12.06,21.259-15.416
	c17.085-6.678,36.118-5.565,54.317-3.506s36.508,5.565,54.762,4.007c36.619-3.617,68.508-27.826,104.96-32.89
	c9.155-0.584,18.248-1.853,27.214-3.784c15.755-4.797,28.065-17.163,32.779-32.946c2.504-8.849,2.727-18.922,8.793-25.823
	c3.951-4.452,9.85-6.901,13.802-11.13c7.791-8.793,5.899-22.261,3.896-33.837c-6.022-34.927-9.077-70.3-9.127-105.739
	c0-13.523,0.946-28.271,8.125-38.957c4.953,22.261,9.461,46.47,13.969,71.903C521.685,439.318,481.726,505.043,256.001,506.435z"/>
<path style="fill:#302A27;" d="M256.035,512c-118.634-0.729-186.897-19.462-221.39-60.728
	c-30.202-36.135-36.38-90.14-20.653-180.586C43.844,102.851,71.498,0,256.001,0s212.163,102.851,242.004,270.664
	c0,0.006,0.006,0.011,0.006,0.022c15.722,90.463,9.55,144.473-20.653,180.602C442.87,492.544,374.613,511.271,256.035,512z
	 M256.001,11.13c-175.627,0-202.212,99.361-231.046,261.476c-15.098,86.867-9.65,138.168,18.232,171.526
	c32.206,38.534,97.853,56.031,212.847,56.737c114.938-0.707,180.58-18.204,212.781-56.721
	c27.876-33.347,33.33-84.647,18.226-171.537l0,0C458.213,110.492,431.628,11.13,256.001,11.13z"/>
<circle style="fill:#FFFFFF;" cx="333.914" cy="200.348" r="66.783"/>
<path style="fill:#302A27;" d="M333.92,272.696c-39.891,0-72.348-32.456-72.348-72.348S294.028,128,333.92,128
	s72.348,32.456,72.348,72.348S373.806,272.696,333.92,272.696z M333.92,139.13c-33.753,0-61.217,27.464-61.217,61.217
	s27.464,61.217,61.217,61.217s61.217-27.464,61.217-61.217S367.673,139.13,333.92,139.13z"/>
<circle style="fill:#A694D7;" cx="311.653" cy="211.478" r="27.826"/>
<circle style="fill:#302A27;" cx="311.653" cy="211.478" r="16.696"/>
<g>
	<circle style="fill:#FFFFFF;" cx="294.958" cy="194.783" r="11.13"/>
	<circle style="fill:#FFFFFF;" cx="178.088" cy="200.348" r="66.783"/>
</g>
<path style="fill:#302A27;" d="M178.088,272.696c-39.891,0-72.348-32.456-72.348-72.348S138.197,128,178.088,128
	s72.348,32.456,72.348,72.348S217.98,272.696,178.088,272.696z M178.088,139.13c-33.753,0-61.217,27.464-61.217,61.217
	s27.464,61.217,61.217,61.217s61.217-27.464,61.217-61.217S211.841,139.13,178.088,139.13z"/>
<circle style="fill:#A694D7;" cx="200.349" cy="211.478" r="27.826"/>
<circle style="fill:#302A27;" cx="200.349" cy="211.478" r="16.696"/>
<circle style="fill:#FFFFFF;" cx="183.653" cy="194.783" r="11.13"/>
<g>
	<path style="fill:#302A27;" d="M256.001,406.283c-9.6,0-19.189-0.774-28.717-2.321c-2.799-0.456-4.814-2.944-4.664-5.777
		c1.041-20.441,15.705-36.447,33.38-36.447c17.542,0,32.206,15.994,33.386,36.408c0.167,2.849-1.848,5.359-4.664,5.816
		C275.196,405.51,265.596,406.283,256.001,406.283z M234.364,393.75c14.369,1.864,28.867,1.859,43.247,0.006
		c-2.527-12.049-11.347-20.886-21.61-20.886C245.644,372.87,236.818,381.707,234.364,393.75z"/>
	<path style="fill:#302A27;" d="M311.659,396.8c-2.02,0-3.951-1.107-4.936-2.989c-9.578-18.354-5.12-39.174,10.368-48.423
		c15.065-9.005,34.605-3.261,46.431,13.663c1.564,2.237,1.274,5.276-0.679,7.179c-13.941,13.546-31.015,24.008-49.391,30.269
		C312.855,396.7,312.254,396.8,311.659,396.8z M332.362,352.328c-3.345,0-6.606,0.846-9.567,2.616
		c-9.177,5.482-12.316,17.519-8.147,29.279c13.434-5.231,25.984-12.928,36.753-22.545
		C345.874,355.629,338.962,352.328,332.362,352.328z"/>
	<path style="fill:#302A27;" d="M200.349,396.8c-0.601,0-1.208-0.1-1.798-0.301c-18.365-6.278-35.423-16.746-49.33-30.269
		c-1.959-1.903-2.243-4.942-0.685-7.174c11.464-16.417,31.371-22.311,46.297-13.713c15.098,8.698,19.79,30.431,10.457,48.451
		C204.312,395.687,202.38,396.8,200.349,396.8z M160.68,361.695c10.73,9.583,23.24,17.269,36.641,22.506
		c3.996-11.676,0.824-24.109-8.042-29.217C180.526,349.952,168.883,352.885,160.68,361.695z"/>
</g>
<path style="fill:#FFFFFF;" d="M228.175,398.47c0.89-17.419,12.967-31.165,27.826-31.165c14.859,0,26.824,13.746,27.826,31.165"/>
<path style="fill:#302A27;" d="M283.827,404.035c-2.922,0-5.382-2.282-5.549-5.242c-0.846-14.536-10.63-25.923-22.278-25.923
	c-11.743,0-21.526,11.37-22.266,25.878c-0.156,3.072-2.81,5.493-5.843,5.276c-3.066-0.156-5.432-2.777-5.27-5.843
	c1.041-20.435,15.705-36.441,33.38-36.441c17.542,0,32.206,15.994,33.386,36.408c0.178,3.072-2.165,5.699-5.231,5.877
	C284.044,404.029,283.933,404.035,283.827,404.035z"/>
<path style="fill:#FFFFFF;" d="M311.653,391.235c-8.125-15.583-4.563-33.391,8.292-41.071c12.856-7.68,29.273-1.781,38.957,12.077"
	/>
<path style="fill:#302A27;" d="M311.659,396.8c-2.003,0-3.946-1.085-4.942-2.989c-9.578-18.354-5.12-39.174,10.368-48.423
	c15.043-8.993,34.554-3.25,46.375,13.668c1.753,2.515,1.141,5.988-1.38,7.752c-2.51,1.753-5.983,1.141-7.752-1.38
	c-8.376-11.987-21.626-16.395-31.538-10.485c-10.34,6.177-13.012,20.68-6.205,33.72c1.419,2.727,0.362,6.088-2.36,7.513
	C313.406,396.6,312.527,396.8,311.659,396.8z"/>
<path style="fill:#FFFFFF;" d="M153.045,362.24c9.683-13.857,26.49-19.256,38.957-12.077c12.466,7.179,16.696,25.489,8.292,41.071"
	/>
<path style="fill:#302A27;" d="M200.288,396.8c-0.89,0-1.798-0.211-2.638-0.668c-2.705-1.458-3.712-4.831-2.259-7.535
	c6.706-12.427,3.879-27.821-6.172-33.608c-9.878-5.688-23.474-1.208-31.616,10.446c-1.764,2.521-5.231,3.133-7.752,1.369
	c-2.521-1.759-3.133-5.226-1.375-7.752c11.47-16.406,31.377-22.305,46.297-13.707c15.393,8.865,20.063,30.637,10.418,48.534
	C204.183,395.737,202.269,396.8,200.288,396.8z"/>
<g>
	<path style="fill:#6D98A5;" d="M174.86,100.174c5.103-1.664,10.44-2.504,15.805-2.504c5.37-0.05,10.724,0.623,15.917,2.003
		c5.304,1.319,10.346,3.517,14.915,6.511c4.591,2.966,8.498,6.873,11.464,11.464c0.846,1.319,0.462,3.078-0.857,3.923
		c-0.846,0.54-1.914,0.595-2.816,0.139l0,0c-4.397-2.282-8.237-4.786-12.522-6.511c-4.157-1.914-8.459-3.517-12.856-4.786
		c-4.48-1.269-9.038-2.271-13.635-3.005c-4.619-0.723-9.517-1.224-14.191-1.67l0,0c-1.564-0.061-2.788-1.38-2.727-2.95
		c0.05-1.224,0.879-2.282,2.059-2.616L174.86,100.174L174.86,100.174z"/>
	<path style="fill:#6D98A5;" d="M336.252,105.739c-4.675,0.445-9.572,0.89-14.191,1.67c-4.597,0.735-9.155,1.736-13.635,3.005
		c-4.397,1.269-8.698,2.872-12.856,4.786c-4.285,1.725-8.125,4.23-12.522,6.511l0,0c-1.397,0.707-3.105,0.15-3.812-1.247
		c-0.456-0.896-0.401-1.97,0.139-2.816c2.966-4.591,6.873-8.498,11.464-11.464c4.569-2.994,9.611-5.192,14.915-6.511
		c5.192-1.38,10.546-2.054,15.917-2.003c5.365,0,10.702,0.84,15.805,2.504c1.508,0.429,2.382,2.003,1.948,3.506
		c-0.339,1.18-1.391,2.009-2.616,2.059H336.252z"/>
	<path style="fill:#6D98A5;" d="M209.532,422.957c5.565,0.946,11.52,1.892,17.363,2.393c5.843,0.501,11.687,1.057,17.53,1.224
		c11.648,0.373,23.313-0.095,34.894-1.391c11.559-1.213,22.995-3.428,34.17-6.623c2.783-0.835,5.565-1.503,8.403-2.393l8.181-3.005
		c5.565-1.725,10.741-4.619,16.306-6.623h0.278c1.458-0.484,3.033,0.306,3.517,1.764c0.384,1.152-0.028,2.421-1.013,3.133
		c-10.106,7.012-21.114,12.627-32.724,16.696c-5.81,2.093-11.737,3.84-17.753,5.231c-6.066,1.057-12.132,2.449-18.254,2.894
		c-12.227,1.341-24.559,1.341-36.786,0c-12.205-1.085-24.225-3.684-35.784-7.736c-1.536-0.401-2.46-1.97-2.059-3.506
		c0.401-1.536,1.97-2.46,3.506-2.059H209.532z"/>
</g>
<path style="fill:#302A27;" d="M256.001,406.283c-9.6,0-19.189-0.774-28.717-2.321c-9.817-1.592-19.517-4.113-28.833-7.496
	c-18.265-6.244-35.322-16.712-49.23-30.241c-5.654-5.443-10.641-11.581-14.809-18.226c-1.631-2.61-0.84-6.044,1.764-7.674
	c2.61-1.636,6.038-0.84,7.669,1.759c3.684,5.882,8.092,11.314,13.112,16.139c12.755,12.405,28.371,21.994,45.19,27.737
	c8.765,3.178,17.786,5.526,26.919,7.007c17.864,2.9,35.985,2.9,53.871,0c9.127-1.48,18.154-3.829,26.819-6.973
	c17.018-5.743,32.729-15.332,45.546-27.754c4.886-4.797,9.21-10.229,12.833-16.117c1.603-2.627,5.031-3.439,7.652-1.825
	c2.621,1.608,3.439,5.036,1.825,7.652c-4.09,6.656-8.982,12.8-14.531,18.248c-14.03,13.596-31.187,24.064-49.642,30.297
	c-9.205,3.345-18.905,5.866-28.717,7.457C275.196,405.51,265.596,406.283,256.001,406.283z"/>
<g>
</g>
<g>
</g>
<g>
</g>
<g>
</g>
<g>
</g>
<g>
</g>
<g>
</g>
<g>
</g>
<g>
</g>
<g>
</g>
<g>
</g>
<g>
</g>
<g>
</g>
<g>
</g>
<g>
</g>
</svg>
