<?xml version="1.0" encoding="iso-8859-1"?>
<!-- Generator: Adobe Illustrator 19.0.0, SVG Export Plug-In . SVG Version: 6.00 Build 0)  -->
<svg version="1.1" id="Layer_1" xmlns="http://www.w3.org/2000/svg" xmlns:xlink="http://www.w3.org/1999/xlink" x="0px" y="0px"
	 viewBox="0 0 512 512" style="enable-background:new 0 0 512 512;" xml:space="preserve">
<g>
	<path style="fill:#38454F;" d="M256,95.458c-4.79,0-8.678-3.879-8.678-8.678V43.39c0-4.799,3.888-8.678,8.678-8.678
		c4.79,0,8.678,3.879,8.678,8.678v43.39C264.678,91.579,260.79,95.458,256,95.458"/>
	<polygon style="fill:#F3D55B;" points="360.136,373.153 256,373.153 151.864,373.153 99.797,512 256,512 412.203,512 	"/>
	<path style="fill:#546A79;" d="M507.661,373.153H4.339v-24.671c0-15.126,12.271-27.396,27.396-27.396h448.529
		c15.126,0,27.396,12.271,27.396,27.396V373.153z"/>
	<polygon style="fill:#38454F;" points="481.627,321.085 30.373,321.085 73.763,269.017 438.237,269.017 	"/>
	<path style="fill:#546A79;" d="M256,86.78c-100.647,0-182.237,81.59-182.237,182.237h364.475
		C438.237,168.37,356.647,86.78,256,86.78"/>
	<g>
		<path style="fill:#E57E25;" d="M264.678,416.542c0,4.79-3.888,8.678-8.678,8.678c-4.79,0-8.678-3.888-8.678-8.678
			c0-4.79,3.888-8.678,8.678-8.678C260.79,407.864,264.678,411.752,264.678,416.542"/>
		<path style="fill:#E57E25;" d="M256,477.288c-4.79,0-8.678-3.879-8.678-8.678v-17.356c0-4.799,3.888-8.678,8.678-8.678
			c4.79,0,8.678,3.879,8.678,8.678v17.356C264.678,473.409,260.79,477.288,256,477.288"/>
		<path style="fill:#E57E25;" d="M334.102,416.542c0,4.79-3.888,8.678-8.678,8.678s-8.678-3.888-8.678-8.678
			c0-4.79,3.888-8.678,8.678-8.678S334.102,411.752,334.102,416.542"/>
		<path style="fill:#E57E25;" d="M325.424,477.288c-4.79,0-8.678-3.879-8.678-8.678v-17.356c0-4.799,3.888-8.678,8.678-8.678
			s8.678,3.879,8.678,8.678v17.356C334.102,473.409,330.214,477.288,325.424,477.288"/>
		<path style="fill:#E57E25;" d="M195.254,416.542c0,4.79-3.888,8.678-8.678,8.678s-8.678-3.888-8.678-8.678
			c0-4.79,3.888-8.678,8.678-8.678S195.254,411.752,195.254,416.542"/>
		<path style="fill:#E57E25;" d="M186.576,477.288c-4.79,0-8.678-3.879-8.678-8.678v-17.356c0-4.799,3.888-8.678,8.678-8.678
			s8.678,3.879,8.678,8.678v17.356C195.254,473.409,191.367,477.288,186.576,477.288"/>
	</g>
	<path style="fill:#38454F;" d="M169.22,208.271c-4.79,0-8.678-3.879-8.678-8.678c0-33.488,27.249-60.746,60.746-60.746
		c4.79,0,8.678,3.879,8.678,8.678c0,4.799-3.888,8.678-8.678,8.678c-23.925,0-43.39,19.465-43.39,43.39
		C177.898,204.392,174.011,208.271,169.22,208.271"/>
	<polygon style="fill:#25323A;" points="125.831,321.085 177.898,321.085 177.898,269.017 125.831,269.017 	"/>
	<polygon style="fill:#38454F;" points="177.898,321.085 229.966,321.085 229.966,269.017 177.898,269.017 	"/>
	<polygon style="fill:#25323A;" points="229.966,321.085 282.034,321.085 282.034,269.017 229.966,269.017 	"/>
	<polygon style="fill:#38454F;" points="282.034,321.085 334.102,321.085 334.102,269.017 282.034,269.017 	"/>
	<polygon style="fill:#25323A;" points="334.102,321.085 386.169,321.085 386.169,269.017 334.102,269.017 	"/>
	<polygon style="fill:#546A79;" points="273.356,52.068 238.644,52.068 229.966,43.39 229.966,8.678 238.644,0 273.356,0 
		282.034,8.678 282.034,43.39 	"/>
</g>
<g>
</g>
<g>
</g>
<g>
</g>
<g>
</g>
<g>
</g>
<g>
</g>
<g>
</g>
<g>
</g>
<g>
</g>
<g>
</g>
<g>
</g>
<g>
</g>
<g>
</g>
<g>
</g>
<g>
</g>
</svg>
