<?xml version="1.0" encoding="iso-8859-1"?>
<!-- Generator: Adobe Illustrator 19.0.0, SVG Export Plug-In . SVG Version: 6.00 Build 0)  -->
<svg version="1.1" id="Layer_1" xmlns="http://www.w3.org/2000/svg" xmlns:xlink="http://www.w3.org/1999/xlink" x="0px" y="0px"
	 viewBox="0 0 504.123 504.123" style="enable-background:new 0 0 504.123 504.123;" xml:space="preserve">
<ellipse style="fill:#FFAA00;" cx="252.062" cy="330.342" rx="83.574" ry="32.815"/>
<path style="fill:#FF7F00;" d="M252.069,297.504c46.167,0,83.566,14.675,83.566,32.8s-37.4,32.815-83.566,32.815"/>
<path style="fill:#09B2A5;" d="M504.123,275.259c0,34.981-112.861,63.354-252.062,63.354C112.853,338.613,0,310.24,0,275.259
	s112.853-79.525,252.062-79.525C391.263,195.742,504.123,240.278,504.123,275.259z"/>
<path style="fill:#089992;" d="M504.123,275.259c0,34.981-112.861,63.354-252.062,63.354C112.853,338.613,0,310.24,0,275.259
	s112.853-70.601,252.062-70.601C391.263,204.658,504.123,240.278,504.123,275.259z"/>
<path style="fill:#048389;" d="M504.123,275.259c0,34.981-112.861,63.354-252.062,63.354C112.853,338.613,0,310.24,0,275.259
	s112.853-1.355,252.062-1.355C391.263,273.904,504.123,240.278,504.123,275.259z"/>
<path style="fill:#A0EAEA;" d="M354.469,214.599c-6.451-41.511-49.782-73.633-102.408-73.633
	c-52.602,0-95.941,32.122-102.392,73.633H354.469z"/>
<path style="fill:#79CCC8;" d="M149.669,214.599h204.8c-6.451-41.511-49.782-73.633-102.408-73.633"/>
<g>
	<path style="fill:#66BCB5;" d="M304.301,214.599v-8.751c0-8.94-7.239-16.187-16.179-16.187h-72.105
		c-8.94,0-16.187,7.247-16.187,16.187v8.751H304.301z"/>
	<path style="fill:#66BCB5;" d="M354.469,214.599c-6.451-41.511-49.782-73.633-102.408-73.633"/>
</g>
<path style="fill:#09B2A5;" d="M366.931,215.906c0,0.969-0.796,1.772-1.772,1.772H141.241c-0.992,0-1.78-0.803-1.78-1.772l0,0
	c0-0.969,0.788-1.772,1.78-1.772h223.925C366.135,214.142,366.931,214.938,366.931,215.906L366.931,215.906z"/>
<path style="fill:#048389;" d="M77.706,236c1.457,2.812-1.126,7.034-2.221,7.617l0,0c-1.119,0.567-6.042,0.244-7.499-2.568
	l-24.781-54.721c-1.449-2.796-1.733-5.553-0.614-6.12l0,0c1.111-0.567,3.198,1.229,4.647,4.033L77.706,236z"/>
<path style="fill:#089992;" d="M43.197,186.321c-1.449-2.796-1.733-5.553-0.614-6.12l0,0c1.111-0.567,3.198,1.229,4.647,4.033
	L77.706,236c1.457,2.812-1.126,7.034-2.221,7.617l0,0"/>
<polygon style="fill:#048389;" points="65.843,278.843 34.706,273.243 69.742,238.214 75.335,243.814 "/>
<circle style="fill:#FF7F00;" cx="42.583" cy="179.893" r="8.751"/>
<path style="fill:#FFAA00;" d="M36.384,173.694c3.426-3.434,8.972-3.419,12.398,0c3.411,3.419,3.434,8.972,0,12.398"/>
<path style="fill:#048389;" d="M426.417,236c-1.449,2.812,1.126,7.034,2.229,7.617l0,0c1.118,0.567,6.034,0.244,7.491-2.568
	l24.781-54.721c1.457-2.796,1.741-5.553,0.614-6.12l0,0c-1.111-0.567-3.182,1.229-4.632,4.033L426.417,236z"/>
<path style="fill:#089992;" d="M460.926,186.321c1.457-2.796,1.741-5.553,0.614-6.12l0,0c-1.111-0.567-3.182,1.229-4.632,4.033
	L426.417,236c-1.449,2.812,1.126,7.034,2.229,7.617l0,0"/>
<polygon style="fill:#048389;" points="438.288,278.843 469.425,273.243 434.381,238.214 428.788,243.814 "/>
<circle style="fill:#FF7F00;" cx="461.509" cy="179.893" r="8.759"/>
<path style="fill:#FFAA00;" d="M467.747,173.694c-3.426-3.434-8.972-3.419-12.398,0c-3.411,3.419-3.426,8.972,0,12.398"/>
<path style="fill:#04727A;" d="M47.002,267.169c0,4.844,0.63,13.32-4.222,13.32c-4.829,0-13.296-8.476-13.296-13.32
	c0-4.829,3.923-8.751,8.751-8.751C43.079,258.418,47.002,262.341,47.002,267.169z"/>
<circle style="fill:#BFD7E2;" cx="38.235" cy="267.169" r="8.759"/>
<path style="fill:#AAC7D1;" d="M32.035,260.986c3.442-3.45,8.964-3.434,12.398-0.016c3.419,3.434,3.434,8.972,0,12.398"/>
<path style="fill:#04727A;" d="M94.515,267.169c0,4.844,0.63,13.32-4.222,13.32c-4.829,0-13.296-8.476-13.296-13.32
	c0-4.829,3.915-8.751,8.751-8.751C90.592,258.418,94.515,262.341,94.515,267.169z"/>
<circle style="fill:#BFD7E2;" cx="85.756" cy="267.169" r="8.759"/>
<path style="fill:#AAC7D1;" d="M79.557,260.986c3.434-3.45,8.972-3.434,12.398-0.016c3.403,3.434,3.434,8.972,0,12.398"/>
<path style="fill:#04727A;" d="M142.021,267.169c0,4.844,0.638,13.32-4.214,13.32c-4.829,0-13.296-8.476-13.296-13.32
	c0-4.829,3.907-8.751,8.751-8.751S142.021,262.341,142.021,267.169z"/>
<circle style="fill:#BFD7E2;" cx="133.262" cy="267.169" r="8.759"/>
<path style="fill:#AAC7D1;" d="M127.071,260.986c3.426-3.45,8.972-3.434,12.39-0.016c3.419,3.434,3.434,8.972,0,12.398"/>
<path style="fill:#04727A;" d="M189.535,267.169c0,4.844,0.63,13.32-4.214,13.32c-4.829,0-13.304-8.476-13.304-13.32
	c0-4.829,3.923-8.751,8.759-8.751C185.62,258.418,189.535,262.341,189.535,267.169z"/>
<circle style="fill:#BFD7E2;" cx="180.775" cy="267.169" r="8.759"/>
<path style="fill:#AAC7D1;" d="M174.584,260.986c3.426-3.45,8.972-3.434,12.398-0.016c3.419,3.434,3.419,8.972,0,12.398"/>
<path style="fill:#04727A;" d="M237.056,267.169c0,4.844,0.63,13.32-4.214,13.32c-4.829,0-13.296-8.476-13.296-13.32
	c0-4.829,3.915-8.751,8.751-8.751C233.141,258.418,237.056,262.341,237.056,267.169z"/>
<circle style="fill:#BFD7E2;" cx="228.297" cy="267.169" r="8.759"/>
<path style="fill:#AAC7D1;" d="M222.098,260.986c3.426-3.45,8.972-3.434,12.398-0.016c3.411,3.434,3.426,8.972,0,12.398"/>
<path style="fill:#04727A;" d="M284.57,267.169c0,4.844,0.63,13.32-4.214,13.32c-4.836,0-13.296-8.476-13.296-13.32
	c0-4.829,3.915-8.751,8.743-8.751C280.655,258.418,284.57,262.341,284.57,267.169z"/>
<circle style="fill:#BFD7E2;" cx="275.81" cy="267.169" r="8.759"/>
<path style="fill:#AAC7D1;" d="M269.611,260.986c3.434-3.45,8.98-3.434,12.398-0.016c3.419,3.434,3.426,8.972,0,12.398"/>
<path style="fill:#04727A;" d="M332.083,267.169c0,4.844,0.622,13.32-4.222,13.32c-4.829,0-13.296-8.476-13.296-13.32
	c0-4.829,3.915-8.751,8.751-8.751C328.168,258.418,332.083,262.341,332.083,267.169z"/>
<circle style="fill:#BFD7E2;" cx="323.324" cy="267.169" r="8.759"/>
<path style="fill:#AAC7D1;" d="M317.125,260.986c3.434-3.45,8.98-3.434,12.398-0.016c3.419,3.434,3.434,8.972,0,12.398"/>
<path style="fill:#04727A;" d="M379.597,267.169c0,4.844,0.63,13.32-4.214,13.32c-4.836,0-13.296-8.476-13.296-13.32
	c0-4.829,3.915-8.751,8.743-8.751C375.682,258.418,379.597,262.341,379.597,267.169z"/>
<circle style="fill:#BFD7E2;" cx="370.846" cy="267.169" r="8.759"/>
<path style="fill:#AAC7D1;" d="M364.639,260.986c3.434-3.45,8.98-3.434,12.398-0.016c3.419,3.434,3.434,8.972,0,12.398"/>
<path style="fill:#04727A;" d="M427.11,267.169c0,4.844,0.63,13.32-4.214,13.32c-4.829,0-13.296-8.476-13.296-13.32
	c0-4.829,3.923-8.751,8.751-8.751C423.203,258.418,427.11,262.341,427.11,267.169z"/>
<circle style="fill:#BFD7E2;" cx="418.351" cy="267.169" r="8.759"/>
<path style="fill:#AAC7D1;" d="M412.152,260.986c3.434-3.45,8.972-3.434,12.398-0.016c3.419,3.434,3.434,8.972,0,12.398"/>
<path style="fill:#04727A;" d="M474.632,267.169c0,4.844,0.63,13.32-4.23,13.32c-4.829,0-13.296-8.476-13.296-13.32
	c0-4.829,3.923-8.751,8.751-8.751C470.709,258.418,474.632,262.341,474.632,267.169z"/>
<circle style="fill:#BFD7E2;" cx="465.841" cy="267.169" r="8.759"/>
<path style="fill:#AAC7D1;" d="M459.658,260.986c3.442-3.45,8.98-3.434,12.406-0.016c3.411,3.434,3.434,8.972,0,12.398"/>
<g>
	<path style="fill:#048389;" d="M271.525,228.171c0,0.693-0.567,1.26-1.26,1.26h-36.399c-0.693,0-1.26-0.567-1.26-1.26l0,0
		c0-0.709,0.567-1.26,1.26-1.26h36.399C270.95,226.911,271.525,227.462,271.525,228.171L271.525,228.171z"/>
	<path style="fill:#048389;" d="M271.525,237.261c0,0.709-0.567,1.26-1.26,1.26h-36.399c-0.693,0-1.26-0.551-1.26-1.26l0,0
		c0-0.693,0.567-1.26,1.26-1.26h36.399C270.95,236,271.525,236.568,271.525,237.261L271.525,237.261z"/>
	<path style="fill:#048389;" d="M271.525,246.367c0,0.693-0.567,1.26-1.26,1.26h-36.399c-0.693,0-1.26-0.567-1.26-1.26l0,0
		c0-0.709,0.567-1.276,1.26-1.276h36.399C270.95,245.09,271.525,245.658,271.525,246.367L271.525,246.367z"/>
</g>
<g>
</g>
<g>
</g>
<g>
</g>
<g>
</g>
<g>
</g>
<g>
</g>
<g>
</g>
<g>
</g>
<g>
</g>
<g>
</g>
<g>
</g>
<g>
</g>
<g>
</g>
<g>
</g>
<g>
</g>
</svg>
