<svg height="400pt" viewBox="0 0 400 400.03705" width="400pt" xmlns="http://www.w3.org/2000/svg"><path d="m342.988281 283.769531c4.671875-16.394531 7.039063-33.355469 7.03125-50.402343.625-50.523438-20.855469-98.800782-58.800781-132.167969 3.640625-34.839844-12.898438-68.710938-42.609375-87.269531-29.714844-18.554688-67.40625-18.554688-97.117187 0-29.710938 18.558593-46.25 52.429687-42.609376 87.269531-37.960937 33.347656-59.464843 81.613281-58.863281 132.136719-.007812 17.046874 2.359375 34.007812 7.03125 50.398437l27.367188 55.761719c26.703125 37.421875 69.632812 59.890625 115.601562 60.503906 45.960938-.605469 88.890625-23.058594 115.597657-60.472656zm0 0" fill="#ffc273"/><path d="m266.683594 91.664062c0 36.816407-29.847656 66.664063-66.664063 66.664063-36.820312 0-66.664062-29.847656-66.664062-66.664063 0-36.816406 29.84375-66.664062 66.664062-66.664062 36.816407 0 66.664063 29.847656 66.664063 66.664062zm0 0" fill="#fff"/><path d="m266.1875 83.335938h-132.335938c4.21875-33.332032 32.570313-58.320313 66.167969-58.320313 33.597657 0 61.949219 24.988281 66.167969 58.320313zm0 0" fill="#fb822c"/><path d="m233.355469 83.335938c0 18.410156-14.925781 33.335937-33.335938 33.335937-18.410156 0-33.335937-14.925781-33.335937-33.335937zm0 0" fill="#884b84"/><path d="m275.019531 258.335938c0-41.421876-33.578125-75-75-75s-75 33.578124-75 75zm0 0" fill="#fff"/><path d="m258.355469 258.335938s-8.335938-33.335938-58.335938-33.335938-58.335937 33.335938-58.335937 33.335938zm0 0" fill="#884b84"/><path d="m286.417969 369.601562c-12.855469-36.710937-47.503907-61.289062-86.398438-61.289062-38.898437 0-73.546875 24.578125-86.402343 61.289062 50.453124 40.582032 122.347656 40.582032 172.800781 0zm0 0" fill="#fb822c"/><path d="m375.019531 83.335938c-9.203125 0-16.664062 7.460937-16.664062 16.664062v100l-10.289063 7.710938c1.242188 8.480468 1.894532 17.03125 1.953125 25.601562 0 4.976562-.289062 9.871094-.671875 14.742188.816406-.40625 1.601563-.878907 2.34375-1.414063l33.328125-25c4.195313-3.144531 6.664063-8.085937 6.664063-13.328125v-108.3125c.003906-9.207031-7.460938-16.667969-16.664063-16.664062zm0 0" fill="#fb822c"/><path d="m358.355469 169.800781v30.199219l-10.289063 7.710938c1.242188 8.480468 1.894532 17.03125 1.953125 25.601562 0 4.976562-.289062 9.871094-.671875 14.742188.816406-.40625 1.601563-.878907 2.34375-1.414063l18-13.496094c-.429687-21.578125-4.253906-42.957031-11.335937-63.34375zm0 0" fill="#ed7b2a"/><path d="m50.019531 233.335938c.054688-8.566407.707031-17.121094 1.949219-25.601563l-10.285156-7.734375v-100c0-9.203125-7.460938-16.664062-16.664063-16.664062s-16.664062 7.460937-16.664062 16.664062v108.335938c-.003907 5.246093 2.464843 10.183593 6.664062 13.328124l33.328125 25c.742188.535157 1.523438 1.007813 2.34375 1.414063-.386718-4.878906-.671875-9.765625-.671875-14.742187zm0 0" fill="#fb822c"/><path d="m30.347656 233.167969 18 13.496093c.742188.535157 1.523438 1.007813 2.34375 1.414063-.386718-4.871094-.671875-9.765625-.671875-14.742187.054688-8.566407.707031-17.121094 1.949219-25.601563l-10.285156-7.734375v-30.199219c-7.085938 20.394531-10.910156 41.78125-11.335938 63.367188zm0 0" fill="#ed7b2a"/><path d="m100.019531 308.335938-33.335937 66.664062-58.328125-75 75-25zm0 0" fill="#ffc273"/><path d="m316.683594 275 75 25-58.328125 75-33.335938-66.664062zm0 0" fill="#ffc273"/><path d="m72.578125 302.441406c-1.5625-1.566406-3.679687-2.445312-5.890625-2.445312s-4.332031.878906-5.894531 2.445312l-25 25c-1.292969 1.339844-2.089844 3.085938-2.253907 4.941406l7.054688 9.074219c.359375.089844.722656.160157 1.089844.207031 2.207031.015626 4.328125-.847656 5.894531-2.398437l25-25c1.578125-1.566406 2.464844-3.695313 2.464844-5.914063s-.886719-4.347656-2.464844-5.910156zm0 0" fill="#fb822c"/><path d="m364.242188 327.441406-25.023438-25c-3.28125-3.097656-8.425781-3.023437-11.617188.164063-3.1875 3.191406-3.261718 8.339843-.167968 11.617187l25.023437 24.976563c1.570313 1.554687 3.691407 2.417969 5.898438 2.402343.367187-.046874.730469-.117187 1.085937-.210937l7.058594-9.070313c-.179688-1.835937-.976562-3.554687-2.257812-4.878906zm0 0" fill="#fb822c"/><g fill="#fbae04"><path d="m33.347656 16.664062c0 9.203126-7.460937 16.664063-16.664062 16.664063s-16.6640628-7.460937-16.6640628-16.664063c0-9.203124 7.4609378-16.664062 16.6640628-16.664062s16.664062 7.460938 16.664062 16.664062zm0 0"/><path d="m83.347656 50c0 9.203125-7.460937 16.664062-16.664062 16.664062s-16.664063-7.460937-16.664063-16.664062 7.460938-16.664062 16.664063-16.664062 16.664062 7.460937 16.664062 16.664062zm0 0"/><path d="m400.019531 41.664062c0 9.203126-7.460937 16.664063-16.664062 16.664063s-16.664063-7.460937-16.664063-16.664063c0-9.203124 7.460938-16.664062 16.664063-16.664062s16.664062 7.460938 16.664062 16.664062zm0 0"/><path d="m341.683594 16.664062c0 9.203126-7.460938 16.664063-16.664063 16.664063s-16.664062-7.460937-16.664062-16.664063c0-9.203124 7.460937-16.664062 16.664062-16.664062s16.664063 7.460938 16.664063 16.664062zm0 0"/></g><path d="m310.074219 189.945312-6.609375-6.609374 2.402344-2.449219c3.160156-3.265625 3.117187-8.464844-.097657-11.679688-3.214843-3.214843-8.414062-3.257812-11.679687-.09375l-2.449219 2.398438-6.605469-6.609375c-3.28125-3.09375-8.429687-3.019532-11.617187.167968-3.191407 3.191407-3.261719 8.335938-.167969 11.617188l6.609375 6.609375-2.402344 2.398437c-3.285156 3.253907-3.3125 8.558594-.058593 11.84375 3.253906 3.289063 8.558593 3.316407 11.84375.0625l2.398437-2.402343 6.609375 6.609375c2.085938 2.207031 5.203125 3.105468 8.140625 2.347656 2.941406-.753906 5.238281-3.050781 5.992187-5.992188.757813-2.9375-.140624-6.054687-2.347656-8.140624zm0 0" fill="#fb822c"/><path d="m130.90625 160.800781c-1.558594-1.5625-3.679688-2.441406-5.886719-2.441406-2.210937 0-4.328125.878906-5.890625 2.441406l-10.773437 10.773438-2.449219-2.398438c-3.265625-3.160156-8.464844-3.121093-11.679688.09375-3.214843 3.214844-3.257812 8.414063-.097656 11.683594l2.402344 2.445313-10.777344 10.777343c-3.234375 3.277344-3.199218 8.554688.078125 11.789063 3.273438 3.234375 8.550781 3.199218 11.785157-.078125l10.777343-10.765625 2.398438 2.398437c3.28125 3.097657 8.429687 3.023438 11.617187-.167969 3.191406-3.1875 3.265625-8.335937.167969-11.617187l-2.398437-2.398437 10.765624-10.777344c3.230469-3.261719 3.210938-8.519532-.039062-11.757813zm0 0" fill="#fb822c"/></svg>