<svg height="380pt" viewBox="0 -23 380 379" width="380pt" xmlns="http://www.w3.org/2000/svg"><path d="m380 166.8125-34.640625 24.96875 21.425781 36.925781-41.785156 9.007813 5.742188 42.335937-42.269532-6.527343-8.71875 41.855468-38.066406-19.550781-20.96875 37.296875-30.71875-29.808594-30.71875 29.808594-20.96875-37.296875-38.074219 19.550781-8.71875-41.855468-42.28125 6.511718 5.753907-42.328125-41.785157-9.015625 21.433594-36.917968-34.640625-24.960938 34.640625-24.96875-21.425781-36.929688 41.785156-9.007812-5.742188-42.335938 42.269532 6.53125 8.71875-41.859374 38.066406 19.554687 20.96875-37.296875 30.71875 29.816406 30.71875-29.816406 20.96875 37.296875 38.074219-19.554687 8.71875 41.859374 42.28125-6.511718-5.753907 42.324218 41.785157 9.019532-21.433594 36.917968zm0 0" fill="#ffc273"/><path d="m318.015625 193.1875c0 26.511719-21.488281 48-48 48-26.507813 0-48-21.488281-48-48 0-26.507812 21.492187-48 48-48 26.511719 0 48 21.492188 48 48zm0 0" fill="#fff"/><path d="m278.015625 193.453125c0 8.835937-7.164063 16-16 16s-16-7.164063-16-16 7.164063-16 16-16 16 7.164063 16 16zm0 0" fill="#884b84"/><path d="m170.273438 193.1875c0 26.511719-21.492188 48-48 48-26.511719 0-48-21.488281-48-48 0-26.507812 21.488281-48 48-48 26.507812 0 48 21.492188 48 48zm0 0" fill="#fff"/><path d="m140.871094 185.628906c0 8.835938-7.164063 16-16 16-8.835938 0-16-7.164062-16-16 0-8.835937 7.164062-16 16-16 8.835937 0 16 7.164063 16 16zm0 0" fill="#884b84"/><path d="m242.359375 97.164062c0 26.507813-21.488281 48-48 48-26.507813 0-48-21.492187-48-48 0-26.507812 21.492187-48 48-48 26.511719 0 48 21.492188 48 48zm0 0" fill="#fff"/><path d="m214.335938 104.109375c0 8.835937-7.164063 16-16 16-8.835938 0-16-7.164063-16-16 0-8.839844 7.164062-16 16-16 8.835937 0 16 7.160156 16 16zm0 0" fill="#884b84"/></svg>