<svg height="384pt" viewBox="0 -3 384 384" width="384pt" xmlns="http://www.w3.org/2000/svg"><path d="m192 149.785156c86.714844 0 157.007812 70.300782 157 157.015625v71.199219h-314v-71.199219c-.007812-86.714843 70.285156-157.015625 157-157.015625zm0 0" fill="#ffc273"/><path d="m168.320312 48c0 26.507812-21.492187 48-48 48-26.511718 0-48-21.492188-48-48s21.488282-48 48-48c26.507813 0 48 21.492188 48 48zm0 0" fill="#ffc273"/><path d="m129.832031 52.6875c0 8.835938-7.164062 16-16 16-8.835937 0-16-7.164062-16-16s7.164063-16 16-16c8.835938 0 16 7.164062 16 16zm0 0" fill="#884b84"/><path d="m311.679688 48c0 26.507812-21.488282 48-48 48-26.507813 0-48-21.492188-48-48s21.492187-48 48-48c26.511718 0 48 21.492188 48 48zm0 0" fill="#ffc273"/><path d="m282.28125 40.441406c0 8.835938-7.164062 16-16 16s-16-7.164062-16-16c0-8.839844 7.164062-16 16-16s16 7.160156 16 16zm0 0" fill="#884b84"/><path d="m280.183594 176.894531v-83.855469c-10.648438 3.910157-22.339844 3.925782-33 .039063v66.875c11.632812 4.316406 22.710937 10.003906 33 16.941406zm0 0" fill="#fb822c"/><path d="m136.800781 159.953125v-66.914063c-10.652343 3.910157-22.339843 3.925782-33 .039063v83.816406c10.289063-6.9375 21.367188-12.625 33-16.941406zm0 0" fill="#fb822c"/><path d="m123.160156 218h137.679688v130h-137.679688zm0 0" fill="#884b84"/><g fill="#fff"><path d="m123.160156 218 22.582032 37.335938 22.578124-37.335938zm0 0"/><path d="m168.320312 218 22.582032 37.335938 22.585937-37.335938zm0 0"/><path d="m213.488281 218 22.574219 37.335938 22.585938-37.335938zm0 0"/><path d="m123.160156 348 22.582032-37.335938 22.578124 37.335938zm0 0"/><path d="m168.320312 348 22.582032-37.335938 22.585937 37.335938zm0 0"/><path d="m213.488281 348 22.574219-37.335938 22.585938 37.335938zm0 0"/></g><path d="m303.28125 196.046875 38.71875-58.046875 7 29.023438 23.664062-5.023438-4.664062 30.664062 16 6.671876-54.671875 31.335937c-7.554687-12.347656-16.277344-23.945313-26.046875-34.625zm0 0" fill="#fb822c"/><path d="m80.71875 196.046875-38.71875-58.046875-7 29.023438-23.664062-5.023438 4.664062 30.664062-16 6.671876 54.671875 31.335937c7.554687-12.347656 16.277344-23.945313 26.046875-34.625zm0 0" fill="#fb822c"/></svg>