<?xml version="1.0" encoding="iso-8859-1"?>
<!-- Generator: Adobe Illustrator 19.0.0, SVG Export Plug-In . SVG Version: 6.00 Build 0)  -->
<svg version="1.1" id="Capa_1" xmlns="http://www.w3.org/2000/svg" xmlns:xlink="http://www.w3.org/1999/xlink" x="0px" y="0px"
	 viewBox="0 0 512 512" style="enable-background:new 0 0 512 512;" xml:space="preserve">
<path style="fill:#FFD266;" d="M492.523,271.638c29.162,167.736-10.797,233.405-236.522,234.797
	C30.276,505.043-9.682,439.318,19.479,271.638C48.307,109.523,74.464,5.565,256.001,5.565S463.695,109.523,492.523,271.638z"/>
<path style="fill:#FFEE88;" d="M308.092,8.96l-0.779,0.501c-9.611,4.179-20.118,5.866-30.553,4.897
	c-22.461-0.985-44.945,1.23-66.783,6.567c-21.888,5.487-41.088,18.61-54.15,37.009c-7.958,12.188-12.41,26.936-23.263,36.563
	c-12.132,10.685-29.551,12.633-43.52,20.647c-16.49,9.756-26.952,27.164-27.826,46.303c-1.057,28.55,19.645,56.153,12.577,83.812
	C70.68,257.391,62.666,267.52,57.1,278.65c-5.009,10.407-8.014,22.261-15.527,30.776c-4.903,5.176-10.524,9.622-16.696,13.19
	c-4.063,2.56-8.237,4.842-12.188,7.235c1.475-19.595,3.968-39.096,7.457-58.435C48.307,109.523,74.464,5.565,256.001,5.565
	c7.513,0,14.803,0,21.816,0.557C288.502,6.678,298.575,7.624,308.092,8.96z"/>
<path style="fill:#F2B149;" d="M256.001,506.435c-32.846,0.117-65.664-1.987-98.226-6.289c5.749-6.773,13.039-12.06,21.259-15.416
	c17.085-6.678,36.118-5.565,54.317-3.506s36.508,5.565,54.762,4.007c36.619-3.617,68.508-27.826,104.96-32.89
	c9.155-0.584,18.248-1.853,27.214-3.784c15.755-4.797,28.065-17.163,32.779-32.946c2.504-8.849,2.727-18.922,8.793-25.823
	c3.951-4.452,9.85-6.901,13.802-11.13c7.791-8.793,5.899-22.261,3.896-33.837c-6.022-34.927-9.077-70.3-9.127-105.739
	c0-13.523,0.946-28.271,8.125-38.957c4.953,22.261,9.461,46.47,13.969,71.903C521.685,439.318,481.726,505.043,256.001,506.435z"/>
<g>
	<path style="fill:#302A27;" d="M256.035,512c-118.634-0.729-186.897-19.462-221.39-60.728
		c-30.202-36.135-36.38-90.14-20.653-180.586C43.844,102.851,71.498,0,256.001,0s212.163,102.851,242.004,270.664
		c0,0.006,0.006,0.011,0.006,0.022c15.722,90.463,9.55,144.473-20.653,180.602C442.87,492.544,374.613,511.271,256.035,512z
		 M256.001,11.13c-175.627,0-202.212,99.361-231.046,261.476c-15.098,86.867-9.65,138.168,18.232,171.526
		c32.206,38.534,97.853,56.031,212.847,56.737c114.938-0.707,180.58-18.204,212.781-56.721
		c27.876-33.347,33.33-84.647,18.226-171.537l0,0C458.213,110.492,431.628,11.13,256.001,11.13z"/>
	<path style="fill:#302A27;" d="M183.653,228.174c-27.615,0-50.087-22.472-50.087-50.087S156.039,128,183.653,128
		s50.087,22.472,50.087,50.087S211.268,228.174,183.653,228.174z M183.653,139.13c-21.482,0-38.957,17.475-38.957,38.957
		s17.475,38.957,38.957,38.957s38.957-17.475,38.957-38.957S205.135,139.13,183.653,139.13z"/>
</g>
<circle style="fill:#FFFFFF;" cx="183.653" cy="178.087" r="44.522"/>
<g>
	<circle style="fill:#F2B149;" cx="183.653" cy="200.348" r="50.087"/>
	<path style="fill:#F2B149;" d="M183.653,256c-30.687,0-55.652-24.966-55.652-55.652s24.966-55.652,55.652-55.652
		s55.652,24.966,55.652,55.652S214.34,256,183.653,256z M183.653,155.826c-24.548,0-44.522,19.974-44.522,44.522
		s19.974,44.522,44.522,44.522s44.522-19.974,44.522-44.522S208.202,155.826,183.653,155.826z"/>
	<circle style="fill:#F2B149;" cx="328.349" cy="200.348" r="50.087"/>
	<path style="fill:#F2B149;" d="M328.355,256c-30.687,0-55.652-24.966-55.652-55.652s24.966-55.652,55.652-55.652
		s55.652,24.966,55.652,55.652S359.036,256,328.355,256z M328.355,155.826c-24.548,0-44.522,19.974-44.522,44.522
		s19.974,44.522,44.522,44.522c24.548,0,44.522-19.974,44.522-44.522S352.903,155.826,328.355,155.826z"/>
</g>
<g>
	<circle style="fill:#FFFFFF;" cx="183.653" cy="178.087" r="50.087"/>
	<circle style="fill:#FFFFFF;" cx="328.349" cy="178.087" r="50.087"/>
</g>
<g>
	<path style="fill:#302A27;" d="M183.653,233.739c-30.687,0-55.652-24.966-55.652-55.652s24.966-55.652,55.652-55.652
		s55.652,24.966,55.652,55.652S214.34,233.739,183.653,233.739z M183.653,133.565c-24.548,0-44.522,19.974-44.522,44.522
		s19.974,44.522,44.522,44.522s44.522-19.974,44.522-44.522S208.202,133.565,183.653,133.565z"/>
	<path style="fill:#302A27;" d="M328.355,233.739c-30.687,0-55.652-24.966-55.652-55.652s24.966-55.652,55.652-55.652
		s55.652,24.966,55.652,55.652S359.036,233.739,328.355,233.739z M328.355,133.565c-24.548,0-44.522,19.974-44.522,44.522
		s19.974,44.522,44.522,44.522c24.548,0,44.522-19.974,44.522-44.522S352.903,133.565,328.355,133.565z"/>
</g>
<circle style="fill:#FF88B6;" cx="328.349" cy="178.087" r="27.826"/>
<circle style="fill:#302A27;" cx="328.349" cy="178.087" r="11.13"/>
<circle style="fill:#FFFFFF;" cx="311.653" cy="161.391" r="16.696"/>
<circle style="fill:#FF88B6;" cx="183.653" cy="178.087" r="27.826"/>
<circle style="fill:#302A27;" cx="183.653" cy="178.087" r="11.13"/>
<circle style="fill:#FFFFFF;" cx="166.958" cy="161.391" r="16.696"/>
<path style="fill:#302A27;" d="M378.436,368.417c-31.555,31.443-61.217,51.089-90.268,60.104
	c-37.677,11.576-74.296,5.176-112.473-16.696c-25.099-14.303-37.176-33.002-40.904-53.036c-5.677-31.054,8.793-65.28,26.602-91.659
	C161.393,267.13,204.634,363.576,378.436,368.417z"/>
<g>
	<path style="fill:#F2B149;" d="M105.74,364.188c2.493,7.051,5.565,13.88,9.183,20.424c7.073,13.201,16.334,25.11,27.381,35.228
		c5.632,5.153,11.52,10.023,17.642,14.581l0,0c1.308,0.807,1.714,2.521,0.907,3.829c-0.785,1.274-2.443,1.697-3.745,0.957
		c-3.673-1.614-7.346-3.339-11.13-5.565c-3.545-2.015-6.945-4.263-10.184-6.734l-4.842-3.784l-4.508-4.23
		c-2.989-2.849-5.777-5.899-8.348-9.127c-5.048-6.322-9.205-13.306-12.355-20.758c-3.356-7.63-5.248-15.822-5.565-24.153
		c-0.278-1.536,0.746-3.005,2.282-3.283s3.005,0.746,3.283,2.282V364.188z"/>
	<path style="fill:#F2B149;" d="M145.921,100.619c4.792-4.124,10.296-7.335,16.25-9.461c5.971-2.215,12.277-3.417,18.643-3.562
		c3.217-0.067,6.439,0.122,9.628,0.557c3.167,0.579,6.278,1.436,9.294,2.56c5.977,2.165,11.437,5.56,16.028,9.962
		c1.202,0.957,1.402,2.71,0.44,3.912c-0.785,0.985-2.126,1.319-3.278,0.818l0,0c-5.203-2.143-10.563-3.896-16.028-5.231
		c-5.198-1.208-10.529-1.747-15.861-1.614c-5.409,0.089-10.802,0.723-16.083,1.892c-5.421,1.23-10.758,2.81-15.972,4.73l0,0
		c-1.436,0.551-3.044-0.173-3.595-1.608c-0.423-1.107-0.1-2.36,0.813-3.122L145.921,100.619z"/>
	<path style="fill:#F2B149;" d="M362.965,105.294c-5.215-1.92-10.552-3.501-15.972-4.73c-5.281-1.169-10.674-1.803-16.083-1.892
		c-5.331-0.134-10.663,0.406-15.861,1.614c-5.382,1.258-10.669,2.916-15.805,4.953l0,0c-1.408,0.612-3.05-0.039-3.656-1.447
		c-0.501-1.152-0.161-2.499,0.818-3.283c4.541-4.313,9.923-7.647,15.805-9.795c3.016-1.124,6.127-1.981,9.294-2.56
		c3.189-0.434,6.411-0.623,9.628-0.557c6.367,0.145,12.672,1.347,18.643,3.562c5.955,2.126,11.459,5.337,16.25,9.461
		c1.18,0.991,1.33,2.744,0.339,3.918c-0.762,0.907-2.015,1.235-3.122,0.813L362.965,105.294z"/>
</g>
<path style="fill:#A694D7;" d="M288.168,428.522c-37.677,11.576-74.296,5.176-112.473-16.696
	c-25.099-14.303-37.176-33.002-40.904-53.036c32.612-8.181,65.558,10.63,65.558,36.341
	C227.006,377.377,271.417,395.13,288.168,428.522z"/>
<path style="fill:#302A27;" d="M251.51,439.903c-25.606,0-51.528-7.802-78.575-23.246c-23.263-13.29-37.665-31.182-42.819-53.176
	c-9.032-38.567,12.822-78.865,26.657-99.456c1.124-1.681,3.022-2.649,5.087-2.438c2.009,0.167,3.768,1.408,4.602,3.245
	c0.462,1.002,44.594,93.345,212.135,98.02c2.215,0.067,4.191,1.441,5.009,3.506c0.824,2.065,0.339,4.424-1.235,5.994
	C337.07,417.658,294.735,439.903,251.51,439.903z M161.064,277.96c-12.399,20.358-27.203,52.714-20.113,82.983
	c4.419,18.866,17.035,34.36,37.498,46.047c64.518,36.819,122.535,26.557,186.791-33.553
	C228.526,365.852,175.907,301.59,161.064,277.96z"/>
<g>
	<path style="fill:#F2B149;" d="M382.833,262.066c7.541,2.899,14.637,6.829,21.092,11.687c6.6,4.614,12.605,10.04,17.864,16.139
		c0.979,1.263,0.746,3.083-0.518,4.057c-0.768,0.595-1.786,0.762-2.71,0.451c-7.491-3-14.575-6.929-21.092-11.687
		c-6.673-4.525-12.689-9.956-17.864-16.139c-0.979-1.263-0.746-3.083,0.518-4.057C380.896,261.921,381.914,261.749,382.833,262.066z
		"/>
	<path style="fill:#F2B149;" d="M416.947,254.72c-3.016,8.231-6.901,16.122-11.576,23.541c-4.424,7.658-9.895,14.664-16.25,20.814
		c-1.18,1.08-3.011,0.996-4.09-0.184c-0.685-0.746-0.929-1.798-0.64-2.766c2.783-8.309,6.695-16.189,11.631-23.43
		c4.664-7.496,10.112-14.47,16.25-20.814c1.063-1.152,2.861-1.219,4.013-0.15c0.851,0.79,1.135,2.02,0.718,3.1L416.947,254.72z"/>
</g>
<g>
</g>
<g>
</g>
<g>
</g>
<g>
</g>
<g>
</g>
<g>
</g>
<g>
</g>
<g>
</g>
<g>
</g>
<g>
</g>
<g>
</g>
<g>
</g>
<g>
</g>
<g>
</g>
<g>
</g>
</svg>
