<?xml version="1.0" encoding="iso-8859-1"?>
<!-- Generator: Adobe Illustrator 19.0.0, SVG Export Plug-In . SVG Version: 6.00 Build 0)  -->
<svg version="1.1" id="Capa_1" xmlns="http://www.w3.org/2000/svg" xmlns:xlink="http://www.w3.org/1999/xlink" x="0px" y="0px"
	 viewBox="0 0 512 512" style="enable-background:new 0 0 512 512;" xml:space="preserve">
<path style="fill:#9ADB61;" d="M492.523,271.638c29.162,167.736-10.797,233.405-236.522,234.797
	C30.276,505.043-9.682,439.318,19.479,271.638C48.307,109.523,74.464,5.565,256.001,5.565S463.695,109.523,492.523,271.638z"/>
<path style="fill:#CDE882;" d="M308.092,8.96l-0.779,0.501c-9.611,4.179-20.118,5.866-30.553,4.897
	c-22.461-0.985-44.945,1.23-66.783,6.567c-21.888,5.487-41.088,18.61-54.15,37.009c-7.958,12.188-12.41,26.936-23.263,36.563
	c-12.132,10.685-29.551,12.633-43.52,20.647c-16.49,9.756-26.952,27.164-27.826,46.303c-1.057,28.55,19.645,56.153,12.577,83.812
	C70.68,257.391,62.666,267.52,57.1,278.65c-5.009,10.407-8.014,22.261-15.527,30.776c-4.903,5.176-10.524,9.622-16.696,13.19
	c-4.063,2.56-8.237,4.842-12.188,7.235c1.475-19.595,3.968-39.096,7.457-58.435C48.307,109.523,74.464,5.565,256.001,5.565
	c7.513,0,14.803,0,21.816,0.557C288.502,6.678,298.575,7.624,308.092,8.96z"/>
<path style="fill:#71BF55;" d="M256.001,506.435c-32.846,0.117-65.664-1.987-98.226-6.289c5.749-6.773,13.039-12.06,21.259-15.416
	c17.085-6.678,36.118-5.565,54.317-3.506s36.508,5.565,54.762,4.007c36.619-3.617,68.508-27.826,104.96-32.89
	c9.155-0.584,18.248-1.853,27.214-3.784c15.755-4.797,28.065-17.163,32.779-32.946c2.504-8.849,2.727-18.922,8.793-25.823
	c3.951-4.452,9.85-6.901,13.802-11.13c7.791-8.793,5.899-22.261,3.896-33.837c-6.022-34.927-9.077-70.3-9.127-105.739
	c0-13.523,0.946-28.271,8.125-38.957c4.953,22.261,9.461,46.47,13.969,71.903C521.685,439.318,481.726,505.043,256.001,506.435z"/>
<g>
	<path style="fill:#302A27;" d="M256.035,512c-118.634-0.729-186.897-19.462-221.39-60.728
		c-30.202-36.135-36.38-90.14-20.653-180.586C43.844,102.851,71.498,0,256.001,0s212.163,102.851,242.004,270.664
		c0,0.006,0.006,0.011,0.006,0.022c15.722,90.463,9.55,144.473-20.653,180.602C442.87,492.544,374.613,511.271,256.035,512z
		 M256.001,11.13c-175.627,0-202.212,99.361-231.046,261.476c-15.098,86.867-9.65,138.168,18.232,171.526
		c32.206,38.534,97.853,56.031,212.847,56.737c114.938-0.707,180.58-18.204,212.781-56.721
		c27.876-33.347,33.33-84.647,18.226-171.537l0,0C458.213,110.492,431.628,11.13,256.001,11.13z"/>
	<path style="fill:#302A27;" d="M166.958,228.174c-27.615,0-50.087-22.472-50.087-50.087S139.343,128,166.958,128
		s50.087,22.472,50.087,50.087S194.572,228.174,166.958,228.174z M166.958,139.13c-21.482,0-38.957,17.475-38.957,38.957
		s17.475,38.957,38.957,38.957s38.957-17.475,38.957-38.957S188.439,139.13,166.958,139.13z"/>
</g>
<g>
	<circle style="fill:#71BF55;" cx="166.958" cy="200.348" r="50.087"/>
	<path style="fill:#71BF55;" d="M166.958,256c-30.687,0-55.652-24.966-55.652-55.652s24.966-55.652,55.652-55.652
		s55.652,24.966,55.652,55.652S197.644,256,166.958,256z M166.958,155.826c-24.548,0-44.522,19.974-44.522,44.522
		s19.974,44.522,44.522,44.522s44.522-19.974,44.522-44.522S191.506,155.826,166.958,155.826z"/>
	<circle style="fill:#71BF55;" cx="345.045" cy="200.348" r="50.087"/>
	<path style="fill:#71BF55;" d="M345.05,256c-30.687,0-55.652-24.966-55.652-55.652s24.966-55.652,55.652-55.652
		s55.652,24.966,55.652,55.652S375.731,256,345.05,256z M345.05,155.826c-24.548,0-44.522,19.974-44.522,44.522
		s19.974,44.522,44.522,44.522c24.548,0,44.522-19.974,44.522-44.522S369.598,155.826,345.05,155.826z"/>
	<circle style="fill:#71BF55;" cx="256.001" cy="116.87" r="33.391"/>
	<path style="fill:#71BF55;" d="M256.001,155.826c-21.482,0-38.957-17.475-38.957-38.957s17.475-38.957,38.957-38.957
		s38.957,17.475,38.957,38.957S277.483,155.826,256.001,155.826z M256.001,89.043c-15.343,0-27.826,12.483-27.826,27.826
		s12.483,27.826,27.826,27.826c15.343,0,27.826-12.483,27.826-27.826S271.345,89.043,256.001,89.043z"/>
</g>
<g>
	<circle style="fill:#FFFFFF;" cx="166.958" cy="178.087" r="44.522"/>
	<circle style="fill:#FFFFFF;" cx="166.958" cy="178.087" r="50.087"/>
	<circle style="fill:#FFFFFF;" cx="345.045" cy="178.087" r="50.087"/>
	<circle style="fill:#FFFFFF;" cx="256.001" cy="94.609" r="33.391"/>
</g>
<g>
	<path style="fill:#302A27;" d="M166.958,233.739c-30.687,0-55.652-24.966-55.652-55.652s24.966-55.652,55.652-55.652
		s55.652,24.966,55.652,55.652S197.644,233.739,166.958,233.739z M166.958,133.565c-24.548,0-44.522,19.974-44.522,44.522
		s19.974,44.522,44.522,44.522s44.522-19.974,44.522-44.522S191.506,133.565,166.958,133.565z"/>
	<path style="fill:#302A27;" d="M345.05,233.739c-30.687,0-55.652-24.966-55.652-55.652s24.966-55.652,55.652-55.652
		s55.652,24.966,55.652,55.652S375.731,233.739,345.05,233.739z M345.05,133.565c-24.548,0-44.522,19.974-44.522,44.522
		s19.974,44.522,44.522,44.522c24.548,0,44.522-19.974,44.522-44.522S369.598,133.565,345.05,133.565z"/>
	<path style="fill:#302A27;" d="M256.001,133.565c-21.482,0-38.957-17.475-38.957-38.957s17.475-38.957,38.957-38.957
		s38.957,17.475,38.957,38.957S277.483,133.565,256.001,133.565z M256.001,66.783c-15.343,0-27.826,12.483-27.826,27.826
		s12.483,27.826,27.826,27.826c15.343,0,27.826-12.483,27.826-27.826S271.345,66.783,256.001,66.783z"/>
</g>
<circle style="fill:#9BE6EA;" cx="345.045" cy="178.087" r="27.826"/>
<circle style="fill:#302A27;" cx="345.045" cy="178.087" r="11.13"/>
<circle style="fill:#FFFFFF;" cx="333.914" cy="166.957" r="8.348"/>
<circle style="fill:#9BE6EA;" cx="256.001" cy="94.609" r="16.696"/>
<circle style="fill:#302A27;" cx="256.001" cy="94.609" r="5.565"/>
<circle style="fill:#FFFFFF;" cx="250.436" cy="89.043" r="5.565"/>
<circle style="fill:#9BE6EA;" cx="166.958" cy="178.087" r="27.826"/>
<circle style="fill:#302A27;" cx="166.958" cy="178.087" r="11.13"/>
<circle style="fill:#FFFFFF;" cx="155.827" cy="166.957" r="8.348"/>
<path style="fill:#302A27;" d="M228.175,411.826c-14.347,0.996-26.791-9.828-27.787-24.181c-0.017-0.25-0.033-0.501-0.039-0.751
	c-0.323-5.07,0.857-10.123,3.395-14.525c12.232-20.636,28.583-38.539,48.028-52.591c8.326-6.272,17.146-11.859,26.379-16.696
	c29.663-15.249,59.437-19.423,75.743-4.563c3.645,3.345,6.517,7.446,8.404,12.021C385.782,365.579,322.784,406.261,228.175,411.826z
	"/>
<g>
	<path style="fill:#FFFFFF;" d="M233.74,367.304l-19.256-11.13l0.334-0.445c3.061-4.007,6.344-7.958,9.85-11.743
		c2.003-2.115,4.007-4.23,6.122-6.289L233.74,367.304z"/>
	<path style="fill:#FFFFFF;" d="M233.74,372.87c-0.957,0-1.92-0.25-2.783-0.746l-19.256-11.13c-1.38-0.801-2.349-2.148-2.666-3.706
		c-0.317-1.558,0.045-3.178,1.002-4.452l0.334-0.445c3.328-4.363,6.756-8.454,10.218-12.182c2.098-2.215,4.157-4.385,6.328-6.5
		c1.53-1.491,3.79-1.976,5.788-1.241c2.009,0.735,3.417,2.549,3.629,4.68l2.95,29.607c0.206,2.076-0.768,4.09-2.521,5.22
		C235.838,372.569,234.792,372.87,233.74,372.87z M222.833,354.571l4.291,2.482l-0.673-6.745
		C225.242,351.677,224.035,353.102,222.833,354.571z"/>
	<path style="fill:#FFFFFF;" d="M278.262,303.249v36.23l-26.379-19.757C260.214,313.522,269.035,308.013,278.262,303.249z"/>
	<path style="fill:#FFFFFF;" d="M278.268,345.043c-1.18,0-2.354-0.373-3.339-1.107l-26.379-19.757
		c-1.402-1.052-2.232-2.705-2.226-4.469c0-1.753,0.835-3.406,2.243-4.452c8.537-6.361,17.67-12.06,27.147-16.957
		c1.725-0.89,3.779-0.813,5.448,0.189c1.658,1.013,2.666,2.816,2.666,4.753v36.235c0,2.109-1.191,4.035-3.078,4.981
		C279.965,344.849,279.114,345.043,278.268,345.043z M261.316,319.833l11.386,8.526v-15.711
		C268.818,314.908,265.017,317.306,261.316,319.833z"/>
	<path style="fill:#FFFFFF;" d="M337.198,290.393L337.198,290.393l-14.414,32.39l-18.699-29.885l0,0
		C314.77,289.469,326.117,288.612,337.198,290.393z"/>
	<path style="fill:#FFFFFF;" d="M322.789,328.348c-1.909,0-3.695-0.979-4.719-2.616l-18.699-29.885
		c-0.913-1.458-1.096-3.25-0.512-4.864c0.59-1.608,1.892-2.861,3.528-3.384c11.459-3.673,23.808-4.608,35.695-2.699
		c1.708,0.273,3.189,1.324,4.013,2.844s0.896,3.339,0.195,4.914l-14.414,32.39c-0.835,1.881-2.649,3.144-4.697,3.289
		C323.045,328.342,322.917,328.348,322.789,328.348z M312.822,296.365l9.138,14.598l7.046-15.833
		C323.574,294.895,318.131,295.296,312.822,296.365z"/>
</g>
<path style="fill:#302A27;" d="M226.506,417.447c-5.61,0-11.114-1.491-16.006-4.346c-7.346-4.285-12.577-11.169-14.742-19.395
	c-2.159-8.209-1.002-16.768,3.267-24.097c26.602-47.154,89.305-87.864,131.211-85.665c17.959,0.991,30.87,9.528,37.348,24.693
	c7.986,18.71,6.934,37.109-3.033,53.215c-19.128,30.893-69.983,51.651-136.053,55.535
	C227.836,417.425,227.168,417.447,226.506,417.447z M326.685,294.973c-37.838,0-94.236,38.016-117.983,80.128
	c-0.011,0.022-0.028,0.05-0.039,0.072c-2.788,4.775-3.551,10.351-2.143,15.699c1.408,5.348,4.808,9.828,9.589,12.616
	c3.562,2.076,7.613,3.044,11.72,2.783c62.475-3.673,110.041-22.472,127.265-50.287c8.092-13.073,8.849-27.531,2.254-42.986
	c-4.758-11.158-14.086-17.197-27.715-17.948C328.661,295.001,327.676,294.973,326.685,294.973z"/>
<g>
	<path style="fill:#71BF55;" d="M368.53,264.626c6.962,2.805,13.067,7.396,17.697,13.301c4.636,5.766,8.181,12.327,10.463,19.367
		c2.215,6.912,3.411,14.113,3.562,21.37c0,3.562,0,7.123-0.445,10.685s-1.113,7.012-1.892,10.407
		c-0.078,1.536-1.386,2.721-2.922,2.643s-2.721-1.386-2.643-2.922l0,0c-0.39-3.395-0.557-6.678-0.723-10.017
		c-0.167-3.339-0.668-6.567-1.113-9.739c-0.902-6.328-2.354-12.566-4.341-18.643c-2.042-5.855-4.753-11.459-8.07-16.696
		c-3.356-5.298-7.418-10.106-12.077-14.303l-0.334-0.278c-1.141-1.03-1.235-2.788-0.211-3.929c0.768-0.851,1.976-1.146,3.05-0.746
		L368.53,264.626z"/>
	<path style="fill:#71BF55;" d="M175.25,367.972c0,5.565,0,11.13,0.557,16.696c0.401,5.415,1.297,10.78,2.671,16.028
		c1.419,4.959,3.595,9.672,6.456,13.969c3.139,4.335,6.89,8.198,11.13,11.464l0,0c1.18,0.991,1.33,2.744,0.339,3.918
		c-0.762,0.907-2.015,1.235-3.122,0.813c-6.2-1.97-11.782-5.521-16.195-10.296c-4.391-4.903-7.641-10.719-9.517-17.03
		c-1.759-6.127-2.471-12.505-2.115-18.866c0.262-6.261,1.636-12.422,4.063-18.198c0.339-1.53,1.853-2.499,3.384-2.159
		c1.486,0.328,2.454,1.775,2.182,3.272L175.25,367.972z"/>
</g>
<g>
</g>
<g>
</g>
<g>
</g>
<g>
</g>
<g>
</g>
<g>
</g>
<g>
</g>
<g>
</g>
<g>
</g>
<g>
</g>
<g>
</g>
<g>
</g>
<g>
</g>
<g>
</g>
<g>
</g>
</svg>
