<svg height="400pt" viewBox="0 0 400 400.25822" width="400pt" xmlns="http://www.w3.org/2000/svg"><path d="m354.96875 310.203125c5.597656-14.144531 4.429688-30.074219-3.167969-43.25-7.601562-13.179687-20.800781-22.167969-35.847656-24.40625 2.714844-14.59375-1.21875-29.632813-10.722656-41.03125-9.503907-11.398437-23.597657-17.96875-38.4375-17.921875-8.328125 0-8.328125-66.671875-66.664063-66.671875-58.335937 0-58.335937 66.671875-66.664062 66.671875-14.839844-.046875-28.933594 6.523438-38.4375 17.921875s-13.4375 26.4375-10.722656 41.03125c-15.046876 2.238281-28.246094 11.226563-35.847657 24.40625-7.597656 13.175781-8.765625 29.105469-3.167969 43.25-17.296874 12.855469-24.398437 35.351563-17.621093 55.808594 6.78125 20.457031 25.910156 34.261719 47.460937 34.246093h250c21.550782.015626 40.683594-13.789062 47.460938-34.246093s-.324219-42.953125-17.621094-55.808594zm0 0" fill="#ffc273"/><path d="m266.792969 341.921875c0 18.398437-29.847657 33.335937-66.664063 33.335937s-66.664062-14.917968-66.664062-33.335937c0-16.664063 29.847656-16.664063 66.664062-16.664063s66.664063 0 66.664063 16.664063zm0 0" fill="#fff"/><path d="m125.128906 241.921875c-4.601562 0-8.332031-3.726563-8.335937-8.328125-.179688-14.222656 1.542969-28.410156 5.128906-42.175781-95.640625-8.550781-96.800781-123.289063-96.800781-124.496094.003906-4.597656 3.730468-8.324219 8.328125-8.328125 4.59375.003906 8.320312 3.726562 8.328125 8.320312 0 4.425782 1.289062 108.34375 91.671875 108.34375 2.890625 0 5.574219 1.496094 7.089843 3.953126 1.519532 2.460937 1.65625 5.527343.359376 8.109374-5.589844 14.761719-8.121094 30.503907-7.449219 46.273438-.003907 4.59375-3.726563 8.320312-8.320313 8.328125zm0 0" fill="#fb822c"/><path d="m275.128906 241.921875c-4.601562 0-8.332031-3.726563-8.335937-8.328125.675781-15.785156-1.867188-31.546875-7.472657-46.320312-1.253906-2.582032-1.09375-5.625.425782-8.0625 1.515625-2.4375 4.175781-3.921876 7.046875-3.9375 90.398437 0 91.664062-103.917969 91.671875-108.34375.007812-4.59375 3.734375-8.316407 8.328125-8.320313 4.597656.003906 8.324219 3.730469 8.328125 8.328125 0 1.207031-1.152344 115.945312-96.800782 124.496094 3.585938 13.765625 5.308594 27.953125 5.128907 42.175781-.011719 4.589844-3.730469 8.304687-8.320313 8.3125zm0 0" fill="#fb822c"/><path d="m41.792969 66.914062c-.007813-4.59375-3.734375-8.316406-8.328125-8.320312-4.597656.003906-8.324219 3.730469-8.328125 8.328125 0 .183594 0 2.871094.382812 7.28125 2.601563.667969 5.269531 1.023437 7.953125 1.054687 2.925782-.039062 5.835938-.46875 8.648438-1.28125-.289063-3.878906-.328125-6.445312-.328125-7.0625zm0 0" fill="#ed7b2a"/><path d="m366.800781 58.59375c-4.59375.003906-8.320312 3.726562-8.328125 8.320312 0 .617188-.039062 3.199219-.320312 7.0625 2.8125.8125 5.722656 1.242188 8.648437 1.28125 2.683594-.03125 5.355469-.386718 7.953125-1.054687.351563-4.410156.382813-7.097656.382813-7.28125-.003907-4.601563-3.734375-8.328125-8.335938-8.328125zm0 0" fill="#ed7b2a"/><path d="m66.800781 33.59375c0 18.410156-14.925781 33.335938-33.335937 33.335938s-33.335938-14.925782-33.335938-33.335938 14.925782-33.335938 33.335938-33.335938 33.335937 14.925782 33.335937 33.335938zm0 0" fill="#fbae04"/><path d="m400.128906 33.59375c0 18.410156-14.925781 33.335938-33.335937 33.335938-18.410157 0-33.335938-14.925782-33.335938-33.335938s14.925781-33.335938 33.335938-33.335938c18.410156 0 33.335937 14.925782 33.335937 33.335938zm0 0" fill="#fbae04"/><path d="m33.464844 41.921875c-4.601563.003906-8.335938-3.726563-8.335938-8.328125v-25c-.09375-3.039062 1.472656-5.886719 4.089844-7.433594 2.617188-1.546875 5.867188-1.546875 8.484375 0s4.183594 4.394532 4.089844 7.433594v25c0 4.601562-3.726563 8.328125-8.328125 8.328125zm0 0" fill="#fff"/><path d="m366.792969 41.921875c-4.597657 0-8.328125-3.726563-8.328125-8.328125v-25c-.09375-3.039062 1.472656-5.886719 4.089844-7.433594 2.617187-1.546875 5.867187-1.546875 8.484374 0 2.617188 1.546875 4.183594 4.394532 4.089844 7.433594v25c0 4.601562-3.734375 8.332031-8.335937 8.328125zm0 0" fill="#fff"/><path d="m175.128906 266.921875c0 18.410156-14.925781 33.335937-33.335937 33.335937-18.410157 0-33.335938-14.925781-33.335938-33.335937s14.925781-33.335937 33.335938-33.335937c18.410156 0 33.335937 14.925781 33.335937 33.335937zm0 0" fill="#fff"/><path d="m91.785156 383.59375c-1.640625 0-3.246094-.488281-4.609375-1.398438-13.527343-9.015624-20.382812-19.449218-20.382812-31.007812 0-18.738281 18.296875-31.472656 20.382812-32.867188 3.828125-2.554687 9-1.523437 11.558594 2.300782 2.554687 3.828125 1.523437 9-2.300781 11.558594-3.625 2.453124-13 10.65625-12.96875 19.046874 0 5.601563 4.375 11.382813 12.953125 17.09375 3.058593 2.039063 4.417969 5.839844 3.351562 9.355469-1.066406 3.519531-4.308593 5.921875-7.984375 5.917969zm0 0" fill="#fb822c"/><path d="m316.800781 383.59375c-3.671875 0-6.914062-2.402344-7.976562-5.917969-1.066407-3.519531.296875-7.316406 3.351562-9.355469 8.578125-5.710937 12.929688-11.46875 12.953125-17.09375 0-8.398437-9.359375-16.601562-12.984375-19.046874-3.824219-2.5625-4.851562-7.738282-2.292969-11.566407 2.5625-3.824219 7.738282-4.851562 11.566407-2.292969 2.085937 1.394532 20.375 14.128907 20.375 32.867188 0 11.558594-6.855469 21.992188-20.375 31.007812-1.367188.910157-2.972657 1.398438-4.617188 1.398438zm0 0" fill="#fb822c"/><path d="m166.792969 258.59375c0 9.203125-7.460938 16.664062-16.664063 16.664062s-16.664062-7.460937-16.664062-16.664062 7.460937-16.664062 16.664062-16.664062 16.664063 7.460937 16.664063 16.664062zm0 0" fill="#884b84"/><path d="m291.800781 266.921875c0 18.410156-14.925781 33.335937-33.335937 33.335937s-33.335938-14.925781-33.335938-33.335937 14.925782-33.335937 33.335938-33.335937 33.335937 14.925781 33.335937 33.335937zm0 0" fill="#fff"/><path d="m283.457031 258.59375c0 9.203125-7.460937 16.664062-16.664062 16.664062s-16.664063-7.460937-16.664063-16.664062 7.460938-16.664062 16.664063-16.664062 16.664062 7.460937 16.664062 16.664062zm0 0" fill="#884b84"/><g fill="#fb822c"><path d="m166.792969 325.859375v16.046875c0 4.605469 3.730469 8.335938 8.335937 8.335938 4.605469 0 8.335938-3.730469 8.335938-8.335938v-16.574219c-5.917969.070313-11.511719.222657-16.671875.527344zm0 0"/><path d="m216.792969 325.332031v16.589844c0 4.605469 3.730469 8.335937 8.335937 8.335937 4.605469 0 8.335938-3.730468 8.335938-8.335937v-16.0625c-5.160156-.304687-10.75-.457031-16.671875-.527344zm0 0"/><path d="m200.128906 350.257812c-4.605468 0-8.335937 3.734376-8.335937 8.335938v16.375c2.734375.167969 5.503906.289062 8.335937.289062 2.832032 0 5.601563-.121093 8.335938-.289062v-16.375c0-4.601562-3.730469-8.335938-8.335938-8.335938zm0 0"/><path d="m225.128906 183.59375c-4.601562-.003906-8.332031-3.734375-8.335937-8.335938-.667969-8.910156-7.75-15.996093-16.664063-16.664062-8.910156.667969-15.996094 7.753906-16.664062 16.664062 0 4.605469-3.730469 8.335938-8.335938 8.335938-4.605468 0-8.335937-3.730469-8.335937-8.335938 0-18.410156 14.925781-33.335937 33.335937-33.335937s33.335938 14.925781 33.335938 33.335937c-.003906 4.601563-3.734375 8.332032-8.335938 8.335938zm0 0"/></g></svg>