<?xml version="1.0"?>
<svg xmlns="http://www.w3.org/2000/svg" viewBox="0 0 64 64" width="512" height="512"><title>15 Spider Robot</title><g id="_15_Spider_Robot" data-name="15 Spider Robot"><path d="M56,9a1,1,0,0,1-1-1V4a1,1,0,0,1,2,0V8A1,1,0,0,1,56,9Z" style="fill:#37474f"/><path d="M8,9A1,1,0,0,1,7,8V4A1,1,0,0,1,9,4V8A1,1,0,0,1,8,9Z" style="fill:#37474f"/><path d="M52,19H46.63a1,1,0,0,0-.983.815l-1.129,6A1,1,0,0,0,45.5,27H52a1,1,0,0,0,1-1V20A1,1,0,0,0,52,19Z" style="fill:#cfd8dc"/><path d="M17.38,19H12a1,1,0,0,0-1,1v6a1,1,0,0,0,1,1h6.5a1,1,0,0,0,.983-1.184l-1.12-6A1,1,0,0,0,17.38,19Z" style="fill:#cfd8dc"/><path d="M32,3A11.013,11.013,0,0,0,21,14a1,1,0,0,0,1,1H42a1,1,0,0,0,1-1A11.013,11.013,0,0,0,32,3Z" style="fill:#bdddf4"/><rect x="53" y="7" width="6" height="6" rx="1" ry="1" style="fill:#607d8b"/><rect x="5" y="7" width="6" height="6" rx="1" ry="1" style="fill:#607d8b"/><path d="M9,43v4a1,1,0,0,0,1,1h5a.907.907,0,0,0,.43-.1l.2-.12a1.209,1.209,0,0,0,.16-.16,1.022,1.022,0,0,0,.18-.86l-1-4A1,1,0,0,0,14,42H10A1,1,0,0,0,9,43Z" style="fill:#607d8b"/><path d="M15,48a.907.907,0,0,0,.43-.1l.2-.12,4.57-2.65a.978.978,0,0,0,.5-.82,1.017,1.017,0,0,0-.43-.86A3.005,3.005,0,0,1,19,41a1.884,1.884,0,0,1,.02-.34,1,1,0,0,0-1.51-1.03L13.71,42Z" style="fill:#455b64"/><path d="M55,43v4a1,1,0,0,1-1,1H49a.907.907,0,0,1-.43-.1l-.2-.12a1.209,1.209,0,0,1-.16-.16,1.022,1.022,0,0,1-.18-.86l1-4A1,1,0,0,1,50,42h4A1,1,0,0,1,55,43Z" style="fill:#607d8b"/><path d="M49,48a.907.907,0,0,1-.43-.1l-.2-.12L43.8,45.13a.978.978,0,0,1-.5-.82,1.017,1.017,0,0,1,.43-.86A3.005,3.005,0,0,0,45,41a1.884,1.884,0,0,0-.02-.34,1,1,0,0,1,1.51-1.03L50.29,42Z" style="fill:#455b64"/><path d="M36,47H28a1,1,0,0,0-1,1,5,5,0,0,0,10,0A1,1,0,0,0,36,47Z" style="fill:#37474f"/><path d="M8.675,41.2l-1.5.25A4.98,4.98,0,0,0,3,46.39V50a1,1,0,0,0,.143.515l6,10A1,1,0,0,0,10,61a1.027,1.027,0,0,0,.267-.036A1,1,0,0,0,11,60V43.18A2,2,0,0,0,8.675,41.2Z" style="fill:#57a0d7"/><path d="M56.825,41.454l-1.5-.25a1.979,1.979,0,0,0-1.617.446A2,2,0,0,0,53,43.18V60a1,1,0,0,0,.733.964A1.027,1.027,0,0,0,54,61a1,1,0,0,0,.857-.485l6-10A1,1,0,0,0,61,50V46.39A4.98,4.98,0,0,0,56.825,41.454Z" style="fill:#57a0d7"/><path d="M24.619,36.751a4.979,4.979,0,0,0-7.563,3.554A3.874,3.874,0,0,0,17,41a5,5,0,0,0,8.421,3.643,1,1,0,0,0,.3-.534,11,11,0,0,0-.73-6.945A1,1,0,0,0,24.619,36.751Z" style="fill:#cfd8dc"/><path d="M46.952,40.354a4.981,4.981,0,0,0-7.571-3.6,1,1,0,0,0-.371.413,11,11,0,0,0-.73,6.945,1,1,0,0,0,.3.534A5.015,5.015,0,0,0,42,46a5.007,5.007,0,0,0,5-5A3.719,3.719,0,0,0,46.952,40.354Z" style="fill:#cfd8dc"/><path d="M47.87,18.77,46.33,27l-.38,2-.97,5.18a.993.993,0,0,1-.67.77,5.748,5.748,0,0,0-3.5,3.08,9.155,9.155,0,0,0-.57,5.68A9.287,9.287,0,0,0,41.8,47.4,1,1,0,0,1,41,49H23a1,1,0,0,1-.8-1.6,9.3,9.3,0,0,0,1.56-3.68,9.139,9.139,0,0,0-.57-5.68,5.734,5.734,0,0,0-3.5-3.09.993.993,0,0,1-.67-.77L18.05,29l-.38-2-1.54-8.22a2,2,0,0,1,.71-1.94l4.54-3.62A.977.977,0,0,1,22,13H42a.977.977,0,0,1,.62.22l4.54,3.62A2.006,2.006,0,0,1,47.87,18.77Z" style="fill:#57a0d7"/><path d="M46.33,27l-.38,2H39a1.014,1.014,0,0,1-.8-.4L35.5,25H33V49H31V25H28.5l-2.7,3.6a1.014,1.014,0,0,1-.8.4H18.05l-.38-2H24.5l2.7-3.6A1.014,1.014,0,0,1,28,23h8a1.014,1.014,0,0,1,.8.4L39.5,27Z" style="fill:#37474f"/><path d="M60,11H56a1,1,0,0,0-1,1V26a1,1,0,0,0,.446.832l3.71,2.47a1,1,0,0,0,1.475-.443A4.741,4.741,0,0,0,61,27V12A1,1,0,0,0,60,11Z" style="fill:#95c8ec"/><path d="M8,11H4a1,1,0,0,0-1,1V27a4.741,4.741,0,0,0,.369,1.859,1,1,0,0,0,1.475.443l3.71-2.47A1,1,0,0,0,9,26V12A1,1,0,0,0,8,11Z" style="fill:#95c8ec"/><path d="M60.878,28.047,57,25.465V11.008A.007.007,0,0,0,56.992,11H52a1,1,0,0,0-1,.994V26.78A5.143,5.143,0,0,0,56.021,32,4.959,4.959,0,0,0,60.878,28.047Z" style="fill:#57a0d7"/><path d="M12,11H7V25.465L3.122,28.047A4.959,4.959,0,0,0,7.979,32,5.143,5.143,0,0,0,13,26.78V11.994A1,1,0,0,0,12,11Z" style="fill:#57a0d7"/></g></svg>
