<?xml version="1.0" encoding="iso-8859-1"?>
<!-- Generator: Adobe Illustrator 19.0.0, SVG Export Plug-In . SVG Version: 6.00 Build 0)  -->
<svg version="1.1" id="Capa_1" xmlns="http://www.w3.org/2000/svg" xmlns:xlink="http://www.w3.org/1999/xlink" x="0px" y="0px"
	 viewBox="0 0 512 512" style="enable-background:new 0 0 512 512;" xml:space="preserve">
<path style="fill:#84B2BC;" d="M492.523,271.638c29.162,167.736-10.797,233.405-236.522,234.797
	C30.276,505.043-9.682,439.318,19.479,271.638C48.307,109.523,74.464,5.565,256.001,5.565S463.695,109.523,492.523,271.638z"/>
<path style="fill:#9ACBCC;" d="M308.092,8.96l-0.779,0.501c-9.611,4.179-20.118,5.866-30.553,4.897
	c-22.461-0.985-44.945,1.23-66.783,6.567c-21.888,5.487-41.088,18.61-54.15,37.009c-7.958,12.188-12.41,26.936-23.263,36.563
	c-12.132,10.685-29.551,12.633-43.52,20.647c-16.49,9.756-26.952,27.164-27.826,46.303c-1.057,28.55,19.645,56.153,12.577,83.812
	C70.68,257.391,62.666,267.52,57.1,278.65c-5.009,10.407-8.014,22.261-15.527,30.776c-4.903,5.176-10.524,9.622-16.696,13.19
	c-4.063,2.56-8.237,4.842-12.188,7.235c1.475-19.595,3.968-39.096,7.457-58.435C48.307,109.523,74.464,5.565,256.001,5.565
	c7.513,0,14.803,0,21.816,0.557C288.502,6.678,298.575,7.624,308.092,8.96z"/>
<path style="fill:#6D98A5;" d="M256.001,506.435c-32.846,0.117-65.664-1.987-98.226-6.289c5.749-6.773,13.039-12.06,21.259-15.416
	c17.085-6.678,36.118-5.565,54.317-3.506s36.508,5.565,54.762,4.007c36.619-3.617,68.508-27.826,104.96-32.89
	c9.155-0.584,18.248-1.853,27.214-3.784c15.755-4.797,28.065-17.163,32.779-32.946c2.504-8.849,2.727-18.922,8.793-25.823
	c3.951-4.452,9.85-6.901,13.802-11.13c7.791-8.793,5.899-22.261,3.896-33.837c-6.022-34.927-9.077-70.3-9.127-105.739
	c0-13.523,0.946-28.271,8.125-38.957c4.953,22.261,9.461,46.47,13.969,71.903C521.685,439.318,481.726,505.043,256.001,506.435z"/>
<g>
	<path style="fill:#302A27;" d="M256.035,512c-118.634-0.729-186.897-19.462-221.39-60.728
		c-30.202-36.135-36.38-90.14-20.653-180.586C43.844,102.851,71.498,0,256.001,0s212.163,102.851,242.004,270.664
		c0,0.006,0.006,0.011,0.006,0.022c15.722,90.463,9.55,144.473-20.653,180.602C442.87,492.544,374.613,511.271,256.035,512z
		 M256.001,11.13c-175.627,0-202.212,99.361-231.046,261.476c-15.098,86.867-9.65,138.168,18.232,171.526
		c32.206,38.534,97.853,56.031,212.847,56.737c114.938-0.707,180.58-18.204,212.781-56.721
		c27.876-33.347,33.33-84.647,18.226-171.537l0,0C458.213,110.492,431.628,11.13,256.001,11.13z"/>
	<path style="fill:#302A27;" d="M205.914,228.174c-27.615,0-50.087-22.472-50.087-50.087S178.3,128,205.914,128
		s50.087,22.472,50.087,50.087S233.529,228.174,205.914,228.174z M205.914,139.13c-21.482,0-38.957,17.475-38.957,38.957
		s17.475,38.957,38.957,38.957s38.957-17.475,38.957-38.957S227.396,139.13,205.914,139.13z"/>
</g>
<circle style="fill:#FFFFFF;" cx="205.914" cy="178.087" r="44.522"/>
<g>
	<circle style="fill:#6D98A5;" cx="205.914" cy="200.348" r="50.087"/>
	<path style="fill:#6D98A5;" d="M205.914,256c-30.687,0-55.652-24.966-55.652-55.652s24.966-55.652,55.652-55.652
		s55.652,24.966,55.652,55.652S236.601,256,205.914,256z M205.914,155.826c-24.548,0-44.522,19.974-44.522,44.522
		s19.974,44.522,44.522,44.522s44.522-19.974,44.522-44.522S230.462,155.826,205.914,155.826z"/>
	<circle style="fill:#6D98A5;" cx="306.088" cy="200.348" r="50.087"/>
	<path style="fill:#6D98A5;" d="M306.094,256c-30.692,0-55.652-24.966-55.652-55.652s24.966-55.652,55.652-55.652
		s55.652,24.966,55.652,55.652S336.775,256,306.094,256z M306.094,155.826c-24.554,0-44.527,19.974-44.527,44.522
		s19.979,44.522,44.527,44.522c24.548,0,44.522-19.974,44.522-44.522S330.642,155.826,306.094,155.826z"/>
	<circle style="fill:#6D98A5;" cx="122.436" cy="178.087" r="33.391"/>
	<path style="fill:#6D98A5;" d="M122.436,217.043c-21.482,0-38.957-17.475-38.957-38.957s17.475-38.957,38.957-38.957
		s38.957,17.475,38.957,38.957S143.918,217.043,122.436,217.043z M122.436,150.261c-15.343,0-27.826,12.483-27.826,27.826
		s12.483,27.826,27.826,27.826s27.826-12.483,27.826-27.826S137.779,150.261,122.436,150.261z"/>
	<circle style="fill:#6D98A5;" cx="389.566" cy="178.087" r="33.391"/>
	<path style="fill:#6D98A5;" d="M389.572,217.043c-21.476,0-38.957-17.475-38.957-38.957s17.48-38.957,38.957-38.957
		c21.476,0,38.957,17.475,38.957,38.957S411.048,217.043,389.572,217.043z M389.572,150.261c-15.343,0-27.826,12.483-27.826,27.826
		s12.483,27.826,27.826,27.826s27.826-12.483,27.826-27.826S404.91,150.261,389.572,150.261z"/>
</g>
<g>
	<circle style="fill:#FFFFFF;" cx="205.914" cy="178.087" r="50.087"/>
	<circle style="fill:#FFFFFF;" cx="306.088" cy="178.087" r="50.087"/>
	<circle style="fill:#FFFFFF;" cx="122.436" cy="155.826" r="33.391"/>
</g>
<g>
	<path style="fill:#302A27;" d="M205.914,233.739c-30.687,0-55.652-24.966-55.652-55.652s24.966-55.652,55.652-55.652
		s55.652,24.966,55.652,55.652S236.601,233.739,205.914,233.739z M205.914,133.565c-24.548,0-44.522,19.974-44.522,44.522
		s19.974,44.522,44.522,44.522s44.522-19.974,44.522-44.522S230.462,133.565,205.914,133.565z"/>
	<path style="fill:#302A27;" d="M306.094,233.739c-30.692,0-55.652-24.966-55.652-55.652s24.966-55.652,55.652-55.652
		s55.652,24.966,55.652,55.652S336.775,233.739,306.094,233.739z M306.094,133.565c-24.554,0-44.527,19.974-44.527,44.522
		s19.979,44.522,44.527,44.522c24.548,0,44.522-19.974,44.522-44.522S330.642,133.565,306.094,133.565z"/>
	<path style="fill:#302A27;" d="M122.436,194.783c-21.482,0-38.957-17.475-38.957-38.957s17.475-38.957,38.957-38.957
		s38.957,17.475,38.957,38.957S143.918,194.783,122.436,194.783z M122.436,128c-15.343,0-27.826,12.483-27.826,27.826
		s12.483,27.826,27.826,27.826s27.826-12.483,27.826-27.826S137.779,128,122.436,128z"/>
</g>
<circle style="fill:#FFD266;" cx="306.088" cy="178.087" r="27.826"/>
<circle style="fill:#302A27;" cx="306.088" cy="178.087" r="11.13"/>
<circle style="fill:#FFFFFF;" cx="294.958" cy="166.957" r="8.348"/>
<circle style="fill:#9ADB61;" cx="122.436" cy="155.826" r="16.696"/>
<circle style="fill:#302A27;" cx="122.436" cy="155.826" r="5.565"/>
<g>
	<circle style="fill:#FFFFFF;" cx="116.871" cy="150.261" r="5.565"/>
	<circle style="fill:#FFFFFF;" cx="389.566" cy="155.826" r="33.391"/>
</g>
<path style="fill:#302A27;" d="M389.572,194.783c-21.476,0-38.957-17.475-38.957-38.957s17.48-38.957,38.957-38.957
	c21.476,0,38.957,17.475,38.957,38.957S411.048,194.783,389.572,194.783z M389.572,128c-15.343,0-27.826,12.483-27.826,27.826
	s12.483,27.826,27.826,27.826s27.826-12.483,27.826-27.826S404.91,128,389.572,128z"/>
<circle style="fill:#9ADB61;" cx="389.566" cy="155.826" r="16.696"/>
<circle style="fill:#302A27;" cx="389.566" cy="155.826" r="5.565"/>
<circle style="fill:#FFFFFF;" cx="384.001" cy="150.261" r="5.565"/>
<circle style="fill:#FFD266;" cx="205.914" cy="178.087" r="27.826"/>
<circle style="fill:#302A27;" cx="205.914" cy="178.087" r="11.13"/>
<circle style="fill:#FFFFFF;" cx="194.784" cy="166.957" r="8.348"/>
<g>
	<path style="fill:#6D98A5;" d="M174.081,100.452c4.769-3.328,10.106-5.76,15.75-7.179c5.66-1.491,11.52-2.076,17.363-1.725
		c2.961,0.206,5.899,0.634,8.793,1.28c2.872,0.74,5.665,1.747,8.348,3.005c5.359,2.432,10.129,5.999,13.969,10.463
		c0.985,1.219,0.796,3.005-0.429,3.99c-0.774,0.623-1.814,0.796-2.744,0.462h-0.278c-4.53-2.204-9.216-4.063-14.024-5.565
		c-4.653-1.386-9.455-2.226-14.303-2.504c-4.936-0.317-9.889-0.206-14.803,0.334c-4.953,0.557-10.129,1.447-15.082,2.504h-0.278
		c-1.464,0.462-3.027-0.351-3.489-1.82c-0.39-1.247,0.134-2.593,1.263-3.245L174.081,100.452L174.081,100.452z"/>
	<path style="fill:#6D98A5;" d="M335.473,105.461c-4.953-1.002-10.129-1.948-15.082-2.504c-4.914-0.54-9.867-0.651-14.803-0.334
		c-4.847,0.278-9.65,1.119-14.303,2.504c-4.808,1.503-9.494,3.361-14.024,5.565h-0.278c-1.475,0.534-3.1-0.234-3.634-1.709
		c-0.334-0.935-0.161-1.976,0.462-2.744c3.84-4.463,8.609-8.031,13.969-10.463c2.682-1.258,5.476-2.265,8.348-3.005
		c2.894-0.646,5.832-1.074,8.793-1.28c5.843-0.351,11.704,0.234,17.363,1.725c5.643,1.419,10.98,3.851,15.75,7.179
		c1.33,0.768,1.786,2.471,1.018,3.801c-0.651,1.13-2.003,1.653-3.245,1.263H335.473z"/>
</g>
<path style="fill:#302A27;" d="M389.566,330.129c-1.336,22.65-16.139,44.188-38.177,61.774
	c-12.438,9.734-26.051,17.864-40.515,24.209c-48.584,21.593-108.967,26.435-148.703-0.501
	c-13.429-9.199-24.103-21.877-30.887-36.675c-0.74-1.558-1.408-3.117-2.003-4.675c-32.111-77.523,58.657-124.55,118.261-76.689
	C308.314,346.379,394.408,243.311,389.566,330.129z"/>
<g>
	<path style="fill:#FFFFFF;" d="M174.749,395.464c-3.373,7.24-7.674,14.013-12.8,20.146c-13.429-9.199-24.103-21.877-30.887-36.675
		c-0.74-1.558-1.408-3.117-2.003-4.675c4.925-3.434,10.162-6.394,15.638-8.849c6.25-2.571,13.434-1.124,18.198,3.673l8.014,8.014
		C175.834,381.857,177.354,389.137,174.749,395.464z"/>
	<path style="fill:#FFFFFF;" d="M161.949,421.176c-1.091,0-2.187-0.317-3.144-0.974c-14.258-9.772-25.6-23.24-32.801-38.945
		c-0.774-1.625-1.497-3.317-2.143-5.009c-0.913-2.387-0.083-5.087,2.015-6.55c5.198-3.623,10.763-6.773,16.551-9.366
		c8.526-3.495,18.048-1.586,24.42,4.836l7.997,7.997c6.539,6.317,8.548,15.922,5.053,24.42c-0.033,0.078-0.067,0.15-0.1,0.228
		c-3.573,7.674-8.136,14.865-13.574,21.37C165.127,420.491,163.546,421.176,161.949,421.176z M135.993,376.348
		c0.028,0.067,0.061,0.128,0.095,0.195c5.665,12.36,14.18,23.107,24.81,31.405c3.395-4.602,6.328-9.533,8.749-14.714
		c1.692-4.218,0.673-8.966-2.605-12.132l-8.081-8.081c-3.2-3.222-7.958-4.168-12.149-2.46
		C143.15,372.202,139.499,374.15,135.993,376.348z"/>
	<path style="fill:#FFFFFF;" d="M351.166,391.903c-12.438,9.734-26.051,17.864-40.515,24.209c-2.443-8.42-3.974-17.074-4.563-25.823
		c-0.267-4.23,1.892-8.242,5.565-10.351c6.617-3.94,14.035-6.355,21.704-7.068c3.918-0.384,7.747,1.33,10.073,4.508
		C346.603,381.88,349.202,386.76,351.166,391.903z"/>
	<path style="fill:#FFFFFF;" d="M310.652,421.677c-0.807,0-1.614-0.173-2.36-0.529c-1.453-0.679-2.538-1.953-2.989-3.489
		c-2.543-8.776-4.146-17.859-4.764-26.997c-0.401-6.406,2.794-12.36,8.342-15.555c7.207-4.291,15.516-6.995,23.964-7.78
		c5.86-0.54,11.603,2.015,15.082,6.762c3.512,4.986,6.333,10.29,8.448,15.833c0.868,2.282,0.15,4.864-1.77,6.367
		c-12.811,10.029-26.847,18.415-41.711,24.927C312.171,421.515,311.414,421.677,310.652,421.677z M334.443,378.379
		c-0.178,0-0.356,0.011-0.545,0.028c-6.84,0.634-13.535,2.816-19.395,6.311c-1.926,1.107-2.994,3.094-2.861,5.22
		c0.417,6.155,1.33,12.305,2.716,18.337c10.552-5.076,20.602-11.175,30.008-18.187c-1.53-3.317-3.367-6.506-5.487-9.517
		C337.882,379.219,336.202,378.379,334.443,378.379z"/>
	<path style="fill:#FFFFFF;" d="M268.467,429.802c-20.085,4.536-40.815,5.443-61.217,2.671c2.643-13.83,7.151-27.236,13.412-39.847
		c1.258-2.131,3.228-3.751,5.565-4.563c9.906-4.135,20.998-4.43,31.11-0.835c2.766,1.219,4.914,3.512,5.955,6.344
		C267.56,405.148,269.324,417.497,268.467,429.802z"/>
	<path style="fill:#FFFFFF;" d="M230.507,439.613c-8.003,0-16.011-0.54-24.003-1.625c-1.514-0.206-2.877-1.03-3.768-2.265
		c-0.89-1.241-1.235-2.794-0.946-4.291c2.738-14.325,7.413-28.21,13.891-41.277c2.12-3.612,5.148-6.099,8.715-7.341
		c10.897-4.563,23.374-4.892,34.81-0.824c4.497,1.97,7.752,5.432,9.311,9.661c4.569,12.405,6.422,25.372,5.504,38.545
		c-0.173,2.449-1.937,4.502-4.33,5.042C256.758,438.15,243.646,439.613,230.507,439.613z M213.956,427.659
		c16.434,1.647,32.913,0.835,49.146-2.404c0.195-10.162-1.491-20.152-5.031-29.763c-0.518-1.414-1.603-2.571-2.977-3.172
		c-8.448-2.989-18.07-2.733-26.724,0.879c-1.402,0.501-2.326,1.263-2.916,2.254C220.473,405.521,216.577,416.406,213.956,427.659z"
		/>
</g>
<path style="fill:#302A27;" d="M230.741,439.613c-8.003,0-16.022-0.54-24.02-1.625c-38.072-5.699-65.892-25.299-80.534-56.698
	c-16.751-35.862-10.429-70.099,16.918-91.581c26.034-20.452,71.524-25.817,108.088,3.523c26.362,21.159,57.761,11.297,85.459,2.605
	c19.918-6.25,37.114-11.642,48.39-2.883c7.958,6.189,11.158,18.104,10.079,37.487c0,0.006,0,0.011,0,0.017
	c-3.011,51.345-66.794,92.31-125.273,104.787C256.958,438.155,243.869,439.613,230.741,439.613z M194.172,283.893
	c-16.968,0-32.762,5.593-44.193,14.57c-22.995,18.059-28.121,47.265-13.707,78.119c16.412,35.194,48.223,46.826,72.019,50.387
	c19.723,2.688,39.658,1.803,59.169-2.593c55.285-11.798,113.959-50.387,116.547-94.57c0.829-14.976-1.119-24.426-5.805-28.065
	c-6.673-5.198-21.999-0.384-38.222,4.714c-28.856,9.06-64.768,20.335-95.761-4.536C228.409,289.219,210.734,283.893,194.172,283.893
	z"/>
<g>
</g>
<g>
</g>
<g>
</g>
<g>
</g>
<g>
</g>
<g>
</g>
<g>
</g>
<g>
</g>
<g>
</g>
<g>
</g>
<g>
</g>
<g>
</g>
<g>
</g>
<g>
</g>
<g>
</g>
</svg>
