<?xml version="1.0" encoding="iso-8859-1"?>
<!-- Generator: Adobe Illustrator 19.0.0, SVG Export Plug-In . SVG Version: 6.00 Build 0)  -->
<svg version="1.1" id="Layer_1" xmlns="http://www.w3.org/2000/svg" xmlns:xlink="http://www.w3.org/1999/xlink" x="0px" y="0px"
	 viewBox="0 0 512 512" style="enable-background:new 0 0 512 512;" xml:space="preserve">
<circle style="fill:#6487FF;" cx="256" cy="256" r="256"/>
<g>
	<path style="fill:#4B6EDC;" d="M487.331,365.714H270.63c-8.787-10.651-32.48-18.286-60.344-18.286c-35.346,0-64,12.28-64,27.429
		c0,15.149,28.654,27.429,64,27.429c27.864,0,51.557-7.634,60.344-18.286h207.037C481.113,378.043,484.362,371.961,487.331,365.714z
		"/>
	<path style="fill:#4B6EDC;" d="M356.571,438.857C230.335,438.857,128,336.522,128,210.286c0-94.174,56.967-175.019,138.309-210.025
		C262.885,0.125,259.457,0,256,0C114.615,0,0,114.615,0,256c0,141.384,114.615,256,256,256c80.635,0,152.521-37.317,199.446-95.582
		C425.523,430.797,391.989,438.857,356.571,438.857z"/>
	<path style="fill:#4B6EDC;" d="M274.286,256h-36.571c-5.054,0-9.143-4.094-9.143-9.143c0-5.049,4.089-9.143,9.143-9.143h36.571
		c5.054,0,9.143,4.094,9.143,9.143C283.429,251.906,279.339,256,274.286,256z"/>
</g>
<path style="fill:#6487FF;" d="M109.714,384H91.429c-5.054,0-9.143-4.094-9.143-9.143c0-5.049,4.089-9.143,9.143-9.143h18.286
	c5.054,0,9.143,4.094,9.143,9.143C118.857,379.906,114.768,384,109.714,384z"/>
<path style="fill:#4155D2;" d="M176.902,351.488c-18.341,4.823-30.616,13.471-30.616,23.369c0,15.149,28.654,27.429,64,27.429
	c7.043,0,13.801-0.506,20.139-1.407C210.046,387.363,191.987,370.657,176.902,351.488z"/>
<path style="fill:#4B6EDC;" d="M8.066,192h495.869c-12.957-50.342-40.883-94.643-78.696-128H86.762
	C48.95,97.357,21.023,141.658,8.066,192z"/>
<path style="fill:#3C55C3;" d="M128.75,192c3.846-48.55,22.947-92.736,52.398-128H86.762C48.95,97.357,21.023,141.658,8.066,192
	H128.75z"/>
<path style="fill:#4B6EDC;" d="M173.714,256H54.857c-5.054,0-9.143-4.094-9.143-9.143c0-5.049,4.089-9.143,9.143-9.143h118.857
	c5.054,0,9.143,4.094,9.143,9.143C182.857,251.906,178.768,256,173.714,256z"/>
<g>
	<path style="fill:#6487FF;" d="M129.696,237.714H54.857c-5.054,0-9.143,4.094-9.143,9.143c0,5.049,4.089,9.143,9.143,9.143h77.725
		C131.361,249.993,130.434,243.882,129.696,237.714z"/>
	<path style="fill:#6487FF;" d="M393.143,128h-54.857c-5.054,0-9.143-4.094-9.143-9.143s4.089-9.143,9.143-9.143h54.857
		c5.054,0,9.143,4.094,9.143,9.143S398.197,128,393.143,128z"/>
	<path style="fill:#6487FF;" d="M301.714,128h-27.429c-5.054,0-9.143-4.094-9.143-9.143s4.089-9.143,9.143-9.143h27.429
		c5.054,0,9.143,4.094,9.143,9.143S306.768,128,301.714,128z"/>
</g>
<g>
</g>
<g>
</g>
<g>
</g>
<g>
</g>
<g>
</g>
<g>
</g>
<g>
</g>
<g>
</g>
<g>
</g>
<g>
</g>
<g>
</g>
<g>
</g>
<g>
</g>
<g>
</g>
<g>
</g>
</svg>
