<?xml version="1.0" encoding="iso-8859-1"?>
<!-- Generator: Adobe Illustrator 19.0.0, SVG Export Plug-In . SVG Version: 6.00 Build 0)  -->
<svg version="1.1" id="Layer_1" xmlns="http://www.w3.org/2000/svg" xmlns:xlink="http://www.w3.org/1999/xlink" x="0px" y="0px"
	 viewBox="0 0 512 512" style="enable-background:new 0 0 512 512;" xml:space="preserve">
<circle style="fill:#D2B98C;" cx="256" cy="256" r="256"/>
<g>
	<path style="fill:#C0A27A;" d="M283.429,374.857v82.286h130.83c28.215-22.231,51.633-50.242,68.466-82.286H283.429z"/>
	<path style="fill:#C0A27A;" d="M356.571,438.857C230.335,438.857,128,336.522,128,210.286c0-94.174,56.967-175.019,138.309-210.025
		C262.885,0.125,259.457,0,256,0C114.615,0,0,114.615,0,256c0,141.384,114.615,256,256,256c80.635,0,152.521-37.317,199.446-95.582
		C425.523,430.797,391.989,438.857,356.571,438.857z"/>
</g>
<g>
	<path style="fill:#B7946F;" d="M283.429,426.831v30.312h130.8c15.215-11.993,29.067-25.639,41.217-40.725
		c-29.922,14.378-63.457,22.439-98.874,22.439C330.981,438.857,306.401,434.589,283.429,426.831z"/>
	<path style="fill:#B7946F;" d="M13.593,338.286h153.589c-7.775-11.482-14.495-23.729-20.107-36.571H4.151
		C6.411,314.248,9.579,326.457,13.593,338.286z"/>
</g>
<path style="fill:#AF8764;" d="M167.303,338.286H13.61c17.751,52.325,51.934,97.046,96.454,128H256v-50.725
	C220.102,397.941,189.565,371.147,167.303,338.286z"/>
<path style="fill:#D7C8AA;" d="M206.617,448H86.762c45.122,39.803,104.338,64,169.238,64s124.115-24.197,169.238-64H305.383
	c-8.946,0-12.487-11.394-5.223-16.617C345.317,398.919,384,351.037,384,309.45c0-39.618-33.594-71.736-75.034-71.736
	c-18.054,0-34.616,6.098-47.562,16.257c-3.152,2.473-7.655,2.473-10.807,0c-12.946-10.159-29.507-16.257-47.562-16.257
	c-41.44,0-75.034,32.118-75.034,71.736c0,41.586,38.683,89.469,83.84,121.933C219.103,436.606,215.563,448,206.617,448z"/>
<path style="fill:#C8B696;" d="M206.617,448H86.762c45.122,39.803,104.338,64,169.238,64c64.89,0,124.088-24.198,169.195-64H305.383
	c-8.765,0-12.273-10.903-5.584-16.258c-77.993-19.935-139.88-80-162.488-156.886C131.389,285.118,128,296.902,128,309.45
	c0,41.586,38.683,89.469,83.84,121.933C219.103,436.606,215.563,448,206.617,448z"/>
<path style="fill:#D7C8AA;" d="M45.963,109.714h420.073C419.773,43.414,342.977,0,256,0S92.227,43.414,45.963,109.714z"/>
<path style="fill:#C8B696;" d="M266.309,0.261C262.885,0.125,259.457,0,256,0C169.023,0,92.227,43.414,45.963,109.714h105.381
	C175.325,60.895,216.153,21.846,266.309,0.261z"/>
<g>
</g>
<g>
</g>
<g>
</g>
<g>
</g>
<g>
</g>
<g>
</g>
<g>
</g>
<g>
</g>
<g>
</g>
<g>
</g>
<g>
</g>
<g>
</g>
<g>
</g>
<g>
</g>
<g>
</g>
</svg>
