<svg height="511pt" viewBox="0 0 511.99996 511" width="511pt" xmlns="http://www.w3.org/2000/svg"><path d="m131.710938 444.542969-7.648438-23.796875-16.359375 5.308594c-3.824219-3.398438-7.4375-6.582032-11.050781-10.195313-7.007813-7.011719-13.382813-14.234375-18.90625-21.886719-6.800782-8.496094-12.75-17.421875-17.851563-26.769531-48.867187-85.839844-36.332031-196.960937 36.757813-270.050781 41.644531-41.644532 95.828125-63.527344 150.429687-65.441406l-1.695312 24.648437s37.816406-22.523437 42.066406-22.523437c27.621094 3.402343 54.605469 12.539062 79.25 26.5625 9.351563 5.097656 18.0625 10.835937 26.558594 17.632812 7.863281 5.738281 15.089843 12.113281 22.097656 19.121094 7.011719 7.011718 13.171875 14.449218 18.910156 21.886718l20.824219-2.550781-2.976562 29.320313c2.550781 4.675781 4.886718 9.136718 7.011718 13.8125l-11.894531 29.746094 23.792969.847656c24.007812 77.128906 5.3125 164.664062-55.667969 225.644531-36.542969 36.542969-82.4375 57.792969-130.242187 63.953125-6.800782.851562-13.386719 1.488281-20.1875 1.488281l-8.496094-12.75-32.082032 10.835938c-27.195312-3.824219-54.390624-12.746094-79.039062-26.769531l-21.035156-.636719h-2.125l-1.488282-7.4375zm0 0" fill="#ec5569"/><path d="m131.710938 444.542969-7.648438-23.796875-16.359375 5.308594c-3.824219-3.398438-7.4375-6.582032-11.050781-10.195313-7.007813-7.011719-13.382813-14.234375-18.90625-21.886719-6.800782-8.496094-12.75-17.421875-17.851563-26.769531-48.867187-85.839844-36.332031-196.960937 36.757813-270.050781l318.707031 318.707031c-36.542969 36.542969-82.4375 57.792969-130.246094 63.953125-6.796875.851562-13.382812 1.488281-20.183593 1.488281l-8.496094-12.75-32.085938 10.835938c-27.195312-3.824219-54.390625-12.746094-79.035156-26.769531l-21.035156-.636719h-2.125l-1.488282-7.4375zm0 0" fill="#e63950"/><g fill="#cc2e43"><path d="m362.242188 299-21.246094-21.246094 118.132812-118.132812c4.886719 9.984375 8.710938 20.183594 11.898438 30.59375zm0 0"/><path d="m224.347656 479.386719 148.515625-148.515625 21.25 21.246094-129.183593 129.183593c-13.382813.636719-26.984376.210938-40.582032-1.914062zm0 0"/><path d="m171.019531 150.269531-21.246093-21.246093 97.308593-97.3125c13.597657-.847657 26.984375-.210938 40.371094 2.125zm0 0"/></g><path d="m7.109375 505.402344c-22.308594-22.308594 11.355469-81.46875 52.789063-138.199219 56.941406-77.339844 137.253906-158.078125 142.992187-163.8125 5.734375-5.738281 86.472656-86.050781 163.8125-142.992187 56.730469-41.433594 115.890625-75.097657 138.199219-52.789063 12.324218 12.324219 16.054687 44.289063-52.785156 138.199219-5.097657-9.347656-11.046876-18.273438-17.847657-26.769532 40.582031-56.730468 50.449219-86.144531 48.75-91.246093-8.074219-2.121094-43.226562 16.878906-89.757812 50.238281-43.980469 31.65625-102.410157 79.890625-169.125 146.605469-66.71875 66.714843-114.949219 125.144531-146.390625 169.339843-33.148438 46.742188-51.726563 82.316407-48.75 91.242188 2.546875 0 20.488281-7.316406 49.171875-24.101562 11.261719-6.164063 24.648437-14.875 40.371093-26.347657 4.039063 3.613281 8.5 6.800781 13.171876 9.773438 4.464843 2.761719 8.925781 5.523437 13.597656 8.074219-93.910156 68.839843-125.875 65.109374-138.199219 52.785156zm0 0" fill="#fdbf00"/><path d="m362.246094 214.011719-42.496094 42.492187-21.246094-21.246094 42.496094-42.492187zm0 0" fill="#cc2e43"/><path d="m149.773438 171.519531-42.496094 42.492188-21.246094-21.246094 42.496094-42.496094zm0 0" fill="#ae2538"/><path d="m118.539062 434.769531c-3.613281-2.761719-7.4375-5.738281-10.835937-8.710937l169.550781-169.550782 21.246094 21.246094-171.464844 171.464844-6.371094-4.675781zm0 0" fill="#cc2e43"/><path d="m224.347656 479.386719 127.269532-127.269531 21.246093 21.246093-107.933593 107.9375c-13.382813.636719-26.984376.210938-40.582032-1.914062zm0 0" fill="#ae2538"/><path d="m118.539062 434.769531c-3.613281-2.761719-7.4375-5.738281-10.835937-8.710937l158.925781-158.929688 21.246094 21.25-160.839844 160.839844-6.371094-4.675781zm0 0" fill="#ae2538"/><path d="m7.109375 505.402344c-22.308594-22.308594 11.355469-81.46875 52.789063-138.199219 56.941406-77.339844 137.253906-158.078125 142.992187-163.8125l21.246094 21.246094c-66.71875 66.714843-114.949219 125.144531-146.390625 169.339843-33.148438 46.742188-51.726563 82.316407-48.75 91.242188 2.546875 0 20.488281-7.316406 49.171875-24.101562 11.261719-6.164063 24.648437-14.875 40.371093-26.347657 4.039063 3.613281 8.5 6.800781 13.171876 9.773438 4.464843 2.761719 8.925781 5.523437 13.597656 8.074219-93.910156 68.839843-125.875 65.109374-138.199219 52.785156zm0 0" fill="#ff9f00"/></svg>