<svg id="Capa_1" enable-background="new 0 0 512 512" height="512" viewBox="0 0 512 512" width="512" xmlns="http://www.w3.org/2000/svg"><path d="m411.127 499.547c-13.683-15.483-7.647-31.294-7.647-39.455v-.001c0-12.914-5.401-25.72-14.815-35.135l-301.621-301.62c-11.683-11.683-28.002-16.93-43.653-14.035-11.248 2.08-22.524-.992-30.938-8.427-15.811-13.974-16.737-38.413-1.7-53.449 11.248-11.249 24.34-10.515 25.8-10.871.338-1.384-.272-14.657 10.871-25.801 14.908-14.908 39.317-14.29 53.449 1.701 7.619 8.621 10.422 20.143 8.427 30.938-2.955 15.98 2.712 32.33 14.035 43.653l301.621 301.621c11.683 11.682 28.001 16.929 43.652 14.035 11.248-2.08 22.525.992 30.938 8.427 15.846 14.003 16.706 38.444 1.701 53.448-11.249 11.249-24.341 10.515-25.801 10.872-.338 1.384.272 14.658-10.871 25.801-14.908 14.906-39.317 14.287-53.448-1.702z" fill="#f2e7e4"/><path d="m12.453 411.127c15.483-13.683 31.294-7.647 39.455-7.647h.001c12.914 0 25.72-5.401 35.135-14.815l301.62-301.621c11.683-11.683 16.93-28.002 14.035-43.653-2.08-11.248.992-22.524 8.427-30.938 13.973-15.812 38.412-16.738 53.448-1.701 11.249 11.249 10.515 24.341 10.872 25.801 1.384.338 14.657-.272 25.801 10.871 14.908 14.908 14.29 39.317-1.701 53.449-8.621 7.619-20.143 10.422-30.938 8.427-15.98-2.955-32.33 2.712-43.653 14.035l-301.62 301.621c-11.682 11.683-16.929 28.001-14.035 43.652 2.08 11.248-.992 22.525-8.427 30.938-14.003 15.846-38.444 16.706-53.448 1.701-11.249-11.249-10.515-24.341-10.872-25.801-1.384-.338-14.658.272-25.801-10.871-14.907-14.908-14.288-39.317 1.701-53.448z" fill="#f2e7e4"/><path d="m397.739 263.363c7.121-16.654 11.073-27.311 11.073-46.571 0-76.4-30.161-138.334-152.812-138.334s-152.812 61.934-152.812 138.334c0 19.259 3.952 29.917 11.073 46.571 15.052 35.202-16.933 45.431-3.528 67.672l9.331 15.482c3.435 5.699 9.158 9.643 15.707 10.824l27.692 8.061c19.015 6.383 15.895 27.907 15.895 44.941v14.607h153.285v-14.607c0-17.033-3.12-38.557 15.895-44.941l27.692-8.061c6.549-1.181 12.272-5.124 15.707-10.824l9.331-15.482c13.404-22.241-18.58-32.47-3.529-67.672z" fill="#f9f5f5"/><path d="m397.739 263.363c7.121-16.654 11.073-27.311 11.073-46.57 0-62.569-20.244-115.427-94.939-132.517 44.069 24.193 57.185 68.266 57.185 118.63 0 19.259-3.951 29.917-11.073 46.571-15.052 35.202 16.933 45.431 3.528 67.672l-9.331 15.482c-3.435 5.7-9.158 9.643-15.707 10.824l-27.692 8.061c-19.015 6.383-15.895 27.907-15.895 44.941v28.495h37.754v-14.607c0-17.033-3.12-38.557 15.895-44.941l27.692-8.061c6.549-1.181 12.272-5.124 15.707-10.824l9.331-15.482c13.405-22.243-18.579-32.472-3.528-67.674z" fill="#f2e7e4"/><path d="m231.391 261.516c-1.423 2.085-7.404 35.072-40.312 35.072h-11.368c-20.577 0-37.258-16.681-37.258-37.258 0-27.539 28.934-45.236 53.383-33.098l26.887 13.348c8.082 4.012 11.824 13.483 8.668 21.936z" fill="#7ba0b0"/><path d="m222.723 239.58-26.887-13.348c-11.929-5.922-24.918-4.728-35.101 1.232l24.405 12.116c8.082 4.012 11.824 13.483 8.668 21.936-1.2 1.757-5.639 25.471-26.714 32.877 3.941 1.418 8.188 2.195 12.617 2.195h11.368c32.908 0 38.888-32.987 40.312-35.072 3.156-8.453-.586-17.924-8.668-21.936z" fill="#688b96"/><path d="m280.609 261.516c1.423 2.085 7.404 35.072 40.312 35.072h11.368c20.577 0 37.258-16.681 37.258-37.258 0-27.539-28.934-45.236-53.383-33.098l-26.887 13.348c-8.082 4.012-11.824 13.483-8.668 21.936z" fill="#7ba0b0"/><path d="m316.164 226.232-2.943 1.461c10.479 6.306 17.885 17.708 17.885 31.637 0 15.982-10.066 29.61-24.202 34.901 4.026 1.473 8.659 2.358 14.016 2.358h11.368c20.577 0 37.258-16.681 37.258-37.258.001-27.54-28.933-45.237-53.382-33.099z" fill="#688b96"/><path d="m258.922 304.077c-1.701 1.391-4.145 1.393-5.848.005l-.03-.025c-2.526-2.058-6.331-.929-7.324 2.174l-9.181 28.662c-1.242 3.294-.599 7.111 1.922 9.567 2.39 2.328 5.786 3.047 8.808 2.052l.263-.086c5.521-1.819 11.453-1.716 16.995.038 1.842.583 3.839.654 5.665.023 4.724-1.634 7.03-6.766 5.325-11.288l-9.263-28.952c-.995-3.107-4.807-4.235-7.332-2.17z" fill="#688b96"/><path d="m194.686 388.585c-8.466 0-15.329 6.863-15.329 15.329v21.037c0 4.745 3.846 8.591 8.591 8.591h13.475c4.745 0 8.591-3.846 8.591-8.591v-21.037c0-8.467-6.862-15.329-15.328-15.329z" fill="#ded0cb"/><path d="m225.343 388.585c-8.466 0-15.329 6.863-15.329 15.329v21.037c0 4.745 3.846 8.591 8.591 8.591h13.475c4.745 0 8.591-3.846 8.591-8.591v-21.037c0-8.467-6.862-15.329-15.328-15.329z" fill="#eedfda"/><path d="m256 388.585c-8.466 0-15.329 6.863-15.329 15.329v21.037c0 4.745 3.846 8.591 8.591 8.591h13.475c4.745 0 8.591-3.846 8.591-8.591v-21.037c.001-8.467-6.862-15.329-15.328-15.329z" fill="#ded0cb"/><path d="m286.657 388.585c-8.466 0-15.329 6.863-15.329 15.329v21.037c0 4.745 3.846 8.591 8.591 8.591h13.475c4.745 0 8.591-3.846 8.591-8.591v-21.037c.001-8.467-6.862-15.329-15.328-15.329z" fill="#eedfda"/><path d="m317.314 388.585c-8.466 0-15.329 6.863-15.329 15.329v21.037c0 4.745 3.846 8.591 8.591 8.591h13.475c4.745 0 8.591-3.846 8.591-8.591v-21.037c.001-8.467-6.862-15.329-15.328-15.329z" fill="#ded0cb"/></svg>