<?xml version="1.0" encoding="iso-8859-1"?>
<!-- Generator: Adobe Illustrator 19.0.0, SVG Export Plug-In . SVG Version: 6.00 Build 0)  -->
<svg version="1.1" id="Layer_1" xmlns="http://www.w3.org/2000/svg" xmlns:xlink="http://www.w3.org/1999/xlink" x="0px" y="0px"
	 viewBox="0 0 512 512" style="enable-background:new 0 0 512 512;" xml:space="preserve">
<path style="fill:#FF8800;" d="M297.545,107.852c0-22.945-18.6-41.545-41.545-41.545s-41.545,18.6-41.545,41.545H297.545z"/>
<path style="fill:#00D8DE;" d="M463.151,313.86c0,36.382-92.744,65.876-207.151,65.876S48.849,350.241,48.849,313.86
	c0-6.01,0-23.517,0-23.517h414.302C463.151,290.343,463.151,307.038,463.151,313.86z"/>
<path style="fill:#00B6BE;" d="M48.849,313.86c0,1.69,0.202,3.365,0.595,5.022h413.112c0.393-1.657,0.595-3.332,0.595-5.022
	c0-6.821,0-23.517,0-23.517H48.849C48.849,290.343,48.849,307.849,48.849,313.86z"/>
<g>
	<path style="fill:#57555C;" d="M169.388,373.714c26.354,3.863,55.688,6.022,86.612,6.022s60.257-2.158,86.612-6.022
		c-17.418-18.113-49.672-30.285-86.612-30.285C219.062,343.429,186.807,355.601,169.388,373.714z"/>
	<path style="fill:#57555C;" d="M160.857,177.455c-2.03,0-4.062-0.775-5.611-2.324l-53.918-53.918
		c-3.098-3.099-3.098-8.123,0-11.222c3.099-3.097,8.123-3.097,11.222,0l53.918,53.918c3.098,3.099,3.098,8.123,0,11.222
		C164.918,176.681,162.887,177.455,160.857,177.455z"/>
	<path style="fill:#57555C;" d="M350.143,178.454c-2.031,0-4.061-0.775-5.611-2.324c-3.098-3.099-3.098-8.123,0-11.222
		l54.788-54.787c3.1-3.098,8.124-3.096,11.222,0c3.098,3.099,3.098,8.123,0,11.222l-54.788,54.787
		C354.206,177.68,352.174,178.454,350.143,178.454z"/>
</g>
<path style="fill:#E0E0E3;" d="M371.828,153.267H140.172l19.648-26.811c9.544-13.024,24.724-20.719,40.871-20.719h110.619
	c16.147,0,31.326,7.696,40.871,20.719L371.828,153.267z"/>
<polygon style="fill:#D2D1D3;" points="140.172,153.267 371.828,153.267 356.129,131.844 155.871,131.844 "/>
<path style="fill:#00D8DE;" d="M506.604,261.459H5.395l20.917-32.65l21.044-32.862c20.727-28.238,53.662-44.912,88.692-44.88
	l239.977,0.169c35.03,0.031,67.946,16.749,88.629,45.018l20.948,32.555L506.604,261.459z"/>
<polygon style="fill:#00B6BE;" points="506.604,261.459 5.395,261.459 26.312,228.81 485.603,228.81 "/>
<path style="fill:#E0E0E3;" d="M490.498,297.048H21.502C9.627,297.048,0,287.42,0,275.545v-10.421c0-5.898,4.781-10.68,10.68-10.68
	h490.64c5.898,0,10.68,4.781,10.68,10.68v10.421C512,287.42,502.373,297.048,490.498,297.048z"/>
<path style="fill:#D2D1D3;" d="M0,275.745c0,11.764,9.718,21.301,21.705,21.301h468.59c11.987,0,21.705-9.537,21.705-21.301v-0.357
	H0V275.745z"/>
<g>
	<path style="fill:#E0E0E3;" d="M255.393,445.693c-0.004,0-0.008,0-0.014,0c-4.382-0.007-7.929-3.565-7.921-7.949l0.026-15.299
		c0.007-4.378,3.559-7.921,7.935-7.921c0.004,0,0.008,0,0.014,0c4.383,0.007,7.929,3.565,7.921,7.949l-0.026,15.299
		C263.322,442.149,259.769,445.693,255.393,445.693z"/>
	<path style="fill:#E0E0E3;" d="M316.243,426.422c-1.956,0-3.914-0.718-5.448-2.167l-12.983-12.263
		c-3.186-3.008-3.329-8.031-0.32-11.218c3.008-3.186,8.031-3.329,11.218-0.32l12.983,12.263c3.186,3.008,3.329,8.031,0.32,11.218
		C320.451,425.588,318.349,426.422,316.243,426.422z"/>
	<path style="fill:#E0E0E3;" d="M195.758,426.213c-2.117,0-4.228-0.841-5.79-2.507c-2.998-3.196-2.836-8.218,0.359-11.217
		l13.027-12.217c3.198-3,8.219-2.836,11.217,0.359c2.998,3.196,2.836,8.218-0.359,11.217l-13.027,12.217
		C199.654,425.502,197.703,426.213,195.758,426.213z"/>
</g>
<g>
	<circle style="fill:#FF8800;" cx="99.035" cy="107.635" r="20.308"/>
	<circle style="fill:#FF8800;" cx="412.965" cy="107.635" r="20.308"/>
	<circle style="fill:#FF8800;" cx="144.165" cy="196.566" r="15.694"/>
	<circle style="fill:#FF8800;" cx="218.718" cy="196.566" r="15.694"/>
	<circle style="fill:#FF8800;" cx="293.282" cy="196.566" r="15.694"/>
	<circle style="fill:#FF8800;" cx="367.835" cy="196.566" r="15.694"/>
</g>
<g>
</g>
<g>
</g>
<g>
</g>
<g>
</g>
<g>
</g>
<g>
</g>
<g>
</g>
<g>
</g>
<g>
</g>
<g>
</g>
<g>
</g>
<g>
</g>
<g>
</g>
<g>
</g>
<g>
</g>
</svg>
