<?xml version="1.0" encoding="iso-8859-1"?>
<!-- Generator: Adobe Illustrator 19.0.0, SVG Export Plug-In . SVG Version: 6.00 Build 0)  -->
<svg version="1.1" id="Layer_1" xmlns="http://www.w3.org/2000/svg" xmlns:xlink="http://www.w3.org/1999/xlink" x="0px" y="0px"
	 viewBox="0 0 512.001 512.001" style="enable-background:new 0 0 512.001 512.001;" xml:space="preserve">
<circle style="fill:#5AC3FF;" cx="256.005" cy="256.005" r="203.776"/>
<path style="fill:#46A2DE;" d="M209.685,415.533c-71.054-71.054-71.054-186.253,0-257.306
	c53.006-53.006,130.575-66.447,196.063-40.367c-1.851-2.003-3.709-4.002-5.656-5.949c-79.58-79.58-208.604-79.58-288.183,0
	c-79.579,79.579-79.58,208.604,0,288.183c45.387,45.387,106.852,64.844,166.059,58.461
	C253.032,449.805,229.62,435.468,209.685,415.533z"/>
<path style="fill:#7DD7FF;" d="M229.418,54.004l228.58,228.58c2.157-16.49,2.291-33.185,0.415-49.704L279.122,53.589
	C262.602,51.713,245.908,51.847,229.418,54.004z"/>
<path style="fill:#5AC3FF;" d="M287.618,112.206c14.083-4.072,28.542-6.434,43.08-7.039l-51.578-51.578
	c-16.519-1.876-33.213-1.742-49.704,0.415L287.618,112.206z"/>
<path style="fill:#E4EAF8;" d="M476.648,376.809c-8.947-15.21-19.307-31.001-30.753-47.101c-2.491,6.427-5.288,12.753-8.454,18.95
	c8.704,12.635,16.847,25.095,23.927,37.132c35.707,60.695,37.663,93.085,27.583,103.164c-10.071,10.049-42.465,8.124-103.168-27.583
	c-116.363-68.452-266.712-218.8-335.151-335.155C14.925,65.521,12.969,33.132,23.049,23.051c3.262-3.262,8.869-5.265,17.028-5.265
	c17.01,0,45.112,8.713,86.141,32.848c12.035,7.08,24.494,15.223,37.128,23.926c6.196-3.165,12.52-5.964,18.943-8.452
	c-16.097-11.442-31.884-21.8-47.091-30.745C73.603-0.872,30.49-9.459,10.52,10.524C-9.458,30.501-0.875,73.615,35.352,135.197
	c69.728,118.539,222.907,271.714,341.45,341.445c39.93,23.491,72.09,35.357,95.218,35.357c12.546,0,22.435-3.491,29.461-10.517
	C521.458,481.505,512.875,438.391,476.648,376.809z"/>
<path style="fill:#7DD7FF;" d="M53.511,234.006c-0.856,7.932-1.27,15.891-1.198,23.861L254.135,459.69
	c7.969,0.072,15.929-0.342,23.861-1.198L53.511,234.006z"/>
<g>
	<path style="fill:#5AC3FF;" d="M215.002,420.557l39.136,39.136c7.954,0.071,15.911-0.285,23.829-1.138
		C255.202,450.567,233.742,437.867,215.002,420.557z"/>
	<path style="fill:#5AC3FF;" d="M52.313,257.867l154.609,154.61c-18.363-19.205-31.642-41.414-39.966-65.026L53.513,234.006
		C52.655,241.939,52.241,249.898,52.313,257.867z"/>
</g>
<g>
</g>
<g>
</g>
<g>
</g>
<g>
</g>
<g>
</g>
<g>
</g>
<g>
</g>
<g>
</g>
<g>
</g>
<g>
</g>
<g>
</g>
<g>
</g>
<g>
</g>
<g>
</g>
<g>
</g>
</svg>
