<?xml version="1.0" encoding="iso-8859-1"?>
<!-- Generator: Adobe Illustrator 19.0.0, SVG Export Plug-In . SVG Version: 6.00 Build 0)  -->
<svg version="1.1" id="Capa_1" xmlns="http://www.w3.org/2000/svg" xmlns:xlink="http://www.w3.org/1999/xlink" x="0px" y="0px"
	 viewBox="0 0 512 512" style="enable-background:new 0 0 512 512;" xml:space="preserve">
<circle style="fill:#CB443A;" cx="256" cy="256" r="256"/>
<circle style="fill:#DB6C6A;" cx="211.86" cy="211.86" r="158.9"/>
<circle style="fill:#ED9D9D;" cx="211.86" cy="211.86" r="97.1"/>
<g>
	<path style="fill:#DC691C;" d="M99.946,183.684c-2.322,0-4.634-0.909-6.374-2.719c-3.372-3.513-3.257-9.101,0.265-12.482
		c18.37-17.611,52.559-50.397,74.99-76.111c3.204-3.672,8.783-4.052,12.456-0.847c3.681,3.204,4.052,8.783,0.847,12.456
		c-22.952,26.306-57.512,59.445-76.076,77.25C104.351,182.863,102.144,183.684,99.946,183.684z"/>
	<path style="fill:#DC691C;" d="M99.866,283.463c-2.816,0-5.579-1.342-7.292-3.84c-2.754-4.017-1.73-9.516,2.286-12.27
		c11.449-7.857,24.779-17.955,37.526-28.451c3.761-3.098,9.322-2.569,12.42,1.209c3.098,3.761,2.56,9.331-1.209,12.42
		c-13.127,10.814-26.898,21.239-38.762,29.378C103.327,282.968,101.588,283.463,99.866,283.463z"/>
	<path style="fill:#DC691C;" d="M177.426,219.427c-2.26,0-4.52-0.865-6.241-2.578c-3.452-3.452-3.452-9.031,0-12.491
		c27.869-27.886,51.747-58.527,71.424-84.824c2.931-3.902,8.457-4.705,12.359-1.783c3.902,2.922,4.696,8.457,1.783,12.359
		c-20.056,26.801-44.429,58.059-73.075,86.731C181.945,218.571,179.677,219.427,177.426,219.427z"/>
	<path style="fill:#DC691C;" d="M130.904,351.956c-2.851,0-5.65-1.377-7.353-3.919c-2.71-4.052-1.615-9.534,2.436-12.244
		c40.183-26.854,91.939-63.735,135.759-111.016c3.319-3.584,8.898-3.778,12.473-0.477c3.575,3.31,3.787,8.898,0.477,12.473
		c-45.074,48.631-97.907,86.307-138.893,113.699C134.285,351.47,132.59,351.956,130.904,351.956z"/>
	<path style="fill:#DC691C;" d="M311.905,195.902c-2.004,0-4.025-0.68-5.676-2.074c-3.734-3.134-4.211-8.704-1.077-12.438
		c13.391-15.934,20.339-28.319,28.372-42.681c4.087-7.292,8.713-15.563,14.583-24.973c2.586-4.131,8.033-5.385,12.164-2.816
		c4.14,2.578,5.394,8.024,2.816,12.164c-5.658,9.057-9.975,16.781-14.159,24.258c-8.474,15.13-15.793,28.204-30.27,45.418
		C316.919,194.834,314.43,195.902,311.905,195.902z"/>
	<path style="fill:#DC691C;" d="M287.126,345.891c-2.295,0-4.599-0.892-6.329-2.675c-3.399-3.496-3.319-9.084,0.177-12.482
		c10.346-10.072,22.501-22.378,32.494-32.936c3.354-3.54,8.942-3.681,12.482-0.344c3.54,3.346,3.69,8.942,0.344,12.482
		c-10.152,10.726-22.493,23.234-33.006,33.457C291.566,345.053,289.342,345.891,287.126,345.891z"/>
	<path style="fill:#DC691C;" d="M354.357,272.781c-1.977,0-3.964-0.662-5.606-2.013c-3.761-3.107-4.299-8.66-1.201-12.429
		l3.469-4.202c7.733-9.366,15.033-18.202,22.652-28.46c2.904-3.902,8.43-4.732,12.35-1.818c3.911,2.913,4.723,8.439,1.818,12.35
		c-7.892,10.62-15.678,20.047-23.217,29.166l-3.452,4.184C359.424,271.687,356.899,272.781,354.357,272.781z"/>
	<path style="fill:#DC691C;" d="M181.001,414.552c-4.122,0-7.812-2.904-8.642-7.097c-0.953-4.776,2.136-9.419,6.903-10.381l0,0
		c0.291-0.062,29.043-6.153,51.686-28.804c3.452-3.452,9.031-3.452,12.482,0c3.452,3.452,3.452,9.031,0,12.482
		c-26.553,26.553-59.313,33.351-60.69,33.624C182.157,414.499,181.575,414.552,181.001,414.552z"/>
	<path style="fill:#DC691C;" d="M262.25,470.81c-2.948,0-5.835-1.474-7.503-4.167c-2.578-4.14-1.306-9.578,2.834-12.156l4.873-3.028
		c6.868-4.255,11.538-7.159,19.253-12.217c4.078-2.675,9.551-1.536,12.226,2.542c2.675,4.078,1.536,9.551-2.542,12.226
		c-7.874,5.155-12.632,8.104-19.633,12.456l-4.855,3.01C265.454,470.387,263.839,470.81,262.25,470.81z"/>
	<path style="fill:#DC691C;" d="M329.675,424.889c-2.604,0-5.182-1.148-6.93-3.346c-3.028-3.822-2.383-9.375,1.448-12.403
		c6.056-4.785,13.745-10.955,19.553-16.155c3.637-3.257,9.216-2.94,12.465,0.689c3.249,3.637,2.94,9.216-0.689,12.465
		c-6.162,5.517-14.124,11.9-20.374,16.843C333.524,424.271,331.591,424.889,329.675,424.889z"/>
	<path style="fill:#DC691C;" d="M399.563,358.453c-2.119,0-4.246-0.759-5.932-2.295c-3.61-3.284-3.866-8.863-0.591-12.473
		c21.248-23.358,32.768-37.049,49.134-61.405c2.719-4.043,8.21-5.12,12.253-2.401s5.129,8.201,2.401,12.253
		c-16.984,25.282-28.875,39.406-50.732,63.435C404.356,357.482,401.964,358.453,399.563,358.453z"/>
	<path style="fill:#DC691C;" d="M469.99,257.359c1.404,0.83,2.948,1.227,4.476,1.227c3.019,0,5.967-1.554,7.609-4.343
		c8.448-14.327,15.907-31.409,23.128-47.916c0.45-1.024,0.892-2.022,1.333-3.037c-1.562-7.45-3.443-14.769-5.641-21.963
		c-2.604,0.6-4.952,2.225-6.126,4.864c-1.916,4.281-3.831,8.66-5.756,13.074c-7,16.031-14.248,32.609-22.157,46.018
		C464.384,249.476,465.788,254.888,469.99,257.359z"/>
	<path style="fill:#DC691C;" d="M445.846,84.277c-4.838-5.341-9.931-10.443-15.192-15.36c-1.951,1.792-3.187,4.326-2.94,7.168
		c2.339,27.127-1.854,57.415-11.529,83.094c-1.713,4.564,0.591,9.657,5.146,11.379c1.024,0.38,2.074,0.565,3.116,0.565
		c3.566,0,6.93-2.189,8.263-5.72C442.138,140.35,446.764,111.307,445.846,84.277z"/>
	<path style="fill:#DC691C;" d="M388.811,37.102c-1.81,1.262-3.16,3.187-3.619,5.517c-0.574,3.001-1.033,5.923-1.483,8.81
		c-1.121,7.23-2.101,13.471-4.917,19.606c-2.03,4.431-0.097,9.675,4.334,11.705c1.192,0.547,2.445,0.803,3.681,0.803
		c3.337,0,6.541-1.907,8.024-5.146c3.84-8.36,5.102-16.446,6.312-24.267c0.406-2.622,0.83-5.288,1.351-8.015
		C398.027,42.99,393.49,39.945,388.811,37.102z"/>
	<path style="fill:#DC691C;" d="M302.636,4.317c-0.088,0.459-0.3,0.865-0.318,1.342c-0.574,16.349-8.298,38.215-22.943,64.998
		c-2.339,4.281-0.768,9.64,3.505,11.979c1.342,0.733,2.798,1.086,4.228,1.086c3.125,0,6.153-1.66,7.751-4.59
		c15.731-28.769,23.861-52.03,24.956-71.106C314.174,6.577,308.427,5.385,302.636,4.317z"/>
	<path style="fill:#DC691C;" d="M198.621,51.791c-2.313,4.29-0.715,9.649,3.575,11.961c1.333,0.724,2.772,1.059,4.184,1.059
		c3.143,0,6.179-1.677,7.777-4.634c8.881-16.446,15.793-37.155,18.97-56.823c0.124-0.786-0.009-1.527-0.088-2.278
		c-6.029,0.538-12.006,1.262-17.902,2.207C212.083,20.242,206.195,37.764,198.621,51.791z"/>
	<path style="fill:#DC691C;" d="M0.583,247.605c1.095,0,2.207-0.203,3.293-0.644c21.292-8.554,42.231-23.093,54.74-31.788
		l2.666-1.854c4.008-2.772,5.014-8.271,2.242-12.279c-2.781-4.017-8.271-5.005-12.288-2.242l-2.692,1.871
		c-11.052,7.68-29.007,20.092-47.078,28.089c-0.653,6.197-1.042,12.473-1.245,18.794C0.335,247.552,0.459,247.605,0.583,247.605z"/>
	<path style="fill:#DC691C;" d="M51.88,298.134c-8.819,4.899-26.297,13.594-44.367,16.817c-0.203,0.035-0.362,0.168-0.556,0.221
		c1.359,5.72,2.834,11.396,4.564,16.967c20.259-3.778,39.309-13.215,48.949-18.573c4.255-2.366,5.8-7.742,3.425-12.006
		C61.519,297.304,56.152,295.759,51.88,298.134z"/>
	<path style="fill:#DC691C;" d="M83.279,366.424c-16.799,8.324-30.985,13.621-43.37,16.19c-1.942,0.406-3.487,1.518-4.705,2.895
		c2.842,4.838,5.8,9.596,8.942,14.221c13.718-2.922,29.078-8.625,46.972-17.487c4.37-2.163,6.153-7.459,3.99-11.829
		C92.937,366.045,87.658,364.262,83.279,366.424z"/>
	<path style="fill:#DC691C;" d="M119.146,425.507c-12.482,4.273-25.891,8.307-38.532,8.925c-2.233,0.115-4.175,1.112-5.667,2.56
		c4.926,4.926,10.09,9.604,15.395,14.115c11.926-1.686,23.834-5.244,34.481-8.889c4.652-1.589,7.08-6.656,5.447-11.29
		C128.671,426.372,123.719,423.945,119.146,425.507z"/>
	<path style="fill:#DC691C;" d="M220.654,479.153c-7.503,3.972-16.561,7.865-25.326,11.626c-3.354,1.448-6.674,2.869-9.86,4.273
		c-2.481,1.103-4.096,3.24-4.793,5.658c7.415,2.277,14.98,4.228,22.66,5.835c8.766-3.761,17.752-7.645,25.582-11.794
		c4.308-2.286,5.95-7.627,3.672-11.935C230.303,478.508,224.971,476.866,220.654,479.153z"/>
</g>
<g>
	<path style="fill:#EFCE4A;" d="M158.897,264.828c-19.474,0-35.31-15.837-35.31-35.31s15.837-35.31,35.31-35.31
		c19.474,0,35.31,15.837,35.31,35.31S178.37,264.828,158.897,264.828z"/>
	<path style="fill:#EFCE4A;" d="M335.448,317.793c-19.474,0-35.31-15.837-35.31-35.31s15.837-35.31,35.31-35.31
		s35.31,15.837,35.31,35.31S354.922,317.793,335.448,317.793z"/>
	<path style="fill:#EFCE4A;" d="M308.966,467.862c-19.474,0-35.31-15.837-35.31-35.31s15.837-35.31,35.31-35.31
		s35.31,15.837,35.31,35.31S328.439,467.862,308.966,467.862z"/>
	<path style="fill:#EFCE4A;" d="M194.207,114.759c-19.474,0-35.31-15.837-35.31-35.31s15.837-35.31,35.31-35.31
		s35.31,15.837,35.31,35.31S213.681,114.759,194.207,114.759z"/>
</g>
<g>
</g>
<g>
</g>
<g>
</g>
<g>
</g>
<g>
</g>
<g>
</g>
<g>
</g>
<g>
</g>
<g>
</g>
<g>
</g>
<g>
</g>
<g>
</g>
<g>
</g>
<g>
</g>
<g>
</g>
</svg>
