<?xml version="1.0" encoding="iso-8859-1"?>
<!-- Generator: Adobe Illustrator 19.0.0, SVG Export Plug-In . SVG Version: 6.00 Build 0)  -->
<svg version="1.1" id="Capa_1" xmlns="http://www.w3.org/2000/svg" xmlns:xlink="http://www.w3.org/1999/xlink" x="0px" y="0px"
	 viewBox="0 0 512.001 512.001" style="enable-background:new 0 0 512.001 512.001;" xml:space="preserve">
<path style="fill:#D29650;" d="M508.853,122.794c-1.049,3.307-2.36,6.549-3.934,9.693c-2.513,4.702-5.391,10.458-10.188,13.336
	c-2.361,1.61-4.615,3.26-6.795,4.939c0-0.001-0.001-0.002-0.001-0.002c-12.439,9.578-22.136,20.233-31.21,31.446
	c-0.014,0.018-0.029,0.036-0.043,0.054c-1.97,2.437-0.631,6.098,2.442,6.713l9.598,1.92c2.851,0.57,4.903,3.073,4.903,5.98v8.089
	c0,3.368-2.73,6.099-6.099,6.099h-34.92c-5.33,0-10.524,1.736-14.754,4.979c-21.281,16.311-39.443,36.754-61.248,53.532
	c-2.149,1.536-4.6,3.288-7.315,5.228c-6.108,4.366-13.552,9.686-21.902,15.655c-1.677,1.189-3.39,2.404-5.145,3.636
	c-14.513,8.666-28.2,18.287-41.404,28.217c-2.641,1.986-5.262,3.984-7.88,5.983c-24.784,15.163-48.768,32.432-70.91,51.748
	c-1.78,1.273-3.513,2.512-5.196,3.714c-18.506,13.227-30.802,22.015-30.802,22.015c-1.867,1.334-3.62,2.82-5.242,4.442
	l-49.724,49.724c-1.437,1.436-2.955,2.739-4.535,3.922c-22.476-16.189-42.217-35.93-58.406-58.406
	c1.183-1.58,2.486-3.098,3.922-4.535c0,0,19.423-19.423,33.991-33.991c2.914-2.913,5.633-5.633,7.965-7.962
	c21.76-18.387,35.191-44.29,51.393-67.833c2.78-3.89,5.643-7.895,8.566-11.984c2.923-4.089,5.906-8.263,8.926-12.488
	c1.439-2.012,2.898-4.032,4.461-6.022c22.286-19.833,36.677-44.777,50.527-70.9c1.238-1.744,2.458-3.45,3.651-5.12
	c5.969-8.351,11.29-15.795,15.655-21.903c1.94-2.715,3.723-5.145,5.389-7.212c19.975-18.309,39.162-35.578,50.674-61.481
	c1.919-4.797,6.716-7.675,10.911-11.969c2.23-1.933,4.442-3.888,6.633-5.868c15.336-13.86,29.603-28.947,41.119-46.331
	c2.885-2.91,5.429-5.455,7.247-7.272c0.063-0.063,0.119-0.119,0.18-0.18l0,0c1.705-1.705,2.727-2.727,2.727-2.727
	c20.981-20.981,52.39-25.177,77.542-12.588c3.144,1.574,6.19,3.409,9.105,5.508c16.261,11.395,22.017,31.542,37.744,44.245
	c2.659,2.187,5.307,4.423,7.912,6.698c7.06,6.501,13.776,14.176,15.843,23.54c0.689,2.943,1.176,5.924,1.463,8.921
	C512.553,104.983,511.606,114.113,508.853,122.794z"/>
<path style="fill:#B9783D;" d="M299.156,163.8c3.044,3.044-2.403,13.427-12.166,23.19s-20.146,15.21-23.19,12.166
	c-0.319-0.319-0.524-0.735-0.661-1.206c-3.515,4.917-7.474,10.457-11.778,16.478c-1.194,1.67-2.413,3.377-3.651,5.12
	c-9.47,17.861-19.196,35.167-31.521,50.669c2.856-0.496,5.099-0.129,6.472,1.244c5.27,5.27-4.159,23.241-21.058,40.141
	c-13.249,13.249-27.154,21.902-35.083,22.486c-4.424,6.847-8.797,13.731-13.359,20.439c5.986-4.04,11.063-5.66,13.039-3.683
	c3.044,3.044-2.403,13.427-12.166,23.19s-20.146,15.21-23.19,12.166c-0.69-0.69-0.923-1.772-0.789-3.124
	c-2.005,1.961-4.06,3.877-6.217,5.7c-2.332,2.329-5.052,5.049-7.965,7.962c-14.568,14.568-33.991,33.991-33.991,33.991
	c-2.265,2.265-4.196,4.734-5.831,7.336c-10.181-10.063-19.52-20.972-27.907-32.616c1.183-1.58,2.486-3.098,3.922-4.535
	c0,0,19.423-19.423,33.991-33.991c2.914-2.913,5.633-5.633,7.965-7.962c21.76-18.387,35.191-44.29,51.393-67.833
	c2.78-3.89,5.643-7.895,8.566-11.984c2.923-4.089,5.906-8.263,8.926-12.488c1.439-2.012,2.898-4.032,4.461-6.022
	c22.286-19.833,36.677-44.777,50.527-70.9c1.238-1.744,2.458-3.45,3.651-5.12c5.969-8.351,11.29-15.795,15.655-21.903
	c1.94-2.715,3.723-5.145,5.389-7.212c19.975-18.309,39.162-35.578,50.674-61.481c1.919-4.797,6.716-7.675,10.911-11.969
	c2.23-1.933,4.442-3.888,6.633-5.868c15.336-13.86,29.603-28.947,41.119-46.331c2.507-2.528,10.155-10.18,10.155-10.18
	c2.5-2.5,5.153-4.755,7.921-6.779c9.665,10.868,23.731,17.734,39.419,17.734c2.958,0,5.857-0.249,8.681-0.721
	c1.995-0.334,3.938,0.445,5.169,1.881c-9.051,2.232-17.729,6.366-25.395,12.41c-2.069,1.628-4.072,3.381-5.979,5.289
	c0,0-1.091,1.09-2.908,2.908c-1.817,1.817-4.361,4.362-7.247,7.272c-11.516,17.384-25.783,32.471-41.119,46.331
	c-2.191,1.98-4.404,3.935-6.633,5.868c-4.196,4.294-8.993,7.172-10.911,11.969c-6.872,15.461-16.488,27.838-27.364,39.204
	C297.223,162.826,298.411,163.056,299.156,163.8z M336.69,169.168c-12.524,12.525-19.512,25.843-15.606,29.749
	c3.905,3.905,17.224-3.082,29.749-15.607c12.524-12.525,19.512-25.843,15.606-29.749
	C362.533,149.656,349.214,156.644,336.69,169.168z M358.991,108.991c-19.526,19.526-32.19,38.521-28.284,42.426
	c3.905,3.905,22.9-8.758,42.427-28.284c19.526-19.526,32.189-38.521,28.284-42.426S378.518,89.465,358.991,108.991z"/>
<path style="fill:#E6B464;" d="M511.693,95.994c0.861,8.99-0.086,18.119-2.84,26.8c-1.049,3.307-2.36,6.549-3.934,9.693
	c-1.48,2.769-3.09,5.9-5.14,8.597c-20.788-7.082-35.747-26.759-35.747-49.944c0-0.017,0-0.034,0-0.051
	c0.003-2.747-1.909-5.111-4.612-5.597c-21.864-3.936-39.051-21.332-42.656-43.307c-0.494-3.013-3.398-5.034-6.409-4.53
	c-2.824,0.472-5.723,0.721-8.681,0.721c-15.978,0-30.287-7.112-39.963-18.332c0.238-0.238,0.373-0.373,0.373-0.373
	c20.981-20.981,52.39-25.177,77.542-12.588c3.144,1.574,6.19,3.409,9.105,5.508c16.261,11.395,22.017,31.542,37.744,44.246
	c2.658,2.187,5.306,4.423,7.912,6.698c7.06,6.501,13.776,14.176,15.843,23.54C510.918,90.016,511.406,92.997,511.693,95.994z"/>
<g>
</g>
<g>
</g>
<g>
</g>
<g>
</g>
<g>
</g>
<g>
</g>
<g>
</g>
<g>
</g>
<g>
</g>
<g>
</g>
<g>
</g>
<g>
</g>
<g>
</g>
<g>
</g>
<g>
</g>
</svg>
