<?xml version="1.0" encoding="iso-8859-1"?>
<!-- Generator: Adobe Illustrator 19.0.0, SVG Export Plug-In . SVG Version: 6.00 Build 0)  -->
<svg version="1.1" id="Capa_1" xmlns="http://www.w3.org/2000/svg" xmlns:xlink="http://www.w3.org/1999/xlink" x="0px" y="0px"
	 viewBox="0 0 512.009 512.009" style="enable-background:new 0 0 512.009 512.009;" xml:space="preserve">
<polygon style="fill:#C8C6CD;" points="476.409,151.406 407.237,178.672 381.446,188.843 376.715,190.708 321.304,135.297 
	327.17,120.423 333.341,104.776 360.606,35.604 511.988,0.011 512.009,0.004 "/>
<polygon style="fill:#8B8992;" points="476.409,151.406 407.237,178.672 381.446,188.843 376.715,190.708 349.003,162.996 
	511.988,0.011 512.009,0.004 "/>
<rect x="353.534" y="107.441" transform="matrix(-0.7071 0.7071 -0.7071 -0.7071 751.5646 -66.3334)" style="fill:#FFFFFF;" width="71.973" height="30.094"/>
<rect x="-39.664" y="268.152" transform="matrix(-0.7071 0.7071 -0.7071 -0.7071 562.5184 390.0542)" style="fill:#A17852;" width="480.281" height="86.752"/>
<rect x="358.853" y="120.268" transform="matrix(-0.7071 0.7071 -0.7071 -0.7071 764.3995 -61.0319)" style="fill:#C8C6CD;" width="71.973" height="15.057"/>
<rect x="-24.334" y="305.161" transform="matrix(-0.7071 0.7071 -0.7071 -0.7071 599.524 405.3729)" style="fill:#715539;" width="480.281" height="43.381"/>
<rect x="89.97" y="363.613" transform="matrix(-0.7071 0.7071 -0.7071 -0.7071 467.0608 620.5161)" style="fill:#C8C6CD;" width="30.094" height="86.752"/>
<g>
	
		<rect x="344.595" y="86.563" transform="matrix(-0.7071 0.7071 -0.7071 -0.7071 721.685 5.7967)" style="fill:#8B8992;" width="30.094" height="131.603"/>
	
		<rect x="98.65" y="407.287" transform="matrix(0.7071 0.7071 -0.7071 0.7071 333.8824 38.605)" style="fill:#8B8992;" width="43.381" height="30.094"/>
</g>
<rect x="367.856" y="142.722" transform="matrix(-0.7071 0.7071 -0.7071 -0.7071 777.8441 29.0636)" style="fill:#57555C;" width="30.094" height="65.813"/>
<g>
</g>
<g>
</g>
<g>
</g>
<g>
</g>
<g>
</g>
<g>
</g>
<g>
</g>
<g>
</g>
<g>
</g>
<g>
</g>
<g>
</g>
<g>
</g>
<g>
</g>
<g>
</g>
<g>
</g>
</svg>
