<svg id="Layer_1" enable-background="new 0 0 512 512" height="512" viewBox="0 0 512 512" width="512" xmlns="http://www.w3.org/2000/svg"><g><path d="m175.667 383.467c-25.989 0-47.134-21.145-47.134-47.134v-32.133c0-8.284 6.716-15 15-15s15 6.716 15 15v32.133c0 9.447 7.687 17.134 17.134 17.134 8.284 0 15 6.716 15 15s-6.715 15-15 15z" fill="#ffb428"/><path d="m175.667 190.667h-64.267c-8.284 0-15-6.716-15-15v-64.267c0-8.284 6.716-15 15-15h64.267c8.284 0 15 6.716 15 15v64.267c0 8.284-6.715 15-15 15z" fill="#00358f"/><path d="m432.734 190.667h-192.8c-8.284 0-15-6.716-15-15s6.716-15 15-15h192.8c8.284 0 15 6.716 15 15s-6.716 15-15 15z" fill="#004ec8"/><path d="m47.134 479.866c-25.989 0-47.134-21.143-47.134-47.132v-192.8c0-43.708 35.559-79.267 79.267-79.267h160.667c8.284 0 15 6.716 15 15v64.267c0 43.708-35.559 79.267-79.267 79.267h-64.267c-9.464 0-17.134 7.657-17.134 17.133v96.4c.001 25.989-21.143 47.132-47.132 47.132z" fill="#ff6378"/><path d="m191.734 126.401h-112.467c-3.979 0-7.794-1.58-10.606-4.394l-64.267-64.267c-4.29-4.29-5.573-10.741-3.252-16.347 2.322-5.605 7.791-9.26 13.858-9.26h176.733c25.989 0 47.133 21.144 47.133 47.133.001 26.031-21.058 47.135-47.132 47.135z" fill="#00b4fc"/><path d="m304.201 287.067c-8.284 0-15-6.716-15-15v-192.8c0-8.284 6.716-15 15-15s15 6.716 15 15v192.8c0 8.284-6.716 15-15 15z" fill="#0073f9"/><path d="m368.467 254.934c-8.284 0-15-6.716-15-15v-128.533c0-8.284 6.716-15 15-15s15 6.716 15 15v128.533c0 8.284-6.716 15-15 15z" fill="#0073f9"/><path d="m464.867 222.8c-25.989 0-47.133-21.144-47.133-47.133s21.144-47.134 47.133-47.134 47.133 21.145 47.133 47.134-21.144 47.133-47.133 47.133z" fill="#00f4ff"/><path d="m47.134 479.866c-25.989 0-47.134-21.143-47.134-47.132v-192.8h254.934c0 43.708-35.559 79.267-79.267 79.267h-64.267c-9.464 0-17.134 7.657-17.134 17.133v96.4c.001 25.989-21.143 47.132-47.132 47.132z" fill="#d000b1"/><path d="m464.867 222.8c-25.989 0-47.133-21.144-47.133-47.133h94.266c0 25.989-21.144 47.133-47.133 47.133z" fill="#00b4fc"/><path d="m25.92 79.267 42.74 42.74c2.813 2.813 6.628 4.394 10.606 4.394h112.467c26.074 0 47.133-21.104 47.133-47.134z" fill="#0073f9"/><g clip-rule="evenodd" fill-rule="evenodd"><circle cx="159.6" cy="239.934" fill="#d000b1" r="15"/><circle cx="95.334" cy="239.934" fill="#d000b1" r="15"/><path d="m144.6 239.934c0 8.279 6.722 15 15 15 8.279 0 15-6.721 15-15z" fill="#9330a0"/><path d="m80.334 239.934c0 8.279 6.722 15 15 15 8.279 0 15-6.721 15-15z" fill="#9330a0"/></g></g></svg>