<svg height="512pt" viewBox="0 -16 512 512" width="512pt" xmlns="http://www.w3.org/2000/svg"><path d="m165.25 73.59375c-23.21875-45.394531-69.304688-73.59375-120.25-73.59375h-36.210938l25.605469 25.605469c16.273438 16.273437 25.605469 38.804687 25.605469 61.816406v20.992187zm0 0" fill="#61729b"/><path d="m255 390c-42.363281 0-79.820312-26.996094-93.207031-67.179688l-1.6875-5.066406 28.449219-9.519531 1.699218 5.082031c9.300782 27.933594 35.316406 46.683594 64.746094 46.683594zm0 0" fill="#47568c"/><path d="m179.222656 460.253906c-15.4375-46.363281-14.5-97.074218 2.636719-142.808594l-109.410156-36.914062c-27.769531 53.058594-42.449219 112.75-42.449219 172.632812v26.835938h155.816406zm0 0" fill="#47568c"/><path d="m446.902344 168.300781v53.398438l-67.5 33.898437-13.503906-26.699218v-67.796876l13.503906-26.703124zm0 0" fill="#bbdcff"/><path d="m446.902344 195v26.699219l-67.5 33.898437-13.503906-26.699218v-33.898438zm0 0" fill="#9abadb"/><path d="m368 195c0 26.699219 4.800781 53.398438 14.699219 78.601562-39 35.398438-104.296875 56.398438-172.699219 56.398438-117.898438 0-210-59.402344-210-135 0-75.601562 92.101562-135 210-135 68.402344 0 133.699219 21 172.699219 56.398438-9.898438 25.199218-14.699219 51.902343-14.699219 78.601562zm0 0" fill="#da90f8"/><path d="m382.699219 273.601562c-39 35.398438-104.296875 56.398438-172.699219 56.398438-117.898438 0-210-59.402344-210-135h368c0 26.699219 4.800781 53.398438 14.699219 78.601562zm0 0" fill="#b760ea"/><path d="m467 150c-24.902344 0-45 20.097656-45 45 0 24.898438 20.097656 45 45 45s45-20.101562 45-45c0-24.902344-20.097656-45-45-45zm0 0" fill="#e0f4ff"/><path d="m480.183594 115.605469-40.605469-40.605469 30-30-19.394531-19.394531 21.210937-21.210938 40.605469 40.605469-30 30 19.394531 19.394531zm0 0" fill="#a8ebfa"/><path d="m480.183594 385.605469-40.605469-40.605469 30-30-19.394531-19.394531 21.210937-21.210938 40.605469 40.605469-30 30 19.394531 19.394531zm0 0" fill="#7ed8f6"/><path d="m512 195c0 24.898438-20.097656 45-45 45s-45-20.101562-45-45zm0 0" fill="#bbdcff"/><path d="m382.398438 195c0 39 12.003906 78.300781 36.601562 111l-24 18c-28.5-37.800781-42.601562-83.402344-42.601562-129 0-45.601562 14.101562-91.199219 42.601562-129l24 18c-24.597656 32.699219-36.601562 72-36.601562 111zm0 0" fill="#61729b"/><path d="m382.398438 195c0 39 12.003906 78.300781 36.601562 111l-24 18c-28.5-37.800781-42.601562-83.402344-42.601562-129zm0 0" fill="#47568c"/><path d="m90 150v90h210v-90zm0 0" fill="#61729b"/><path d="m90 195h210v45h-210zm0 0" fill="#47568c"/><path d="m120 180h30v30h-30zm0 0" fill="#e0f4ff"/><path d="m180 180h30v30h-30zm0 0" fill="#e0f4ff"/><path d="m240 180h30v30h-30zm0 0" fill="#e0f4ff"/><g fill="#bbdcff"><path d="m120 195h30v15h-30zm0 0"/><path d="m180 195h30v15h-30zm0 0"/><path d="m240 195h30v15h-30zm0 0"/></g></svg>