<svg id="_01-dynamite" height="512" viewBox="0 0 64 64" width="512" xmlns="http://www.w3.org/2000/svg" data-name="01-dynamite"><path d="m51.279 23.82c-.76.76-2.63.14-4.16-1.39s-2.149-3.4-1.389-4.16 2.629-.15 4.169 1.38 2.15 3.4 1.38 4.17z" fill="#c22544"/><path d="m45.73 23.82c-.76.76-2.63.14-4.16-1.39s-2.15-3.4-1.39-4.16 2.63-.15 4.17 1.38 2.15 3.4 1.38 4.17z" fill="#c22544"/><path d="m45.73 18.27c-.76.76-2.63.14-4.16-1.389s-2.15-3.4-1.39-4.16 2.63-.15 4.17 1.38 2.15 3.399 1.38 4.169z" fill="#c22544"/><path d="m38.6 14.3c.6 1.06.71 2.07.2 2.58-.77.77-2.64.14-4.17-1.39s-2.15-3.4-1.39-4.16 2.63-.15 4.17 1.39a6.424 6.424 0 0 1 1.19 1.58z" fill="#c22544"/><path d="m52.669 30.76c-.76.76-2.63.14-4.16-1.39s-2.16-3.4-1.39-4.17c.51-.51 1.52-.4 2.58.2a6.424 6.424 0 0 1 1.58 1.19c1.54 1.54 2.16 3.4 1.39 4.17z" fill="#c22544"/><path d="m45.73 29.37c-.76.76-2.63.14-4.16-1.39s-2.15-3.4-1.39-4.16 2.63-.15 4.17 1.38a7.027 7.027 0 0 1 1.2 1.58c.59 1.07.7 2.07.18 2.59z" fill="#c22544"/><path d="m37.22 18.45a7.027 7.027 0 0 1 1.58 1.2c1.53 1.54 2.15 3.4 1.38 4.17s-2.63.14-4.16-1.39-2.15-3.4-1.39-4.16c.52-.52 1.52-.41 2.59.18z" fill="#c22544"/><path d="m38.17 36.93a1.844 1.844 0 0 0 .51.19l6.36 1.27-5.55 5.55-6.36-1.27a2.063 2.063 0 0 1 -.54-.2 1.96 1.96 0 0 1 -.46-.34l-5.13-5.13-5.13-5.13a1.96 1.96 0 0 1 -.34-.46 2.063 2.063 0 0 1 -.2-.54l-1.27-6.36 5.55-5.55 1.27 6.36a1.844 1.844 0 0 0 .19.51 2.09 2.09 0 0 0 .35.49l5.13 5.13 5.13 5.13a2.09 2.09 0 0 0 .49.35z" fill="#453a38"/><path d="m25.68 49.42a1.844 1.844 0 0 0 .51.19l6.36 1.27-5.55 5.549-6.36-1.269a2.063 2.063 0 0 1 -.54-.2 2.1 2.1 0 0 1 -.46-.34l-5.13-5.13-5.13-5.13a2.1 2.1 0 0 1 -.34-.46 2.063 2.063 0 0 1 -.2-.54l-1.269-6.36 5.549-5.55 1.27 6.36a1.844 1.844 0 0 0 .19.51 2.09 2.09 0 0 0 .35.49l5.13 5.13 5.13 5.13a2.09 2.09 0 0 0 .49.35z" fill="#453a38"/><path d="m38.8 19.65 1.38-1.38c-.76.76-.14 2.63 1.39 4.16s3.4 2.15 4.16 1.39l-1.38 1.38c-1.54-1.53-3.4-2.15-4.17-1.38.77-.77.15-2.63-1.38-4.17z" fill="#a51f44"/><path d="m44.35 19.65 1.38-1.38c-.76.76-.14 2.63 1.389 4.16s3.4 2.15 4.16 1.39l-1.579 1.58c-1.06-.6-2.07-.71-2.58-.2l-1.57 1.58a7.027 7.027 0 0 0 -1.2-1.58l1.38-1.38c.77-.77.15-2.63-1.38-4.17z" fill="#7d1936"/><path d="m40.18 18.27-1.38 1.38a7.027 7.027 0 0 0 -1.58-1.2l1.58-1.569c.51-.51.4-1.52-.2-2.58l1.58-1.58c-.76.76-.14 2.63 1.39 4.16s3.4 2.149 4.16 1.389l-1.38 1.38c-1.54-1.53-3.4-2.15-4.17-1.38z" fill="#7d1936"/><path d="m48.509 29.37c1.53 1.53 3.4 2.15 4.16 1.39l-7.629 7.63-6.36-1.27a1.844 1.844 0 0 1 -.51-.19l7.56-7.56c.52-.52.41-1.52-.18-2.59l1.569-1.58c-.77.77-.14 2.64 1.39 4.17z" fill="#a51f44"/><path d="m39.49 43.94-6.94 6.94-6.36-1.27a1.844 1.844 0 0 1 -.51-.19l6.87-6.87.04-.08a2.063 2.063 0 0 0 .54.2z" fill="#a51f44"/><path d="m27 56.429-6.24 6.24c-.77.77-2.63.15-4.17-1.39a7.057 7.057 0 0 1 -1.2-1.57l4.67-4.669.04-.08a2.063 2.063 0 0 0 .54.2z" fill="#a51f44"/><path d="m9.04 43.9-.08.04-4.669 4.67a7.057 7.057 0 0 1 -1.57-1.2c-1.54-1.54-2.16-3.4-1.39-4.17l6.24-6.24 1.269 6.36a2.063 2.063 0 0 0 .2.54z" fill="#ff405b"/><path d="m21.53 31.41-.08.04-6.87 6.87a1.844 1.844 0 0 1 -.19-.51l-1.27-6.36 6.94-6.94 1.27 6.36a2.063 2.063 0 0 0 .2.54z" fill="#ff405b"/><path d="m34.63 15.491c1.53 1.53 3.4 2.16 4.17 1.39l-1.58 1.569c-1.07-.59-2.07-.7-2.59-.18l-7.56 7.56a1.844 1.844 0 0 1 -.19-.51l-1.27-6.36 7.63-7.629c-.76.76-.14 2.63 1.39 4.16z" fill="#ff405b"/><path d="m32.55 31.45 7.63-7.63c-.76.76-.14 2.63 1.39 4.16s3.4 2.15 4.16 1.39l-7.56 7.56a2.09 2.09 0 0 1 -.49-.35z" fill="#b92942"/><path d="m40.18 23.82-7.63 7.63-5.13-5.13a2.09 2.09 0 0 1 -.35-.49l7.56-7.56c-.76.76-.14 2.63 1.39 4.16s3.4 2.15 4.16 1.39z" fill="#db2346"/><path d="m20.1 54.96-.04.08-4.67 4.669-1.57 1.57c-.77.77-2.63.15-4.17-1.38s-2.15-3.399-1.38-4.169l6.24-6.24 5.13 5.13a2.1 2.1 0 0 0 .46.34z" fill="#b92942"/><path d="m14.51 49.49-6.24 6.24c-.769.769-2.629.15-4.169-1.38s-2.15-3.4-1.38-4.17l1.57-1.57 4.669-4.67.08-.04a2.1 2.1 0 0 0 .34.46z" fill="#db2346"/><path d="m32.59 42.47-.04.08-6.87 6.87a2.09 2.09 0 0 1 -.49-.35l-5.13-5.13 6.94-6.94 5.13 5.13a1.96 1.96 0 0 0 .46.34z" fill="#b92942"/><path d="m27 37-6.94 6.94-5.13-5.13a2.09 2.09 0 0 1 -.35-.49l6.87-6.87.08-.04a1.96 1.96 0 0 0 .34.46z" fill="#db2346"/><path d="m27 37 5.55-5.55-5.13-5.13a2.127 2.127 0 0 1 -.308-.432l-5.556 5.556a1.957 1.957 0 0 0 .314.426z" fill="#251d1a"/><path d="m27.07 25.83a1.844 1.844 0 0 1 -.19-.51l-1.27-6.36-5.55 5.55 1.27 6.36a2.063 2.063 0 0 0 .2.54c.007.013.019.022.026.034l5.556-5.556c-.012-.02-.031-.036-.042-.058z" fill="#382d2b"/><path d="m37.68 36.58-5.13-5.13-5.55 5.55 5.13 5.13a1.957 1.957 0 0 0 .426.314l5.556-5.556a2.127 2.127 0 0 1 -.432-.308z" fill="#251d1a"/><path d="m38.17 36.93c-.022-.011-.038-.03-.058-.042l-5.556 5.556c.012.007.021.019.034.026a2.063 2.063 0 0 0 .54.2l6.36 1.27 5.55-5.55-6.36-1.27a1.844 1.844 0 0 1 -.51-.19z" fill="#1e1613"/><path d="m20.1 54.96a2.061 2.061 0 0 0 .54.2l6.36 1.27 5.55-5.55-6.36-1.27a1.844 1.844 0 0 1 -.51-.19c-.021-.011-.037-.03-.058-.042l-5.556 5.556c.012.007.022.019.034.026z" fill="#1e1613"/><path d="m14.58 38.32a1.844 1.844 0 0 1 -.19-.51l-1.27-6.36-5.55 5.55 1.27 6.36a2.063 2.063 0 0 0 .2.54c.007.012.019.022.026.034l5.556-5.556c-.012-.021-.031-.037-.042-.058z" fill="#382d2b"/><path d="m14.93 38.81a2.127 2.127 0 0 1 -.308-.432l-5.556 5.556a2.069 2.069 0 0 0 .314.426l5.13 5.13 5.55-5.55z" fill="#251d1a"/><path d="m20.06 43.94-5.55 5.55 5.13 5.13a2.069 2.069 0 0 0 .426.314l5.556-5.556a2.127 2.127 0 0 1 -.432-.308z" fill="#251d1a"/><path d="m49.509 28.37a4.829 4.829 0 0 1 -1.7-3.477 1.15 1.15 0 0 0 -.693.307c-.771.77-.141 2.64 1.389 4.17s3.4 2.15 4.16 1.39a1.169 1.169 0 0 0 .31-.7 4.837 4.837 0 0 1 -3.466-1.69z" fill="#8f1d3e"/><path d="m42.57 21.43a4.837 4.837 0 0 1 -1.694-3.469 1.162 1.162 0 0 0 -.7.309c-.76.76-.14 2.63 1.39 4.16s3.4 2.15 4.159 1.39a1.157 1.157 0 0 0 .31-.7 4.837 4.837 0 0 1 -3.465-1.69z" fill="#8f1d3e"/><path d="m48.12 21.43a4.837 4.837 0 0 1 -1.694-3.469 1.168 1.168 0 0 0 -.7.309c-.759.76-.139 2.63 1.391 4.16s3.4 2.15 4.159 1.39a1.169 1.169 0 0 0 .31-.7 4.834 4.834 0 0 1 -3.466-1.69z" fill="#a51f44"/><path d="m42.57 15.88a4.834 4.834 0 0 1 -1.694-3.469 1.169 1.169 0 0 0 -.7.31c-.76.76-.14 2.63 1.39 4.159s3.4 2.15 4.159 1.39a1.157 1.157 0 0 0 .31-.7 4.837 4.837 0 0 1 -3.465-1.69z" fill="#a51f44"/><g fill="#8f1d3e"><path d="m35.63 14.491a4.837 4.837 0 0 1 -1.694-3.47 1.169 1.169 0 0 0 -.7.31c-.76.76-.14 2.63 1.39 4.16s3.4 2.16 4.17 1.389a1.15 1.15 0 0 0 .307-.693 4.829 4.829 0 0 1 -3.473-1.696z"/><path d="m42.57 26.98a4.837 4.837 0 0 1 -1.694-3.469 1.162 1.162 0 0 0 -.7.309c-.76.76-.14 2.63 1.39 4.16s3.4 2.15 4.159 1.39a1.165 1.165 0 0 0 .315-.7 4.824 4.824 0 0 1 -3.47-1.69z"/><path d="m37.02 21.43a4.824 4.824 0 0 1 -1.693-3.474 1.169 1.169 0 0 0 -.7.314c-.76.76-.14 2.63 1.39 4.16s3.4 2.15 4.16 1.39a1.162 1.162 0 0 0 .309-.7 4.837 4.837 0 0 1 -3.466-1.69z"/><path d="m39.627 21.927c-.367.367-1.271.068-2.01-.672s-1.039-1.644-.672-2.011 1.271-.073 2.015.667a3.371 3.371 0 0 1 .58.764c.285.517.338 1 .087 1.252z"/><path d="m44.627 26.927c-.367.367-1.271.068-2.01-.672s-1.039-1.644-.672-2.011 1.271-.073 2.015.667a3.371 3.371 0 0 1 .58.764c.285.517.338 1 .087 1.252z"/><path d="m51.627 28.927c-.367.367-1.271.068-2.01-.672s-1.039-1.644-.672-2.011 1.271-.073 2.015.667a3.371 3.371 0 0 1 .58.764c.285.517.338 1 .087 1.252z"/><path d="m37.627 14.927c-.367.367-1.271.068-2.01-.672s-1.039-1.644-.672-2.011 1.271-.073 2.015.667a3.371 3.371 0 0 1 .58.764c.285.517.338 1 .087 1.252z"/><path d="m44.627 21.927c-.367.367-1.271.068-2.01-.672s-1.039-1.644-.672-2.011 1.271-.073 2.015.667a3.371 3.371 0 0 1 .58.764c.285.517.338 1 .087 1.252z"/></g><path d="m8.84 43.36-.532-2.668-.738-3.692-1.47 1.467.567 2.552a2 2 0 0 1 -.538 1.848l-3.945 3.949a7.935 7.935 0 0 0 .537.594 7.057 7.057 0 0 0 1.57 1.2l3.327-3.328 1.342-1.342.08-.04a2.063 2.063 0 0 1 -.2-.54z" fill="#c92c48"/><path d="m21.33 30.87-.53-2.67-.74-3.69-1.8 1.8.528 2.641a2 2 0 0 1 -.547 1.807l-4.385 4.385.532 2.668a1.844 1.844 0 0 0 .19.51l5.07-5.07 1.8-1.8.08-.04a2.063 2.063 0 0 1 -.198-.541z" fill="#c92c48"/><path d="m34.63 15.491c-.192-.192-.369-.39-.532-.589l-7.751 7.751.533 2.667a1.844 1.844 0 0 0 .19.51l7.56-7.56c.52-.52 1.52-.41 2.59.18l1.58-1.57c-.77.771-2.64.141-4.17-1.389z" fill="#c92c48"/><path d="m48.509 29.37c-1.53-1.53-2.16-3.4-1.389-4.17l-1.571 1.58c.591 1.07.7 2.07.18 2.59l-7.559 7.56a1.844 1.844 0 0 0 .51.19l2.667.533 7.753-7.753c-.2-.161-.4-.338-.591-.53z" fill="#8f1d3e"/><path d="m35.8 43.2-2.67-.53a2.063 2.063 0 0 1 -.54-.2l-.04.08-1.8 1.8-5.07 5.07a1.844 1.844 0 0 0 .51.19l2.668.532 4.385-4.385a2 2 0 0 1 1.807-.547l2.641.528 1.8-1.8z" fill="#8f1d3e"/><path d="m23.308 55.692-2.668-.533a2.061 2.061 0 0 1 -.54-.2l-.04.079-1.31 1.312-3.36 3.359a7.057 7.057 0 0 0 1.2 1.57 7.935 7.935 0 0 0 .594.537l4.059-4.059a2 2 0 0 1 1.807-.547l2.641.528 1.309-1.308z" fill="#8f1d3e"/><path d="m9.38 44.36a2.1 2.1 0 0 1 -.34-.46l-.08.04-2.51 2.51 2.136 2.136a2 2 0 0 1 0 2.828l-3.647 3.647c1.325.983 2.7 1.3 3.332.668l6.239-6.239z" fill="#a51f44"/><path d="m19.64 54.62-5.13-5.13-2.51 2.51 2.086 2.086a2 2 0 0 1 0 2.828l-3.655 3.655c1.343 1.017 2.746 1.354 3.389.71l1.57-1.57 4.67-4.67.04-.079a2.1 2.1 0 0 1 -.46-.34z" fill="#8f1d3e"/><path d="m27 37-5.13-5.13a1.96 1.96 0 0 1 -.34-.46l-.08.04-2 2 2.136 2.136a2 2 0 0 1 0 2.828l-3.526 3.526 2 2z" fill="#a51f44"/><path d="m32.13 42.13-5.13-5.13-2 2 2.086 2.086a2 2 0 0 1 0 2.828l-3.526 3.526 1.63 1.63a2.09 2.09 0 0 0 .49.35l6.87-6.87.04-.08a1.96 1.96 0 0 1 -.46-.34z" fill="#a51f44"/><path d="m42.349 28.651-6.3 6.3 1.63 1.63a2.09 2.09 0 0 0 .49.35l7.559-7.56c-.628.634-2.041.296-3.379-.72z" fill="#a51f44"/><path d="m36.857 23.143-6.307 6.307 2 2 7.63-7.63c-.626.626-2.002.305-3.323-.677z" fill="#a51f44"/><path d="m11.861 43.093h7.849v4.243h-7.849z" fill="#1e1613" transform="matrix(.707 -.707 .707 .707 -27.348 24.405)"/><path d="m24.351 30.604h7.849v4.243h-7.849z" fill="#1e1613" transform="matrix(.707 -.707 .707 .707 -14.859 29.578)"/><path d="m63 .5a.5.5 0 0 0 -.5.5v1.027a8.52 8.52 0 0 1 -3.964 7.221l-6.682 4.252h-14.854a.5.5 0 0 0 0 1h12.746l-11.958 5.581a.5.5 0 0 0 .212.953.494.494 0 0 0 .211-.047l12.326-5.753-7.256 10.481a.5.5 0 0 0 .823.57l7.1-10.259-.7 4.9-.857 6a.5.5 0 0 0 .424.566.436.436 0 0 0 .072 0 .5.5 0 0 0 .494-.429l.857-6 .968-6.773 6.61-4.206a9.517 9.517 0 0 0 4.428-8.057v-1.027a.5.5 0 0 0 -.5-.5z" fill="#382d2b"/><rect fill="#ff405b" height="3.088" rx="1.544" transform="matrix(.707 -.707 .707 .707 -8.098 29.45)" width="7.206" x="27.897" y="22.956"/><rect fill="#db2346" height="3.088" rx="1.544" transform="matrix(.707 -.707 .707 .707 -10.376 34.95)" width="7.206" x="33.397" y="28.456"/><path d="m32.048 14.952a1.544 1.544 0 0 0 -2.184 0l-2.912 2.912a1.543 1.543 0 0 0 1.658 2.526l3.78-3.78a1.544 1.544 0 0 0 -.342-1.658z" fill="#ff788a"/><path d="m19.917 33.917c-.016.015-.037.02-.053.035l-2.912 2.912a1.544 1.544 0 1 0 2.184 2.184l2.864-2.859a1.988 1.988 0 0 0 -.409-.6z" fill="#ff405b"/><path d="m25.417 39.417c-.016.015-.037.02-.053.035l-2.912 2.912a1.544 1.544 0 1 0 2.184 2.184l2.864-2.859a1.988 1.988 0 0 0 -.409-.6z" fill="#db2346"/><path d="m22.048 33.952a1.538 1.538 0 0 0 -2.131-.035l1.669 1.669a1.988 1.988 0 0 1 .409.6l.053-.053a1.544 1.544 0 0 0 0-2.181z" fill="#db2346"/><path d="m27.548 39.452a1.538 1.538 0 0 0 -2.131-.035l1.669 1.669a1.988 1.988 0 0 1 .409.6l.053-.053a1.544 1.544 0 0 0 0-2.181z" fill="#b92942"/></svg>