<svg id="Flat" height="512" viewBox="0 0 512 512" width="512" xmlns="http://www.w3.org/2000/svg"><g fill="#ded9af"><path d="m64 301.588 90.51-45.255 101.823 101.823-45.255 90.51z"/><path d="m83.137 373.21h64v48.638h-64z" transform="matrix(.707 .707 -.707 .707 314.818 35.019)"/><path d="m228.049 171.48 16.97-16.97 62.226-5.657 56.568 56.568-5.657 62.226-16.97 16.97z"/></g><path d="m399.97 199.534h13.976v16h-13.976z" fill="#ccdce5" transform="matrix(.707 -.707 .707 .707 -27.553 348.548)"/><path d="m427.114 198.692-11.314-11.314a198.086 198.086 0 0 0 55.286-109.1l15.814 2.433a214.2 214.2 0 0 1 -59.786 117.981z" fill="#ccdce5"/><path d="m148.853 420.382-56.569-56.569 249.975-249.975a172.581 172.581 0 0 1 106.407-49.838 172.581 172.581 0 0 1 -49.838 106.407z" fill="#8d8d54"/><path d="m274.073 194.593h72v16h-72z" fill="#ded9af" transform="matrix(.707 -.707 .707 .707 -52.437 278.593)"/><path d="m448.666 64a172.581 172.581 0 0 0 -106.407 49.838l-6.73 6.731 56.571 56.568 6.73-6.73a172.581 172.581 0 0 0 49.836-106.407z" fill="#ded9af"/><path d="m113.539 335.127h48v80h-48z" fill="#6a6a33" transform="matrix(.707 -.707 .707 .707 -224.971 207.127)"/><path d="m123.48 333.186h96v16h-96z" fill="#ded9af" transform="matrix(.707 -.707 .707 .707 -191.029 221.186)"/></svg>