<svg height="512pt" viewBox="-2 0 512 512.00008" width="512pt" xmlns="http://www.w3.org/2000/svg"><path d="m164.882812 342.480469c-12.597656-12.597657-33.09375-12.597657-45.691406 0-.003906 0-.003906 0-.003906 0-9.546875 9.546875-105.320312 136.167969-117.511719 151.875-2.296875 2.960937-2.226562 7.242187.171875 10.121093 2.75 3.296876 7.765625 3.851563 11.160156 1.214844 15.710938-12.191406 142.328126-107.96875 151.875-117.515625 12.601563-12.597656 12.601563-33.09375 0-45.695312zm0 0" fill="#ffab6f"/><path d="m130.613281 353.90625c6.308594-6.308594 16.539063-6.308594 22.847657 0 6.308593 6.308594 6.308593 16.539062 0 22.847656-4.953126 4.953125-33.816407 19.730469-45.992188 25.855469-1.738281.875-3.585938-.972656-2.710938-2.710937 6.121094-12.175782 20.902344-41.039063 25.855469-45.992188zm0 0" fill="#fcd25e"/><path d="m259.382812 293.679688c-.289062-1.464844-3.113281-3.4375-4.539062-3.867188-1.425781-.433594-2.972656-.046875-4.027344 1.007812l-54.261718 54.265626 54.261718 54.261718c1.554688 1.554688 4.15625 1.554688 5.710938 0l17.136718-17.136718c.953126-.953126 1.367188-2.324219 1.105469-3.648438zm0 0" fill="#3c7eff"/><path d="m417.570312 235.765625-15.386718-84.886719c-.292969-1.460937-3.113282-3.433594-4.539063-3.867187-1.425781-.433594-2.972656-.042969-4.027343 1.011719l-51.40625 51.40625c-.757813.757812-1.183594 1.785156-1.183594 2.855468 0 1.070313.425781 2.097656 1.183594 2.855469l51.40625 51.410156c1.554687 1.554688 4.15625 1.554688 5.710937 0l17.136719-17.136719c.957031-.957031 1.371094-2.324218 1.105468-3.648437zm0 0" fill="#3c7eff"/><path d="m213.6875 247.980469-84.886719-15.382813c-1.324219-.265625-2.695312.148438-3.648437 1.105469l-17.132813 17.136719c-1.554687 1.550781-1.554687 4.15625 0 5.710937l54.261719 54.261719s2.097656-2.097656 2.855469-2.855469l51.40625-51.40625c1.054687-1.054687 1.441406-2.601562 1.011719-4.027343-.433594-1.425782-2.40625-4.25-3.867188-4.542969zm0 0" fill="#6398ff"/><path d="m360.355469 109.722656c-.433594-1.425781-2.40625-4.25-3.867188-4.539062l-84.886719-15.386719c-1.324218-.269531-2.695312.148437-3.648437 1.105469l-17.136719 17.136718c-1.578125 1.578126-1.578125 4.132813 0 5.710938l51.410156 51.410156c.757813.753906 1.785157 1.179688 2.855469 1.179688 1.070313 0 2.097657-.425782 2.855469-1.179688l51.40625-51.410156c1.054688-1.054688 1.441406-2.601562 1.011719-4.027344zm0 0" fill="#6398ff"/><path d="m505 2.367188c-2.285156-2.2851568-5.710938-2.988282-8.710938-1.789063l-57.121093 22.847656c-1.015625.40625-1.9375 1.015625-2.710938 1.789063l-274.175781 274.175781c-3.15625 3.15625-3.15625 8.269531 0 11.421875l34.269531 34.273438c3.113281 3.109374 8.3125 3.109374 11.425781 0l274.175782-274.175782c.773437-.773437 1.382812-1.695312 1.789062-2.710937l22.847656-57.121094c1.199219-3 .496094-6.425781-1.789062-8.710937zm0 0" fill="#f0eef0"/><path d="m483.941406 68.199219 22.847656-57.121094c1.199219-3 .496094-6.425781-1.789062-8.710937-2.285156-2.2851568-5.710938-2.988282-8.710938-1.789063l-11.0625 4.425781-18.421874 46.058594c-.40625 1.015625-1.015626 1.9375-1.789063 2.714844l-274.171875 274.171875c-3.117188 3.113281-8.3125 3.113281-11.425781 0l17.136719 17.136719c3.113281 3.113281 8.3125 3.113281 11.425781 0l274.171875-274.175782c.773437-.773437 1.382812-1.695312 1.789062-2.710937zm0 0" fill="#d3ccd3"/><path d="m379.332031 82.335938 11.425781-11.421876 45.695313 45.695313-11.425781 11.421875zm0 0" fill="#ff75c9"/><path d="m407.894531 53.78125 11.425781-11.425781 45.695313 45.695312-11.425781 11.425781zm0 0" fill="#ff75c9"/><path d="m196.554688 345.085938-34.273438-34.273438c-3.152344-3.152344-3.152344-8.269531 0-11.421875l51.410156-51.410156 45.695313 45.699219-51.410157 51.40625c-3.15625 3.15625-8.269531 3.15625-11.421874 0zm0 0" fill="#8b788a"/><path d="m242.25 276.542969-51.410156 51.40625c-3.152344 3.15625-8.269532 3.15625-11.425782 0l17.136719 17.136719c3.15625 3.15625 8.269531 3.15625 11.425781 0l51.40625-51.40625zm0 0" fill="#6e566d"/><path d="m356.488281 105.179688 45.695313 45.695312-57.121094 57.117188-45.695312-45.695313zm0 0" fill="#8b788a"/><path d="m385.046875 133.738281 17.136719 17.136719-57.121094 57.121094-17.136719-17.136719zm0 0" fill="#6e566d"/><g fill="#fcd25e"><path d="m88.261719 335.789062c-2.066407 0-4.132813-.789062-5.710938-2.367187-3.15625-3.152344-3.15625-8.265625 0-11.421875l16.15625-16.15625c3.15625-3.152344 8.269531-3.152344 11.425781 0 3.152344 3.15625 3.152344 8.269531 0 11.421875l-16.15625 16.15625c-1.578124 1.578125-3.644531 2.367187-5.714843 2.367187zm0 0"/><path d="m11.523438 412.53125c-2.070313 0-4.136719-.789062-5.714844-2.367188-3.152344-3.15625-3.152344-8.269531 0-11.425781l50.488281-50.484375c3.15625-3.15625 8.269531-3.15625 11.425781 0 3.152344 3.152344 3.152344 8.265625 0 11.421875l-50.488281 50.488281c-1.578125 1.578126-3.644531 2.367188-5.710937 2.367188zm0 0"/><path d="m94.835938 512c-2.066407 0-4.132813-.789062-5.710938-2.367188-3.15625-3.152343-3.15625-8.265624 0-11.421874l52.507812-52.507813c3.152344-3.152344 8.265626-3.152344 11.421876 0 3.15625 3.15625 3.15625 8.269531 0 11.425781l-52.507813 52.503906c-1.574219 1.578126-3.640625 2.367188-5.710937 2.367188zm0 0"/><path d="m188.019531 475.9375c-2.066406 0-4.132812-.789062-5.710937-2.367188-3.15625-3.15625-3.15625-8.269531 0-11.425781l36.351562-36.347656c3.152344-3.15625 8.265625-3.15625 11.421875 0 3.15625 3.152344 3.15625 8.265625 0 11.421875l-36.351562 36.351562c-1.574219 1.578126-3.644531 2.367188-5.710938 2.367188zm0 0"/><path d="m33.105469 345.253906c-2.070313 0-4.136719-.789062-5.714844-2.367187-3.152344-3.15625-3.152344-8.269531 0-11.425781l48.46875-48.464844c3.15625-3.15625 8.269531-3.15625 11.425781 0 3.152344 3.152344 3.152344 8.265625 0 11.421875l-48.46875 48.46875c-1.578125 1.578125-3.644531 2.367187-5.710937 2.367187zm0 0"/><path d="m181.328125 436.929688c-2.066406 0-4.132813-.785157-5.710937-2.363282-3.15625-3.15625-3.15625-8.269531 0-11.425781l20.195312-20.195313c3.152344-3.152343 8.265625-3.152343 11.421875 0 3.15625 3.15625 3.15625 8.269532 0 11.425782l-20.195313 20.195312c-1.574218 1.578125-3.644531 2.363282-5.710937 2.363282zm0 0"/></g></svg>