<svg height="384pt" viewBox="0 0 384 384" width="384pt" xmlns="http://www.w3.org/2000/svg"><path d="m294 186c-81.703125 81.703125-126.800781 77.199219-150 54s-27.703125-68.296875 54-150c65.703125-65.703125 186-90 186-90s-24.296875 120.296875-90 186zm0 0" fill="#535d45"/><path d="m132 192 60 60.003906-36 36-60-60.003906zm0 0" fill="#8e965d"/><path d="m192 384-24-24 34.167969-34.167969c13.042969-13.042969 28.941406-22.871093 46.441406-28.703125l9.390625-3.128906-3.128906 9.390625c-5.832032 17.5-15.660156 33.398437-28.703125 46.441406zm0 0" fill="#283227"/><path d="m120 288-24-24 34.167969-34.167969c13.042969-13.042969 28.941406-22.871093 46.441406-28.703125l9.390625-3.128906-3.128906 9.390625c-5.832032 17.5-15.660156 33.398437-28.703125 46.441406zm0 0" fill="#283227"/><path d="m156 288 30 54 24-24-30-54zm0 0" fill="#8e965d"/><path d="m0 192 24 24 34.167969-34.167969c13.039062-13.03125 22.863281-28.917969 28.703125-46.398437l3.128906-9.394532-9.390625 3.128907c-17.484375 5.839843-33.371094 15.667969-46.402344 28.703125zm0 0" fill="#283227"/><path d="m96 228-54-30 24-24 54 30zm0 0" fill="#8e965d"/><g fill="#283227"><path d="m384 0c-39.890625 8.949219-78.566406 22.648438-115.199219 40.800781l74.398438 74.398438c18.152343-36.632813 31.851562-75.308594 40.800781-115.199219zm0 0"/><path d="m112 320c-24 64-112 64-112 64 48-24 48-64 48-64-24-8-48 16-48 16 16-64 64-64 64-64zm0 0"/><path d="m192 144c-1.390625.003906-2.753906-.363281-3.960938-1.054688-3.832031-2.195312-5.164062-7.078124-2.976562-10.914062 1.371094-2.398438 34.53125-59.0625 116.648438-83.695312 4.234374-1.269532 8.691406 1.136718 9.960937 5.367187 1.269531 4.234375-1.136719 8.691406-5.367187 9.960937-76.066407 22.816407-107.058594 75.777344-107.359376 76.335938-1.433593 2.480469-4.082031 4.003906-6.945312 4zm0 0"/></g></svg>