<svg height="464pt" viewBox="0 -76 464.25499 464" width="464pt" xmlns="http://www.w3.org/2000/svg"><path d="m112.253906 200.128906c-1.578125 0-3.125-.46875-4.4375-1.34375l-24-16c-2.933594-1.957031-4.242187-5.601562-3.21875-8.976562 1.019532-3.375 4.132813-5.683594 7.65625-5.679688h24c4.417969 0 8 3.582032 8 8v16c0 4.417969-3.582031 8-8 8zm0 0" fill="#fcb64d"/><path d="m112.253906 168.128906v16c0 2.949219-1.621094 5.660156-4.226562 7.054688-2.601563 1.390625-5.757813 1.238281-8.210938-.398438l-19.257812-12.839844c.429687 1.96875 1.59375 3.699219 3.257812 4.839844l24 16c2.453125 1.636719 5.609375 1.789063 8.210938.398438 2.605468-1.394532 4.226562-4.105469 4.226562-7.054688v-16c0-4.417968-3.582031-8-8-8zm0 0" fill="#faa629"/><path d="m94.496094 171.085938c-1.542969-1.859376-3.824219-2.941407-6.242188-2.957032h-56c-3.777344-.011718-7.046875 2.625-7.839844 6.320313l-.160156.71875-23.839844 108.558593c-1.324218 7.019532.554688 14.261719 5.117188 19.753907 4.566406 5.492187 11.34375 8.664062 18.484375 8.648437h36.71875c3.777344.007813 7.046875-2.628906 7.839844-6.320312l5.519531-25.679688 10.320312-48 1.761719-8 3.4375-16 4-18.882812 1.121094-5.117188 1.359375-6.320312c.496094-2.367188-.089844-4.832032-1.597656-6.722656zm0 0" fill="#05897b"/><path d="m158.414062 171.085938c-1.484374-1.882813-3.757812-2.976563-6.160156-2.957032h-64c-.867187.007813-1.730468.144532-2.558594.398438-1.003906.34375-1.929687.890625-2.71875 1.601562l-.722656.71875c-.773437.847656-1.347656 1.859375-1.679687 2.960938-.078125.398437-.160157.71875-.238281 1.117187l-2 9.203125-6.480469 30.320313c-.507813 2.363281.082031 4.832031 1.605469 6.714843 1.523437 1.878907 3.8125 2.96875 6.234374 2.964844h64.558594c3.804688 0 7.082032-2.675781 7.839844-6.402344l6.722656-33.597656 1.277344-6.402344c.476562-2.351562-.140625-4.792968-1.679688-6.640624zm-20.71875 37.042968h-48.082031l4-18.882812 1.121094-5.117188h47.761719zm0 0" fill="#05897b"/><path d="m93.613281 189.246094 1.121094-5.117188h38.160156l1.601563-8h-47.761719l-1.121094 5.117188-5.695312 26.882812h9.695312zm0 0" fill="#007a6c"/><path d="m158.414062 171.085938c-1.484374-1.882813-3.757812-2.976563-6.160156-2.957032h-.199218c.054687.53125.054687 1.066406 0 1.597656l-1.28125 6.402344-6.71875 33.597656c-.757813 3.710938-4.011719 6.382813-7.800782 6.402344h-58.078125l-1.761719 8-10.320312 48-5.519531 25.679688c-.792969 3.691406-4.0625 6.328125-7.839844 6.320312h-36.71875c-4.410156-.039062-8.722656-1.300781-12.457031-3.640625.585937 1.042969 1.25 2.046875 1.976562 3 4.574219 5.476563 11.34375 8.640625 18.480469 8.640625h36.71875c3.777344.007813 7.046875-2.628906 7.839844-6.320312l5.519531-25.679688 10.320312-48 1.761719-8h58.078125c3.804688 0 7.082032-2.675781 7.839844-6.402344l6.722656-33.597656 1.277344-6.402344c.476562-2.351562-.140625-4.792968-1.679688-6.640624zm0 0" fill="#007a6c"/><path d="m205.933594 138.449219c-.789063-.75-1.710938-1.347657-2.71875-1.761719-.4375-.179688-.894532-.316406-1.359375-.398438-.527344-.097656-1.0625-.152343-1.601563-.160156h-168c-4.417968 0-8 3.582032-8 8v32c0 4.417969 3.582032 8 8 8h168c4.417969 0 8-3.582031 8-8v-32c0-2.125-.832031-4.164062-2.320312-5.679687zm0 0" fill="#37474f"/><path d="m205.933594 138.449219c-.789063-.75-1.710938-1.347657-2.71875-1.761719-.4375-.179688-.894532-.316406-1.359375-.398438-.527344-.097656-1.0625-.152343-1.601563-.160156v32c0 4.417969-3.582031 8-8 8h-168c0 4.417969 3.582032 8 8 8h168c4.417969 0 8-3.582031 8-8v-32c0-2.125-.832031-4.164062-2.320312-5.679687zm0 0" fill="#263238"/><path d="m304.253906 72.128906h-33.359375c-2.335937.011719-4.550781 1.03125-6.078125 2.796875-1.5 1.804688-2.171875 4.160157-1.839844 6.480469.851563 4.863281 1.277344 9.785156 1.277344 14.722656 0 2.398438-.078125 4.796875-.320312 7.277344-.160156 1.761719-.320313 3.519531-.636719 5.28125-.070313.726562-.175781 1.445312-.320313 2.160156v.320313c-.25 2.21875.414063 4.441406 1.839844 6.160156 1.527344 1.765625 3.742188 2.789063 6.078125 2.800781h33.359375c4.417969 0 8-3.582031 8-8v-32c0-4.417968-3.582031-8-8-8zm0 0" fill="#37474f"/><path d="m304.253906 72.128906v32c0 4.417969-3.582031 8-8 8h-33.191406c-.082031 2.117188.707031 4.171875 2.191406 5.6875 1.480469 1.515625 3.523438 2.351563 5.640625 2.3125h33.359375c4.417969 0 8-3.582031 8-8v-32c0-4.417968-3.582031-8-8-8zm0 0" fill="#263238"/><path d="m347.296875 117.886719c-4.054687-14.222657-4.054687-29.296875 0-43.519531 0-.078126.078125-.160157.078125-.238282.621094-2.398437.09375-4.949218-1.425781-6.90625-1.519531-1.957031-3.859375-3.097656-6.335938-3.09375h-35.359375c-4.417968 0-8 3.582032-8 8v48c0 4.417969 3.582032 8 8 8h35.359375c2.519531 0 4.890625-1.1875 6.402344-3.203125 1.511719-2.011719 1.984375-4.621093 1.28125-7.039062zm0 0" fill="#05897b"/><path d="m347.296875 117.886719c-4.054687-14.222657-4.054687-29.296875 0-43.519531 0-.078126.078125-.160157.078125-.238282.621094-2.398437.09375-4.949218-1.425781-6.90625-1.519531-1.957031-3.859375-3.097656-6.335938-3.09375h-.160156c.074219.664063.054687 1.335938-.054687 2 0 .078125-.078126.160156-.078126.238282-4.054687 14.222656-4.054687 29.296874 0 43.519531.703126 2.421875.226563 5.035156-1.289062 7.050781s-3.894531 3.199219-6.417969 3.191406h-35.359375c0 4.417969 3.582032 8 8 8h35.359375c2.519531 0 4.890625-1.1875 6.402344-3.203125 1.511719-2.011719 1.984375-4.621093 1.28125-7.039062zm0 0" fill="#007a6c"/><path d="m424.253906.128906c-53.019531 0-96 42.980469-96 96 0 53.019532 42.980469 96 96 96 4.417969 0 8-3.582031 8-8v-176c0-4.417968-3.582031-8-8-8zm0 0" fill="#4cb6ac"/><path d="m424.253906.128906v176c0 4.417969-3.582031 8-8 8-23.621094-.058594-46.390625-8.820312-63.957031-24.609375 18.214844 20.664063 44.410156 32.535157 71.957031 32.609375 4.417969 0 8-3.582031 8-8v-176c0-4.417968-3.582031-8-8-8zm0 0" fill="#24a69a"/><path d="m456.253906.128906h-40v192h40c4.417969 0 8-3.582031 8-8v-176c0-4.417968-3.582031-8-8-8zm0 0" fill="#fcb64d"/><path d="m456.253906.128906v176c0 4.417969-3.582031 8-8 8h-32v8h40c4.417969 0 8-3.582031 8-8v-176c0-4.417968-3.582031-8-8-8zm0 0" fill="#faa629"/><path d="m261.933594 42.449219c-1.523438-1.476563-3.558594-2.304688-5.679688-2.320313h-224c-2.121094.015625-4.152344.84375-5.679687 2.320313-12.589844 14.976562-19.125 34.125-18.320313 53.679687-.480468 18.316406 5.148438 36.273438 16 51.039063 1.664063 2.894531 4.667969 4.757812 8 4.960937h224c.851563 0 1.695313-.160156 2.480469-.480468 1.210937-.324219 2.3125-.960938 3.199219-1.839844 12.367187-15.109375 18.871094-34.167969 18.320312-53.679688.5625-19.519531-5.945312-38.582031-18.320312-53.679687zm0 0" fill="#4cb6ac"/><path d="m261.933594 42.449219c-.964844-.875-2.121094-1.507813-3.375-1.859375 9.320312 14.074218 14.101562 30.664062 13.695312 47.539062.550782 19.511719-5.953125 38.570313-18.320312 53.679688-.886719.878906-1.988282 1.515625-3.199219 1.839844-.785156.320312-1.628906.480468-2.480469.480468h-224c-.8125 0-1.621094-.125-2.398437-.371094.902343 1.335938 1.75 2.523438 2.398437 3.410157 1.664063 2.894531 4.667969 4.757812 8 4.960937h224c.851563 0 1.695313-.160156 2.480469-.480468 1.210937-.324219 2.3125-.960938 3.199219-1.839844 12.367187-15.109375 18.871094-34.167969 18.320312-53.679688.5625-19.519531-5.945312-38.582031-18.320312-53.679687zm0 0" fill="#24a69a"/><path d="m280.253906 152.128906c-6.742187-.011718-13.441406 1.070313-19.839844 3.199219-5.105468 1.652344-9.972656 3.964844-14.480468 6.878906-1.714844 1.054688-3.371094 2.203125-4.957032 3.441407-24.648437 19.21875-31.792968 53.441406-16.894531 80.917968 14.898438 27.476563 47.476563 40.15625 77.03125 29.984375 29.554688-10.171875 47.425781-40.21875 42.257813-71.046875-5.167969-30.824218-31.859375-53.398437-63.117188-53.375zm0 0" fill="#fcb64d"/><g fill="#37474f"><path d="m56.253906 128.128906c-4.417968 0-8-3.582031-8-8v-48c0-4.417968 3.582032-8 8-8 4.417969 0 8 3.582032 8 8v48c0 4.417969-3.582031 8-8 8zm0 0"/><path d="m120.253906 128.128906c-4.417968 0-8-3.582031-8-8v-48c0-4.417968 3.582032-8 8-8 4.417969 0 8 3.582032 8 8v48c0 4.417969-3.582031 8-8 8zm0 0"/><path d="m88.253906 128.128906c-4.417968 0-8-3.582031-8-8v-48c0-4.417968 3.582032-8 8-8 4.417969 0 8 3.582032 8 8v48c0 4.417969-3.582031 8-8 8zm0 0"/><path d="m152.253906 128.128906c-4.417968 0-8-3.582031-8-8v-48c0-4.417968 3.582032-8 8-8 4.417969 0 8 3.582032 8 8v48c0 4.417969-3.582031 8-8 8zm0 0"/></g><path d="m88.253906 64.128906v48c0 4.417969-3.582031 8-8 8 0 4.417969 3.582032 8 8 8 4.417969 0 8-3.582031 8-8v-48c0-4.417968-3.582031-8-8-8zm0 0" fill="#263238"/><path d="m56.253906 64.128906v48c0 4.417969-3.582031 8-8 8 0 4.417969 3.582032 8 8 8 4.417969 0 8-3.582031 8-8v-48c0-4.417968-3.582031-8-8-8zm0 0" fill="#263238"/><path d="m120.253906 64.128906v48c0 4.417969-3.582031 8-8 8 0 4.417969 3.582032 8 8 8 4.417969 0 8-3.582031 8-8v-48c0-4.417968-3.582031-8-8-8zm0 0" fill="#263238"/><path d="m77.535156 264.128906-3.441406 16h-25.839844c-4.417968 0-8-3.582031-8-8 0-4.417968 3.582032-8 8-8zm0 0" fill="#37474f"/><path d="m84.414062 232.128906-3.4375 16h-24.722656c-4.417968 0-8-3.582031-8-8 0-4.417968 3.582032-8 8-8zm0 0" fill="#37474f"/><path d="m71.253906 248.128906h9.722656l3.4375-16h-9.71875zm0 0" fill="#263238"/><path d="m66.09375 272.128906-1.71875 8h9.71875l3.441406-16h-9.71875zm0 0" fill="#263238"/><path d="m277.199219 206.375c-1.390625 1.144531-3.140625 1.765625-4.945313 1.753906-1.769531.003906-3.488281-.585937-4.878906-1.679687l-59.121094-45.992188v-8.328125h15.28125l27.679688 21.519532-32.097656-69.519532h-66.863282c-4.417968 0-8-3.582031-8-8 0-4.417968 3.582032-8 8-8h72c3.117188.023438 5.945313 1.824219 7.28125 4.636719l48 104c1.53125 3.359375.566406 7.328125-2.335937 9.609375zm0 0" fill="#37474f"/><path d="m219.136719 104.128906h-66.882813v-8h63.121094c.320312.796875 1.761719 3.757813 3.761719 8zm0 0" fill="#263238"/><path d="m279.535156 196.765625c-34.558594-74.878906-44.71875-96.796875-47.28125-102.316406v-.082031l-.078125-.078126c.078125-.082031 0-.082031-.082031-.242187-.058594-.0625-.089844-.152344-.078125-.238281l-.242187-.480469c-.105469-.175781-.1875-.363281-.238282-.5625-1.257812-2.460937-3.65625-4.140625-6.398437-4.476563 3.679687 7.839844 14.796875 32.078126 46.398437 100.476563 1.53125 3.355469.570313 7.316406-2.320312 9.601563-1.394532 1.152343-3.152344 1.777343-4.960938 1.761718-1.769531.003906-3.488281-.585937-4.878906-1.679687l-51.121094-39.761719v1.761719l59.121094 46c1.390625 1.09375 3.109375 1.683593 4.878906 1.679687 1.808594.015625 3.566406-.609375 4.960938-1.761718 2.890625-2.285157 3.851562-6.246094 2.320312-9.601563zm0 0" fill="#263238"/><path d="m231.519531 92.777344.253907.550781zm0 0" fill="#263238"/><path d="m280.253906 192.128906c-.9375-.003906-1.875.074219-2.800781.238282-6.480469.730468-12.378906 4.082031-16.316406 9.28125-6.722657 8.882812-6.445313 21.226562.667969 29.804687 7.113281 8.574219 19.191406 11.125 29.167968 6.160156 9.972656-4.96875 15.21875-16.144531 12.664063-26.988281-2.558594-10.847656-12.238281-18.507812-23.382813-18.496094zm0 0" fill="#37474f"/><path d="m292.671875 195.710938c2.324219 3.726562 3.566406 8.023437 3.582031 12.417968-.039062 13.238282-10.761718 23.960938-24 24-4.390625-.019531-8.6875-1.261718-12.414062-3.585937 5.109375 8.5625 14.996094 13.054687 24.804687 11.273437 9.8125-1.777344 17.488281-9.457031 19.269531-19.265625 1.777344-9.8125-2.714843-19.695312-11.273437-24.808593zm0 0" fill="#263238"/><path d="m321.296875 167.085938c21.332031 25.394531 19.707031 62.886718-3.746094 86.339843-23.449219 23.453125-60.941406 25.078125-86.335937 3.742188 15.523437 18.585937 40.214844 26.804687 63.785156 21.238281 23.566406-5.566406 41.96875-23.96875 47.535156-47.535156s-2.65625-48.257813-21.238281-63.785156zm0 0" fill="#faa629"/><path d="m160.253906 88.128906v-16c0-4.417968-3.582031-8-8-8v24zm0 0" fill="#263238"/><path d="m152.253906 96.128906v16c0 4.417969-3.582031 8-8 8 0 4.417969 3.582032 8 8 8 4.417969 0 8-3.582031 8-8v-24zm0 0" fill="#263238"/></svg>