<?xml version="1.0" encoding="iso-8859-1"?>
<!-- Generator: Adobe Illustrator 19.0.0, SVG Export Plug-In . SVG Version: 6.00 Build 0)  -->
<svg version="1.1" id="Capa_1" xmlns="http://www.w3.org/2000/svg" xmlns:xlink="http://www.w3.org/1999/xlink" x="0px" y="0px"
	 viewBox="0 0 332.318 332.318" style="enable-background:new 0 0 332.318 332.318;" xml:space="preserve">
<path style="fill:#D94C53;" d="M17.165,230.449c-10.366,9.976-10.682,26.466-0.706,36.832c1.144,1.188,2.383,2.229,3.68,3.153
	c3.893-10.244,12.994-33.699,18.193-47.075C30.841,222.464,23.025,224.809,17.165,230.449z"/>
<path style="fill:#FE5B67;" d="M236.109,19.736c10.365-9.976,26.854-9.66,36.831,0.706c1.145,1.189,2.138,2.467,3.011,3.798
	c-10.387,3.497-34.172,11.694-47.738,16.377C227.607,33.097,230.25,25.376,236.109,19.736z"/>
<path style="fill:#304757;" d="M198.456,199.718c-78.656,82-165.044,112.957-165.044,112.957
	c69.288,5.572,156.09-52.043,191.627-86.832c35.536-34.789,95.527-117.271,92.613-186.722
	C317.652,39.121,283.41,124.26,198.456,199.718z"/>
<path style="fill:#FFE3D1;" d="M299.212,8.992l-111.728,37.48c-3.681,1.234-6.825,3.672-8.97,6.907
	c-6.48,9.775-23.712,33.479-57.438,65.937s-58.072,48.768-68.088,54.87c-3.314,2.02-5.871,5.07-7.246,8.699L4.01,293.095
	c-4.825,12.744,6.674,25.558,19.9,22.28c79.146-19.606,174.545-115.655,174.545-115.655s99.632-91.65,122.258-169.987
	C324.493,16.64,312.13,4.658,299.212,8.992z"/>
<path style="fill:#FE5B67;" d="M323.039,5.892c-4.936-0.239-9.243,3.25-10.075,8.121C299.69,91.792,191.708,192.706,191.708,192.706
	S86.731,296.741,8.502,307.028c-4.899,0.645-8.551,4.814-8.501,9.756c0.058,5.748,5.037,10.168,10.758,9.605
	c25.314-2.488,91.105-23.242,194.896-119.193C306.931,106.518,328.768,42.21,332.225,17.01
	C333.005,11.314,328.781,6.17,323.039,5.892z"/>
<path style="fill:#304757;" d="M38.455,33.466C1.856,68.689,0.741,126.912,35.963,163.511c5.986,6.221,12.648,11.391,19.744,15.557
	c26.261-14.981,98.369-60.404,127.783-122.407c-3.922-7.39-8.899-14.375-14.989-20.703C133.278-0.642,75.054-1.758,38.455,33.466z"
	/>
<circle style="fill:#FE5B67;" cx="156.979" cy="156.619" r="28.314"/>
<g>
	<path style="fill:#FEFEFE;" d="M48.243,25.29c-0.509,1.745-0.834,3.535-0.87,5.379c-0.325,16.954,20.369,31.1,46.221,31.595
		s47.072-12.847,47.397-29.801c0.15-7.801-4.188-14.986-11.393-20.542C102.47,3.493,72.166,7.895,48.243,25.29z"/>
	<path style="fill:#FEFEFE;" d="M137.342,136.215c-1.713,1.648-3.142,3.475-4.349,5.402c5.004,4.524,13.009,7.553,22.113,7.728
		c10.682,0.205,20.028-3.562,24.821-9.257c-0.775-1.074-1.604-2.123-2.551-3.105C166.531,125.715,148.608,125.372,137.342,136.215z"
		/>
</g>
<g>
</g>
<g>
</g>
<g>
</g>
<g>
</g>
<g>
</g>
<g>
</g>
<g>
</g>
<g>
</g>
<g>
</g>
<g>
</g>
<g>
</g>
<g>
</g>
<g>
</g>
<g>
</g>
<g>
</g>
</svg>
