<?xml version="1.0" encoding="iso-8859-1"?>
<!-- Generator: Adobe Illustrator 19.0.0, SVG Export Plug-In . SVG Version: 6.00 Build 0)  -->
<svg version="1.1" id="Capa_1" xmlns="http://www.w3.org/2000/svg" xmlns:xlink="http://www.w3.org/1999/xlink" x="0px" y="0px"
	 viewBox="0 0 356.963 356.963" style="enable-background:new 0 0 356.963 356.963;" xml:space="preserve">
<path style="fill:#304757;" d="M106.934,308.751l-49.113-46.217c-3.048-2.867-3.194-7.664-0.326-10.713l16.223-17.238l60.151,56.604
	l-16.223,17.238C114.778,311.474,109.981,311.621,106.934,308.751z"/>
<path style="fill:#4A6273;" d="M195.722,82.119l-74.693-0.566c-26.889-0.204-52.968,9.296-73.314,26.877
	c-12.598,10.885-26.787,24.205-39.084,38.362c-7.361,8.474-6.827,21.212,1.348,28.904l51.808,48.752L195.722,82.119z"/>
<path style="fill:#FE5B67;" d="M17.934,136.59c-3.18,3.335-6.299,6.742-9.303,10.201c-7.361,8.474-6.827,21.211,1.348,28.904
	l51.808,48.752l23.253-24.709C60.337,176.492,29.82,147.775,17.934,136.59z"/>
<path style="fill:#4A6273;" d="M278.748,160.249l5.101,74.521c1.836,26.827-6.063,53.436-22.376,74.811
	c-10.103,13.235-22.534,28.207-35.919,41.342c-8.014,7.861-20.76,8.103-28.934,0.409l-51.808-48.753L278.748,160.249z"/>
<path style="fill:#FE5B67;" d="M235.169,341.014c-3.135,3.376-6.346,6.696-9.615,9.905c-8.014,7.861-20.76,8.103-28.934,0.409
	l-51.808-48.753l23.253-24.709C192.766,301.112,223.284,329.831,235.169,341.014z"/>
<g>
	<path style="fill:#E0BEA8;" d="M260.28,42.232c0,0-9.51-0.415-20.06,0.734c-10.995,1.198-21.159,6.429-28.737,14.483
		L57.833,220.728l18.285,17.207L260.28,42.232z"/>
	<path style="fill:#E0BEA8;" d="M314.641,93.388c0,0,0.992,9.467,0.484,20.067c-0.527,11.047-5.132,21.51-12.712,29.564
		L148.765,306.297L130.48,289.09L314.641,93.388z"/>
</g>
<path style="fill:#FFEFE5;" d="M344.911,10.748c-0.123-0.177-0.249-0.354-0.376-0.531c-0.814-1.14-1.863-2.126-3.052-2.872
	c-0.178-0.112-0.357-0.223-0.535-0.333c-19.787-12.156-45.529-8.063-61.443,8.85L73.153,235.145l30.146,28.368l30.146,28.368
	l206.36-219.292C355.712,55.685,358.233,29.757,344.911,10.748z"/>
<path style="fill:#304757;" d="M135.853,228.918c-10.831-10.19-24.54-23.092-30.146-28.367l-32.554,34.595l30.146,28.368
	l30.146,28.367l32.554-34.594C160.393,252.012,146.684,239.111,135.853,228.918z"/>
<g>
	<path style="fill:#FE5B67;" d="M334.067,51.214c2.322-6.61,1.475-13.316-0.062-18.544c-2.006-6.825-7.592-11.96-14.533-13.506
		c-5.274-1.174-11.914-1.561-18.274,1.118c-3.057,1.288-2.59,5.698,0.674,6.285c5.19,0.932,11.72,3.082,16.906,7.963
		c5.187,4.88,7.729,11.262,8.975,16.385C328.536,54.14,332.966,54.345,334.067,51.214z"/>
	<path style="fill:#FE5B67;" d="M98.604,268.501L98.604,268.501c-2.36-2.222-2.473-5.936-0.252-8.295l47.983-50.99
		c2.221-2.358,5.934-2.473,8.293-0.252l0,0c2.36,2.222,2.473,5.936,0.252,8.295l-47.982,50.99
		C104.677,270.609,100.964,270.723,98.604,268.501z"/>
</g>
<g>
</g>
<g>
</g>
<g>
</g>
<g>
</g>
<g>
</g>
<g>
</g>
<g>
</g>
<g>
</g>
<g>
</g>
<g>
</g>
<g>
</g>
<g>
</g>
<g>
</g>
<g>
</g>
<g>
</g>
</svg>
