<svg id="Capa_1" enable-background="new 0 0 512 512" height="512" viewBox="0 0 512 512" width="512" xmlns="http://www.w3.org/2000/svg"><path d="m10.16 501.84c-13.546-13.546-13.546-35.509 0-49.056l90.373-90.373 49.056 49.056-90.373 90.373c-13.547 13.547-35.51 13.547-49.056 0z" fill="#8c808a"/><path d="m136.45 398.329-90.373 90.373c-11.27 11.27-28.362 13.154-41.589 5.672 1.511 2.672 3.396 5.19 5.672 7.466 13.546 13.547 35.509 13.547 49.056 0l90.373-90.373z" fill="#7b7179"/><path d="m186.122 392.359 263.671-207.625c10.393-8.184 17.961-19.419 21.64-32.126l40.121-138.586c2.401-8.293-5.283-15.977-13.577-13.576l-138.585 40.121c-12.707 3.679-23.942 11.247-32.126 21.64l-207.625 263.671z" fill="#e6e2e6"/><path d="m471.433 152.608 40.121-138.585c2.401-8.293-5.283-15.977-13.577-13.576l-4.21 1.219-38.902 134.374c-3.679 12.707-11.246 23.942-21.64 32.126l-263.67 207.625 16.568 16.568 263.671-207.625c10.393-8.184 17.96-19.419 21.639-32.126z" fill="#d8d1d7"/><path d="m158.3 420.182s47.935 47.935 103.398 19.409c9.772-5.026 6.823-19.749-4.135-20.566-22.744-1.695-52.57-7.792-71.442-26.664l-66.48-66.483s-47.935-47.935-103.398-19.409c-9.772 5.026-6.823 19.749 4.135 20.566 22.744 1.695 52.57 7.792 71.442 26.664z" fill="#ffdc00"/><path d="m267.619 429.753c-52.339 21.122-96.18-22.71-96.18-22.71l-66.48-66.483c-18.872-18.872-48.697-24.968-71.442-26.664-6.307-.47-9.953-5.546-10.056-10.729-2.39.964-4.796 2.056-7.218 3.301-9.772 5.026-6.823 19.749 4.135 20.566 22.744 1.695 52.57 7.792 71.442 26.664l66.48 66.483s47.935 47.935 103.398 19.408c4.148-2.132 5.997-6.013 5.921-9.836z" fill="#ffbf00"/><path d="m368.919 132.131-221.512 221.513 10.949 10.949 221.513-221.512c3.023-3.024 3.023-7.925 0-10.95-3.024-3.022-7.925-3.022-10.95 0z" fill="#ccc6cb"/><g fill="#686167"><path d="m93.03 376.54h15.484v69.376h-15.484z" transform="matrix(.707 -.707 .707 .707 -261.267 191.704)"/><path d="m70.577 398.993h15.484v69.376h-15.484z" transform="matrix(.707 -.707 .707 .707 -283.719 182.4)"/><path d="m48.123 421.447h15.484v69.376h-15.484z" transform="matrix(.707 -.707 .707 .707 -306.174 173.101)"/><path d="m14.358 448.586-4.198 4.198c-2.342 2.342-4.27 4.941-5.802 7.7l47.159 47.159c2.759-1.532 5.357-3.46 7.7-5.802l4.198-4.198z"/></g></svg>