<svg id="Layer_1" enable-background="new 0 0 512 512" height="512" viewBox="0 0 512 512" width="512" xmlns="http://www.w3.org/2000/svg"><path d="m231.83 381.97-53.03 53.03-50.9-50.9-55.16-55.17 53.03-53.03 55.16 55.17z" fill="#596c76"/><path d="m142.367 347.043h74.996v71.984h-74.996z" fill="#465a61" transform="matrix(.707 -.707 .707 .707 -218.165 239.372)"/><path d="m387.035 252.244-133.987 133.987 78.355 78.355 89.326-178.649z" fill="#f03800"/><path d="m512 0v15c0 41.11-7.7 81.24-22.92 119.36l-63.65-47.79c-61.465-81.864-44.865-59.754-47.79-63.65 38.12-15.22 78.25-22.92 119.36-22.92z" fill="#ff9100"/><path d="m512 0v15c0 41.11-7.7 81.24-22.92 119.36l-63.65-47.79z" fill="#ff641a"/><path d="m226.063 91.271-178.649 89.325 78.356 78.356 133.986-133.988z" fill="#ff641a"/><path d="m489.08 134.36c-14.91 38.14-39.22 76.27-71.47 108.53-5.64 5.64-165.2 165.19-175.17 175.16l-63.64-63.64-.77-20.44-.03-.77h-20.41l-63.64-63.64c9.86-9.86 169.59-169.6 175.16-175.17 32.25-32.25 70.38-56.56 108.53-71.47l55.72 55.72z" fill="#d9f2ff"/><path d="m489.08 134.36c-14.91 38.14-39.22 76.27-71.47 108.53-5.64 5.64-165.2 165.19-175.17 175.16l-63.64-63.64-.77-20.44 255.33-255.33z" fill="#cdf"/><path d="m401.54 110.46c-17.54-17.55-46.09-17.55-63.64 0-17.54 17.54-17.54 46.09 0 63.64 17.55 17.55 46.1 17.54 63.64 0 17.55-17.55 17.55-46.1 0-63.64z" fill="#596c76"/><path d="m401.54 174.1c-17.54 17.54-46.09 17.55-63.64 0l63.64-63.64c17.55 17.54 17.55 46.09 0 63.64z" fill="#465a61"/><path d="m380.33 152.89c-5.83 5.82-15.38 5.83-21.22 0-5.84-5.85-5.84-15.37 0-21.22 5.85-5.84 15.4-5.82 21.21 0v.01c5.86 5.86 5.82 15.39.01 21.21z" fill="#57d9ad"/><path d="m380.33 152.89c-5.83 5.82-15.38 5.83-21.22 0l21.21-21.21c5.86 5.86 5.82 15.39.01 21.21z" fill="#26bfa6"/><path d="m316.69 195.31c-17.55-17.54-46.1-17.54-63.64 0-17.55 17.55-17.55 46.1 0 63.64 17.59 17.59 46.13 17.51 63.64 0 17.58-17.58 17.59-46.05 0-63.64z" fill="#596c76"/><path d="m316.69 258.95c-17.51 17.51-46.05 17.59-63.64 0l63.64-63.64c17.59 17.59 17.58 46.06 0 63.64z" fill="#465a61"/><path d="m295.48 237.74c-5.83 5.82-15.38 5.83-21.22 0-5.83-5.83-5.83-15.38 0-21.22 5.82-5.82 15.37-5.83 21.21.01h.01c5.85 5.84 5.85 15.36 0 21.21z" fill="#57d9ad"/><path d="m295.48 237.74c-5.83 5.82-15.38 5.83-21.22 0l21.21-21.21h.01c5.85 5.84 5.85 15.36 0 21.21z" fill="#26bfa6"/><path d="m21.368 354.347h30v72.863h-30z" fill="#ffda2d" transform="matrix(.707 .707 -.707 .707 286.974 88.74)"/><path d="m106.221 439.2h30v72.863h-30z" fill="#fdbf00" transform="matrix(.707 .707 -.707 .707 371.827 53.593)"/><path d="m242.44 290.77-63.64 63.64-21.21-21.21 63.64-63.64 10.61 10.61z" fill="#ff9100"/><path d="m160.32 309.795h90v14.991h-90z" fill="#ff641a" transform="matrix(.707 -.707 .707 .707 -164.221 238.115)"/><path d="m115.16 418.05-93.95 93.95-21.21-21.21 93.95-93.95 10.61 10.61z" fill="#ffda2d"/><path d="m-3.548 452.23h132.865v14.991h-132.865z" fill="#fdbf00" transform="matrix(.707 -.707 .707 .707 -306.656 179.117)"/></svg>