<svg id="Layer_1" enable-background="new 0 0 512 512" height="512" viewBox="0 0 512 512" width="512" xmlns="http://www.w3.org/2000/svg"><g><path d="m272.067 254.934h-224.934c-6.067 0-11.537-3.654-13.858-9.26-2.321-5.605-1.038-12.057 3.252-16.347l87.796-87.796c42.296-42.289 96.886-61.198 147.744-61.198 8.284 0 15 6.716 15 15v144.601c0 8.284-6.716 15-15 15z" fill="#00b4fc"/><path d="m257.066 239.933v224.934c0 6.067 3.654 11.537 9.26 13.858 5.605 2.321 12.057 1.038 16.347-3.252l87.796-87.796c42.289-42.296 61.198-96.886 61.198-147.744 0-8.284-6.716-15-15-15h-144.601c-8.284 0-15 6.716-15 15z" fill="#0073f9"/><path d="m497 0c-70.827 0-139.379 20.819-198.248 60.208-58.868 39.388-104.266 94.813-131.291 160.289-3.551 8.617-5.652 13.693-5.655 13.699-2.32 5.604-1.036 12.055 3.253 16.344l96.4 96.4c4.289 4.289 10.739 5.573 16.344 3.253.006-.002 5.082-2.104 13.699-5.655 65.477-27.024 120.901-72.423 160.289-131.291 39.39-58.868 60.209-127.42 60.209-198.247 0-8.284-6.716-15-15-15z" fill="#f0f5fa"/><path d="m261.46 346.94c4.289 4.289 10.739 5.573 16.344 3.253.006-.002 5.082-2.104 13.699-5.655 65.477-27.024 120.901-72.423 160.289-131.291 39.389-58.868 60.208-127.42 60.208-198.247 0-4.142-1.679-7.892-4.394-10.607l-294.346 294.347z" fill="#c6e0ea"/><path d="m111.424 512h-96.424c-8.284 0-15-6.716-15-15v-96.416c0-45.21 26.991-85.601 68.764-102.9 41.768-17.301 89.409-7.824 121.374 24.139l.077.077c31.938 31.974 41.402 79.6 24.109 121.346-17.302 41.766-57.692 68.754-102.9 68.754z" fill="#ffb428"/><path d="m15 512h96.424c45.208 0 85.598-26.988 102.899-68.755 17.293-41.746 7.829-89.372-24.109-121.346-.019-.02-.038-.038-.057-.057l-185.764 185.764c2.715 2.715 6.465 4.394 10.607 4.394z" fill="#ff8c00"/><path d="m78.075 433.925c-18.375-18.375-18.375-48.274 0-66.649 6.884-6.884 37.567-37.567 45.438-45.447 18.384-18.383 48.286-18.383 66.664-.006 18.376 18.377 18.377 48.279.001 66.658l-45.446 45.444c-18.243 18.245-48.089 18.569-66.657 0z" fill="#ff6378"/><path d="m144.732 433.925 45.446-45.444c18.376-18.379 18.375-48.281-.001-66.658l-112.102 112.102c18.568 18.569 48.414 18.245 66.657 0z" fill="#d000b1"/><path d="m235.987 321.459-45.444-45.437c-5.86-5.858-5.854-15.361-.001-21.214l45.439-45.447c18.383-18.383 48.286-18.382 66.663-.005 18.378 18.377 18.378 48.28 0 66.657l-45.445 45.444c-5.859 5.86-15.356 5.858-21.212.002z" fill="#c6e0ea"/><path d="m257.199 321.458 45.445-45.444c18.378-18.377 18.378-48.28 0-66.657l-89.382 89.382 22.725 22.721c5.856 5.855 15.353 5.857 21.212-.002z" fill="#9bcada"/><path d="m368.467 190.667c-25.989 0-47.133-21.145-47.133-47.134s21.144-47.133 47.133-47.133 47.133 21.144 47.133 47.133-21.144 47.134-47.133 47.134z" fill="#9bcada"/><path d="m368.467 190.667c25.989 0 47.133-21.145 47.133-47.134 0-12.995-5.286-24.778-13.821-33.313l-66.625 66.625c8.535 8.536 20.318 13.822 33.313 13.822z" fill="#71b5ca"/></g></svg>