<svg id="Layer_1" enable-background="new 0 0 512 512" height="512" viewBox="0 0 512 512" width="512" xmlns="http://www.w3.org/2000/svg"><g><path d="m320.267 512h-128.534c-8.284 0-15-6.716-15-15v-64.267c0-8.284 6.716-15 15-15h128.533c8.284 0 15 6.716 15 15v64.267c.001 8.284-6.715 15-14.999 15z" fill="#004ec8"/><path d="m335.267 497v-64.267c0-8.284-6.716-15-15-15h-64.267v94.267h64.267c8.284 0 15-6.716 15-15z" fill="#00358f"/><path d="m416.646 257.067h-45v-28.934c0-3.978-1.581-7.793-4.394-10.606l-49.255-49.255-28.094-140.468c-3.22-16.11-17.483-27.804-33.913-27.804s-30.693 11.694-33.913 27.804l-28.095 140.468-49.255 49.255c-2.813 2.813-4.394 6.628-4.394 10.606v28.934h-45c-8.284 0-15 6.716-15 15v160.667c0 8.284 6.716 15 15 15h321.313c8.284 0 15-6.716 15-15v-160.667c0-8.284-6.716-15-15-15z" fill="#00f4ff"/><path d="m431.646 432.733v-160.666c0-8.284-6.716-15-15-15h-45v-28.934c0-3.978-1.581-7.793-4.394-10.606l-49.255-49.255-28.094-140.468c-3.219-16.107-17.477-27.799-33.903-27.804v447.733h160.646c8.284 0 15-6.715 15-15z" fill="#00b4fc"/><circle clip-rule="evenodd" cx="63.2" cy="143.533" fill="#ff6378" fill-rule="evenodd" r="15"/><circle clip-rule="evenodd" cx="448.8" cy="143.533" fill="#d000b1" fill-rule="evenodd" r="15"/><path d="m63.2 94.267c-8.284 0-15-6.716-15-15v-64.267c0-8.284 6.716-15 15-15s15 6.716 15 15v64.267c0 8.284-6.716 15-15 15z" fill="#ff6378"/><path d="m448.8 94.267c-8.284 0-15-6.716-15-15v-64.267c0-8.284 6.716-15 15-15s15 6.716 15 15v64.267c0 8.284-6.716 15-15 15z" fill="#d000b1"/><path d="m95.333 257.067c8.284 0 15 6.716 15 15v17.133c0 8.284 6.716 15 15 15s15-6.716 15-15v-32.133z" fill="#00b4fc"/><path d="m31.063 383.467c-1.932 0-3.881-.374-5.737-1.142-5.605-2.322-9.26-7.792-9.26-13.858v-128.534c0-3.978 1.581-7.793 4.394-10.606l32.133-32.133c5.857-5.858 15.355-5.858 21.213 0l32.133 32.133c2.813 2.813 4.394 6.628 4.394 10.606v64.267c0 3.979-1.581 7.793-4.394 10.606l-64.267 64.267c-2.868 2.87-6.705 4.394-10.609 4.394z" fill="#004ec8"/><path d="m95.333 447.733h-80.333c-8.284 0-15-6.716-15-15v-48.2c0-3.978 1.581-7.793 4.394-10.606l80.333-80.333c4.289-4.291 10.741-5.575 16.347-3.252 5.605 2.322 9.26 7.792 9.26 13.858v128.533c-.001 8.285-6.716 15-15.001 15z" fill="#00358f"/><path d="m416.646 257.067c-8.284 0-15 6.716-15 15v17.133c0 8.284-6.716 15-15 15s-15-6.716-15-15v-32.133z" fill="#0073f9"/><path d="m480.937 383.467c-3.903 0-7.74-1.524-10.609-4.394l-64.267-64.267c-2.813-2.813-4.394-6.628-4.394-10.606v-64.267c0-3.978 1.58-7.793 4.394-10.606l32.133-32.133c2.813-2.813 6.628-4.394 10.606-4.394s7.794 1.58 10.606 4.394l32.134 32.133c2.813 2.813 4.394 6.628 4.394 10.607v128.534c0 6.067-3.654 11.537-9.26 13.858-1.856.768-3.805 1.141-5.737 1.141z" fill="#00358f"/><path d="m497 447.733h-80.333c-8.284 0-15-6.716-15-15v-128.533c0-6.067 3.654-11.537 9.26-13.858 5.604-2.319 12.058-1.039 16.347 3.252l80.333 80.333c2.813 2.813 4.394 6.628 4.394 10.606v48.2c-.001 8.285-6.717 15-15.001 15z" fill="#002453"/><path d="m288.134 383.467h-64.267c-8.284 0-15-6.716-15-15v-96.4c0-25.99 21.144-47.134 47.133-47.134s47.134 21.144 47.134 47.134v96.4c0 8.284-6.716 15-15 15z" fill="#ffb428"/><path d="m303.134 368.467v-96.4c0-25.99-21.145-47.134-47.134-47.134v158.534h32.134c8.284 0 15-6.716 15-15z" fill="#ff8c00"/><path d="m352.4 447.733h-192.8c-8.284 0-15-6.716-15-15v-64.267c0-8.284 6.716-15 15-15h192.8c8.284 0 15 6.716 15 15v64.267c0 8.285-6.715 15-15 15z" fill="#00b4fc"/><path d="m367.4 432.733v-64.267c0-8.284-6.716-15-15-15h-96.4v94.267h96.4c8.285 0 15-6.715 15-15z" fill="#0073f9"/></g></svg>