<svg height="512pt" viewBox="0 -1 512.001 512" width="512pt" xmlns="http://www.w3.org/2000/svg"><path d="m256.25 476.414062c-4.183594 0-7.574219-3.390624-7.574219-7.574218v-.105469c0-4.183594 3.390625-7.574219 7.574219-7.574219 4.179688 0 7.570312 3.390625 7.570312 7.574219v.105469c0 4.183594-3.390624 7.574218-7.570312 7.574218zm0 0" fill="#898ec9"/><path d="m37.949219 310.671875c-.011719 0-.023438 0-.035157 0-4.183593-.015625-7.558593-3.421875-7.539062-7.605469v-.109375c.019531-4.167969 3.40625-7.535156 7.570312-7.535156h.035157c4.183593.019531 7.558593 3.421875 7.539062 7.605469v.109375c-.019531 4.167969-3.40625 7.535156-7.570312 7.535156zm0 0" fill="#898ec9"/><path d="m83.695312 371.136719c15.789063-15.789063 41.382813-15.789063 57.167969 0 15.789063 15.785156 15.789063 41.378906 0 57.167969-11.085937 11.085937-47.140625 18.949218-67.628906 22.648437-7.203125 1.300781-13.488281-4.984375-12.1875-12.1875 3.699219-20.488281 11.5625-56.542969 22.648437-67.628906zm0 0" fill="#fda736"/><path d="m106.425781 371.136719c9.511719-9.511719 24.929688-9.511719 34.4375 0 9.511719 9.507812 9.511719 24.925781 0 34.4375-5.652343 5.652343-22.085937 9.914062-34.484375 12.441406-7.386718 1.507813-13.902344-5.003906-12.394531-12.394531 2.527344-12.398438 6.789063-28.832032 12.441406-34.484375zm0 0" fill="#7e18ea"/><path d="m476.324219 72.316406c-1.9375 0-3.875-.738281-5.355469-2.21875-2.957031-2.957031-2.957031-7.75 0-10.707031l15.121094-15.121094c2.957031-2.953125 7.75-2.953125 10.707031 0 2.957031 2.957031 2.957031 7.753907 0 10.710938l-15.117187 15.121093c-1.480469 1.476563-3.417969 2.214844-5.355469 2.214844zm0 0" fill="#4e5093"/><path d="m447.253906 43.246094c-1.9375 0-3.875-.738282-5.351562-2.214844-2.957032-2.960938-2.957032-7.753906 0-10.710938l15.117187-15.117187c2.957031-2.960937 7.753907-2.957031 10.707031-.003906 2.960938 2.960937 2.960938 7.753906 0 10.710937l-15.117187 15.121094c-1.480469 1.476562-3.417969 2.214844-5.355469 2.214844zm0 0" fill="#4e5093"/><path d="m469.863281 49.710938c-1.941406 0-3.878906-.742188-5.355469-2.21875-2.957031-2.957032-2.957031-7.75 0-10.710938l34.566407-34.5625c2.957031-2.957031 7.75-2.957031 10.707031 0 2.960938 2.957031 2.960938 7.75 0 10.707031l-34.566406 34.566407c-1.476563 1.480468-3.417969 2.21875-5.351563 2.21875zm0 0" fill="#4e5093"/><path d="m269.519531 412.835938c-1.9375 0-3.875-.742188-5.355469-2.21875-2.957031-2.957032-2.957031-7.753907 0-10.710938l7.46875-7.46875c2.960938-2.960938 7.753907-2.957031 10.710938-.003906 2.957031 2.957031 2.957031 7.753906 0 10.710937l-7.46875 7.472657c-1.480469 1.476562-3.417969 2.21875-5.355469 2.21875zm0 0" fill="#4e5093"/><path d="m175.394531 510.253906c-1.9375 0-3.878906-.742187-5.355469-2.21875-2.957031-2.957031-2.957031-7.75 0-10.707031l81.023438-81.027344c2.960938-2.957031 7.753906-2.953125 10.710938 0 2.957031 2.960938 2.957031 7.753907 0 10.710938l-81.023438 81.023437c-1.480469 1.480469-3.417969 2.21875-5.355469 2.21875zm0 0" fill="#898ec9"/><path d="m274.472656 406.863281-43.355468-81.167969-41.792969 41.792969 60.1875 60.1875c3.941406 3.941407 10.335937 3.941407 14.277343 0l8.917969-8.917969c3.140625-3.140624 3.859375-7.972656 1.765625-11.894531zm0 0" fill="#a7acd3"/><path d="m106.738281 250.054688c-1.9375 0-3.875-.742188-5.355469-2.21875-2.957031-2.957032-2.957031-7.753907 0-10.710938l7.472657-7.46875c2.957031-2.957031 7.75-2.957031 10.707031 0 2.960938 2.957031 2.960938 7.75 0 10.707031l-7.46875 7.472657c-1.480469 1.480468-3.417969 2.21875-5.355469 2.21875zm0 0" fill="#4e5093"/><path d="m57.152344 296.457031c-1.9375 0-3.875-.742187-5.355469-2.21875-2.957031-2.957031-2.957031-7.753906 0-10.710937l35.980469-35.980469c2.957031-2.957031 7.753906-2.957031 10.710937 0s2.957031 7.75 0 10.710937l-35.984375 35.980469c-1.476562 1.476563-3.414062 2.21875-5.351562 2.21875zm0 0" fill="#898ec9"/><path d="m105.136719 237.527344 81.167969 43.355468-41.792969 41.792969-60.1875-60.1875c-3.941407-3.941406-3.941407-10.335937 0-14.277343l8.917969-8.917969c3.140624-3.140625 7.972656-3.859375 11.894531-1.765625zm0 0" fill="#a7acd3"/><path d="m473.453125 67.617188-84.492187 84.488281-29.066407-29.066407 84.488281-84.492187c1.847657-1.84375 4.335938-2.902344 6.941407-2.953125l15.085937-.296875c5.730469-.113281 10.40625 4.5625 10.292969 10.292969l-.296875 15.085937c-.050781 2.609375-1.109375 5.09375-2.953125 6.941407zm0 0" fill="#6163aa"/><path d="m476.710938 45.132812-.304688 15.542969c-.050781 2.609375-1.109375 5.097657-2.953125 6.941407l-84.492187 84.488281-9.609376-9.609375zm0 0" fill="#4e5093"/><path d="m415.515625 125.550781-26.554687 26.554688-29.066407-29.066407 26.554688-26.554687zm0 0" fill="#a7acd3"/><path d="m379.347656 142.496094 26.550782-26.554688 9.613281 9.613282-26.554688 26.550781zm0 0" fill="#898ec9"/><path d="m352.660156 119.339844-18.292968 7.5c-1.238282.507812-2.363282 1.253906-3.308594 2.203125l-213.769532 213.765625 51.902344 51.902344 213.765625-213.769532c.945313-.945312 1.695313-2.070312 2.203125-3.308594l7.5-18.292968c1.542969-3.765625.675782-8.09375-2.203125-10.96875l-26.828125-26.828125c-2.875-2.878907-7.203125-3.746094-10.96875-2.203125zm0 0" fill="#6163aa"/><path d="m392.660156 159.335938-7.503906 18.296874c-.507812 1.238282-1.253906 2.363282-2.203125 3.308594l-213.765625 213.765625-14.667969-14.667969 215.199219-215.199218 10.824219-26.382813 9.914062 9.90625c2.878907 2.878907 3.75 7.207031 2.203125 10.972657zm0 0" fill="#4e5093"/><path d="m286.226562 277.679688-24.320312 24.320312-14.671875-14.667969-37.234375-37.238281 24.324219-24.320312zm0 0" fill="#d82fea"/><path d="m247.230469 287.332031 24.324219-24.324219 14.671874 14.667969-24.324218 24.324219zm0 0" fill="#b200bf"/><path d="m154.296875 395.324219-37.621094-37.621094c-3.941406-3.945313-3.941406-10.335937 0-14.28125l19.1875-19.183594 51.898438 51.898438-19.183594 19.1875c-3.945313 3.941406-10.339844 3.941406-14.28125 0zm0 0" fill="#a7acd3"/><path d="m327.988281 246.621094c-1.472656 1.472656-3.414062 2.210937-5.351562 2.210937s-3.875-.738281-5.351563-2.210937l-14.667968-14.671875-37.238282-37.234375c-2.957031-2.957032-2.957031-7.746094 0-10.703125 2.960938-2.957031 7.753906-2.957031 10.714844 0l51.894531 51.898437c2.957031 2.957032 2.957031 7.753906 0 10.710938zm0 0" fill="#d82fea"/><path d="m323.082031 215.871094c-1.957031 0-3.910156-.75-5.390625-2.25-2.9375-2.976563-2.90625-7.773438.066406-10.710938l.082032-.078125c2.976562-2.941406 7.769531-2.910156 10.707031.066407 2.941406 2.972656 2.910156 7.769531-.0625 10.707031l-.082031.078125c-1.476563 1.457031-3.398438 2.1875-5.320313 2.1875zm0 0" fill="#a7acd3"/><path d="m434.660156 114.023438c-1.484375 1.472656-3.421875 2.210937-5.363281 2.210937-1.9375 0-3.867187-.738281-5.347656-2.210937l-25.96875-25.96875c-2.957031-2.960938-2.957031-7.753907 0-10.714844 2.957031-2.957032 7.753906-2.957032 10.710937 0l25.96875 25.96875c2.957032 2.957031 2.957032 7.753906 0 10.714844zm0 0" fill="#a7acd3"/><path d="m462.566406 86.113281c-1.484375 1.476563-3.421875 2.222657-5.359375 2.222657-1.941406 0-3.878906-.746094-5.351562-2.222657l-25.96875-25.96875c-2.960938-2.957031-2.960938-7.753906 0-10.710937 2.957031-2.949219 7.753906-2.949219 10.710937 0l25.96875 25.96875c2.949219 2.957031 2.949219 7.753906 0 10.710937zm0 0" fill="#a7acd3"/><g fill="#898ec9"><path d="m7.574219 416.464844c-1.941407 0-3.878907-.738282-5.355469-2.214844-2.957031-2.960938-2.957031-7.753906 0-10.710938l92.449219-92.449218c2.957031-2.957032 7.753906-2.957032 10.710937 0 2.957032 2.957031 2.957032 7.75 0 10.707031l-92.453125 92.453125c-1.476562 1.476562-3.414062 2.214844-5.351562 2.214844zm0 0"/><path d="m189.632812 458.628906c-1.9375 0-3.878906-.742187-5.355468-2.21875-2.957032-2.957031-2.957032-7.753906 0-10.710937l18.761718-18.761719c2.957032-2.953125 7.75-2.953125 10.707032 0 2.960937 2.960938 2.960937 7.753906 0 10.710938l-18.757813 18.761718c-1.480469 1.476563-3.417969 2.21875-5.355469 2.21875zm0 0"/><path d="m109.003906 504c-1.9375 0-3.875-.738281-5.351562-2.214844-2.957032-2.957031-2.957032-7.753906 0-10.710937l84.429687-84.429688c2.957031-2.957031 7.753907-2.957031 10.710938 0s2.957031 7.75 0 10.707031l-84.433594 84.433594c-1.476563 1.476563-3.414063 2.214844-5.355469 2.214844zm0 0"/><path d="m26.675781 360.140625c-1.9375 0-3.875-.742187-5.351562-2.21875-2.957031-2.957031-2.957031-7.753906 0-10.710937l20.074219-20.074219c2.957031-2.957031 7.75-2.957031 10.707031 0 2.960937 2.957031 2.960937 7.753906 0 10.710937l-20.074219 20.074219c-1.476562 1.480469-3.414062 2.21875-5.355469 2.21875zm0 0"/></g><path d="m327.988281 246.621094c-1.472656 1.472656-3.414062 2.210937-5.351562 2.210937s-3.875-.738281-5.351563-2.210937l-14.667968-14.671875 10.703124-10.710938 14.667969 14.671875c2.957031 2.957032 2.957031 7.753906 0 10.710938zm0 0" fill="#b200bf"/><path d="m434.660156 103.308594c2.957032 2.957031 2.957032 7.753906 0 10.714844-1.484375 1.472656-3.421875 2.210937-5.363281 2.210937-1.9375 0-3.867187-.738281-5.347656-2.210937l-8.058594-8.058594 10.710937-10.714844zm0 0" fill="#898ec9"/><path d="m462.566406 86.113281c-1.484375 1.476563-3.421875 2.222657-5.359375 2.222657-1.941406 0-3.878906-.746094-5.351562-2.222657l-8.058594-8.054687 10.714844-10.714844 8.054687 8.058594c2.949219 2.957031 2.949219 7.753906 0 10.710937zm0 0" fill="#898ec9"/></svg>