<svg height="512pt" viewBox="-71 0 512 512" width="512pt" xmlns="http://www.w3.org/2000/svg"><path d="m75.75 308.503906-20.273438-67.324218c-1.167968-3.875-4.738281-6.53125-8.785156-6.53125s-7.617187 2.652343-8.78125 6.53125l-20.273437 67.324218zm0 0" fill="#2de0c7"/><path d="m351.417969 308.503906-20.273438-67.324218c-1.167969-3.875-4.738281-6.53125-8.785156-6.53125s-7.617187 2.652343-8.78125 6.53125l-20.273437 67.324218zm0 0" fill="#2de0c7"/><path d="m158.234375 169.238281v112.773438c0 5.789062-4.695313 10.476562-10.476563 10.476562h-24.085937c-3.769531 0-7.25-2.027343-9.117187-5.316406l-15.378907-27.238281c-1.257812-2.203125-1.660156-4.800782-1.144531-7.28125l17.800781-85.546875c1.011719-4.863281 5.285157-8.34375 10.25-8.34375h21.675781c5.78125 0 10.476563 4.6875 10.476563 10.476562zm0 0" fill="#383c7c"/><path d="m158.234375 169.238281v112.773438c0 5.789062-4.695313 10.476562-10.476563 10.476562h-14.523437v-133.726562h14.523437c5.78125 0 10.476563 4.6875 10.476563 10.476562zm0 0" fill="#292e68"/><path d="m269.878906 259.933594-15.382812 27.238281c-1.863282 3.289063-5.347656 5.316406-9.117188 5.316406h-24.085937c-5.777344 0-10.476563-4.6875-10.476563-10.476562v-112.773438c0-5.789062 4.699219-10.476562 10.476563-10.476562h21.675781c4.964844 0 9.242188 3.480469 10.25 8.34375l17.800781 85.546875c.515625 2.484375.113281 5.078125-1.140625 7.28125zm0 0" fill="#383c7c"/><path d="m235.820312 158.761719v133.726562h-14.527343c-5.777344 0-10.476563-4.6875-10.476563-10.476562v-112.773438c0-5.789062 4.699219-10.476562 10.476563-10.476562zm0 0" fill="#292e68"/><path d="m369.050781 306.035156v87.207032c0 5.789062-4.6875 10.476562-10.476562 10.476562h-137.464844v-133.152344l18.726563 5.769532 91.101562 28.082031v-5.539063c0-7.472656 7.601562-12.550781 14.503906-9.664062l17.164063 7.148437c3.902343 1.625 6.445312 5.4375 6.445312 9.671875zm0 0" fill="#898ec9"/><path d="m261.808594 352.445312-28.585938 34.328126c-3.164062 3.800781-7.40625 6.417968-12.117187 7.558593v-123.765625l18.730469 5.769532 24.980468 51.53125c3.90625 8.054687 2.722656 17.695312-3.007812 24.578124zm0 0" fill="#6163aa"/><path d="m147.945312 270.566406v133.152344h-137.46875c-5.789062 0-10.476562-4.6875-10.476562-10.476562v-87.207032c0-4.234375 2.546875-8.046875 6.449219-9.671875l17.164062-7.148437c6.902344-2.886719 14.503907 2.191406 14.503907 9.664062v5.539063l91.097656-28.082031zm0 0" fill="#898ec9"/><path d="m129.214844 276.335938 18.730468-5.769532v123.765625c-4.707031-1.140625-8.953124-3.757812-12.117187-7.558593l-28.585937-34.328126c-5.726563-6.882812-6.914063-16.523437-3.007813-24.578124zm0 0" fill="#6163aa"/><path d="m145.667969 292.519531-28.566407 8.808594-58.113281 17.902344c-3.234375 1-5.449219 4-5.449219 7.386719v27.640624c0 4.265626 3.460938 7.726563 7.726563 7.726563h86.679687v-69.804687c-.761718 0-1.523437.113281-2.277343.339843zm-5.449219 54.011719h-71.226562v-14.214844l38.886718-11.980468 32.339844-9.964844zm0 0" fill="#2de0c7"/><path d="m147.945312 292.179688v69.804687h-32.761718l-7.941406-9.539063c-1.503907-1.800781-2.699219-3.800781-3.566407-5.914062h36.542969v-36.15625l-32.339844 9.960938 9.222656-19.007813 28.566407-8.808594c.753906-.226562 1.515625-.339843 2.277343-.339843zm0 0" fill="#00c2cc"/><path d="m310.0625 319.230469-58.113281-17.902344-28.566407-8.808594c-.75-.226562-1.511718-.339843-2.277343-.339843v69.804687h86.679687c4.265625 0 7.726563-3.460937 7.726563-7.726563v-27.640624c.003906-3.386719-2.210938-6.386719-5.449219-7.386719zm-10 27.300781h-71.226562v-36.160156l32.335937 9.964844 38.886719 11.980468v14.214844zm0 0" fill="#2de0c7"/><path d="m265.375 346.53125c-.863281 2.113281-2.058594 4.113281-3.5625 5.914062l-7.945312 9.539063h-32.757813v-69.804687c.761719 0 1.523437.113281 2.277344.339843l28.566406 8.808594 9.21875 19.007813-32.335937-9.964844v36.160156zm0 0" fill="#00c2cc"/><path d="m171.9375 512h25.175781c4.605469 0 8.667969-3.003906 10.015625-7.402344l16.402344-53.488281c1.035156-3.382813.296875-7.058594-1.96875-9.777344l-16.703125-20.050781h-40.667969l-16.703125 20.050781c-2.265625 2.71875-3.003906 6.394531-1.964843 9.777344l16.398437 53.488281c1.351563 4.398438 5.414063 7.402344 10.015625 7.402344zm0 0" fill="#4e5093"/><path d="m223.457031 89.398438v325.023437c0 5.777344-4.699219 10.476563-10.476562 10.476563h-56.90625c-5.78125 0-10.476563-4.699219-10.476563-10.476563v-403.945313c0-5.789062 4.695313-10.476562 10.476563-10.476562h30.957031c5.777344 0 10.476562 4.6875 10.476562 10.476562v53.507813c0 4.089844 2.367188 7.796875 6.066407 9.507813l13.804687 6.398437c3.707032 1.710937 6.078125 5.417969 6.078125 9.507813zm0 0" fill="#6163aa"/><path d="m223.457031 242.554688v151.066406c-2.460937.898437-5.089843 1.371094-7.777343 1.371094h-7.417969c-6.675781 6.222656-14.835938 9.847656-23.734375 9.847656-8.902344 0-17.058594-3.625-23.734375-9.847656h-7.417969c-2.6875 0-5.316406-.472657-7.777344-1.371094v-151.066406l9.835938-20.292969c3.792968-7.820313 11.859375-12.878907 20.554687-12.878907h17.078125c8.695313 0 16.761719 5.058594 20.550782 12.878907zm0 0" fill="#4e5093"/><path d="m252.3125 344.535156-28.589844 34.324219c-1.988281 2.390625-4.933594 3.769531-8.042968 3.769531h-62.308594c-3.109375 0-6.054688-1.378906-8.042969-3.769531l-10.5-12.609375-13.300781-15.96875-4.789063-5.746094c-.390625-.472656-.730469-.96875-1.039062-1.484375-1.699219-2.964843-1.863281-6.632812-.339844-9.785156l7.304687-15.0625 43.894532-90.550781c1.75-3.605469 5.410156-5.90625 9.425781-5.90625h17.082031c4.015625 0 7.671875 2.300781 9.425782 5.90625l3.5 7.21875 5.832031 12.042968 4.277343 8.800782 9.546876 19.71875 28.042968 57.832031c1.792969 3.695313 1.257813 8.105469-1.378906 11.269531zm0 0" fill="#2de0c7"/><path d="m211.824219 246.914062-96.125 96.136719c-1.699219-2.964843-1.863281-6.632812-.339844-9.785156l7.304687-15.0625 83.332032-83.332031zm0 0" fill="#9bf2e5"/><path d="m225.652344 275.429688-90.824219 90.820312-13.296875-15.96875 94.570312-94.570312zm0 0" fill="#9bf2e5"/><path d="m171.605469 50.328125c-4.265625 0-7.726563-3.460937-7.726563-7.726563v-7.683593c0-4.265625 3.460938-7.726563 7.726563-7.726563s7.726562 3.460938 7.726562 7.726563v7.683593c0 4.265626-3.457031 7.726563-7.726562 7.726563zm0 0" fill="#fef5e3"/><path d="m171.605469 85.335938c-4.265625 0-7.726563-3.457032-7.726563-7.726563v-7.679687c0-4.269532 3.460938-7.726563 7.726563-7.726563s7.726562 3.457031 7.726562 7.726563v7.679687c0 4.269531-3.457031 7.726563-7.726562 7.726563zm0 0" fill="#fef5e3"/><path d="m171.605469 120.347656c-4.265625 0-7.726563-3.460937-7.726563-7.726562v-7.683594c0-4.265625 3.460938-7.726562 7.726563-7.726562s7.726562 3.460937 7.726562 7.726562v7.683594c0 4.265625-3.457031 7.726562-7.726562 7.726562zm0 0" fill="#fef5e3"/><path d="m171.605469 155.355469c-4.265625 0-7.726563-3.460938-7.726563-7.726563v-7.683594c0-4.265624 3.460938-7.722656 7.726563-7.722656s7.726562 3.457032 7.726562 7.722656v7.683594c0 4.265625-3.457031 7.726563-7.726562 7.726563zm0 0" fill="#fef5e3"/><path d="m171.605469 190.363281c-4.265625 0-7.726563-3.457031-7.726563-7.722656v-7.683594c0-4.269531 3.460938-7.726562 7.726563-7.726562s7.726562 3.460937 7.726562 7.726562v7.683594c0 4.265625-3.457031 7.722656-7.726562 7.722656zm0 0" fill="#fef5e3"/><g fill="#383c7c"><path d="m213.488281 349.089844c0-23.964844-12.964843-43.390625-28.960937-43.390625s-28.964844 19.425781-28.964844 43.390625 12.96875 43.390625 28.964844 43.390625 28.960937-19.425781 28.960937-43.390625zm0 0"/><path d="m90.871094 403.71875c0 13.21875-10.714844 23.933594-23.933594 23.933594s-23.933594-10.714844-23.933594-23.933594 10.714844-23.933594 23.933594-23.933594 23.933594 10.714844 23.933594 23.933594zm0 0"/><path d="m326.050781 403.71875c0 13.21875-10.71875 23.933594-23.9375 23.933594s-23.933593-10.714844-23.933593-23.933594 10.714843-23.933594 23.933593-23.933594 23.9375 10.714844 23.9375 23.933594zm0 0"/><path d="m24.304688 380.652344h-.105469c-4.269531 0-7.726563-3.460938-7.726563-7.726563 0-4.269531 3.457032-7.726562 7.726563-7.726562h.105469c4.269531 0 7.726562 3.460937 7.726562 7.726562s-3.457031 7.726563-7.726562 7.726563zm0 0"/><path d="m24.308594 361.007812c-.027344 0-.050782 0-.074219 0h-.109375c-4.265625-.042968-7.691406-3.53125-7.652344-7.800781.039063-4.242187 3.492188-7.652343 7.722656-7.652343h.074219.109375c4.265625.039062 7.691406 3.53125 7.652344 7.796874-.039062 4.242188-3.492188 7.65625-7.722656 7.65625zm0 0"/><path d="m344.855469 380.652344h-.109375c-4.269532 0-7.726563-3.460938-7.726563-7.726563 0-4.269531 3.460938-7.726562 7.726563-7.726562h.109375c4.265625 0 7.726562 3.460937 7.726562 7.726562s-3.460937 7.726563-7.726562 7.726563zm0 0"/><path d="m344.855469 361.007812c-.023438 0-.046875 0-.070313 0h-.109375c-4.269531-.042968-7.695312-3.53125-7.65625-7.800781.039063-4.242187 3.492188-7.652343 7.726563-7.652343h.070312.109375c4.265625.039062 7.695313 3.53125 7.65625 7.796874-.039062 4.242188-3.492187 7.65625-7.726562 7.65625zm0 0"/></g></svg>