<svg id="Capa_1" enable-background="new 0 0 512 512" height="512" viewBox="0 0 512 512" width="512" xmlns="http://www.w3.org/2000/svg"><path d="m256 512c-20.904 0-50.755-13.983-74.25-80.598-16.605-47.08-25.75-109.373-25.75-175.402s9.145-128.322 25.75-175.402c23.495-66.615 53.346-80.598 74.25-80.598s50.755 13.983 74.25 80.598c16.605 47.08 25.75 109.373 25.75 175.402s-9.145 128.322-25.75 175.402c-23.495 66.615-53.346 80.598-74.25 80.598zm0-482c-15.169 0-32.78 23.211-45.958 60.577-15.504 43.957-24.042 102.705-24.042 165.423s8.538 121.466 24.042 165.423c13.178 37.366 30.789 60.577 45.958 60.577s32.78-23.211 45.958-60.577c15.504-43.957 24.042-102.705 24.042-165.423s-8.538-121.466-24.042-165.423c-13.178-37.366-30.789-60.577-45.958-60.577z" fill="#ffe645"/><path d="m412.421 412.293c-11.832 0-25.606-1.296-41.643-4.289-49.076-9.16-107.595-32.386-164.778-65.401s-106.557-72.081-139.027-110.001c-45.943-53.655-43.127-86.498-32.675-104.602 10.452-18.103 37.486-36.963 106.924-24.003 49.076 9.16 107.595 32.386 164.778 65.401s106.557 72.08 139.027 110.001c45.943 53.655 43.127 86.498 32.675 104.602-8.038 13.921-25.884 28.292-65.281 28.292zm-312.558-282.491c-20.311 0-34.583 4.535-39.585 13.198-7.584 13.137 3.712 39.994 29.482 70.089 30.316 35.405 76.925 72.174 131.24 103.533 54.315 31.358 109.462 53.338 155.282 61.891 38.95 7.268 67.855 3.625 75.44-9.513 7.585-13.137-3.712-39.994-29.482-70.089-30.316-35.405-76.925-72.174-131.24-103.533-54.315-31.358-109.462-53.338-155.282-61.891-13.265-2.475-25.365-3.685-35.855-3.685z" fill="#21b572"/><path d="m306 169.398c-16.642-9.609-33.397-18.381-50-26.226v33.348c11.638 5.828 23.338 12.126 35 18.858 54.315 31.359 100.924 68.128 131.24 103.533 25.77 30.096 37.066 56.952 29.482 70.089-7.585 13.138-36.49 16.781-75.44 9.513-35.982-6.716-77.716-21.716-120.282-43.033v33.348c40.445 19.11 79.985 32.681 114.778 39.175 16.037 2.993 29.812 4.289 41.643 4.289 39.397 0 57.243-14.37 65.281-28.293 10.452-18.103 13.268-50.947-32.675-104.602-32.47-37.919-81.844-76.985-139.027-109.999z" fill="#148253"/><path d="m99.579 412.293c-39.403 0-57.243-14.369-65.281-28.293-10.452-18.103-13.268-50.947 32.675-104.602 32.47-37.92 81.844-76.986 139.027-110.001s115.702-56.241 164.778-65.401c69.436-12.96 96.472 5.9 106.924 24.003 10.452 18.104 13.268 50.947-32.675 104.602-32.47 37.92-81.844 76.986-139.027 110.001s-115.702 56.241-164.778 65.401c-16.032 2.993-29.813 4.29-41.643 4.29zm312.558-282.491c-10.491 0-22.587 1.209-35.855 3.686-45.82 8.552-100.967 30.532-155.282 61.89-54.315 31.359-100.924 68.128-131.24 103.533-25.77 30.095-37.066 56.952-29.482 70.089 7.585 13.137 36.492 16.782 75.44 9.513 45.82-8.552 100.967-30.532 155.282-61.891s100.924-68.128 131.24-103.533c25.77-30.096 37.066-56.952 29.482-70.089-5.001-8.662-19.278-13.198-39.585-13.198z" fill="#8fd4ff"/><path d="m370.778 103.997c-34.793 6.494-74.333 20.065-114.778 39.175v33.348c42.566-21.316 84.3-36.316 120.282-43.032 13.268-2.476 25.364-3.686 35.855-3.686 20.307 0 34.584 4.536 39.585 13.198 7.585 13.137-3.712 39.994-29.482 70.089-30.316 35.405-76.925 72.174-131.24 103.533-11.662 6.733-23.362 13.03-35 18.858v33.348c16.603-7.845 33.358-16.617 50-26.226 57.183-33.015 106.557-72.081 139.027-110.001 45.943-53.655 43.127-86.498 32.675-104.602-10.452-18.103-37.489-36.963-106.924-24.002z" fill="#72c5fc"/><path d="m301.958 90.577c15.504 43.957 24.042 102.705 24.042 165.423s-8.538 121.466-24.042 165.423c-13.178 37.366-30.789 60.577-45.958 60.577v30c20.904 0 50.755-13.983 74.25-80.598 16.605-47.08 25.75-109.373 25.75-175.402s-9.145-128.322-25.75-175.402c-23.495-66.615-53.346-80.598-74.25-80.598v30c15.169 0 32.78 23.211 45.958 60.577z" fill="#ffa81c"/><path d="m255.994 285.991c-16.542 0-30-13.458-30-30s13.458-30 30-30 30 13.458 30 30-13.458 30-30 30z" fill="#ec6600"/><path d="m398.874 145.449c-16.824 0-30.511-13.688-30.511-30.511s13.687-30.511 30.511-30.511 30.511 13.688 30.511 30.511-13.687 30.511-30.511 30.511z" fill="#2698d1"/><path d="m307.609 479.027c-16.824 0-30.511-13.688-30.511-30.511s13.688-30.511 30.511-30.511c16.824 0 30.512 13.688 30.512 30.511s-13.688 30.511-30.512 30.511z" fill="#ec6600"/><path d="m62.799 233.249c-16.824 0-30.511-13.688-30.511-30.511 0-16.824 13.688-30.512 30.511-30.512s30.511 13.688 30.511 30.512c.001 16.823-13.687 30.511-30.511 30.511z" fill="#148253"/></svg>