<svg height="512pt" viewBox="0 -20 512 512" width="512pt" xmlns="http://www.w3.org/2000/svg"><path d="m71.554688 294.855469c-4.203126 0-7.613282-3.410157-7.613282-7.613281v-148.359376c0-9.792968 7.96875-17.761718 17.761719-17.761718h63.921875c4.203125 0 7.609375 3.40625 7.609375 7.613281 0 4.203125-3.40625 7.609375-7.609375 7.609375h-63.921875c-1.398437 0-2.539063 1.136719-2.539063 2.539062v148.359376c0 4.203124-3.40625 7.613281-7.609374 7.613281zm0 0" fill="#695a69"/><path d="m331.410156 134.398438c1.527344 0 3.070313-.460938 4.410156-1.414063l51.558594-36.726563 51.558594 36.726563c1.339844.953125 2.882812 1.414063 4.410156 1.414063 2.378906 0 4.722656-1.113282 6.207032-3.199219 2.4375-3.421875 1.640624-8.175781-1.785157-10.613281l-47.273437-33.675782 41.183594-29.335937c3.425781-2.4375 4.222656-7.191407 1.785156-10.613281-2.4375-3.421876-7.191406-4.222657-10.617188-1.785157l-45.46875 32.390625-45.472656-32.390625c-3.425781-2.4375-8.175781-1.636719-10.613281 1.785157-2.441407 3.421874-1.640625 8.175781 1.78125 10.613281l41.183593 29.335937-47.273437 33.675782c-3.421875 2.4375-4.222656 7.191406-1.78125 10.613281 1.484375 2.085937 3.828125 3.199219 6.207031 3.199219zm0 0" fill="#dfd0c7"/><path d="m317.222656 255.875c1.507813 0 3.03125-.449219 4.363282-1.382812l65.792968-46.140626 65.796875 46.140626c1.328125.933593 2.851563 1.382812 4.363281 1.382812 2.398438 0 4.757813-1.132812 6.238282-3.242188 2.414062-3.441406 1.582031-8.191406-1.859375-10.605468l-61.28125-42.972656 51.839843-36.351563c3.4375-2.414063 4.273438-7.160156 1.859376-10.601563-2.414063-3.441406-7.160157-4.277343-10.601563-1.863281l-56.355469 39.519531-56.351562-39.519531c-3.441406-2.414062-8.1875-1.578125-10.601563 1.863281-2.414062 3.441407-1.582031 8.1875 1.859375 10.601563l51.835938 36.351563-61.277344 42.972656c-3.441406 2.414062-4.277344 7.164062-1.863281 10.605468 1.484375 2.109376 3.84375 3.242188 6.242187 3.242188zm0 0" fill="#dfd0c7"/><path d="m475.761719 379.347656-75.125-52.683594 63.816406-44.753906c3.441406-2.410156 4.277344-7.160156 1.863281-10.601562-2.414062-3.441406-7.160156-4.277344-10.601562-1.859375l-68.335938 47.917969-68.332031-47.917969c-3.445313-2.414063-8.191406-1.582031-10.605469 1.859375-2.414062 3.441406-1.578125 8.1875 1.863282 10.601562l63.816406 44.753906-75.121094 52.683594c-3.441406 2.414063-4.273438 7.160156-1.859375 10.601563 1.480469 2.113281 3.839844 3.242187 6.238281 3.242187 1.507813 0 3.03125-.445312 4.363282-1.378906l79.636718-55.847656 79.640625 55.847656c1.328125.933594 2.851563 1.378906 4.363281 1.378906 2.398438 0 4.757813-1.128906 6.238282-3.242187 2.414062-3.441407 1.578125-8.1875-1.859375-10.601563zm0 0" fill="#dfd0c7"/><path d="m300.390625 450.644531 46.308594-427.40625h81.363281l46.304688 427.40625h15.3125l-47.21875-435.835937c-.417969-3.863282-3.683594-6.792969-7.566407-6.792969h-95.027343c-3.886719 0-7.148438 2.929687-7.566407 6.792969l-47.222656 435.835937zm0 0" fill="#eae1dc"/><path d="m29.105469 387.203125h-21.496094c-4.203125 0-7.609375-3.40625-7.609375-7.613281v-39.324219c0-4.203125 3.40625-7.609375 7.609375-7.609375h21.496094c4.203125 0 7.609375 3.40625 7.609375 7.609375 0 4.207031-3.40625 7.613281-7.609375 7.613281h-13.882813v24.101563h13.882813c4.203125 0 7.609375 3.40625 7.609375 7.613281 0 4.203125-3.40625 7.609375-7.609375 7.609375zm0 0" fill="#695a69"/><path d="m29.105469 451.984375h-21.496094c-4.203125 0-7.609375-3.40625-7.609375-7.609375v-39.324219c0-4.203125 3.40625-7.613281 7.609375-7.613281h21.496094c4.203125 0 7.609375 3.410156 7.609375 7.613281s-3.40625 7.609375-7.609375 7.609375h-13.882813v24.101563h13.882813c4.203125 0 7.609375 3.410156 7.609375 7.613281s-3.40625 7.609375-7.609375 7.609375zm0 0" fill="#695a69"/><path d="m254.949219 340.265625-3.722657-77.996094-4.515624-94.414062-4.511719-94.417969-2.339844-48.953125c-.308594-6.328125-5.523437-11.304687-11.863281-11.304687h-81.566406c-6.34375 0-11.558594 4.976562-11.863282 11.304687l-2.339844 48.953125-4.515624 94.417969-4.511719 94.414062-3.726563 77.996094zm0 0" fill="#eae1dc"/><path d="m211.285156 24.484375 15.089844 315.78125h28.574219l-3.722657-77.996094-4.515624-94.414062-4.511719-94.417969-2.339844-48.953125c-.308594-6.328125-5.523437-11.304687-11.863281-11.304687h-28.574219c6.339844 0 11.554687 4.976562 11.863281 11.304687zm0 0" fill="#dfd0c7"/><path d="m242.199219 73.4375h-109.976563l2.339844-48.953125c.308594-6.328125 5.523438-11.304687 11.867188-11.304687h81.5625c6.34375 0 11.558593 4.976562 11.867187 11.304687zm0 0" fill="#f04343"/><path d="m242.199219 73.4375h-28.574219l-2.339844-48.953125c-.308594-6.328125-5.523437-11.304687-11.863281-11.304687h28.570313c6.34375 0 11.558593 4.976562 11.867187 11.304687zm0 0" fill="#e41b17"/><path d="m250.476562 246.726562h-126.53125l3.765626-78.871093h119zm0 0" fill="#f04343"/><path d="m250.476562 246.726562h-28.574218l-3.765625-78.871093h28.574219zm0 0" fill="#e41b17"/><path d="m226.238281 287.242188v184.699218h-187.746093c-5.179688 0-9.386719-4.207031-9.386719-9.386718v-175.3125zm0 0" fill="#f16464"/><path d="m226.238281 287.242188v184.699218h-170.429687c1.933594-1.785156 4.121094-3.625 6.582031-5.53125 95.265625-73.828125 85.738281-179.167968 85.738281-179.167968zm0 0" fill="#f04343"/><path d="m226.234375 318.753906h-209.238281c-5.183594 0-9.386719-4.203125-9.386719-9.386718v-12.738282c0-5.1875 4.203125-9.386718 9.386719-9.386718h209.238281zm0 0" fill="#fdb659"/><path d="m384.003906 151.867188h-144.578125c-1.402343 70.277343-18.324219 198.539062-112.617187 297.386718h369.8125c-94.292969-98.847656-111.214844-227.109375-112.617188-297.386718zm0 0" fill="#83727a"/><path d="m496.621094 449.25h-24.195313c-94.289062-98.84375-111.214843-227.105469-112.609375-297.378906h24.1875c1.402344 70.273437 18.328125 198.535156 112.617188 297.378906zm0 0" fill="#695a69"/><g fill="#fdb659"><path d="m503.941406 471.941406h-384.453125c-4.449219 0-8.058593-3.609375-8.058593-8.0625v-16.117187c0-4.453125 3.605468-8.0625 8.058593-8.0625h384.453125c4.449219 0 8.058594 3.609375 8.058594 8.0625v16.117187c0 4.453125-3.609375 8.0625-8.058594 8.0625zm0 0"/><path d="m385.503906 158.726562h-147.578125c-10.015625 0-18.132812-8.117187-18.132812-18.132812s8.117187-18.132812 18.132812-18.132812h147.578125c10.015625 0 18.132813 8.117187 18.132813 18.132812s-8.117188 18.132812-18.132813 18.132812zm0 0"/><path d="m323.691406 292.292969 20.320313-35.125c.695312-1.199219 2.246093-1.597657 3.417969-.859375 8.945312 5.628906 16.6875 13.453125 22.328124 23.25 5.640626 9.785156 8.53125 20.410156 8.914063 30.964844.050781 1.386718-1.078125 2.53125-2.460937 2.527343l-40.683594-.128906c-1.253906-.007813-2.273438-.96875-2.402344-2.214844-.632812-6.234375-3.929688-11.683593-8.734375-15.191406-1.019531-.746094-1.332031-2.128906-.699219-3.222656zm0 0"/><path d="m247.214844 312.9375c-1.386719.003906-2.507813-1.144531-2.457032-2.53125.398438-10.554688 3.3125-21.175781 8.96875-30.953125 5.660157-9.78125 13.414063-17.597656 22.367188-23.210937 1.171875-.734376 2.726562-.335938 3.417969.867187l20.257812 35.160156c.632813 1.09375.316407 2.476563-.707031 3.222657-4.820312 3.503906-8.125 8.960937-8.761719 15.210937-.128906 1.246094-1.152343 2.210937-2.40625 2.210937zm0 0"/><path d="m279.410156 368.832031 20.398438-35.253906c.632812-1.09375 1.988281-1.511719 3.144531-.996094 2.679687 1.191407 5.640625 1.855469 8.761719 1.855469 3.105468 0 6.054687-.65625 8.722656-1.839844 1.15625-.511718 2.511719-.09375 3.144531 1.003906l20.335938 35.289063c.691406 1.199219.261719 2.742187-.964844 3.386719-9.347656 4.9375-19.996094 7.722656-31.296875 7.714844-11.300781-.011719-21.949219-2.816407-31.285156-7.769532-1.222656-.648437-1.652344-2.195312-.960938-3.390625zm0 0"/><path d="m311.714844 320.550781h-.097656c-4.207032 0-7.613282-3.40625-7.613282-7.613281 0-4.203125 3.40625-7.609375 7.613282-7.609375 4.203124 0 7.660156 3.40625 7.660156 7.609375 0 4.207031-3.359375 7.613281-7.5625 7.613281zm0 0"/></g><path d="m77.152344 375.675781h-11.195313c-5.605469 0-10.148437-4.546875-10.148437-10.152343v-11.191407c0-5.605469 4.542968-10.148437 10.148437-10.148437h11.195313c5.605468 0 10.148437 4.542968 10.148437 10.148437v11.191407c0 5.605468-4.542969 10.152343-10.148437 10.152343zm0 0" fill="#eae1dc"/><path d="m142.546875 354.335938v11.191406c0 5.601562-4.535156 10.148437-10.148437 10.148437h-11.195313c-5.601563 0-10.148437-4.546875-10.148437-10.148437v-11.191406c0-5.605469 4.546874-10.152344 10.148437-10.152344h11.195313c3.65625 0 6.839843 1.917968 8.625 4.8125.964843 1.542968 1.523437 3.378906 1.523437 5.339844zm0 0" fill="#eae1dc"/><path d="m142.546875 354.335938v11.191406c0 5.601562-4.535156 10.148437-10.148437 10.148437h-.355469c3.796875-9.265625 6.71875-18.226562 8.984375-26.679687.960937 1.542968 1.519531 3.378906 1.519531 5.339844zm0 0" fill="#dfd0c7"/><path d="m160.613281 103.570312c0 4.203126-3.410156 7.613282-7.609375 7.613282h-42.242187c-1.398438 0-2.535157 1.136718-2.535157 2.535156v173.523438h-15.222656v-173.523438c0-9.792969 7.964844-17.757812 17.757813-17.757812h42.238281c4.203125 0 7.613281 3.40625 7.613281 7.609374zm0 0" fill="#9f8a8a"/><path d="m441.832031 26.679688h-108.902343c-7.367188 0-13.339844-5.972657-13.339844-13.339844 0-7.367188 5.972656-13.339844 13.339844-13.339844h108.902343c7.367188 0 13.339844 5.972656 13.339844 13.339844 0 7.367187-5.972656 13.339844-13.339844 13.339844zm0 0" fill="#fdb659"/></svg>