<svg height="512pt" viewBox="0 0 511 512" width="512pt" xmlns="http://www.w3.org/2000/svg"><path d="m256.183594 263.605469c-4.269532 0-7.726563-3.460938-7.726563-7.726563v-28.050781c0-4.265625 3.457031-7.722656 7.726563-7.722656 4.265625 0 7.726562 3.457031 7.726562 7.722656v28.050781c0 4.265625-3.460937 7.726563-7.726562 7.726563zm0 0" fill="#6163aa"/><path d="m437.601562 205.238281c-4.265624 0-7.722656-3.457031-7.722656-7.722656v-29.898437c0-4.269532 3.457032-7.726563 7.722656-7.726563 4.269532 0 7.726563 3.460937 7.726563 7.726563v29.898437c0 4.265625-3.457031 7.722656-7.726563 7.722656zm0 0" fill="#6163aa"/><path d="m57.605469 60.363281c-4.269531 0-7.726563-3.460937-7.726563-7.726562v-29.792969c0-4.269531 3.460938-7.726562 7.726563-7.726562s7.726562 3.460937 7.726562 7.726562v29.792969c0 4.269531-3.460937 7.726562-7.726562 7.726562zm0 0" fill="#2de0c7"/><path d="m79.210938 60.363281c-4.269532 0-7.726563-3.460937-7.726563-7.726562v-14.894531c0-4.269532 3.460937-7.726563 7.726563-7.726563 4.265624 0 7.726562 3.457031 7.726562 7.726563v14.894531c0 4.269531-3.457031 7.726562-7.726562 7.726562zm0 0" fill="#2de0c7"/><path d="m153.292969 232.25c-4.269531 0-7.726563-3.460938-7.726563-7.726562v-38.566407c0-4.269531 3.457032-7.726562 7.726563-7.726562 4.265625 0 7.726562 3.460937 7.726562 7.726562v38.566407c0 4.265624-3.460937 7.726562-7.726562 7.726562zm0 0" fill="#5100cb"/><path d="m511.867188 417.042969v72.824219c0 12.222656-9.910157 22.132812-22.144532 22.132812h-467.082031c-12.234375 0-22.140625-9.90625-22.140625-22.132812v-72.824219zm0 0" fill="#b200bf"/><path d="m511.867188 417.042969v49.253906c0 12.222656-9.910157 22.132813-22.144532 22.132813h-467.082031c-12.234375 0-22.140625-9.910157-22.140625-22.132813v-49.253906zm0 0" fill="#d82fea"/><path d="m489.726562 448.796875h-467.089843c-12.226563 0-22.136719-9.910156-22.136719-22.136719v-117.097656c0-12.226562 9.910156-22.136719 22.136719-22.136719h467.089843c12.226563 0 22.136719 9.910157 22.136719 22.136719v117.097656c.003907 12.226563-9.910156 22.136719-22.136719 22.136719zm0 0" fill="#e667f9"/><path d="m283.902344 102.457031h23.683594v147.769531h-23.683594zm0 0" fill="#5100cb"/><path d="m429.375 99.042969v32.296875c0 18.078125-59.832031 32.726562-133.632812 32.726562-8.972657 0-17.730469-.214844-26.207032-.636718-7.964844-.378907-15.679687-.9375-23.066406-1.667969-4.910156-.472657-9.683594-1.019531-14.28125-1.625-7.542969-.996094-14.652344-2.171875-21.226562-3.507813-29.828126-5.988281-48.851563-15.09375-48.851563-25.289062v-32.296875zm0 0" fill="#2de0c7"/><path d="m293.28125 99.042969-61.09375 61.09375c-7.542969-.996094-14.652344-2.167969-21.226562-3.507813l57.585937-57.589844h24.734375zm0 0" fill="#9bf2e5"/><path d="m333.925781 99.042969-64.390625 64.386719c-7.964844-.378907-15.679687-.933594-23.066406-1.664063l62.71875-62.722656zm0 0" fill="#9bf2e5"/><path d="m95.640625 381.167969v-321.230469c0-5.6875-4.617187-10.304688-10.304687-10.304688h-35.828126c-5.6875 0-10.304687 4.617188-10.304687 10.304688v321.230469zm0 0" fill="#6163aa"/><path d="m95.640625 381.167969v-34.652344h-10.539063v-5.9375c0-10.679687-8.695312-19.375-19.378906-19.375h-26.519531v59.964844zm0 0" fill="#4e5093"/><path d="m170.328125 381.167969v-150.261719c0-5.6875-4.605469-10.300781-10.304687-10.300781h-32.140626v-74.453125c0-3.554688-1.84375-6.871094-4.863281-8.746094l-41.183593-25.601562c-6.863282-4.265626-15.742188.671874-15.742188 8.757812v260.605469zm0 0" fill="#898ec9"/><path d="m170.328125 381.167969v-34.652344h-10.507813v-76.824219c0-10.679687-8.695312-19.375-19.378906-19.375h-10.886718c-10.675782 0-19.371094 8.695313-19.371094 19.375v76.824219h-25.082032v-5.9375c0-10.558594-8.5-19.171875-19.007812-19.363281v59.953125zm0 0" fill="#6163aa"/><path d="m429.378906 99.039062c0-18.074218-59.832031-32.726562-133.636718-32.726562-73.804688 0-133.636719 14.652344-133.636719 32.726562 0 18.074219 59.832031 32.726563 133.636719 32.726563 73.804687 0 133.636718-14.652344 133.636718-32.726563zm0 0" fill="#6163aa"/><path d="m468.371094 380.652344v-178.539063c0-5.699219-4.605469-10.304687-10.304688-10.304687h-126.628906c-2.738281 0-5.355469 1.082031-7.285156 3.019531l-49.417969 49.40625c-1.933594 1.9375-4.550781 3.019531-7.28125 3.019531h-17.976563c-5.6875 0-10.300781 4.613282-10.300781 10.300782v123.097656zm0 0" fill="#898ec9"/><path d="m468.371094 380.652344v-41.269532h-33.410156c-2.328126-8.085937-9.796876-14.019531-18.625-14.019531h-3.617188v-90.523437c0-10.683594-8.695312-19.375-19.367188-19.375h-14.679687c-5.171875 0-10.035156 2.015625-13.691406 5.675781l-14.894531 14.894531c-3.65625 3.65625-5.675782 8.519532-5.675782 13.703125v95.660157h-22.695312v-60.386719c0-10.671875-8.695313-19.367188-19.367188-19.367188h-28.136718c-10.683594 0-19.375 8.695313-19.375 19.367188v36.054687h-15.660157v59.585938zm0 0" fill="#6163aa"/><path d="m102.875 371.972656c-4.265625 0-7.726562-3.457031-7.726562-7.726562v-38.042969c0-4.265625 3.460937-7.726563 7.726562-7.726563 4.269531 0 7.726562 3.460938 7.726562 7.726563v38.042969c0 4.269531-3.457031 7.726562-7.726562 7.726562zm0 0" fill="#2500ad"/><path d="m337.894531 365.492188c-4.265625 0-7.726562-3.457032-7.726562-7.726563v-81.460937c0-4.269532 3.460937-7.726563 7.726562-7.726563 4.269531 0 7.726563 3.457031 7.726563 7.726563v81.460937c0 4.269531-3.460938 7.726563-7.726563 7.726563zm0 0" fill="#2500ad"/><path d="m295.425781 287.484375c-4.265625 0-7.726562-3.460937-7.726562-7.726563v-12.347656c0-4.265625 3.460937-7.726562 7.726562-7.726562 4.269531 0 7.726563 3.460937 7.726563 7.726562v12.347656c0 4.265626-3.457032 7.726563-7.726563 7.726563zm0 0" fill="#2500ad"/><path d="m29.144531 397.171875v-56.59375c0-3.871094 3.136719-7.011719 7.007813-7.011719h29.570312c3.871094 0 7.011719 3.140625 7.011719 7.011719v11.289063c0 3.871093 3.136719 7.007812 7.007813 7.007812h35.796874c3.871094 0 7.007813-3.136719 7.007813-7.007812v-82.179688c0-3.871094 3.140625-7.007812 7.011719-7.007812h10.886718c3.871094 0 7.007813 3.136718 7.007813 7.007812v82.179688c0 3.871093 3.140625 7.007812 7.011719 7.007812h31.695312c3.871094 0 7.007813-3.136719 7.007813-7.007812v-11.433594c0-3.871094 3.136719-7.007813 7.007812-7.007813h60.015625c3.871094 0 7.007813-3.140625 7.007813-7.011719v-41.398437c0-3.871094 3.140625-7.011719 7.011719-7.011719h28.132812c3.871094 0 7.007812 3.140625 7.007812 7.011719v65.738281c0 3.871094 3.136719 7.011719 7.007813 7.011719h33.402344c3.871093 0 7.011719-3.140625 7.011719-7.011719v-101.019531c0-1.859375.738281-3.640625 2.050781-4.957031l14.894531-14.894532c1.316406-1.3125 3.097656-2.054687 4.957031-2.054687h14.675781c3.871094 0 7.007813 3.140625 7.007813 7.011719v95.878906c0 3.871094 3.136719 7.007812 7.007813 7.007812h8.976562c3.871094 0 7.007812 3.136719 7.007812 7.007813s3.136719 7.011719 7.007813 7.011719h45.855469c3.871094 0 7.011718 3.136718 7.011718 7.007812v38.882813c0 3.875-3.144531 7.011719-7.015624 7.007812l-440.0625-.464843c-3.871094-.003907-7.003907-3.140626-7.003907-7.007813zm0 0" fill="#5100cb"/><path d="m483.226562 378.789062v18.851563c0 3.875-3.140624 7.003906-7.015624 7.003906l-440.066407-.460937c-3.863281-.011719-7.003906-3.144532-7.003906-7.019532v-18.839843c0 3.875 3.140625 7.003906 7.003906 7.015625l440.066407.464844c3.875 0 7.015624-3.144532 7.015624-7.015626zm0 0" fill="#2500ad"/><path d="m476.3125 258.8125h-31.445312c-8.554688 0-15.488282-6.9375-15.488282-15.492188 0-8.554687 6.933594-15.488281 15.488282-15.488281h31.445312c8.554688 0 15.488281 6.933594 15.488281 15.488281 0 8.554688-6.933593 15.492188-15.488281 15.492188zm0 0" fill="#2de0c7"/><path d="m81.175781 205.238281h-8.042969c-6.855468 0-12.40625-5.550781-12.40625-12.402343v-6.171876c0-6.851562 5.550782-12.402343 12.40625-12.402343h8.042969c6.851563 0 12.40625 5.550781 12.40625 12.402343v6.171876c0 6.851562-5.554687 12.402343-12.40625 12.402343zm0 0" fill="#2de0c7"/><path d="m81.175781 259.742188h-8.042969c-6.855468 0-12.40625-5.554688-12.40625-12.40625v-6.167969c0-6.851563 5.550782-12.40625 12.40625-12.40625h8.042969c6.851563 0 12.40625 5.554687 12.40625 12.40625v6.167969c0 6.851562-5.554687 12.40625-12.40625 12.40625zm0 0" fill="#2de0c7"/><g fill="#fda736"><path d="m224.972656 361.195312h-10.289062c-4.269532 0-7.726563-3.457031-7.726563-7.726562 0-4.265625 3.460938-7.726562 7.726563-7.726562h10.289062c4.269532 0 7.726563 3.460937 7.726563 7.726562 0 4.269531-3.460938 7.726562-7.726563 7.726562zm0 0"/><path d="m257.210938 361.195312h-10.289063c-4.269531 0-7.726563-3.457031-7.726563-7.726562 0-4.265625 3.460938-7.726562 7.726563-7.726562h10.289063c4.269531 0 7.726562 3.460937 7.726562 7.726562 0 4.269531-3.457031 7.726562-7.726562 7.726562zm0 0"/><path d="m368.84375 284.027344h-10.289062c-4.265626 0-7.726563-3.457032-7.726563-7.726563 0-4.265625 3.460937-7.726562 7.726563-7.726562h10.289062c4.269531 0 7.726562 3.460937 7.726562 7.726562 0 4.269531-3.457031 7.726563-7.726562 7.726563zm0 0"/><path d="m368.84375 305.121094h-10.289062c-4.265626 0-7.726563-3.460938-7.726563-7.726563s3.460937-7.726562 7.726563-7.726562h10.289062c4.269531 0 7.726562 3.460937 7.726562 7.726562s-3.457031 7.726563-7.726562 7.726563zm0 0"/><path d="m368.84375 326.214844h-10.289062c-4.265626 0-7.726563-3.460938-7.726563-7.726563 0-4.269531 3.460937-7.726562 7.726563-7.726562h10.289062c4.269531 0 7.726562 3.460937 7.726562 7.726562s-3.457031 7.726563-7.726562 7.726563zm0 0"/><path d="m368.84375 347.304688h-10.289062c-4.265626 0-7.726563-3.457032-7.726563-7.726563 0-4.265625 3.460937-7.722656 7.726563-7.722656h10.289062c4.269531 0 7.726562 3.457031 7.726562 7.722656 0 4.269531-3.457031 7.726563-7.726562 7.726563zm0 0"/></g><path d="m383.523438 98.683594h-175.570313c-6.152344 0-10.949219-5.363282-10.242187-11.476563 5.6875-49.09375 47.402343-87.207031 98.03125-87.207031 15.785156 0 30.703124 3.714844 43.9375 10.300781 5.246093 2.609375 10.226562 5.679688 14.886718 9.15625 8.292969 6.152344 15.578125 13.582031 21.574219 21.996094 4.804687 6.738281 8.789063 14.105469 11.792969 21.96875 2.878906 7.511719 4.867187 15.46875 5.828125 23.734375.710937 6.132812-4.066407 11.527344-10.238281 11.527344zm0 0" fill="#2de0c7"/><path d="m354.566406 19.457031-79.226562 79.226563h-24.042969l88.382813-88.382813c5.246093 2.613281 10.226562 5.679688 14.886718 9.15625zm0 0" fill="#9bf2e5"/><path d="m387.933594 63.421875-35.261719 35.261719h-33.757813l57.230469-57.230469c4.804688 6.742187 8.785157 14.109375 11.789063 21.96875zm0 0" fill="#9bf2e5"/><path d="m360.558594 59.800781c-2.136719-.1875-4.183594-1.253906-5.554688-3.117187-5.773437-7.832032-12.9375-14.296875-21.289062-19.214844-3.679688-2.167969-4.902344-6.902344-2.738282-10.578125 2.164063-3.679687 6.902344-4.902344 10.578126-2.738281 10.160156 5.980468 18.867187 13.84375 25.886718 23.363281 2.53125 3.4375 1.800782 8.273437-1.636718 10.804687-1.574219 1.160157-3.441407 1.632813-5.246094 1.480469zm0 0" fill="#9bf2e5"/><path d="m307.585938 41.382812v57.300782h-23.683594v-57.300782c0-3.273437 1.328125-6.234374 3.46875-8.375 2.140625-2.140624 5.101562-3.46875 8.375-3.46875 6.53125 0 11.839844 5.300782 11.839844 11.84375zm0 0" fill="#7e18ea"/><path d="m307.585938 42.390625v24.046875l-23.683594 23.683594v-24.046875zm0 0" fill="#b200bf"/></svg>