<svg id="Layer_1" enable-background="new 0 0 58 58" height="512" viewBox="0 0 58 58" width="512" xmlns="http://www.w3.org/2000/svg"><path d="m29 14c-.552 0-1-.447-1-1v-5c0-.553.448-1 1-1s1 .447 1 1v5c0 .553-.448 1-1 1z" fill="#3c3b41"/><path d="m18.94 42.658c-.144-.395-.52-.658-.94-.658h-12c-.321 0-.623.154-.811.415s-.239.597-.138.901l1.772 5.316c.273.818 1.036 1.368 1.898 1.368h11.459c.326 0 .632-.159.819-.426.188-.268.232-.609.121-.916z" fill="#3c3b41"/><path d="m52.812 42.415c-.189-.261-.491-.415-.812-.415h-12c-.421 0-.796.264-.939.658l-2.18 6c-.111.307-.066.648.12.916.187.267.493.426.819.426h11.459c.862 0 1.625-.55 1.896-1.367l1.772-5.316c.104-.305.052-.641-.135-.902z" fill="#3c3b41"/><path d="m40.939 43.342c.112-.307.066-.648-.12-.916-.187-.267-.493-.426-.819-.426h-22c-.326 0-.632.159-.819.426-.188.268-.232.609-.121.916l3.761 10.341c.285.788 1.041 1.317 1.879 1.317h12.6c.838 0 1.594-.529 1.879-1.316z" fill="#57555c"/><path d="m28 55v-6c0-.553.448-1 1-1s1 .447 1 1v6z" fill="#78777f"/><path d="m33 43c0-.553-.447-1-1-1h-6c-.552 0-1 .447-1 1v6c0 .553.448 1 1 1h6c.553 0 1-.447 1-1z" fill="#8b8992"/><path d="m32 12h-6c-1.103 0-2 .897-2 2v3c0 .553.448 1 1 1h8c.553 0 1-.447 1-1v-3c0-1.103-.897-2-2-2z" fill="#ffb74f"/><circle cx="29" cy="6" fill="#ff9a00" r="3"/><path d="m42 16h-26c-6.065 0-11 4.935-11 11v6c0 .553.448 1 1 1h46c.553 0 1-.447 1-1v-6c0-6.065-4.935-11-11-11z" fill="#ffdba9"/><path d="m11.316 24.254c-.22 0-.44-.072-.625-.22-.431-.346-.5-.975-.155-1.405 1.339-1.671 3.331-2.629 5.464-2.629h2c.552 0 1 .447 1 1s-.448 1-1 1h-2c-1.523 0-2.946.685-3.903 1.879-.198.247-.488.375-.781.375z" fill="#f5f5f5"/><path d="m23 22h-1c-.552 0-1-.447-1-1s.448-1 1-1h1c.552 0 1 .447 1 1s-.448 1-1 1z" fill="#f5f5f5"/><path d="m37 22h-4c-1.103 0-2 .897-2 2v9c0 .552.447 1 1 1h6c.553 0 1-.448 1-1v-9c0-1.103-.897-2-2-2z" fill="#aeadb3"/><path d="m31 24h-4c-1.103 0-2 .897-2 2v7c0 .552.447 1 1 1h6c.553 0 1-.448 1-1v-7c0-1.103-.897-2-2-2z" fill="#8b8992"/><path d="m21 28h-10c-1.103 0-2 .897-2 2v3c0 .552.447 1 1 1h12c.553 0 1-.448 1-1v-3c0-1.103-.897-2-2-2z" fill="#ffb74f"/><path d="m47 28h-4c-1.103 0-2 .897-2 2v3c0 .552.447 1 1 1h6c.553 0 1-.448 1-1v-3c0-1.103-.897-2-2-2z" fill="#ffa91f"/><path d="m58 38c0-3.309-2.691-6-6-6h-46c-3.309 0-6 2.691-6 6s2.691 6 6 6h46c3.309 0 6-2.691 6-6z" fill="#ff9a00"/><path d="m10 39h-9c-.552 0-1-.447-1-1s.448-1 1-1h9c.552 0 1 .447 1 1s-.448 1-1 1z" fill="#e67500"/><path d="m57 39h-41c-.552 0-1-.447-1-1s.448-1 1-1h41c.553 0 1 .447 1 1s-.447 1-1 1z" fill="#e67500"/><g fill="#ff9a00"><circle cx="51" cy="6" r="3"/><circle cx="8" cy="11" r="3"/><circle cx="42" cy="11" r="1"/><circle cx="17" cy="9" r="1"/></g></svg>