<svg height="512pt" viewBox="0 0 512 512" width="512pt" xmlns="http://www.w3.org/2000/svg"><path d="m316 0c-41.351562 0-75 33.648438-75 75h150c0-41.351562-33.648438-75-75-75zm0 0" fill="#6aa9ff"/><path d="m301 75h30v180h-30zm0 0" fill="#47568c"/><path d="m211 240h180v76h-180zm0 0" fill="#bbdcff"/><path d="m256 240h135v76h-135zm0 0" fill="#6aa9ff"/><path d="m31 60h150v256h-150zm0 0" fill="#7ed8f6"/><path d="m91 110.726562v205.273438h150v-130.273438zm0 0" fill="#e0f4ff"/><path d="m427.898438 400.300781-25.5 5.699219 1.800781 15.898438-96.300781 24-35.398438-33.300782 13.5 57.003906-23.402344 42.398438-6.597656-3.300781-70.5-32.199219-55.800781-55.5 21.300781-15-78.601562-15-7.5-3.898438-32.398438-64.503906 223.5.902344 222.597656.898438zm0 0" fill="#61729b"/><path d="m427.898438 400.300781-25.5 5.699219 1.800781 15.898438-96.300781 24-35.398438-33.300782 13.5 57.003906-23.402344 42.398438-6.597656-3.300781v-185.199219l222.597656.898438zm0 0" fill="#47568c"/><path d="m361 150h120v166h-120zm0 0" fill="#bbdcff"/><path d="m211 361h-30v30h-108.535156l54.644531 27.335938 2.664063 2.664062h81.226562zm0 0" fill="#47568c"/><path d="m307.898438 445.898438-11.699219 3-10.199219 20.703124-43.5-87.003906 13.5-6.597656 13.5-6.601562zm0 0" fill="#47568c"/><path d="m427.902344 400.175781-78.355469-39.175781h-48.546875v30h41.453125l61.789063 30.894531 11.015624-2.753906zm0 0" fill="#2c3b73"/><path d="m269.5 369.398438 38.398438 76.5-11.699219 3-10.199219 20.703124-30-60v-33.601562zm0 0" fill="#2c3b73"/><path d="m0 301h512v30h-512zm0 0" fill="#a8ebfa"/><path d="m256 301h256v30h-256zm0 0" fill="#7ed8f6"/><path d="m211 60h210v30h-210zm0 0" fill="#e0f4ff"/><path d="m256 60h165v30h-165zm0 0" fill="#bbdcff"/></svg>