<svg height="512" viewBox="0 0 64 64" width="512" xmlns="http://www.w3.org/2000/svg"><g id="_04-pirate_sword" data-name="04-pirate sword"><path d="m63 17v4.13a20.377 20.377 0 0 1 -.49 4.6 26.319 26.319 0 0 1 -9.51 15.27 88.652 88.652 0 0 1 -8 5.36l-.14.16c-1.38-1.03-3.36-2.59-5.73-4.65 11.94-8.4 23.97-22.03 17.87-40.87 3 2 6 7.16 6 16z" fill="#c9c3c3"/><path d="m57 1c6.1 18.84-5.93 32.47-17.87 40.87-2.11-1.83-4.53-4.05-7.13-6.64 8.19-8.15 18.04-19.89 25-34.23z" fill="#1e1c1d"/><path d="m50.3 50.16-4.45 6.31-1.12 1.58a3.109 3.109 0 0 1 .02 3.61 3.167 3.167 0 0 1 -4.4.77 3.124 3.124 0 0 1 -.78-4.37l1.59-2.26 2.72-3.84 2.89-4.1 2.48-3.52a3.167 3.167 0 0 1 4.4-.77 3.124 3.124 0 0 1 .78 4.37 3.174 3.174 0 0 1 -3.43 1.22z" fill="#323236"/><path d="m39.13 41.87c2.37 2.06 4.35 3.62 5.73 4.65.93.7 1.58 1.14 1.91 1.34l-2.89 4.1c-2.62-.96-47.56-17.95-36.88-50.96 6.96 14.34 16.82 26.08 25 34.23 2.6 2.59 5.02 4.81 7.13 6.64z" fill="#46454a"/><path d="m43.88 51.96-2.72 3.84a77.341 77.341 0 0 1 -9.16-3.04c-2.08-.83-4.4-1.84-6.88-3.08-1.92-.94-3.93-2.03-6-3.25a89.025 89.025 0 0 1 -8.12-5.43 26.319 26.319 0 0 1 -9.51-15.27 20.377 20.377 0 0 1 -.49-4.6v-4.13c0-8.84 3-14 6-16-10.68 33.01 34.26 50 36.88 50.96z" fill="#ede4e5"/><path d="m25.12 49.68c2.48 1.24 4.8 2.25 6.88 3.08a75.438 75.438 0 0 1 -9.16 3.04l-2.72-3.84c.46-.17 2.27-.85 4.88-2.04z" fill="#a8a3a3"/><path d="m25.12 49.68-.12.24c-2.61 1.19-4.42 1.87-4.88 2.04l-2.89-4.1c.31-.18.92-.6 1.77-1.23l.12-.2c2.07 1.22 4.08 2.31 6 3.25z" fill="#1e1613"/><path d="m20.12 51.96 2.72 3.84 1.59 2.26a3.124 3.124 0 0 1 -.78 4.37 3.167 3.167 0 0 1 -4.4-.77 3.109 3.109 0 0 1 .02-3.61l-1.12-1.58-4.45-6.31-.7-1a3.174 3.174 0 0 1 -3.43-1.22 3.124 3.124 0 0 1 .78-4.37 3.167 3.167 0 0 1 4.4.77l2.48 3.52z" fill="#1e1e20"/><path d="m63 58.61v1.33a2.838 2.838 0 0 1 -1.04 2.16 3.843 3.843 0 0 1 -2.51.9 3.92 3.92 0 0 1 -1.83-.44l-3.04-1.57a8.614 8.614 0 0 0 7.26-4.64 2.867 2.867 0 0 1 1.16 2.26z" fill="#de9937"/><path d="m61.31 56a3.243 3.243 0 0 1 .53.35 8.614 8.614 0 0 1 -7.26 4.64l-5.62-2.91.04-.08a11.718 11.718 0 0 0 8.86-3.83z" fill="#f0a53b"/><path d="m50.3 50.16 7.56 4.01a11.718 11.718 0 0 1 -8.86 3.83l-.04.08-3.11-1.61z" fill="#de9937"/><path d="m13.7 50.16 4.45 6.31-3.11 1.61-.04-.08a11.718 11.718 0 0 1 -8.86-3.83z" fill="#de9937"/><path d="m15 58 .04.08-5.62 2.91a8.614 8.614 0 0 1 -7.26-4.64 3.243 3.243 0 0 1 .53-.35l3.45-1.83a11.718 11.718 0 0 0 8.86 3.83z" fill="#f0a53b"/><path d="m9.42 60.99-3.04 1.57a3.92 3.92 0 0 1 -1.83.44 3.843 3.843 0 0 1 -2.51-.9 2.838 2.838 0 0 1 -1.04-2.16v-1.33a2.867 2.867 0 0 1 1.16-2.26 8.614 8.614 0 0 0 7.26 4.64z" fill="#de9937"/><path d="m44.86 46.52c-.346-.258-.73-.55-1.148-.874a27.809 27.809 0 0 1 -4.643 4.3c2.564 1.171 4.348 1.841 4.811 2.011l2.89-4.1c-.33-.197-.98-.637-1.91-1.337z" fill="#323236"/><path d="m32.973 53.136a76.57 76.57 0 0 0 8.187 2.664l2.72-3.84c-.463-.17-2.247-.84-4.811-2.011a22.057 22.057 0 0 1 -6.096 3.187z" fill="#c9c3c3"/><path d="m41.57 59.06 1.59-2.26 2.72-3.84 2.89-4.1 2.48-3.52a3.156 3.156 0 0 1 2.922-1.309 3.131 3.131 0 0 0 -.522-.461 3.167 3.167 0 0 0 -4.4.77l-2.48 3.52-2.89 4.1-2.72 3.84-1.59 2.26a3.123 3.123 0 0 0 2.258 4.908 3.118 3.118 0 0 1 -.258-3.908z" fill="#4a494e"/><path d="m22.84 55.8-2.72-3.84-2.89-4.1-2.48-3.52a3.167 3.167 0 0 0 -4.4-.77 3.131 3.131 0 0 0 -.522.461 3.156 3.156 0 0 1 2.922 1.309l2.48 3.52 2.89 4.1 2.72 3.84 1.59 2.26a3.118 3.118 0 0 1 -.258 3.908 3.123 3.123 0 0 0 2.258-4.908z" fill="#323236"/><path d="m12.971 30.984c4.552 2.092 10.644 3.685 18.789 4-8.133-8.137-17.867-19.784-24.76-33.984-3.939 12.175-.309 22.168 5.971 29.984z" fill="#5b5a61"/><path d="m12.971 30.984c-6.28-7.816-9.91-17.809-5.971-29.984-3 2-6 7.16-6 16v3.394c1.443 2.745 4.783 7.286 11.971 10.59z" fill="#fff6f7"/><path d="m52.215 29.437a32.941 32.941 0 0 0 10.771-7.732c.005-.192.014-.384.014-.575v-4.13c0-8.84-3-14-6-16 3.686 11.384.748 20.862-4.785 28.437z" fill="#ede4e5"/><path d="m52.215 29.437c5.533-7.575 8.471-17.053 4.785-28.437a127.244 127.244 0 0 1 -22.845 32.034 43.3 43.3 0 0 0 18.06-3.597z" fill="#46454a"/><path d="m39.13 41.87c2.37 2.06 4.35 3.62 5.73 4.65l.14-.16c1.019-.6 2.052-1.256 3.091-1.932l-5.891-4.851c-1.016.801-2.042 1.57-3.07 2.293z" fill="#a8a3a3"/><path d="m34.253 33.032h-.1c-.728.755-1.449 1.494-2.155 2.2 2.6 2.59 5.02 4.81 7.13 6.64 1.028-.723 2.054-1.492 3.071-2.293z" fill="#0a0b0d"/><path d="m12.971 30.984c-7.188-3.304-10.528-7.845-11.971-10.59v.736a20.377 20.377 0 0 0 .49 4.6 29.13 29.13 0 0 0 2.633 7.112 50.446 50.446 0 0 0 15.207 4.7 51.74 51.74 0 0 1 -6.359-6.558z" fill="#fffffd"/><path d="m43.2 45.239c.612.482 1.185.925 1.662 1.281l.14-.16c1-.592 2.006-1.228 3.022-1.888l-1.57-1.282c-1.095.719-2.183 1.41-3.254 2.049z" fill="#ede4e5"/><path d="m57 1c.151.468.283.929.412 1.39 2.01 2.739 3.588 7.203 3.588 13.61v4.13a20.377 20.377 0 0 1 -.49 4.6 26.319 26.319 0 0 1 -9.51 15.27c-1.524 1.145-3.042 2.2-4.546 3.19l1.568 1.282c1.645-1.072 3.308-2.217 4.978-3.472a26.319 26.319 0 0 0 9.51-15.27 20.377 20.377 0 0 0 .49-4.6v-4.13c0-8.84-3-14-6-16z" fill="#fff6f7"/><path d="m34 51.76c-2.08-.83-4.4-1.84-6.88-3.08-1.92-.94-3.93-2.03-6-3.25a89.025 89.025 0 0 1 -8.12-5.43 26.319 26.319 0 0 1 -9.51-15.27 20.377 20.377 0 0 1 -.49-4.6v-4.13c0-6.4 1.574-10.86 3.58-13.6.13-.463.268-.929.42-1.4-3 2-6 7.16-6 16v4.13a20.377 20.377 0 0 0 .49 4.6 26.319 26.319 0 0 0 9.51 15.27 89.025 89.025 0 0 0 8.12 5.43c2.07 1.22 4.08 2.31 6 3.25 2.48 1.24 4.8 2.25 6.88 3.08.243.1.47.182.707.273a9.067 9.067 0 0 0 2.619-.758q-.645-.244-1.326-.515z" fill="#fffffd"/><path d="m32.707 53.033a77.035 77.035 0 0 0 8.453 2.767l.916-1.293c-1.515-.421-3.849-1.131-6.75-2.232a9.067 9.067 0 0 1 -2.619.758z" fill="#fff6f7"/><path d="m21.918 54.5.922 1.3a75.438 75.438 0 0 0 9.16-3.04c-.652-.261-1.336-.546-2.033-.843a49.641 49.641 0 0 1 -8.049 2.583z" fill="#c9c3c3"/><path d="m58.943 60.471-.827-.413a8.755 8.755 0 0 1 -3.536.932l3.04 1.57a3.92 3.92 0 0 0 1.83.44 3.843 3.843 0 0 0 2.51-.9 2.852 2.852 0 0 0 1.009-1.891 4 4 0 0 1 -4.026.262z" fill="#c47f1f"/><path d="m53.04 57.52c-.07-.035-.125-.084-.191-.123a12.345 12.345 0 0 1 -3.849.603l-.04.08 5.62 2.91a8.755 8.755 0 0 0 3.536-.932z" fill="#d19034"/><path d="m52.849 57.4a2.99 2.99 0 0 1 -.964-4.225l1.07-1.6-2.655-1.415-4.45 6.31 3.11 1.61.04-.08a12.345 12.345 0 0 0 3.849-.6z" fill="#c47f1f"/><path d="m11.045 51.568 1.07 1.6a2.99 2.99 0 0 1 -.964 4.225 12.345 12.345 0 0 0 3.849.607l.04.08 3.11-1.61-4.45-6.31z" fill="#c47f1f"/><path d="m11.151 57.4c-.066.039-.121.088-.191.123l-5.076 2.535a8.755 8.755 0 0 0 3.536.932l5.62-2.91-.04-.08a12.345 12.345 0 0 1 -3.849-.6z" fill="#d19034"/><path d="m5.057 60.471a4 4 0 0 1 -4.026-.262 2.852 2.852 0 0 0 1.009 1.891 3.843 3.843 0 0 0 2.51.9 3.92 3.92 0 0 0 1.83-.44l3.04-1.57a8.755 8.755 0 0 1 -3.536-.932z" fill="#c47f1f"/><path d="m51.705 12.027a78.284 78.284 0 0 1 -6.643 9.912c-1.2 1.492.913 3.628 2.121 2.121a83.183 83.183 0 0 0 7.117-10.519 1.5 1.5 0 0 0 -2.591-1.514z" fill="#5b5a61"/><path d="m54.308 7.244q-.3.575-.6 1.148a1.532 1.532 0 0 0 .538 2.052 1.516 1.516 0 0 0 2.054-.538c.2-.382.4-.765.6-1.148a1.533 1.533 0 0 0 -.538-2.052 1.515 1.515 0 0 0 -2.052.538z" fill="#5b5a61"/><g fill="#73717a"><path d="m9.307 13.541a83.354 83.354 0 0 0 7.112 10.519c1.208 1.506 3.318-.629 2.122-2.122a78.166 78.166 0 0 1 -6.641-9.911 1.5 1.5 0 0 0 -2.591 1.514z"/><path d="m6.705 8.758q.3.575.6 1.148a1.5 1.5 0 1 0 2.595-1.514q-.3-.573-.6-1.148a1.5 1.5 0 0 0 -2.59 1.514z"/></g></g></svg>