<?xml version="1.0" encoding="iso-8859-1"?>
<!-- Generator: Adobe Illustrator 19.0.0, SVG Export Plug-In . SVG Version: 6.00 Build 0)  -->
<svg version="1.1" id="Capa_1" xmlns="http://www.w3.org/2000/svg" xmlns:xlink="http://www.w3.org/1999/xlink" x="0px" y="0px"
	 viewBox="0 0 512 512" style="enable-background:new 0 0 512 512;" xml:space="preserve">
<path style="fill:#46738C;" d="M18.557,351.825C6.629,322.306,0.036,290.061,0,256.276C-0.149,115.084,114.808-0.001,256.001,0
	C397.386,0.001,512,114.616,512,256c0,33.916-6.608,66.284-18.589,95.904c-2.79,6.897-10.534,10.355-17.527,7.816
	C411.693,336.421,336.461,323,256,323c-80.463,0-155.696,13.421-219.887,36.722C29.089,362.272,21.357,358.753,18.557,351.825z"/>
<path style="fill:#B97D23;" d="M385,90c24.853,0,45,20.147,45,45s-20.147,45-45,45s-45-20.147-45-45S360.147,90,385,90z"/>
<path style="fill:#D29137;" d="M430,135c0,19.592-12.524,36.251-30,42.429c-17.476-6.179-30-22.838-30-42.429
	c0-19.592,12.524-36.251,30-42.429C417.476,98.749,430,115.408,430,135z"/>
<path style="fill:#E65AA0;" d="M80,40c22.091,0,40,17.909,40,40s-17.909,40-40,40s-40-17.909-40-40S57.909,40,80,40z"/>
<path style="fill:#BE4178;" d="M95,117.081C90.367,118.958,85.306,120,80,120c-22.091,0-40-17.909-40-40s17.909-40,40-40
	c5.306,0,10.367,1.042,15,2.919C80.343,48.854,70,63.215,70,80S80.343,111.146,95,117.081z"/>
<path style="fill:#50C8C8;" d="M271,95v20c0,8.284-6.716,15-15,15c-8.284,0-15-6.716-15-15V95c0-6.528,4.178-12.067,10-14.128V5
	c0-2.761,2.239-5,5-5c2.761,0,5,2.239,5,5v75.872C266.822,82.933,271,88.472,271,95z M294,40c-2.761,0-5,2.239-5,5v110
	c0,2.761,2.239,5,5,5s5-2.239,5-5V45C299,42.239,296.761,40,294,40z M218,40c-2.761,0-5,2.239-5,5v110c0,2.761,2.239,5,5,5
	s5-2.239,5-5V45C223,42.239,220.761,40,218,40z"/>
<path style="fill:#64D2CD;" d="M431,265c0,96.65-78.35,175-175,175S81,361.65,81,265S159.35,90,256,90S431,168.35,431,265z"/>
<g>
	<path style="fill:#82E1E1;" d="M275.5,91.087C188.03,100.787,120,174.943,120,265s68.03,164.213,155.5,173.913
		C362.97,429.213,431,355.057,431,265S362.97,100.787,275.5,91.087z M231,155c0-2.761,2.239-5,5-5h40c2.761,0,5,2.239,5,5v10
		c0,2.761-2.239,5-5,5h-40c-2.761,0-5-2.239-5-5V155z M256,371.129c-49.884,0-90.323-40.438-90.323-90.322
		s40.439-90.323,90.323-90.323s90.323,40.439,90.323,90.323S305.884,371.129,256,371.129z"/>
	<path style="fill:#82E1E1;" d="M256,90c26.439,0,51.502,5.874,73.972,16.371c-22.471,10.497-47.534,16.371-73.972,16.371
		s-51.502-5.874-73.972-16.371C204.498,95.874,229.561,90,256,90z"/>
</g>
<g>
	<path style="fill:#9BF5F0;" d="M275.549,91.082c19.257,2.144,37.569,7.417,54.423,15.289
		c-22.471,10.497-47.534,16.371-73.972,16.371c-17.857,0-35.083-2.689-51.31-7.663C225.808,102.33,249.84,93.925,275.549,91.082z"/>
	<path style="fill:#9BF5F0;" d="M323.742,280.806c0,37.413-30.329,67.742-67.742,67.742s-67.742-30.329-67.742-67.742
		s30.329-67.742,67.742-67.742S323.742,243.394,323.742,280.806z"/>
</g>
<path style="fill:#50C8C8;" d="M299.738,292.097c-5.013,19.479-22.695,33.871-43.738,33.871s-38.725-14.393-43.738-33.871h10.513
	c2.761,0,5-2.238,5-5v-12.581c0-2.761-2.239-5-5-5h-10.513c4.085-15.87,16.578-28.363,32.448-32.448v10.513c0,2.761,2.239,5,5,5
	h12.581c2.761,0,5-2.239,5-5v-10.513c15.87,4.085,28.363,16.579,32.448,32.448h-10.513c-2.761,0-5,2.239-5,5v12.581
	c0,2.762,2.239,5,5,5H299.738z"/>
<path style="fill:#FFD78C;" d="M493.577,351.5C455.723,445.579,363.624,512,256,512S56.277,445.579,18.423,351.5
	C86.297,324.04,168.025,308,256,308S425.703,324.04,493.577,351.5z"/>
<path style="fill:#F7E9AA;" d="M256,308c87.975,0,169.703,16.04,237.577,43.5c-34.018,84.548-111.85,146.746-205.385,158.484
	C184.264,497.687,97.29,430.107,57.453,337.47C116.74,318.659,184.293,308,256,308z"/>
<path style="fill:#DCA041;" d="M167.5,363c0,8.284-15.11,15-33.75,15S100,371.284,100,363s15.11-15,33.75-15
	S167.5,354.716,167.5,363z M355,368c-24.853,0-45,8.954-45,20s20.147,20,45,20s45-8.954,45-20S379.853,368,355,368z M246.25,428
	c-31.066,0-56.25,11.193-56.25,25s25.184,25,56.25,25s56.25-11.193,56.25-25S277.316,428,246.25,428z"/>
<path style="fill:#D29137;" d="M302.5,453c0,13.807-25.184,25-56.25,25c-3.415,0-6.753-0.143-10-0.402
	C262.542,475.5,282.5,465.289,282.5,453c0-12.29-19.958-22.5-46.25-24.598c3.247-0.259,6.585-0.402,10-0.402
	C277.316,428,302.5,439.193,302.5,453z M133.75,348c-3.482,0-6.84,0.235-10,0.67c13.757,1.894,23.75,7.593,23.75,14.33
	s-9.993,12.436-23.75,14.33c3.16,0.435,6.518,0.67,10,0.67c18.64,0,33.75-6.716,33.75-15S152.39,348,133.75,348z M355,368
	c-3.439,0-6.782,0.177-10,0.502c20.037,2.021,35,9.98,35,19.498s-14.963,17.477-35,19.498c3.218,0.325,6.561,0.502,10,0.502
	c24.853,0,45-8.954,45-20S379.853,368,355,368z"/>
<path style="fill:#FFC772;" d="M472.667,169.321l4.732,2.588c3.468,1.897,3.468,6.877,0,8.774l-4.732,2.588
	c-0.839,0.459-1.529,1.149-1.988,1.988l-2.588,4.732c-1.897,3.468-6.877,3.468-8.774,0l-2.588-4.732
	c-0.459-0.839-1.149-1.529-1.988-1.988l-4.732-2.588c-3.468-1.897-3.468-6.877,0-8.774l4.732-2.588
	c0.839-0.459,1.529-1.149,1.988-1.988l2.588-4.732c1.897-3.468,6.877-3.468,8.774,0l2.588,4.732
	C471.138,168.172,471.828,168.862,472.667,169.321z"/>
<path style="fill:#E6B455;" d="M52.667,196.729l4.732,2.588c3.468,1.897,3.468,6.877,0,8.774l-4.732,2.588
	c-0.839,0.459-1.529,1.149-1.988,1.988l-2.588,4.732c-1.897,3.468-6.877,3.468-8.774,0l-2.588-4.732
	c-0.459-0.839-1.149-1.529-1.988-1.988l-4.732-2.588c-3.468-1.897-3.468-6.877,0-8.774l4.732-2.588
	c0.839-0.459,1.529-1.149,1.988-1.988l2.588-4.732c1.897-3.468,6.877-3.468,8.774,0l2.588,4.732
	C51.138,195.581,51.828,196.271,52.667,196.729z"/>
<path style="fill:#415F78;" d="M357.399,48.091l-4.732,2.588c-0.839,0.459-1.529,1.149-1.988,1.988l-2.588,4.732
	c-1.897,3.468-6.877,3.468-8.773,0l-2.588-4.732c-0.459-0.839-1.149-1.529-1.988-1.988l-4.732-2.588
	c-3.468-1.897-3.468-6.877,0-8.774l4.732-2.588c0.839-0.459,1.529-1.148,1.988-1.988l2.588-4.732c1.897-3.468,6.877-3.468,8.773,0
	l2.588,4.732c0.459,0.839,1.149,1.529,1.988,1.988l4.732,2.588C360.867,41.214,360.867,46.194,357.399,48.091z M479.99,269.317
	l-4.732-2.588c-0.839-0.459-1.529-1.148-1.988-1.988l-2.588-4.732c-1.897-3.468-6.877-3.468-8.774,0l-2.588,4.732
	c-0.459,0.839-1.149,1.529-1.988,1.988l-4.732,2.588c-3.468,1.897-3.468,6.877,0,8.774l4.732,2.588
	c0.839,0.459,1.529,1.149,1.988,1.988l2.588,4.732c1.897,3.468,6.877,3.468,8.774,0l2.588-4.732
	c0.459-0.839,1.149-1.529,1.988-1.988l4.732-2.588C483.458,276.194,483.458,271.214,479.99,269.317z M177.399,79.317l-4.732-2.588
	c-0.839-0.459-1.529-1.148-1.988-1.988l-2.588-4.732c-1.897-3.468-6.877-3.468-8.773,0l-2.588,4.732
	c-0.459,0.839-1.149,1.529-1.988,1.988l-4.732,2.588c-3.468,1.897-3.468,6.877,0,8.774l4.732,2.588
	c0.839,0.459,1.529,1.149,1.988,1.988l2.588,4.732c1.897,3.468,6.877,3.468,8.773,0l2.588-4.732
	c0.459-0.839,1.149-1.529,1.988-1.988l4.732-2.588C180.867,86.194,180.867,81.214,177.399,79.317z"/>
<g>
</g>
<g>
</g>
<g>
</g>
<g>
</g>
<g>
</g>
<g>
</g>
<g>
</g>
<g>
</g>
<g>
</g>
<g>
</g>
<g>
</g>
<g>
</g>
<g>
</g>
<g>
</g>
<g>
</g>
</svg>
