<svg id="Layer_1" enable-background="new 0 0 512 512" height="512" viewBox="0 0 512 512" width="512" xmlns="http://www.w3.org/2000/svg"><g><path d="m256 0c-123.638 0-223.867 100.229-223.867 223.867v258.133c0 8.284 6.716 15 15 15h417.733c8.284 0 15-6.716 15-15v-258.133c.001-123.638-100.228-223.867-223.866-223.867z" fill="#f0f5fa"/><path d="m464.867 497c8.284 0 15-6.716 15-15v-258.133c0-123.638-100.229-223.867-223.867-223.867v497z" fill="#f0f5fa"/><g fill="#c6e0ea"><path d="m464.867 497c8.284 0 15-6.716 15-15v-258.133c0-123.638-100.229-223.867-223.867-223.867v497z"/><path d="m159.6 367.4c-8.284 0-15-6.716-15-15v-64.267c0-8.284 6.716-15 15-15s15 6.716 15 15v64.267c0 8.284-6.716 15-15 15z"/><path d="m183.7 246.9c-3.839 0-7.678-1.464-10.606-4.394-5.858-5.858-5.858-15.355 0-21.213l40.167-40.167c5.857-5.858 15.355-5.858 21.213 0s5.858 15.355 0 21.213l-40.167 40.167c-2.929 2.93-6.768 4.394-10.607 4.394z"/></g><path d="m352.4 271c-8.284 0-15-6.716-15-15v-112.467c0-8.284 6.716-15 15-15s15 6.716 15 15v112.467c0 8.284-6.716 15-15 15z" fill="#9bcada"/><path d="m207.8 497h-96.4c-8.284 0-15-6.716-15-15v-129.6c0-8.284 6.716-15 15-15h96.4c8.284 0 15 6.716 15 15v129.6c0 8.284-6.716 15-15 15z" fill="#9bcada"/><path d="m239.933 303.133h-80.333c-25.989 0-47.133-21.144-47.133-47.133v-80.333c0-6.067 3.655-11.537 9.26-13.858 5.604-2.322 12.057-1.039 16.347 3.252l112.466 112.466c4.29 4.29 5.573 10.742 3.252 16.347-2.322 5.605-7.792 9.259-13.859 9.259z" fill="#9bcada"/><path d="m400.6 497h-64.267c-8.284 0-15-6.716-15-15v-209.933c0-3.978 1.581-7.793 4.394-10.606l64.267-64.267c4.289-4.29 10.74-5.574 16.347-3.252 5.605 2.322 9.26 7.792 9.26 13.858v274.2c-.001 8.284-6.717 15-15.001 15z" fill="#71b5ca"/><path d="m272.067 497h-96.4c-8.284 0-15-6.716-15-15v-65.333c0-8.284 6.716-15 15-15h96.4c8.284 0 15 6.716 15 15v65.333c0 8.284-6.716 15-15 15z" fill="#c6e0ea"/><path d="m287.067 482v-65.333c0-8.284-6.716-15-15-15h-16.067v95.333h16.067c8.284 0 15-6.716 15-15z" fill="#9bcada"/><path d="m497 512h-482c-8.284 0-15-6.716-15-15s6.716-15 15-15h482c8.284 0 15 6.716 15 15s-6.716 15-15 15z" fill="#ffb428"/><path d="m497 482h-241v30h241c8.284 0 15-6.716 15-15s-6.716-15-15-15z" fill="#ff8c00"/></g></svg>