<svg height="512pt" viewBox="-12 0 512 512" width="512pt" xmlns="http://www.w3.org/2000/svg"><path d="m470.429688 264.910156c0 124.46875-100.902344 225.371094-225.367188 225.371094-124.46875 0-225.371094-100.902344-225.371094-225.371094 0-124.464844 100.902344-225.367187 225.371094-225.367187 124.464844 0 225.367188 100.902343 225.367188 225.367187zm0 0" fill="#e667f9"/><path d="m435.453125 264.910156c0 105.152344-85.242187 190.394532-190.390625 190.394532-105.152344 0-190.394531-85.242188-190.394531-190.394532 0-105.148437 85.242187-190.390625 190.394531-190.390625 105.148438 0 190.390625 85.242188 190.390625 190.390625zm0 0" fill="#6163aa"/><path d="m275.214844 512c-33.773438 0-66.609375-6.433594-97.589844-19.121094-32.164062-13.171875-60.761719-32.484375-84.992188-57.398437-38.625-39.710938-59.894531-92.5-59.894531-148.632813 0-56.132812 21.269531-108.917968 59.894531-148.632812 31.226563-32.105469 72.769532-49.789063 116.957032-49.789063 44.191406 0 85.730468 17.683594 116.957031 49.789063 52.023437 53.492187 52.023437 140.523437 0 194.015625-20.605469 21.183593-47.894531 32.703125-76.535156 32.703125-4.863281 0-9.757813-.332032-14.671875-1.003906-4.105469-.5625-6.976563-4.34375-6.414063-8.445313.5625-4.105469 4.347657-6.976563 8.449219-6.414063 29.085938 3.980469 57.671875-5.96875 78.421875-27.296874 46.414063-47.722657 46.414063-125.375 0-173.097657-28.382813-29.179687-66.101563-45.25-106.207031-45.25-40.105469 0-77.824219 16.066407-106.203125 45.25-74.105469 76.1875-74.105469 200.15625 0 276.347657 22.785156 23.425781 49.675781 41.585937 79.921875 53.972656 29.167968 11.945312 60.089844 18.003906 91.90625 18.003906 31.8125 0 62.734375-6.058594 91.902344-18.003906 30.246093-12.386719 57.136718-30.546875 79.925781-53.972656 2.882812-2.96875 7.632812-3.039063 10.601562-.148438 2.96875 2.886719 3.035157 7.636719.148438 10.605469-24.230469 24.914062-52.828125 44.226562-84.992188 57.398437-30.980469 12.6875-63.816406 19.121094-97.585937 19.121094zm0 0" fill="#7e18ea"/><path d="m251.570312 458.8125c-91.148437 0-165.300781-74.15625-165.300781-165.300781 0-73.742188 59.996094-133.738281 133.738281-133.738281 60.050782 0 104.46875 43.921874 113.160157 111.898437.523437 4.105469-2.382813 7.863281-6.488281 8.390625-4.097657.519531-7.867188-2.378906-8.394532-6.488281-3.824218-29.949219-15.195312-55.039063-32.878906-72.558594-17.332031-17.167969-39.945312-26.242187-65.398438-26.242187-65.472656 0-118.738281 53.265624-118.738281 118.738281 0 82.875 67.425781 150.296875 150.300781 150.296875 104.625 0 189.746094-85.121094 189.746094-189.746094 0-63.855469-24.867187-123.890625-70.019531-169.042969-45.152344-45.152343-105.183594-70.019531-169.039063-70.019531-4.144531 0-7.5-3.359375-7.5-7.5s3.355469-7.5 7.5-7.5c67.859376 0 131.660157 26.425781 179.648438 74.414062 47.984375 47.984376 74.410156 111.785157 74.410156 179.648438 0 112.898438-91.847656 204.75-204.746094 204.75zm0 0" fill="#5100cb"/><path d="m334.027344 283.984375c0 45.0625-36.53125 81.59375-81.59375 81.59375s-81.59375-36.53125-81.59375-81.59375c0-45.066406 36.53125-81.59375 81.59375-81.59375s81.59375 36.527344 81.59375 81.59375zm0 0" fill="#fd8f07"/><path d="m334.027344 283.988281c0 45.054688-36.527344 81.585938-81.597656 81.585938-6.144532 0-12.121094-.675781-17.867188-1.96875 36.476562-8.136719 63.722656-40.695313 63.722656-79.617188s-27.246094-71.492187-63.722656-79.628906c5.746094-1.292969 11.722656-1.96875 17.867188-1.96875 45.066406 0 81.597656 36.53125 81.597656 81.597656zm0 0" fill="#fd7504"/><g fill="#e667f9"><path d="m23.765625 408.195312c-.011719 0-.023437 0-.035156 0-4.140625-.019531-7.484375-3.390624-7.464844-7.535156l.011719-2.902344c.023437-4.140624 3.429687-7.496093 7.535156-7.464843 4.144531.019531 7.484375 3.394531 7.464844 7.535156l-.011719 2.902344c-.019531 4.132812-3.375 7.464843-7.5 7.464843zm0 0"/><path d="m23.675781 437.746094c-.015625 0-.027343 0-.039062 0-4.140625-.019532-7.484375-3.394532-7.464844-7.535156l.015625-2.902344c.019531-4.132813 3.375-7.464844 7.5-7.464844h.035156c4.140625.019531 7.484375 3.390625 7.464844 7.535156l-.015625 2.902344c-.019531 4.128906-3.371094 7.464844-7.496094 7.464844zm0 0"/><path d="m39.953125 421.570312c-.011719 0-.023437 0-.035156 0l-2.90625-.011718c-4.140625-.019532-7.484375-3.394532-7.464844-7.535156.019531-4.128907 3.375-7.464844 7.5-7.464844h.035156l2.902344.011718c4.144531.023438 7.484375 3.394532 7.464844 7.535157-.015625 4.132812-3.371094 7.464843-7.496094 7.464843zm0 0"/><path d="m10.402344 421.480469c-.011719 0-.023438 0-.035156 0l-2.902344-.011719c-4.140625-.023438-7.4843752-3.394531-7.464844-7.535156.0195312-4.132813 3.375-7.464844 7.5-7.464844h.035156l2.902344.011719c4.144531.019531 7.484375 3.394531 7.464844 7.535156-.019532 4.128906-3.375 7.464844-7.5 7.464844zm0 0"/><path d="m40.277344 463.867188c-.015625 0-.027344 0-.039063 0-4.140625-.019532-7.484375-3.394532-7.464843-7.535157l.015624-2.902343c.019532-4.128907 3.375-7.464844 7.5-7.464844h.035157c4.144531.023437 7.484375 3.394531 7.464843 7.539062l-.015624 2.902344c-.019532 4.128906-3.375 7.460938-7.496094 7.460938zm0 0"/><path d="m40.183594 493.417969c-.011719 0-.023438 0-.039063 0-4.140625-.023438-7.480469-3.394531-7.460937-7.539063l.011718-2.902344c.023438-4.128906 3.375-7.460937 7.5-7.460937h.039063c4.140625.019531 7.484375 3.394531 7.460937 7.535156l-.011718 2.902344c-.019532 4.128906-3.375 7.464844-7.5 7.464844zm0 0"/><path d="m56.460938 477.242188c-.011719 0-.023438 0-.035157 0l-2.902343-.011719c-4.140626-.019531-7.484376-3.394531-7.464844-7.535157.019531-4.128906 3.375-7.464843 7.5-7.464843h.035156l2.902344.011719c4.140625.023437 7.484375 3.394531 7.464844 7.535156-.019532 4.132812-3.371094 7.464844-7.5 7.464844zm0 0"/><path d="m26.914062 477.152344c-.011718 0-.023437 0-.039062 0l-2.902344-.011719c-4.140625-.023437-7.480468-3.398437-7.460937-7.539063.019531-4.140624 3.4375-7.503906 7.535156-7.460937l2.902344.011719c4.144531.023437 7.484375 3.394531 7.464843 7.539062-.019531 4.128906-3.375 7.460938-7.5 7.460938zm0 0"/><path d="m375.683594 320.773438c-.015625 0-.027344 0-.039063 0-4.144531-.019532-7.484375-3.394532-7.464843-7.535157l.015624-2.902343c.023438-4.132813 3.375-7.464844 7.5-7.464844h.039063c4.140625.023437 7.480469 3.398437 7.460937 7.539062l-.015624 2.902344c-.019532 4.128906-3.375 7.460938-7.496094 7.460938zm0 0"/><path d="m375.589844 350.324219c-.011719 0-.023438 0-.035156 0-4.144532-.019531-7.484376-3.394531-7.464844-7.535157l.015625-2.902343c.019531-4.132813 3.371093-7.464844 7.496093-7.464844h.039063c4.140625.019531 7.484375 3.390625 7.464844 7.53125l-.015625 2.90625c-.019532 4.128906-3.375 7.464844-7.5 7.464844zm0 0"/><path d="m391.867188 334.148438c-.011719 0-.023438 0-.035157 0l-2.902343-.011719c-4.144532-.019531-7.484376-3.394531-7.464844-7.535157.019531-4.128906 3.375-7.464843 7.5-7.464843h.035156l2.902344.011719c4.144531.023437 7.484375 3.394531 7.464844 7.535156-.019532 4.132812-3.375 7.464844-7.5 7.464844zm0 0"/><path d="m362.320312 334.058594c-.011718 0-.023437 0-.035156 0l-2.902344-.011719c-4.144531-.023437-7.484374-3.394531-7.464843-7.535156.019531-4.132813 3.375-7.464844 7.5-7.464844h.035156l2.902344.011719c4.140625.019531 7.484375 3.394531 7.464843 7.535156-.019531 4.128906-3.375 7.464844-7.5 7.464844zm0 0"/><path d="m426.613281 49.589844c-.011719 0-.023437 0-.035156 0-4.140625-.019532-7.484375-3.394532-7.464844-7.535156l.015625-2.902344c.019532-4.128906 3.375-7.464844 7.5-7.464844h.035156c4.140626.019531 7.484376 3.390625 7.464844 7.535156l-.015625 2.902344c-.019531 4.132812-3.375 7.464844-7.5 7.464844zm0 0"/><path d="m426.523438 79.136719c-.011719 0-.023438 0-.035157 0-4.144531-.019531-7.484375-3.390625-7.464843-7.535157l.011718-2.902343c.023438-4.128907 3.375-7.464844 7.5-7.464844h.035156c4.144532.019531 7.484376 3.394531 7.464844 7.535156l-.011718 2.902344c-.019532 4.132813-3.375 7.464844-7.5 7.464844zm0 0"/><path d="m442.800781 62.964844c-.011719 0-.023437 0-.035156 0l-2.902344-.015625c-4.140625-.019531-7.484375-3.390625-7.464843-7.535157.019531-4.128906 3.375-7.464843 7.5-7.464843h.035156l2.902344.015625c4.144531.019531 7.484374 3.394531 7.464843 7.535156-.019531 4.132812-3.375 7.464844-7.5 7.464844zm0 0"/><path d="m413.253906 62.875c-.011718 0-.023437 0-.035156 0l-2.902344-.015625c-4.144531-.019531-7.484375-3.390625-7.464844-7.535156.019532-4.128907 3.375-7.464844 7.5-7.464844h.035157l2.902343.015625c4.140626.019531 7.484376 3.390625 7.464844 7.535156-.019531 4.128906-3.375 7.464844-7.5 7.464844zm0 0"/></g><path d="m88 57.28125c0 7.597656-6.164062 13.761719-13.765625 13.761719-7.597656 0-13.761719-6.164063-13.761719-13.761719 0-7.601562 6.164063-13.761719 13.761719-13.761719 7.601563 0 13.765625 6.160157 13.765625 13.761719zm0 0" fill="#c5ee09"/><path d="m474.011719 111.777344c0 7.601562-6.160157 13.761718-13.761719 13.761718s-13.761719-6.160156-13.761719-13.761718c0-7.601563 6.160157-13.761719 13.761719-13.761719s13.761719 6.160156 13.761719 13.761719zm0 0" fill="#7e18ea"/><path d="m273.703125 104.964844c0 7.601562-6.160156 13.761718-13.761719 13.761718-7.601562 0-13.761718-6.160156-13.761718-13.761718 0-7.601563 6.160156-13.761719 13.761718-13.761719 7.601563 0 13.761719 6.160156 13.761719 13.761719zm0 0" fill="#fd8f07"/><path d="m109.542969 484.246094c0 7.601562-6.160157 13.765625-13.761719 13.765625s-13.761719-6.164063-13.761719-13.765625c0-7.597656 6.160157-13.761719 13.761719-13.761719s13.761719 6.164063 13.761719 13.761719zm0 0" fill="#c5ee09"/><path d="m233.734375 400.214844c0 7.601562-6.164063 13.761718-13.761719 13.761718-7.601562 0-13.761718-6.160156-13.761718-13.761718 0-7.601563 6.160156-13.761719 13.761718-13.761719 7.597656 0 13.761719 6.160156 13.761719 13.761719zm0 0" fill="#2de0c7"/><path d="m124.851562 283.984375c0 12.753906-10.335937 23.089844-23.089843 23.089844-12.753907 0-23.09375-10.335938-23.09375-23.089844s10.339843-23.09375 23.09375-23.09375c12.753906 0 23.089843 10.339844 23.089843 23.09375zm0 0" fill="#2de0c7"/><path d="m488.988281 358.519531c0 12.753907-10.339843 23.09375-23.09375 23.09375-12.753906 0-23.09375-10.339843-23.09375-23.09375 0-12.753906 10.339844-23.09375 23.09375-23.09375 12.753907 0 23.09375 10.339844 23.09375 23.09375zm0 0" fill="#9bf2e5"/><path d="m477.335938 412.179688c-1.917969 0-3.839844-.734376-5.304688-2.199219l-.082031-.078125c-2.925781-2.929688-2.925781-7.679688 0-10.605469 2.933593-2.929687 7.679687-2.929687 10.609375 0l.078125.078125c2.929687 2.929688 2.929687 7.679688 0 10.605469-1.460938 1.464843-3.382813 2.199219-5.300781 2.199219zm0 0" fill="#2de0c7"/><path d="m210.539062 202.390625c-1.929687 0-3.855468-.738281-5.320312-2.214844l-.078125-.082031c-2.921875-2.9375-2.90625-7.6875.03125-10.605469s7.6875-2.902343 10.605469.03125l.078125.082031c2.921875 2.9375 2.90625 7.6875-.03125 10.605469-1.460938 1.457031-3.375 2.183594-5.285157 2.183594zm0 0" fill="#2de0c7"/><path d="m65.113281 100.46875c-1.933593 0-3.867187-.742188-5.335937-2.230469l-.078125-.078125c-2.914063-2.949218-2.882813-7.695312.0625-10.605468 2.945312-2.914063 7.695312-2.882813 10.605469.0625l.082031.082031c2.910156 2.945312 2.882812 7.695312-.066407 10.605469-1.460937 1.441406-3.367187 2.164062-5.269531 2.164062zm0 0" fill="#5100cb"/><path d="m346.957031 35.527344c-1.929687 0-3.855469-.738282-5.320312-2.214844l-.078125-.082031c-2.921875-2.9375-2.90625-7.683594.03125-10.605469 2.9375-2.917969 7.6875-2.90625 10.605468.03125l.078126.082031c2.921874 2.9375 2.90625 7.6875-.03125 10.605469-1.460938 1.457031-3.375 2.183594-5.285157 2.183594zm0 0" fill="#fd8f07"/><path d="m43.03125 105.515625c-1.925781 0-3.851562-.738281-5.316406-2.214844l-.082032-.078125c-2.917968-2.941406-2.90625-7.6875.03125-10.609375 2.9375-2.917969 7.6875-2.902343 10.605469.035157l.082031.078124c2.917969 2.9375 2.90625 7.6875-.03125 10.609376-1.464843 1.453124-3.375 2.179687-5.289062 2.179687zm0 0" fill="#6163aa"/><path d="m131.515625 329.808594c-1.925781 0-3.851563-.738282-5.316406-2.214844l-.082031-.082031c-2.917969-2.9375-2.90625-7.6875.03125-10.605469 2.941406-2.917969 7.6875-2.902344 10.609374.03125l.078126.082031c2.921874 2.9375 2.90625 7.6875-.03125 10.605469-1.460938 1.457031-3.375 2.183594-5.289063 2.183594zm0 0" fill="#c5ee09"/><path d="m255.148438 273.363281c0 11.035157-8.941407 19.980469-19.976563 19.980469s-19.980469-8.945312-19.980469-19.980469c0-11.035156 8.945313-19.976562 19.980469-19.976562s19.976563 8.941406 19.976563 19.976562zm0 0" fill="#fc5921"/></svg>