<svg id="Layer_1" enable-background="new 0 0 512 512" height="512" viewBox="0 0 512 512" width="512" xmlns="http://www.w3.org/2000/svg"><g><path d="m231.896 512c-114.579 0-207.776-93.198-207.776-207.752 0-114.652 93.197-207.848 207.751-207.848 8.284 0 15.008 6.716 15.008 15v106.253l71.546 71.547h106.222c8.284 0 15 6.716 15 15 0 114.602-93.197 207.8-207.751 207.8z" fill="#ffb428"/><path d="m231.896 512c114.554 0 207.751-93.197 207.751-207.8 0-8.284-6.716-15-15-15h-106.222l-35.77-35.771-197.633 197.633c37.623 37.63 89.574 60.938 146.874 60.938z" fill="#ff8c00"/><path d="m269.473 395.139c-5.858-5.857-5.858-15.355 0-21.213l27.739-27.739v-41.987c0-8.284 6.716-15 15-15s15 6.716 15 15v48.2c0 3.979-1.58 7.794-4.394 10.606l-32.133 32.133c-5.858 5.86-15.355 5.857-21.212 0z" fill="#d000b1"/><path d="m242.486 197.193c-5.857-5.857-15.355-5.857-21.213 0l-27.74 27.74h-41.987c-3.978 0-7.793 1.58-10.606 4.394l-32.133 32.133c-5.858 5.857-5.858 15.355 0 21.213 2.93 2.93 6.768 4.394 10.607 4.394 3.838 0 7.678-1.465 10.606-4.394l22.594-22.593v76.253c0 8.284 6.716 15 15 15s15-6.716 15-15v-81.399h17.133c3.979 0 7.793-1.58 10.607-4.394l32.133-32.134c5.857-5.858 5.857-15.356-.001-21.213z" fill="#ff6378"/><path d="m438.219 297.745-49.28-103.369c-9.865-20.693-26.54-37.368-47.233-47.233l-103.371-49.283c-5.743-2.738-12.725-1.598-17.331 3.199-2.734 2.847-4.124 6.728-4.124 10.676v112.131c0 3.979 1.581 7.794 4.394 10.606l80.333 80.334c2.813 2.813 6.628 4.394 10.606 4.394h112.127c3.949 0 7.832-1.39 10.681-4.125 4.798-4.606 5.936-11.588 3.198-17.33z" fill="#d000b1"/><path d="m312.213 319.2h112.127c3.949 0 7.832-1.39 10.68-4.125 4.798-4.606 5.937-11.587 3.199-17.33l-49.28-103.369c-4.932-10.346-11.567-19.688-19.555-27.676l-107.942 107.942 40.164 40.164c2.813 2.814 6.628 4.394 10.607 4.394z" fill="#9330a0"/><ellipse cx="352.375" cy="183.708" fill="#ff6378" rx="55.164" ry="55.168"/><path d="m391.384 222.715c21.505-21.509 21.505-56.507 0-78.016l-78.017 78.017c21.682 21.684 56.61 21.41 78.017-.001z" fill="#d000b1"/><circle clip-rule="evenodd" cx="280.079" cy="63.2" fill="#ff6378" fill-rule="evenodd" r="15"/><circle clip-rule="evenodd" cx="472.879" cy="256" fill="#d000b1" fill-rule="evenodd" r="15"/><path d="m313.367 165.912c-5.858-5.857-5.858-15.355 0-21.213l140.303-140.306c5.857-5.857 15.355-5.857 21.213 0s5.858 15.355 0 21.213l-140.303 140.306c-5.86 5.859-15.357 5.856-21.213 0z" fill="#ffe15a"/><path d="m370.171 222.716c-5.858-5.857-5.858-15.354 0-21.213l92.103-92.105c5.857-5.857 15.355-5.859 21.213 0 5.858 5.857 5.858 15.354 0 21.213l-92.103 92.105c-5.859 5.859-15.358 5.858-21.213 0z" fill="#ffb428"/></g></svg>