<svg id="Layer_1" enable-background="new 0 0 512 512" height="512" viewBox="0 0 512 512" width="512" xmlns="http://www.w3.org/2000/svg"><g><circle cx="256" cy="432.733" fill="#ff6378" r="79.267"/><path d="m256 512v-158.533c43.708 0 79.267 35.559 79.267 79.267s-35.559 79.266-79.267 79.266z" fill="#d000b1"/><circle clip-rule="evenodd" cx="320.267" cy="207.8" fill="#ff8c00" fill-rule="evenodd" r="15"/><circle clip-rule="evenodd" cx="191.733" cy="95.333" fill="#ffe15a" fill-rule="evenodd" r="15"/><path d="m456.833 287.067c-30.419 0-55.166-24.748-55.166-55.167s24.747-55.167 55.166-55.167 55.167 24.748 55.167 55.167-24.748 55.167-55.167 55.167z" fill="#ff6378"/><path d="m256 383.467c-8.284 0-15-6.716-15-15v-160.667c0-8.284 6.716-15 15-15s15 6.716 15 15v160.667c0 8.284-6.716 15-15 15z" fill="#ffb428"/><path d="m256 158.533c-8.284 0-15-6.716-15-15v-128.533c0-8.284 6.716-15 15-15s15 6.716 15 15v128.533c0 8.284-6.716 15-15 15z" fill="#ffb428"/><path d="m320.267 447.733c-8.284 0-15-6.716-15-15v-162.964c0-8.284 6.716-15 15-15s15 6.716 15 15v162.964c0 8.285-6.716 15-15 15z" fill="#ff8c00"/><path d="m191.733 287.067c-8.284 0-15-6.716-15-15v-112.467c0-8.284 6.716-15 15-15s15 6.716 15 15v112.467c0 8.284-6.715 15-15 15z" fill="#ffe15a"/><path d="m191.733 447.733c-8.284 0-15-6.716-15-15v-96.4c0-8.284 6.716-15 15-15s15 6.716 15 15v96.4c0 8.285-6.715 15-15 15z" fill="#ffe15a"/><path d="m456.833 287.067v-110.334c30.419 0 55.167 24.748 55.167 55.167s-24.748 55.167-55.167 55.167z" fill="#d000b1"/><path d="m497 246.9c-8.284 0-15-6.716-15-15v-216.9c0-8.284 6.716-15 15-15s15 6.716 15 15v216.9c0 8.284-6.716 15-15 15z" fill="#ff8c00"/><path d="m416.667 246.9c-8.284 0-15-6.716-15-15v-136.559c0-8.284 6.716-15 15-15s15 6.716 15 15v136.559c0 8.284-6.716 15-15 15z" fill="#ffb428"/><path d="m55.167 383.467c-30.419 0-55.167-24.748-55.167-55.167s24.748-55.167 55.167-55.167 55.166 24.748 55.166 55.167-24.747 55.167-55.166 55.167z" fill="#ff6378"/><path d="m55.166 383.467v-110.334c30.419 0 55.167 24.748 55.167 55.167s-24.748 55.167-55.167 55.167z" fill="#d000b1"/><circle clip-rule="evenodd" cx="95.333" cy="191.733" fill="#ffb428" fill-rule="evenodd" r="15"/><path d="m15 343.3c-8.284 0-15-6.716-15-15v-216.9c0-8.284 6.716-15 15-15s15 6.716 15 15v216.9c0 8.284-6.716 15-15 15z" fill="#ffe15a"/><path d="m95.333 343.3c-8.284 0-15-6.716-15-15v-72.3c0-8.284 6.716-15 15-15s15 6.716 15 15v72.3c0 8.284-6.716 15-15 15z" fill="#ffb428"/></g></svg>