<svg height="464pt" viewBox="0 0 464 464.00091" width="464pt" xmlns="http://www.w3.org/2000/svg"><path d="m303.277344 354.640625 34.5625 34.558594 14.800781 14.882812 17.4375 17.4375c1.519531 1.519531 3.519531 2.402344 5.679687 2.402344 2.160157 0 4.160157-.882813 5.679688-2.402344l40.082031-40.078125c1.519531-1.519531 2.398438-3.519531 2.398438-5.679687 0-2.160157-.878907-4.160157-2.398438-5.679688l-34.5625-34.5625-14.878906-14.800781-17.4375-17.4375c-3.121094-3.199219-8.160156-3.199219-11.28125 0l-40.082031 40.078125c-3.199219 3.121094-3.199219 8.160156 0 11.28125zm0 0" fill="#37474f"/><path d="m323.320312 323.320312 78.160157 78.160157-20.042969 20.039062c-1.519531 1.519531-3.519531 2.402344-5.679688 2.402344-2.160156 0-4.160156-.882813-5.679687-2.402344l-17.4375-17.4375-14.800781-14.882812-34.5625-34.558594c-3.199219-3.121094-3.199219-8.160156 0-11.28125zm0 0" fill="#263238"/><path d="m1.679688 3.101562c2.203124-2.835937 6-3.875 9.367187-2.5 4.703125 1.9375 117.59375 49.859376 330.25 262.515626 3.125 3.125 3.125 8.1875 0 11.3125l-66.125 66.125c-1.5 1.507812-3.539063 2.34375-5.65625 2.34375-.117187 0-.234375 0-.34375-.007813-2.242187-.09375-4.34375-1.132813-5.78125-2.84375-1.398437-1.664063-140.9375-167.265625-239.320313-239.414063-3.3125-2.429687-4.242187-6.984374-2.15625-10.523437 13.578126-22.976563-10.0625-63.601563-20.320312-77.3125-2.15625-2.882813-2.117188-6.851563.085938-9.695313zm0 0" fill="#cfd8dc"/><path d="m2.417969 2.417969 305.445312 305.445312-32.691406 32.691407c-1.5 1.507812-3.539063 2.34375-5.65625 2.34375-.117187 0-.234375 0-.34375-.007813-2.242187-.09375-4.34375-1.132813-5.78125-2.84375-1.398437-1.664063-140.9375-167.265625-239.320313-239.414063-3.3125-2.429687-4.242187-6.984374-2.15625-10.523437 13.578126-22.976563-10.0625-63.601563-20.320312-77.3125-2.15625-2.882813-2.117188-6.851563.085938-9.695313.210937-.273437.496093-.445312.738281-.683593zm0 0" fill="#b0bec5"/><path d="m281.96875 276.960938c2.085938 0 4.171875-.8125 5.734375-2.421876 3.078125-3.171874 3.007813-8.234374-.15625-11.3125-60.914063-59.203124-129.320313-120.710937-162.65625-146.257812-3.523437-2.679688-8.53125-2.015625-11.21875 1.484375-2.6875 3.507813-2.023437 8.53125 1.484375 11.21875 32.375 24.804687 101.695312 87.15625 161.234375 145.023437 1.554687 1.515626 3.570313 2.265626 5.578125 2.265626zm0 0" fill="#edeff0"/><path d="m116.289062 116.292969 122.175782 122.171875c-48.800782-45.894532-97.65625-89.136719-123.308594-108.792969-3.507812-2.6875-4.171875-7.710937-1.484375-11.21875.722656-.941406 1.632813-1.640625 2.617187-2.160156zm0 0" fill="#cfd8dc"/><path d="m243.0625 350.046875 106.984375-106.984375c3.125-3.125 8.1875-3.125 11.3125 0l26.742187 26.742188c3.125 3.125 3.125 8.1875 0 11.3125l-106.984374 106.984374c-1.5625 1.5625-3.609376 2.34375-5.65625 2.34375-2.046876 0-4.09375-.78125-5.65625-2.34375l-26.742188-26.742187c-3.125-3.125-3.125-8.1875 0-11.3125zm0 0" fill="#faa629"/><path d="m296.554688 296.554688 38.054687 38.054687-53.492187 53.492187c-1.5625 1.5625-3.609376 2.34375-5.65625 2.34375-2.046876 0-4.09375-.78125-5.65625-2.34375l-26.742188-26.742187c-3.125-3.125-3.125-8.1875 0-11.3125zm0 0" fill="#f78c1e"/><path d="m363.421875 416.914062 53.492187-53.492187c3.125-3.125 8.1875-3.125 11.3125 0l33.429688 33.429687c3.125 3.125 3.125 8.1875 0 11.3125l-53.492188 53.492188c-1.5625 1.5625-3.609374 2.34375-5.65625 2.34375-2.046874 0-4.09375-.78125-5.65625-2.34375l-33.429687-33.429688c-3.125-3.125-3.125-8.1875 0-11.3125zm0 0" fill="#faa629"/><path d="m390.167969 390.167969 44.742187 44.742187-26.746094 26.746094c-1.5625 1.5625-3.609374 2.34375-5.65625 2.34375-2.046874 0-4.09375-.78125-5.65625-2.34375l-33.429687-33.429688c-3.125-3.125-3.125-8.1875 0-11.3125zm0 0" fill="#f78c1e"/><path d="m325.917969 377.28125 11.921875 11.917969 34.238281-68.480469-11.917969-11.917969zm0 0" fill="#b0bec5"/><path d="m352.640625 404.082031 11.917969 11.917969 34.320312-68.558594-11.921875-11.921875zm0 0" fill="#b0bec5"/><path d="m354.957031 354.960938-17.117187 34.238281-11.921875-11.917969 17.121093-34.242188zm0 0" fill="#90a4ae"/><path d="m381.71875 381.71875-17.160156 34.28125-11.917969-11.917969 17.160156-34.28125zm0 0" fill="#90a4ae"/><path d="m160.71875 354.640625-34.558594 34.558594-14.800781 14.882812-17.4375 17.4375c-1.523437 1.519531-3.523437 2.402344-5.679687 2.402344-2.160157 0-4.160157-.882813-5.683594-2.402344l-40.078125-40.078125c-1.519531-1.519531-2.398438-3.519531-2.398438-5.679687 0-2.160157.878907-4.160157 2.398438-5.679688l34.558593-34.5625 14.882813-14.800781 17.4375-17.4375c3.121094-3.199219 8.160156-3.199219 11.28125 0l40.078125 40.078125c3.203125 3.121094 3.203125 8.160156 0 11.28125zm0 0" fill="#37474f"/><path d="m140.679688 323.320312-78.160157 78.160157 20.039063 20.039062c1.523437 1.519531 3.523437 2.402344 5.683594 2.402344 2.15625 0 4.15625-.882813 5.679687-2.402344l17.4375-17.4375 14.800781-14.882812 34.558594-34.558594c3.203125-3.121094 3.203125-8.160156 0-11.28125zm0 0" fill="#263238"/><path d="m462.320312 3.101562c-2.203124-2.835937-6-3.875-9.367187-2.5-4.703125 1.9375-117.59375 49.859376-330.25 262.515626-3.125 3.125-3.125 8.1875 0 11.3125l66.125 66.125c1.5 1.507812 3.539063 2.34375 5.65625 2.34375.117187 0 .234375 0 .34375-.007813 2.242187-.09375 4.34375-1.132813 5.78125-2.84375 1.398437-1.664063 140.9375-167.265625 239.320313-239.414063 3.3125-2.429687 4.242187-6.984374 2.15625-10.523437-13.578126-22.976563 10.0625-63.601563 20.320312-77.3125 2.15625-2.882813 2.117188-6.851563-.085938-9.695313zm0 0" fill="#cfd8dc"/><path d="m461.582031 2.417969-305.445312 305.445312 32.691406 32.691407c1.5 1.507812 3.539063 2.34375 5.65625 2.34375.117187 0 .234375 0 .34375-.007813 2.242187-.09375 4.34375-1.132813 5.78125-2.84375 1.398437-1.664063 140.9375-167.265625 239.320313-239.414063 3.3125-2.429687 4.242187-6.984374 2.15625-10.523437-13.578126-22.976563 10.0625-63.601563 20.320312-77.3125 2.15625-2.882813 2.117188-6.851563-.085938-9.695313-.210937-.273437-.5-.445312-.738281-.683593zm0 0" fill="#b0bec5"/><path d="m182.03125 276.960938c-2.085938 0-4.171875-.8125-5.734375-2.421876-3.078125-3.171874-3.007813-8.234374.15625-11.3125 60.914063-59.203124 129.320313-120.710937 162.65625-146.257812 3.523437-2.679688 8.53125-2.015625 11.21875 1.484375 2.6875 3.507813 2.023437 8.53125-1.484375 11.21875-32.375 24.804687-101.695312 87.15625-161.234375 145.023437-1.554687 1.515626-3.570313 2.265626-5.578125 2.265626zm0 0" fill="#edeff0"/><path d="m347.707031 116.292969-122.171875 122.171875c48.800782-45.894532 97.65625-89.136719 123.308594-108.792969 3.507812-2.6875 4.171875-7.710937 1.484375-11.21875-.722656-.941406-1.632813-1.640625-2.621094-2.160156zm0 0" fill="#cfd8dc"/><path d="m220.9375 350.046875-106.984375-106.984375c-3.125-3.125-8.1875-3.125-11.3125 0l-26.742187 26.742188c-3.125 3.125-3.125 8.1875 0 11.3125l106.984374 106.984374c1.5625 1.5625 3.609376 2.34375 5.65625 2.34375 2.046876 0 4.09375-.78125 5.65625-2.34375l26.742188-26.742187c3.125-3.125 3.125-8.1875 0-11.3125zm0 0" fill="#faa629"/><path d="m167.445312 296.554688-38.054687 38.054687 53.492187 53.492187c1.5625 1.5625 3.609376 2.34375 5.65625 2.34375 2.046876 0 4.09375-.78125 5.65625-2.34375l26.742188-26.742187c3.125-3.125 3.125-8.1875 0-11.3125zm0 0" fill="#f78c1e"/><path d="m100.578125 416.914062-53.492187-53.492187c-3.125-3.125-8.1875-3.125-11.3125 0l-33.429688 33.429687c-3.125 3.125-3.125 8.1875 0 11.3125l53.492188 53.492188c1.5625 1.5625 3.609374 2.34375 5.65625 2.34375 2.046874 0 4.09375-.78125 5.65625-2.34375l33.429687-33.429688c3.125-3.125 3.125-8.1875 0-11.3125zm0 0" fill="#faa629"/><path d="m73.832031 390.167969-44.742187 44.742187 26.746094 26.746094c1.5625 1.5625 3.609374 2.34375 5.65625 2.34375 2.046874 0 4.09375-.78125 5.65625-2.34375l33.429687-33.429688c3.125-3.125 3.125-8.1875 0-11.3125zm0 0" fill="#f78c1e"/><path d="m138.082031 377.28125-11.921875 11.917969-34.238281-68.480469 11.917969-11.917969zm0 0" fill="#b0bec5"/><path d="m111.359375 404.082031-11.917969 11.917969-34.320312-68.558594 11.917968-11.921875zm0 0" fill="#b0bec5"/><g fill="#90a4ae"><path d="m109.039062 354.960938 17.121094 34.238281 11.921875-11.917969-17.121093-34.242188zm0 0"/><path d="m82.28125 381.71875 17.160156 34.28125 11.917969-11.917969-17.160156-34.28125zm0 0"/></g></svg>