<svg height="464pt" viewBox="0 0 464.00211 464" width="464pt" xmlns="http://www.w3.org/2000/svg"><path d="m294.476562 158.210938-230.914062 230.914062c-3.125 3.125-3.125 8.1875 0 11.3125 1.5625 1.5625 3.609375 2.34375 5.65625 2.34375s4.09375-.78125 5.65625-2.34375l230.914062-230.914062c3.125-3.125 3.125-8.1875 0-11.3125s-8.1875-3.125-11.3125 0zm0 0" fill="#37474f"/><path d="m388.054688 75.945312c-3.125-3.125-8.1875-3.125-11.3125 0l-35.398438 35.398438c-3.125 3.125-3.125 8.1875 0 11.3125 1.5625 1.5625 3.609375 2.34375 5.65625 2.34375s4.09375-.78125 5.65625-2.34375l35.398438-35.398438c3.125-3.125 3.125-8.1875 0-11.3125zm0 0" fill="#37474f"/><path d="m63.5625 400.4375c1.5625 1.5625 3.609375 2.34375 5.65625 2.34375s4.09375-.78125 5.65625-2.34375l230.914062-230.914062c3.125-3.125 3.125-8.1875 0-11.3125zm0 0" fill="#263238"/><path d="m341.34375 122.65625c1.5625 1.5625 3.609375 2.34375 5.65625 2.34375s4.09375-.78125 5.65625-2.34375l35.398438-35.398438c3.125-3.125 3.125-8.1875 0-11.3125zm0 0" fill="#263238"/><path d="m418.5625 45.4375c-1.75-1.75-4.210938-2.597656-6.664062-2.28125l-54.125 6.886719c-3.03125.386719-5.578126 2.460937-6.5625 5.347656-.984376 2.890625-.242188 6.089844 1.914062 8.246094l47.234375 47.238281c1.523437 1.527344 3.570313 2.34375 5.65625 2.34375.867187 0 1.742187-.140625 2.585937-.429688 2.890626-.988281 4.960938-3.53125 5.351563-6.558593l6.890625-54.125c.3125-2.457031-.53125-4.917969-2.28125-6.667969zm0 0" fill="#cfd8dc"/><path d="m418.5625 45.4375-41.820312 41.820312 23.617187 23.617188c1.523437 1.527344 3.570313 2.34375 5.65625 2.34375.867187 0 1.742187-.140625 2.585937-.429688 2.890626-.988281 4.960938-3.53125 5.351563-6.558593l6.890625-54.125c.3125-2.457031-.53125-4.917969-2.28125-6.667969zm0 0" fill="#b0bec5"/><path d="m461.65625 439.054688c-29.578125-29.578126-43.429688-71.976563-37.0625-113.414063 4.4375-28.898437 5.554688-87.261719-36.773438-153.449219-1.3125-2.039062-3.46875-3.378906-5.875-3.640625-2.414062-.273437-4.804687.582031-6.523437 2.296875l-31.617187 31.617188c-2.585938 2.585937-3.09375 6.597656-1.21875 9.742187 22.023437 37.070313 23.71875 68.476563 25.203124 96.183594.53125 9.804687 1.03125 19.066406 2.328126 28.242187 6.617187 46.53125 34.25 71.539063 60.976562 95.730469 6.421875 5.808594 13.0625 11.816407 19.25 18.003907 1.5625 1.5625 3.609375 2.34375 5.65625 2.34375s4.09375-.78125 5.65625-2.34375 2.34375-3.609376 2.34375-5.65625c0-2.046876-.78125-4.09375-2.34375-5.65625zm0 0" fill="#f78c1e"/><path d="m138.359375 39.40625c-41.4375 6.355469-83.832031-7.488281-113.414063-37.0625-3.125-3.125-8.1875-3.125-11.3125 0-1.5625 1.5625-2.34375 3.609375-2.34375 5.65625s.78125 4.09375 2.34375 5.65625c6.183594 6.183594 12.191407 12.824219 18 19.242188 24.191407 26.730468 49.203126 54.371093 95.734376 60.980468 9.179687 1.304688 18.445312 1.800782 28.257812 2.332032 27.703125 1.492187 59.105469 3.183593 96.164062 25.207031 1.265626.757812 2.679688 1.125 4.085938 1.125 2.070312 0 4.117188-.800781 5.65625-2.34375l31.625-31.621094c1.710938-1.710937 2.5625-4.109375 2.296875-6.519531-.257813-2.410156-1.601563-4.570313-3.640625-5.875-66.183594-42.335938-124.554688-41.207032-153.453125-36.777344zm0 0" fill="#faa629"/><path d="m391.632812 165.945312-25.535156-25.539062 2.152344-2.152344c3.125-3.125 3.125-8.1875 0-11.3125l-31.1875-31.195312c-1.5-1.5-3.53125-2.34375-5.65625-2.34375s-4.15625.84375-5.65625 2.34375l-2.15625 2.15625-25.539062-25.539063c-3.125-3.125-8.1875-3.125-11.3125 0l-39.054688 39.054688c-3.125 3.125-3.125 8.1875 0 11.3125l31.195312 31.195312 31.195313 31.191407 31.1875 31.195312c1.5 1.5 3.53125 2.34375 5.65625 2.34375s4.15625-.84375 5.65625-2.34375l39.054687-39.054688c3.125-3.125 3.125-8.1875 0-11.3125zm0 0" fill="#607d8b"/><path d="m366.097656 140.40625 2.152344-2.152344c3.125-3.125 3.125-8.1875 0-11.3125l-15.59375-15.597656-58.175781 58.179688 15.597656 15.59375 31.1875 31.195312c1.5 1.5 3.53125 2.34375 5.65625 2.34375s4.15625-.84375 5.65625-2.34375l39.054687-39.054688c3.125-3.125 3.125-8.1875 0-11.3125zm0 0" fill="#546f7a"/><path d="m456.007812 452.710938c-.289062 0-.585937-.015626-.890624-.046876l-338.078126-37.464843c-4.390624-.488281-7.554687-4.441407-7.070312-8.835938.492188-4.390625 4.480469-7.476562 8.835938-7.070312l338.078124 37.464843c4.390626.488282 7.554688 4.441407 7.070313 8.835938-.453125 4.089844-3.921875 7.117188-7.945313 7.117188zm0 0" fill="#546f7a"/><path d="m56.742188 354.078125c-4.023438 0-7.484376-3.027344-7.941407-7.117187l-37.464843-338.078126c-.484376-4.394531 2.679687-8.347656 7.070312-8.835937 4.398438-.457031 8.347656 2.679687 8.835938 7.070313l37.464843 338.078124c.484375 4.394532-2.679687 8.347657-7.070312 8.835938-.300781.03125-.597657.046875-.894531.046875zm0 0" fill="#607d8b"/><path d="m138.242188 333.75c0-.609375-.21875-1.148438-.347657-1.722656-.105469-.457032-.101562-.957032-.28125-1.378906-.203125-.480469-.566406-.84375-.851562-1.269532-.289063-.425781-.5-.910156-.863281-1.273437-.316407-.316407-.746094-.492188-1.109376-.753907-.472656-.332031-.894531-.734374-1.429687-.960937-.472656-.199219-1.023437-.207031-1.539063-.3125-.523437-.109375-1.011718-.320313-1.570312-.320313-.003906 0-.003906 0-.007812 0-.003907 0-.003907 0-.007813 0l-61.21875.050782c-2.117187 0-4.148437.84375-5.648437 2.34375l-61.023438 61.023437c-2.2890625 2.289063-2.972656 5.730469-1.734375 8.722657 1.238281 2.984374 4.15625 4.933593 7.390625 4.933593h.007812l53.203126-.042969-.042969 53.203126c-.003907 3.238281 1.945312 6.15625 4.933593 7.398437.992188.410156 2.03125.609375 3.066407.609375 2.078125 0 4.125-.8125 5.65625-2.34375l61.023437-61.023438c1.5-1.5 2.34375-3.53125 2.34375-5.648437l.050782-61.21875s0-.003906 0-.007813c0 0 0-.003906 0-.007812zm0 0" fill="#cfd8dc"/><path d="m137.894531 332.027344c-.105469-.457032-.101562-.957032-.28125-1.378906-.203125-.480469-.566406-.84375-.851562-1.269532-.289063-.425781-.5-.910156-.863281-1.273437 0-.003907 0 0 0-.003907l-74.6875 74.6875-.042969 53.203126c-.003907 3.238281 1.945312 6.15625 4.933593 7.398437.992188.410156 2.03125.609375 3.066407.609375 2.078125 0 4.125-.8125 5.65625-2.34375l61.023437-61.023438c1.5-1.5 2.34375-3.53125 2.34375-5.648437l.050782-61.21875s0-.003906 0-.007813c0 0 0-.003906 0-.007812 0-.609375-.21875-1.148438-.347657-1.722656zm0 0" fill="#b0bec5"/></svg>