<svg height="464pt" viewBox="-72 0 464 464" width="464pt" xmlns="http://www.w3.org/2000/svg"><path d="m272 32h-64c-4.421875 0-8 3.578125-8 8v112c0 4.421875 3.578125 8 8 8h64c4.421875 0 8-3.578125 8-8v-112c0-4.421875-3.578125-8-8-8zm0 0" fill="#90a4ae"/><path d="m272 32h-64c-4.421875 0-8 3.578125-8 8v112c0 4.421875 3.578125 8 8 8h64c4.421875 0 8-3.578125 8-8v-112c0-4.421875-3.578125-8-8-8zm0 0" fill="#78909c"/><path d="m112 32h-64c-4.417969 0-8 3.578125-8 8v112c0 4.421875 3.582031 8 8 8h64c4.417969 0 8-3.578125 8-8v-112c0-4.421875-3.582031-8-8-8zm0 0" fill="#90a4ae"/><path d="m317.65625 26.34375-16-16c-1.5-1.5-3.53125-2.34375-5.65625-2.34375h-24c-4.421875 0-8 3.578125-8 8v160c0 4.421875 3.578125 8 8 8h24c2.125 0 4.15625-.84375 5.65625-2.34375l16-16c1.5-1.5 2.34375-3.53125 2.34375-5.65625v-128c0-2.125-.84375-4.15625-2.34375-5.65625zm0 0" fill="#cfd8dc"/><path d="m317.65625 26.34375-16-16c-1.5-1.5-3.53125-2.34375-5.65625-2.34375h-24c-4.421875 0-8 3.578125-8 8v160c0 4.421875 3.578125 8 8 8h24c2.125 0 4.15625-.84375 5.65625-2.34375l16-16c1.5-1.5 2.34375-3.53125 2.34375-5.65625v-128c0-2.125-.84375-4.15625-2.34375-5.65625zm0 0" fill="#b0bec5"/><path d="m48 8h-24c-2.121094 0-4.15625.84375-5.65625 2.34375l-16 16c-1.5 1.5-2.34375 3.53125-2.34375 5.65625v128c0 2.125.84375 4.15625 2.34375 5.65625l16 16c1.5 1.5 3.535156 2.34375 5.65625 2.34375h24c4.417969 0 8-3.578125 8-8v-160c0-4.421875-3.582031-8-8-8zm0 0" fill="#cfd8dc"/><path d="m184 160v256c0 4.398438-3.601562 8-8 8h-32c-4.398438 0-8-3.601562-8-8v-256c0-4.398438 3.601562-8 8-8h32c4.398438 0 8 3.601562 8 8zm0 0" fill="#37474f"/><path d="m176 152h-16v272h16c4.398438 0 8-3.601562 8-8v-256c0-4.398438-3.601562-8-8-8zm0 0" fill="#263238"/><path d="m192 408h-64c-4.417969 0-8 3.578125-8 8v40c0 4.421875 3.582031 8 8 8h64c4.421875 0 8-3.578125 8-8v-40c0-4.421875-3.578125-8-8-8zm0 0" fill="#faa629"/><path d="m192 408h-32v56h32c4.421875 0 8-3.578125 8-8v-40c0-4.421875-3.578125-8-8-8zm0 0" fill="#f78c1e"/><path d="m176 0h-32c-4.417969 0-8 3.578125-8 8v24c0 4.421875 3.582031 8 8 8h32c4.421875 0 8-3.578125 8-8v-24c0-4.421875-3.578125-8-8-8zm0 0" fill="#37474f"/><path d="m176 0h-16v40h16c4.421875 0 8-3.578125 8-8v-24c0-4.421875-3.578125-8-8-8zm0 0" fill="#263238"/><g fill="#faa629"><path d="m184 220.640625v22.71875l-48-48.078125v-22.5625zm0 0"/><path d="m184 300.640625v22.71875l-48-48v-22.71875zm0 0"/><path d="m184 380.640625v22.71875l-48-48v-22.71875zm0 0"/></g><path d="m184 220.640625-24-23.960937v22.640624l24 24.039063zm0 0" fill="#f78c1e"/><path d="m184 300.640625-24-24v22.71875l24 24zm0 0" fill="#f78c1e"/><path d="m184 380.640625-24-24v22.71875l24 24zm0 0" fill="#f78c1e"/><path d="m208 24h-96c-4.417969 0-8 3.578125-8 8v128c0 4.421875 3.582031 8 8 8h96c4.421875 0 8-3.578125 8-8v-128c0-4.421875-3.578125-8-8-8zm0 0" fill="#cfd8dc"/><path d="m208 24h-48v144h48c4.421875 0 8-3.578125 8-8v-128c0-4.421875-3.578125-8-8-8zm0 0" fill="#b0bec5"/></svg>