<svg height="464pt" viewBox="0 -80 464.01062 464" width="464pt" xmlns="http://www.w3.org/2000/svg"><path d="m159.769531 189.660156c-1.421875-1.957031-3.65625-3.167968-6.070312-3.289062-3.242188-.1875-81.6875-2.945313-130.304688 101.660156-1.789062 3.851562-.257812 8.429688 3.492188 10.429688 6.15625 3.285156 13.078125 5.019531 20.007812 5.019531h41.117188c1.820312 0 3.578125-.617188 5-1.753907 49.867187-39.894531 67.289062-102.625 68-105.277343.632812-2.335938.179687-4.832031-1.242188-6.789063zm0 0" fill="#263238"/><path d="m382.808594 103c-10.15625-16.320312-23.917969-30.160156-40.078125-41.679688-107.679688-77.601562-324.878907-59.839843-335.441407-58.960937-3.679687.320313-6.636718 3.199219-7.1992182 6.800781-.5585938 3.679688 1.5195312 7.277344 4.9609372 8.640625 19.121094 7.597657 36.238281 18.71875 49.839844 31.4375 18.078125 16.882813 29.839844 36.640625 31.039063 54.882813-11.199219 11.917968-26.078126 32.476562-40.320313 56.957031-15.917969 27.199219-30.957031 59.28125-39.277344 89.601563-5.203125 18.71875 3.277344 38.398437 20.476563 47.757812 1.203125.640625 2.5625.960938 3.84375.960938.878906 0 1.679687-.160157 2.476562-.398438 2.160156-.722656 3.839844-2.242188 4.800782-4.242188 43.761718-94.238281 112.082031-92.480468 114.878906-92.398437 5.683594.320313 119.28125 6.160156 191.921875-49.121094 14.878906-11.199219 28-24.960937 38.160156-41.917969 1.519531-2.5625 1.519531-5.761718-.082031-8.320312zm0 0" fill="#cfd8dc"/><path d="m83.097656 107.277344c-10.8125 12.214844-24.402344 31.308594-37.488281 53.800781-15.917969 27.199219-30.957031 59.28125-39.277344 89.601563-5.203125 18.71875 3.277344 38.398437 20.476563 47.757812 1.203125.640625 2.5625.960938 3.84375.960938.878906 0 1.679687-.160157 2.476562-.398438 2.160156-.722656 3.839844-2.242188 4.800782-4.242188 43.761718-94.238281 112.082031-92.480468 114.878906-92.398437 5.683594.320313 119.28125 6.160156 191.921875-49.121094 14.878906-11.199219 28-24.960937 38.160156-41.917969.738281-1.246093 1.101563-2.640624 1.113281-4.042968zm0 0" fill="#b0bec5"/><path d="m456.011719 99.21875h-17v-6.5c0-4.417969-3.578125-8-8-8s-8 3.582031-8 8v6.5h-7v-18c0-4.417969-3.578125-8-8-8s-8 3.582031-8 8v18h-24c-4.421875 0-8 3.582031-8 8s3.578125 8 8 8h24v18c0 4.417969 3.578125 8 8 8s8-3.582031 8-8v-18h7v6.5c0 4.417969 3.578125 8 8 8s8-3.582031 8-8v-6.5h17c4.421875 0 8-3.582031 8-8s-3.578125-8-8-8zm0 0" fill="#607d8b"/><path d="m326.511719 99.21875h-92.308594c-3.769531-19.894531-21.222656-35-42.191406-35-20.972657 0-38.425781 15.105469-42.191407 35h-79.816406c-4.421875 0-8 3.582031-8 8s3.578125 8 8 8h79.816406c3.765626 19.890625 21.21875 35 42.191407 35 20.96875 0 38.421875-15.109375 42.191406-35h92.308594c4.421875 0 8-3.582031 8-8s-3.578125-8-8-8zm-134.5 35c-14.890625 0-27-12.113281-27-27s12.109375-27 27-27 27 12.113281 27 27-12.109375 27-27 27zm0 0" fill="#faa629"/><path d="m219.003906 107.277344c-.035156 14.859375-12.125 26.941406-26.992187 26.941406-14.871094 0-26.960938-12.082031-26.996094-26.941406h-103c.035156 4.390625 3.585937 7.941406 7.988281 7.941406h79.816406c3.765626 19.890625 21.21875 35 42.191407 35 20.96875 0 38.421875-15.109375 42.191406-35h92.308594c4.398437 0 7.953125-3.550781 7.988281-7.941406zm0 0" fill="#f78c1e"/><path d="m200.011719 107.21875c0 4.417969-3.582031 8-8 8s-8-3.582031-8-8 3.582031-8 8-8 8 3.582031 8 8zm0 0" fill="#607d8b"/><path d="m382.890625 111.320312c-10.160156 16.957032-23.28125 30.71875-38.160156 41.917969l-4.160157-1.4375c-.960937-.320312-1.839843-.882812-2.640624-1.601562-12.320313-10.878907-19.4375-26.558594-19.4375-42.960938 0-15.839843 6.71875-31.199219 18.316406-42.078125.402344-.320312.800781-.640625 1.203125-.882812l4.71875-2.957032c16.160156 11.519532 29.921875 25.359376 40.078125 41.679688 1.601562 2.558594 1.601562 5.757812.082031 8.320312zm0 0" fill="#607d8b"/><path d="m384.003906 107.277344h-65.511718c.011718 16.386718 7.128906 32.050781 19.4375 42.921875.800781.71875 1.679687 1.28125 2.640624 1.601562l4.160157 1.4375c13.683593-10.300781 25.765625-22.894531 35.539062-38.019531h19.742188v18c0 4.417969 3.578125 8 8 8s8-3.582031 8-8v-18h7v6.5c0 4.417969 3.578125 8 8 8s8-3.582031 8-8v-6.5h17c4.398437 0 7.953125-3.550781 7.988281-7.941406zm0 0" fill="#546f7a"/><path d="m85.929688 104.121094c-11.199219 11.917968-26.078126 32.476562-40.320313 56.957031-26.480469-59.839844-2.957031-97.679687 9.28125-111.839844 18.078125 16.882813 29.839844 36.640625 31.039063 54.882813zm0 0" fill="#37474f"/><path d="m184.023438 107.277344c.035156 4.390625 3.589843 7.941406 7.988281 7.941406 4.394531 0 7.953125-3.550781 7.988281-7.941406zm0 0" fill="#546f7a"/><path d="m33.625 107.277344c-.230469 15.308594 2.878906 33.222656 11.984375 53.800781 13.085937-22.492187 26.675781-41.585937 37.488281-53.800781zm0 0" fill="#263238"/></svg>