<svg height="464pt" viewBox="-18 0 464 464" width="464pt" xmlns="http://www.w3.org/2000/svg"><path d="m289.90625 146.875c-2.046875 0-4.09375-.78125-5.65625-2.34375-3.125-3.125-3.125-8.1875 0-11.3125l125.84375-125.84375c3.125-3.125 8.1875-3.125 11.3125 0s3.125 8.1875 0 11.3125l-125.84375 125.84375c-1.5625 1.5625-3.609375 2.34375-5.65625 2.34375zm0 0" fill="#607d8b"/><path d="m421.40625 7.375c3.125 3.125 3.125 8.1875 0 11.3125l-125.84375 125.84375c-1.5625 1.5625-3.609375 2.34375-5.65625 2.34375s-4.09375-.78125-5.65625-2.34375" fill="#546f7a"/><path d="m194.886719 183.554688-20.136719-20.132813c-3.125-3.125-8.1875-3.125-11.3125 0l-70.46875 70.46875c-3.125 3.125-3.125 8.1875 0 11.3125l20.132812 20.140625c1.5 1.5 3.535157 2.34375 5.65625 2.34375 2.121094 0 4.15625-.84375 5.65625-2.34375l70.472657-70.476562c1.5-1.5 2.34375-3.53125 2.34375-5.65625s-.84375-4.15625-2.34375-5.65625zm0 0" fill="#607d8b"/><path d="m318.078125 259.679688c0 2.160156-.878906 4.160156-2.398437 5.679687l-40.238282 40.242187c-1.601562 1.597657-3.601562 2.316407-5.683594 2.316407-2 0-4.078124-.71875-5.679687-2.316407l-9.4375-9.441406-35.839844-35.839844c-3.121093-3.121093-3.121093-8.238281 0-11.359374l40.238281-40.242188c3.199219-3.117188 8.242188-3.117188 11.359376 0l45.28125 45.28125c1.519531 1.519531 2.398437 3.601562 2.398437 5.679688zm0 0" fill="#546f7a"/><g fill="#263238"><path d="m230.789062 272.308594 51.601563-51.597656 11.28125 11.277343-51.601563 51.601563zm0 0"/><path d="m248.285156 289.804688 51.601563-51.601563 11.277343 11.28125-51.597656 51.601563zm0 0"/><path d="m189.230469 358.289062c-2.046875 0-4.09375-.78125-5.65625-2.34375-3.125-3.125-3.125-8.1875 0-11.3125l36.773437-36.773437-13.539062-40.609375c-1.398438-4.195312.867187-8.726562 5.058594-10.117188 4.210937-1.421874 8.726562.867188 10.121093 5.054688l15.097657 45.304688c.960937 2.875.210937 6.046874-1.929688 8.1875l-40.269531 40.265624c-1.5625 1.5625-3.609375 2.34375-5.65625 2.34375zm0 0"/></g><path d="m206.886719 377.960938-25.167969-75.5c-1.394531-4.1875-5.910156-6.453126-10.121094-5.054688-4.191406 1.390625-6.457031 5.921875-5.058594 10.117188l1.265626 3.792968-48.421876 48.421875-.003906-.003906c-3.125-3.125-8.1875-3.125-11.3125 0s-3.125 8.1875 0 11.3125l50.339844 50.335937c1.5625 1.5625 3.609375 2.34375 5.65625 2.34375s4.09375-.78125 5.65625-2.34375l35.234375-35.234374c2.144531-2.140626 2.890625-5.3125 1.933594-8.1875zm0 0" fill="#f78c1e"/><path d="m204.335938 312.992188c-.523438 0-1.050782-.046876-1.574219-.15625l-25.167969-5.039063c-2.894531-.578125-5.234375-2.703125-6.085938-5.523437-.855468-2.828126-.085937-5.890626 2-7.976563l10.066407-10.0625c3.125-3.125 8.1875-3.125 11.3125 0l15.101562 15.101563c2.492188 2.492187 3.0625 6.320312 1.398438 9.429687-1.414063 2.640625-4.144531 4.226563-7.050781 4.226563zm0 0" fill="#546f7a"/><path d="m169.09375 388.492188c-2.046875 0-4.09375-.78125-5.65625-2.34375l-20.132812-20.132813c-3.125-3.125-3.125-8.1875 0-11.3125s8.1875-3.125 11.3125 0l20.132812 20.132813c3.125 3.125 3.125 8.1875 0 11.3125-1.5625 1.5625-3.609375 2.34375-5.65625 2.34375zm0 0" fill="#263238"/><path d="m119.359375 371.039062-11.601563 11.601563 8.5625 25.519531c.878907 2.878906.160157 6.078125-2 8.160156l-45.28125 45.359376c-1.519531 1.519531-3.597656 2.320312-5.679687 2.320312-2 0-4.078125-.800781-5.601563-2.320312l-24.558593-24.558594-11.359375-11.363282-19.441406-19.4375c-1.519532-1.519531-2.398438-3.601562-2.398438-5.679687 0-2.160156.878906-4.160156 2.398438-5.679687l52.082031-52.160157 18.320312-18.320312c3.039063-2.960938 8.320313-2.960938 11.359375 0l35.199219 35.277343c3.121094 3.121094 3.121094 8.160157 0 11.28125zm0 0" fill="#607d8b"/><path d="m94.226562 334.570312-81.785156 81.789063 9.398438 9.398437 11.359375 11.363282 24.558593 24.558594c1.523438 1.519531 3.601563 2.320312 5.601563 2.320312 2.082031 0 4.160156-.800781 5.679687-2.320312l45.28125-45.359376c2.160157-2.082031 2.878907-5.28125 2-8.160156l-8.5625-25.519531 11.601563-11.601563c3.121094-3.117187 3.121094-8.160156 0-11.28125zm0 0" fill="#546f7a"/><path d="m79.121094 391.199219-45.921875 45.921875-11.359375-11.359375 42.71875-42.722657-10.078125-40.238281 13.199219-13.199219 13.519531 54c.71875 2.71875-.078125 5.597657-2.078125 7.597657zm0 0" fill="#37474f"/><path d="m73.992188 354.808594-13.199219 13.195312 3.765625 15.035156-42.71875 42.71875 11.359375 11.363282 45.921875-45.921875c2-2 2.800781-4.878907 2.078125-7.597657zm0 0" fill="#263238"/><path d="m322.992188 162.914062c-.625-4.375-4.695313-7.421874-9.054688-6.789062-4.375.625-7.414062 4.679688-6.789062 9.054688l.851562 5.9375-24.136719 24.140624-9.941406 1.101563c-4.390625.492187-7.554687 4.445313-7.070313 8.835937.453126 4.09375 3.921876 7.117188 7.945313 7.117188.289063 0 .59375-.015625.890625-.046875l45.304688-5.03125c2.15625-.242187 4.117187-1.34375 5.445312-3.054687 1.320312-1.710938 1.898438-3.890626 1.59375-6.03125zm0 0" fill="#f78c1e"/><path d="m210 220c-.320312.320312-.960938.320312-1.28125 0s-.320312-.878906 0-1.199219c.242188-.160156.402344-.242187.640625-.242187.242187 0 .480469.082031.640625.242187.320312.320313.320312.878907 0 1.199219zm0 0" fill="#b0bec5"/><path d="m250.238281 178.480469v.078125l-1.199219 1.203125c-.398437-.320313-.398437-.882813 0-1.203125.160157-.238282.402344-.320313.640626-.320313.160156 0 .398437.082031.558593.242188zm0 0" fill="#b0bec5"/><path d="m320.71875 158.398438-50.320312-50.316407c-3.117188-3.121093-8.160157-3.121093-11.359376 0l-201.28125 201.277344c-1.519531 1.519531-2.398437 3.601563-2.398437 5.679687 0 2.160157.878906 4.160157 2.398437 5.679688l50.320313 50.320312c1.523437 1.601563 3.601563 2.320313 5.679687 2.320313 2 0 4.082032-.71875 5.601563-2.320313l201.359375-201.359374c1.519531-1.441407 2.320312-3.519532 2.320312-5.601563 0-2.160156-.800781-4.160156-2.320312-5.679687zm-191.917969 161.683593-20.082031-20.160156 55.359375-55.363281 20.082031 20.160156zm91.277344-90c-2.957031 2.957031-6.878906 4.476563-10.71875 4.476563s-7.757813-1.519532-10.640625-4.476563c-5.917969-5.84375-5.917969-15.441406-.078125-21.363281 5.757813-5.679688 15.679687-5.679688 21.4375 0 5.839844 5.921875 5.839844 15.519531 0 21.363281zm40.242187-40.242187c-2.960937 2.960937-6.800781 4.398437-10.71875 4.398437-3.84375 0-7.683593-1.4375-10.640624-4.398437-5.921876-5.917969-5.921876-15.519532 0-21.359375 5.839843-5.921875 15.4375-5.921875 21.359374 0 2.960938 2.878906 4.480469 6.800781 4.480469 10.640625 0 3.917968-1.519531 7.757812-4.480469 10.71875zm0 0" fill="#b0bec5"/><path d="m295.558594 133.238281-35.238282 35.242188c2.960938 2.878906 4.480469 6.800781 4.480469 10.640625 0 3.917968-1.519531 7.757812-4.480469 10.71875-2.960937 2.960937-6.800781 4.398437-10.71875 4.398437-3.84375 0-7.683593-1.4375-10.640624-4.398437l-18.882813 18.878906c5.839844 5.921875 5.839844 15.519531 0 21.363281-2.957031 2.957031-6.878906 4.476563-10.71875 4.476563s-7.757813-1.519532-10.640625-4.476563l-24.578125 24.578125 10.019531 10.058594-55.359375 55.363281-10.019531-10.0625-35.863281 35.859375 25.160156 25.160156c1.523437 1.601563 0 0 5.632813 5.648438 5.648437-5.648438 4.128906-4.046875 5.648437-5.648438l201.359375-201.359374c1.519531-1.441407 2.320312-3.519532 2.320312-5.601563 0-2.160156-.800781-4.160156-2.320312-5.679687zm0 0" fill="#90a4ae"/><path d="m184.160156 264.71875-55.359375 55.363281-20.082031-20.164062 55.359375-55.359375zm0 0" fill="#37474f"/><path d="m118.78125 310.019531 10.019531 10.0625 55.359375-55.363281-10.019531-10.058594zm0 0" fill="#263238"/><path d="m220.078125 208.71875c-5.757813-5.679688-15.679687-5.679688-21.4375 0-5.839844 5.921875-5.839844 15.519531.078125 21.359375 2.882812 2.960937 6.800781 4.480469 10.640625 4.480469s7.761719-1.519532 10.71875-4.480469c5.839844-5.839844 5.839844-15.4375 0-21.359375zm0 0" fill="#37474f"/><path d="m198.71875 230.082031c2.882812 2.957031 6.800781 4.476563 10.640625 4.476563s7.761719-1.519532 10.71875-4.476563c5.84375-5.84375 5.84375-15.441406 0-21.363281zm0 0" fill="#263238"/><path d="m260.320312 168.480469c-5.921874-5.921875-15.519531-5.921875-21.359374 0-5.921876 5.839843-5.921876 15.441406 0 21.359375 2.957031 2.960937 6.796874 4.398437 10.640624 4.398437 3.917969 0 7.757813-1.4375 10.71875-4.398437 2.960938-2.960938 4.480469-6.800782 4.480469-10.71875 0-3.839844-1.519531-7.761719-4.480469-10.640625zm0 0" fill="#37474f"/><path d="m238.960938 189.839844c2.957031 2.960937 6.796874 4.398437 10.640624 4.398437 3.917969 0 7.757813-1.4375 10.71875-4.398437 2.960938-2.960938 4.480469-6.800782 4.480469-10.71875 0-3.839844-1.519531-7.761719-4.480469-10.640625zm0 0" fill="#263238"/><path d="m405.679688 41.171875c-2.046876 0-4.09375-.78125-5.65625-2.34375l-10.070313-10.070313c-3.125-3.125-3.125-8.1875 0-11.3125l15.101563-15.101562c3.125-3.125 8.1875-3.125 11.3125 0l10.070312 10.070312c3.125 3.125 3.125 8.1875 0 11.3125l-15.101562 15.101563c-1.5625 1.5625-3.609376 2.34375-5.65625 2.34375zm0 0" fill="#faa629"/><path d="m421.414062 7.386719-26.414062 26.414062 5.023438 5.027344c1.5625 1.5625 3.609374 2.34375 5.65625 2.34375 2.046874 0 4.09375-.78125 5.65625-2.34375l15.101562-15.101563c3.125-3.125 3.125-8.1875 0-11.3125zm0 0" fill="#f78c1e"/><path d="m189.828125 148.359375-15.039063-15.117187c-1.5-1.507813-3.535156-2.359376-5.660156-2.359376-.003906 0-.007812 0-.011718 0-2.121094 0-4.15625.84375-5.65625 2.34375l-100.71875 100.640626c-1.5 1.5-2.34375 3.53125-2.34375 5.65625s.84375 4.15625 2.34375 5.65625l15.121093 15.117187c1.5625 1.5625 3.609375 2.34375 5.65625 2.34375s4.09375-.78125 5.65625-2.34375l100.636719-100.640625c3.117188-3.117188 3.125-8.171875.015625-11.296875zm0 0" fill="#b0bec5"/><path d="m235.164062 113.054688-25.195312-25.117188c-3.125-3.117188-8.183594-3.109375-11.304688.007812l-40.242187 40.242188c-3.125 3.125-3.125 8.1875 0 11.3125l25.121094 25.195312c1.5625 1.5625 3.609375 2.34375 5.65625 2.34375s4.09375-.78125 5.65625-2.34375l40.316406-40.320312c1.5-1.5 2.34375-3.539062 2.34375-5.664062s-.851563-4.15625-2.351563-5.65625zm0 0" fill="#faa629"/><path d="m69.019531 228.820312c-1.5-1.5-3.535156-2.34375-5.660156-2.34375h-.003906c-2.125 0-4.164063.851563-5.664063 2.351563l-20.082031 20.164063c-3.109375 3.125-3.109375 8.171874 0 11.296874l25.121094 25.203126c1.5 1.5 3.539062 2.351562 5.660156 2.351562h.007813c2.121093 0 4.15625-.84375 5.65625-2.34375l20.160156-20.164062c3.125-3.125 3.125-8.1875 0-11.3125zm0 0" fill="#faa629"/></svg>