<svg height="464pt" viewBox="-1 0 464 464" width="464pt" xmlns="http://www.w3.org/2000/svg"><path d="m438.09375 15.359375c-15.601562-12.800781-36-18-56.160156-14.078125-26.320313 5.117188-47.519532 26.238281-52.640625 52.636719-4.160157 21.203125 1.601562 42.160156 15.679687 58v24.082031c0 13.199219 10.71875 24 24 24h52.640625c13.28125 0 24-10.800781 24-24v-24.082031c10.960938-12.316407 16.960938-28.078125 16.960938-44.636719 0-20.160156-8.882813-39.042969-24.480469-51.921875zm0 0" fill="#37474f"/><path d="m438.09375 15.359375c-12.152344-9.972656-27.226562-15.257813-42.824219-15.2851562v159.9257812h26.34375c13.28125 0 24-10.800781 24-24v-24.082031c10.960938-12.316407 16.960938-28.078125 16.960938-44.636719 0-20.160156-8.882813-39.042969-24.480469-51.921875zm0 0" fill="#263238"/><path d="m202.652344 8v46.640625c0 4.480469-3.597656 8-8 8h-84c-4.398438 0-8-3.519531-8-8v-46.640625c0-4.398438 3.601562-8 8-8h84c4.402344 0 8 3.601562 8 8zm0 0" fill="#faa629"/><path d="m194.652344 0h-41.988282v62.640625h41.988282c4.402344 0 8-3.519531 8-8v-46.640625c0-4.398438-3.597656-8-8-8zm0 0" fill="#f78c1e"/><path d="m146.652344 36v26.640625h-16v-26.640625c0-4.398438 3.601562-8 8-8 4.402344 0 8 3.601562 8 8zm0 0" fill="#607d8b"/><path d="m174.652344 0v26.640625c0 4.480469-3.597656 8-8 8-4.398438 0-8-3.519531-8-8v-26.640625zm0 0" fill="#546f7a"/><path d="m222.664062 130.664062c-11.027343 0-20-8.96875-20-20v-28c0-4.421874-3.582031-8-8-8h-84c-4.417968 0-8 3.578126-8 8v28c0 11.03125-8.972656 20-20 20-45.582031 0-82.664062 37.085938-82.664062 82.671876v214.664062c0 19.851562 16.148438 36 36 36h233.332031c19.851563 0 36-16.148438 36-36v-214.664062c0-45.585938-37.085937-82.671876-82.667969-82.671876zm0 0" fill="#cfd8dc"/><path d="m222.664062 130.664062c-11.027343 0-20-8.96875-20-20v-28c0-4.421874-3.582031-8-8-8h-42v389.335938h116.667969c19.851563 0 36-16.148438 36-36v-214.664062c0-45.585938-37.085937-82.671876-82.667969-82.671876zm0 0" fill="#b0bec5"/><path d="m192 46.664062h-78.667969c-11.027343 0-20 8.96875-20 20v4c0 11.03125 8.972657 20 20 20h78.667969c11.027344 0 20-8.96875 20-20v-4c0-11.03125-8.972656-20-20-20zm0 0" fill="#90a4ae"/><path d="m192 46.664062h-39.332031v44h39.332031c11.027344 0 20-8.96875 20-20v-4c0-11.03125-8.972656-20-20-20zm0 0" fill="#78909c"/><path d="m392.011719 120v40h-16v-40c0-4.398438 3.601562-8 8-8 4.402343 0 8 3.601562 8 8zm0 0" fill="#faa629"/><path d="m416.011719 120v40h-16v-40c0-4.398438 3.601562-8 8-8 4.402343 0 8 3.601562 8 8zm0 0" fill="#f78c1e"/><path d="m392 64c0 8.835938-7.164062 16-16 16s-16-7.164062-16-16 7.164062-16 16-16 16 7.164062 16 16zm0 0" fill="#faa629"/><path d="m432 64c0 8.835938-7.164062 16-16 16s-16-7.164062-16-16 7.164062-16 16-16 16 7.164062 16 16zm0 0" fill="#f78c1e"/><path d="m267.015625 263.570312c-9.507813-17.234374-31.402344-34.6875-54.84375-34.6875-32.640625 0-52.683594 21.617188-59.929687 40.125-.984376 2.515626-.632813 5.351563.933593 7.554688 9.335938 13.117188 25.246094 30.554688 55.476563 30.554688 37.183594 0 52.6875-21.554688 58.621094-34.40625.488281-1.046876.738281-2.195313.738281-3.351563v-1.921875c0-1.351562-.34375-2.679688-.996094-3.867188zm0 0" fill="#607d8b"/><path d="m267.015625 263.570312c-9.507813-17.234374-31.402344-34.6875-54.84375-34.6875-32.066406 0-51.945313 20.859376-59.507813 39.140626v7.59375c.167969.316406.300782.648437.511719.945312 9.335938 13.117188 25.246094 30.554688 55.476563 30.554688 37.183594 0 52.6875-21.554688 58.621094-34.40625.488281-1.046876.738281-2.195313.738281-3.351563v-1.921875c0-1.351562-.34375-2.679688-.996094-3.867188zm0 0" fill="#546f7a"/><path d="m261.730469 261.546875c-3.683594-.78125-7.402344 1.039063-8.980469 4.460937-5.292969 11.453126-17.238281 25.109376-44.097656 25.109376-22.449219 0-34.054688-12.046876-42.292969-23.609376l-2.382813-3.507812c-11.375-17.28125-28.777343-37.117188-62.683593-37.117188-27.4375 0-51.75 18.320313-62.722657 35.34375-.835937 1.296876-1.277343 2.796876-1.277343 4.335938v142.796875c0 9.53125 7.789062 17.28125 17.359375 17.28125h196c9.570312 0 17.359375-7.75 17.359375-17.28125v-140c0-3.757813-2.613281-7.007813-6.28125-7.8125zm0 0" fill="#37474f"/><path d="m261.730469 261.546875c-3.683594-.78125-7.402344 1.039063-8.980469 4.460937-5.292969 11.453126-17.238281 25.109376-44.097656 25.109376-22.449219 0-34.054688-12.046876-42.292969-23.609376l-2.382813-3.507812c-3.207031-4.871094-6.914062-9.929688-11.3125-14.703125v177.34375h97.988282c9.570312 0 17.359375-7.75 17.359375-17.28125v-140c0-3.757813-2.613281-7.007813-6.28125-7.8125zm0 0" fill="#263238"/><path d="m110.664062 289.335938c-14.703124 0-26.664062 11.960937-26.664062 26.664062s11.960938 26.664062 26.664062 26.664062c14.703126 0 26.667969-11.960937 26.667969-26.664062s-11.964843-26.664062-26.667969-26.664062zm0 0" fill="#faa629"/><path d="m194.664062 336c-9.558593 0-17.332031 7.773438-17.332031 17.335938 0 9.554687 7.773438 17.328124 17.332031 17.328124 9.558594 0 17.335938-7.773437 17.335938-17.328124 0-9.5625-7.777344-17.335938-17.335938-17.335938zm0 0" fill="#f78c1e"/></svg>